<svg width="1064" height="1267" viewBox="0 0 1064 1267" fill="none" xmlns="http://www.w3.org/2000/svg">
<g opacity="0.29827">
<path d="M1008.08 934.448L443.182 414.142V23.8104L28.1096 1C24.9043 8.54402 4.36709 30.2855 7.57176 42.404C11.43 56.898 30.8387 52.2648 36.4776 61.5906C43.0661 72.58 31.7291 117.251 28.3457 130.14C21.8759 154.555 7.09676 174.335 2.82235 198.75C-4.35982 239.737 10.1824 236.47 37.7242 262.073C84.141 305.258 46.9244 350.048 58.6176 400.777C68.1146 442.122 109.605 463.446 124.8 504.789C136.553 536.63 152.697 544.767 177.746 568.053C177.153 553.916 164.51 512.215 188.253 515.898C211.817 519.522 202.736 554.331 207.247 568.885C211.045 581.003 237.933 605.239 215.616 616.407C208.196 620.09 187.066 605.418 178.577 601.497C184.572 620.209 180.774 639.633 190.271 657.513C201.608 678.838 213.835 670.641 228.853 682.225C244.344 694.164 242.683 707.886 235.797 725.945C228.615 744.775 221.196 741.865 232.592 764.557C240.843 780.951 254.85 801.742 266.9 814.216C273.904 821.463 281.502 823.127 288.506 832.393C294.323 840.115 292.067 850.214 299.012 857.164C310.883 869.104 331.006 869.282 340.384 884.904C350.831 902.309 338.96 915.437 369.706 913.833C371.309 948.643 377.897 980.185 377.541 1014.99C394.695 1021.82 422.414 1013.69 440.399 1010.06C458.266 1034.18 481.355 1017.43 501.774 1030.56C510.678 1036.26 508.837 1050.52 514.239 1055.51C525.339 1065.72 533.529 1059.31 547.301 1062.87C557.51 1065.49 565.404 1072.97 575.138 1075.7C584.338 1078.26 599.475 1072.26 606.301 1080.4C614.492 1090.14 600.78 1107.96 613.127 1115.8C623.395 1122.33 638.115 1106.77 648.088 1109.03C659.721 1111.7 693.079 1142.17 701.271 1152.21C710.59 1163.68 719.969 1185.06 725.25 1199.79C733.501 1222.84 732.373 1234.13 749.408 1251C760.27 1261.75 749.942 1262.52 767.63 1265.67C779.204 1267.75 794.518 1259.37 806.212 1258.07C830.549 1255.39 855.122 1260.03 879.102 1255.45C901.421 1251.18 922.729 1244.17 945.64 1240.9C965.465 1238.05 1000.37 1240.25 1017.94 1230.8C1036.99 1220.64 1038.71 1197.65 1011.17 1201.93C1008.97 1187.26 1018.77 1167 1007.85 1156.85C1023.04 1136.06 1028.56 1121.38 1030.93 1095.96C1032 1084.79 1032.48 1072.44 1038 1063.05C1043.4 1053.78 1058.59 1048.26 1061.56 1040.3C1066.13 1027.94 1058.83 1022.42 1053.25 1015.53C1049.69 1011.07 1039.54 1013.21 1036.63 1009.29C1031.23 1002.1 1036.57 994.678 1033.6 987.431C1024.94 966.462 1014.61 958.205 1008.08 934.444C1008.26 938.424 1008.44 942.463 1008.2 946.384" stroke="white" stroke-width="2" stroke-linecap="round" stroke-linejoin="round"/>
</g>
<path fill-rule="evenodd" clip-rule="evenodd" d="M730.5 1240C734.09 1240 737 1237.09 737 1233.5C737 1229.91 734.09 1227 730.5 1227C726.91 1227 724 1229.91 724 1233.5C724 1237.09 726.91 1240 730.5 1240Z" fill="#4AF6CD"/>
<path fill-rule="evenodd" clip-rule="evenodd" d="M577 1087C578.657 1087 580 1085.66 580 1084C580 1082.34 578.657 1081 577 1081C575.343 1081 574 1082.34 574 1084C574 1085.66 575.343 1087 577 1087Z" fill="#4AF6CD"/>
<path fill-rule="evenodd" clip-rule="evenodd" d="M680 1140C681.657 1140 683 1138.66 683 1137C683 1135.34 681.657 1134 680 1134C678.343 1134 677 1135.34 677 1137C677 1138.66 678.343 1140 680 1140Z" fill="#4AF6CD"/>
<path fill-rule="evenodd" clip-rule="evenodd" d="M373 983C374.657 983 376 981.657 376 980C376 978.343 374.657 977 373 977C371.343 977 370 978.343 370 980C370 981.657 371.343 983 373 983Z" fill="#4AF6CD"/>
<path fill-rule="evenodd" clip-rule="evenodd" d="M730.5 866C734.09 866 737 863.09 737 859.5C737 855.91 734.09 853 730.5 853C726.91 853 724 855.91 724 859.5C724 863.09 726.91 866 730.5 866Z" fill="#4AF6CD"/>
<path d="M487.086 1228.78C487.822 1228.78 488.451 1228.89 488.974 1229.1C489.496 1229.31 490.003 1229.63 490.494 1230.06L489.662 1230.99C489.246 1230.66 488.835 1230.42 488.43 1230.27C488.035 1230.11 487.608 1230.03 487.15 1230.03C486.574 1230.03 486.099 1230.17 485.726 1230.43C485.352 1230.7 485.166 1231.09 485.166 1231.6C485.166 1231.92 485.23 1232.19 485.358 1232.42C485.486 1232.63 485.72 1232.83 486.062 1233.01C486.414 1233.19 486.92 1233.38 487.582 1233.58C488.275 1233.8 488.851 1234.03 489.31 1234.27C489.768 1234.52 490.136 1234.86 490.414 1235.3C490.702 1235.72 490.846 1236.27 490.846 1236.93C490.846 1237.57 490.686 1238.13 490.366 1238.62C490.056 1239.11 489.603 1239.5 489.006 1239.78C488.419 1240.05 487.72 1240.19 486.91 1240.19C485.384 1240.19 484.136 1239.72 483.166 1238.77L483.998 1237.84C484.446 1238.2 484.899 1238.48 485.358 1238.67C485.816 1238.85 486.328 1238.94 486.894 1238.94C487.576 1238.94 488.142 1238.78 488.59 1238.45C489.038 1238.11 489.262 1237.62 489.262 1236.98C489.262 1236.61 489.192 1236.31 489.054 1236.08C488.915 1235.83 488.675 1235.62 488.334 1235.42C488.003 1235.23 487.518 1235.04 486.878 1234.85C485.747 1234.51 484.92 1234.1 484.398 1233.62C483.875 1233.14 483.614 1232.49 483.614 1231.66C483.614 1231.11 483.758 1230.61 484.046 1230.18C484.344 1229.74 484.755 1229.4 485.278 1229.15C485.811 1228.91 486.414 1228.78 487.086 1228.78ZM496.172 1231.38C497.356 1231.38 498.274 1231.77 498.924 1232.56C499.586 1233.35 499.916 1234.42 499.916 1235.78C499.916 1236.65 499.767 1237.42 499.468 1238.1C499.17 1238.76 498.738 1239.27 498.172 1239.65C497.607 1240.01 496.935 1240.19 496.156 1240.19C494.972 1240.19 494.05 1239.8 493.388 1239.01C492.727 1238.22 492.396 1237.15 492.396 1235.79C492.396 1234.92 492.546 1234.15 492.844 1233.49C493.143 1232.82 493.575 1232.3 494.14 1231.94C494.706 1231.56 495.383 1231.38 496.172 1231.38ZM496.172 1232.56C494.711 1232.56 493.98 1233.64 493.98 1235.79C493.98 1237.94 494.706 1239.01 496.156 1239.01C497.607 1239.01 498.332 1237.93 498.332 1235.78C498.332 1233.63 497.612 1232.56 496.172 1232.56ZM508.62 1240H507.356L507.244 1238.69C506.924 1239.21 506.556 1239.59 506.14 1239.84C505.724 1240.07 505.217 1240.19 504.62 1240.19C503.884 1240.19 503.308 1239.97 502.892 1239.52C502.476 1239.07 502.268 1238.44 502.268 1237.62V1231.57H503.74V1237.46C503.74 1238.03 503.841 1238.44 504.044 1238.69C504.247 1238.92 504.577 1239.04 505.036 1239.04C505.857 1239.04 506.561 1238.55 507.148 1237.58V1231.57H508.62V1240ZM515.917 1239.62C515.362 1240 514.733 1240.19 514.029 1240.19C513.314 1240.19 512.754 1239.99 512.349 1239.58C511.954 1239.17 511.757 1238.57 511.757 1237.79V1232.7H510.285V1231.57H511.757V1229.66L513.229 1229.49V1231.57H515.229L515.069 1232.7H513.229V1237.73C513.229 1238.17 513.303 1238.49 513.453 1238.69C513.613 1238.88 513.874 1238.98 514.237 1238.98C514.567 1238.98 514.941 1238.86 515.357 1238.64L515.917 1239.62ZM521.41 1231.38C522.178 1231.38 522.775 1231.61 523.202 1232.06C523.639 1232.52 523.858 1233.15 523.858 1233.95V1240H522.386V1234.16C522.386 1233.56 522.269 1233.14 522.034 1232.9C521.81 1232.65 521.479 1232.53 521.042 1232.53C520.605 1232.53 520.215 1232.66 519.874 1232.91C519.533 1233.17 519.213 1233.53 518.914 1234V1240H517.442V1228.19L518.914 1228.03V1232.74C519.575 1231.83 520.407 1231.38 521.41 1231.38ZM526.257 1235.62V1234.37H530.785V1235.62H526.257ZM535.429 1228.78C536.165 1228.78 536.795 1228.89 537.317 1229.1C537.84 1229.31 538.347 1229.63 538.837 1230.06L538.005 1230.99C537.589 1230.66 537.179 1230.42 536.773 1230.27C536.379 1230.11 535.952 1230.03 535.493 1230.03C534.917 1230.03 534.443 1230.17 534.069 1230.43C533.696 1230.7 533.509 1231.09 533.509 1231.6C533.509 1231.92 533.573 1232.19 533.701 1232.42C533.829 1232.63 534.064 1232.83 534.405 1233.01C534.757 1233.19 535.264 1233.38 535.925 1233.58C536.619 1233.8 537.195 1234.03 537.653 1234.27C538.112 1234.52 538.48 1234.86 538.757 1235.3C539.045 1235.72 539.189 1236.27 539.189 1236.93C539.189 1237.57 539.029 1238.13 538.709 1238.62C538.4 1239.11 537.947 1239.5 537.349 1239.78C536.763 1240.05 536.064 1240.19 535.253 1240.19C533.728 1240.19 532.48 1239.72 531.509 1238.77L532.341 1237.84C532.789 1238.2 533.243 1238.48 533.701 1238.67C534.16 1238.85 534.672 1238.94 535.237 1238.94C535.92 1238.94 536.485 1238.78 536.933 1238.45C537.381 1238.11 537.605 1237.62 537.605 1236.98C537.605 1236.61 537.536 1236.31 537.397 1236.08C537.259 1235.83 537.019 1235.62 536.677 1235.42C536.347 1235.23 535.861 1235.04 535.221 1234.85C534.091 1234.51 533.264 1234.1 532.741 1233.62C532.219 1233.14 531.957 1232.49 531.957 1231.66C531.957 1231.11 532.101 1230.61 532.389 1230.18C532.688 1229.74 533.099 1229.4 533.621 1229.15C534.155 1228.91 534.757 1228.78 535.429 1228.78ZM545.316 1231.38C546.084 1231.38 546.681 1231.61 547.108 1232.06C547.545 1232.52 547.764 1233.15 547.764 1233.95V1240H546.292V1234.16C546.292 1233.56 546.175 1233.14 545.94 1232.9C545.716 1232.65 545.385 1232.53 544.948 1232.53C544.511 1232.53 544.121 1232.66 543.78 1232.91C543.439 1233.17 543.119 1233.53 542.82 1234V1240H541.348V1228.19L542.82 1228.03V1232.74C543.481 1231.83 544.313 1231.38 545.316 1231.38ZM553.891 1231.38C555.075 1231.38 555.992 1231.77 556.643 1232.56C557.304 1233.35 557.635 1234.42 557.635 1235.78C557.635 1236.65 557.486 1237.42 557.187 1238.1C556.888 1238.76 556.456 1239.27 555.891 1239.65C555.326 1240.01 554.654 1240.19 553.875 1240.19C552.691 1240.19 551.768 1239.8 551.107 1239.01C550.446 1238.22 550.115 1237.15 550.115 1235.79C550.115 1234.92 550.264 1234.15 550.563 1233.49C550.862 1232.82 551.294 1232.3 551.859 1231.94C552.424 1231.56 553.102 1231.38 553.891 1231.38ZM553.891 1232.56C552.43 1232.56 551.699 1233.64 551.699 1235.79C551.699 1237.94 552.424 1239.01 553.875 1239.01C555.326 1239.01 556.051 1237.93 556.051 1235.78C556.051 1233.63 555.331 1232.56 553.891 1232.56ZM563.731 1231.38C564.03 1231.38 564.307 1231.41 564.563 1231.47L564.291 1232.91C564.035 1232.85 563.79 1232.82 563.555 1232.82C563.032 1232.82 562.611 1233.01 562.291 1233.39C561.971 1233.78 561.72 1234.37 561.539 1235.18V1240H560.067V1231.57H561.331L561.475 1233.28C561.699 1232.65 562.003 1232.18 562.387 1231.86C562.771 1231.54 563.219 1231.38 563.731 1231.38ZM572.122 1235.54C572.122 1235.78 572.112 1236.03 572.09 1236.29H566.714C566.778 1237.22 567.013 1237.9 567.418 1238.34C567.824 1238.77 568.346 1238.99 568.986 1238.99C569.392 1238.99 569.765 1238.93 570.106 1238.82C570.448 1238.7 570.805 1238.51 571.178 1238.26L571.818 1239.14C570.922 1239.84 569.941 1240.19 568.874 1240.19C567.701 1240.19 566.784 1239.81 566.122 1239.04C565.472 1238.27 565.146 1237.22 565.146 1235.87C565.146 1235 565.285 1234.22 565.562 1233.55C565.85 1232.87 566.256 1232.34 566.778 1231.95C567.312 1231.57 567.936 1231.38 568.65 1231.38C569.77 1231.38 570.629 1231.74 571.226 1232.48C571.824 1233.22 572.122 1234.23 572.122 1235.54ZM570.666 1235.1C570.666 1234.27 570.501 1233.64 570.17 1233.2C569.84 1232.76 569.344 1232.54 568.682 1232.54C567.477 1232.54 566.821 1233.43 566.714 1235.2H570.666V1235.1ZM581.076 1227.09V1241.63H579.748V1227.09H581.076ZM595.987 1228.98L595.827 1230.27H592.771V1240H591.251V1230.27H588.115V1228.98H595.987ZM599.954 1231.38C601.138 1231.38 602.055 1231.77 602.706 1232.56C603.367 1233.35 603.698 1234.42 603.698 1235.78C603.698 1236.65 603.548 1237.42 603.25 1238.1C602.951 1238.76 602.519 1239.27 601.954 1239.65C601.388 1240.01 600.716 1240.19 599.938 1240.19C598.754 1240.19 597.831 1239.8 597.17 1239.01C596.508 1238.22 596.178 1237.15 596.178 1235.79C596.178 1234.92 596.327 1234.15 596.626 1233.49C596.924 1232.82 597.356 1232.3 597.922 1231.94C598.487 1231.56 599.164 1231.38 599.954 1231.38ZM599.954 1232.56C598.492 1232.56 597.762 1233.64 597.762 1235.79C597.762 1237.94 598.487 1239.01 599.938 1239.01C601.388 1239.01 602.114 1237.93 602.114 1235.78C602.114 1233.63 601.394 1232.56 599.954 1232.56ZM612.657 1228.18V1240H611.361L611.217 1238.83C610.94 1239.26 610.593 1239.59 610.177 1239.84C609.761 1240.07 609.297 1240.19 608.785 1240.19C607.783 1240.19 606.999 1239.8 606.433 1239.01C605.879 1238.22 605.601 1237.16 605.601 1235.82C605.601 1234.96 605.735 1234.19 606.001 1233.52C606.268 1232.85 606.652 1232.33 607.153 1231.95C607.655 1231.57 608.241 1231.38 608.913 1231.38C609.777 1231.38 610.535 1231.72 611.185 1232.42V1228L612.657 1228.18ZM609.105 1239.02C609.553 1239.02 609.937 1238.92 610.257 1238.72C610.577 1238.51 610.887 1238.19 611.185 1237.78V1233.65C610.908 1233.29 610.609 1233.01 610.289 1232.83C609.98 1232.64 609.628 1232.54 609.233 1232.54C608.583 1232.54 608.076 1232.82 607.713 1233.36C607.361 1233.9 607.185 1234.71 607.185 1235.79C607.185 1236.88 607.351 1237.69 607.681 1238.22C608.012 1238.76 608.487 1239.02 609.105 1239.02ZM618.86 1231.38C620.044 1231.38 620.961 1231.77 621.612 1232.56C622.273 1233.35 622.604 1234.42 622.604 1235.78C622.604 1236.65 622.455 1237.42 622.156 1238.1C621.857 1238.76 621.425 1239.27 620.86 1239.65C620.295 1240.01 619.623 1240.19 618.844 1240.19C617.66 1240.19 616.737 1239.8 616.076 1239.01C615.415 1238.22 615.084 1237.15 615.084 1235.79C615.084 1234.92 615.233 1234.15 615.532 1233.49C615.831 1232.82 616.263 1232.3 616.828 1231.94C617.393 1231.56 618.071 1231.38 618.86 1231.38ZM618.86 1232.56C617.399 1232.56 616.668 1233.64 616.668 1235.79C616.668 1237.94 617.393 1239.01 618.844 1239.01C620.295 1239.01 621.02 1237.93 621.02 1235.78C621.02 1233.63 620.3 1232.56 618.86 1232.56ZM627.324 1231.38C627.9 1231.38 628.417 1231.46 628.876 1231.62C629.334 1231.78 629.772 1232.02 630.188 1232.34L629.564 1233.26C629.18 1233.02 628.812 1232.84 628.46 1232.72C628.118 1232.6 627.756 1232.54 627.372 1232.54C626.892 1232.54 626.513 1232.65 626.236 1232.85C625.958 1233.04 625.82 1233.31 625.82 1233.65C625.82 1233.99 625.948 1234.26 626.204 1234.45C626.47 1234.64 626.945 1234.83 627.628 1235.01C628.566 1235.24 629.265 1235.56 629.724 1235.97C630.193 1236.37 630.428 1236.93 630.428 1237.63C630.428 1238.46 630.102 1239.1 629.452 1239.54C628.812 1239.97 628.028 1240.19 627.1 1240.19C625.82 1240.19 624.758 1239.82 623.916 1239.09L624.7 1238.19C625.414 1238.74 626.204 1239.01 627.068 1239.01C627.622 1239.01 628.06 1238.9 628.38 1238.67C628.71 1238.44 628.876 1238.12 628.876 1237.73C628.876 1237.44 628.817 1237.21 628.7 1237.04C628.582 1236.86 628.38 1236.7 628.092 1236.58C627.804 1236.44 627.382 1236.29 626.828 1236.14C625.932 1235.91 625.281 1235.59 624.876 1235.2C624.481 1234.81 624.284 1234.3 624.284 1233.7C624.284 1233.26 624.412 1232.86 624.668 1232.51C624.934 1232.15 625.297 1231.87 625.756 1231.68C626.225 1231.48 626.748 1231.38 627.324 1231.38ZM631.788 1235.62V1234.37H636.316V1235.62H631.788ZM640.961 1228.78C641.697 1228.78 642.326 1228.89 642.849 1229.1C643.371 1229.31 643.878 1229.63 644.369 1230.06L643.537 1230.99C643.121 1230.66 642.71 1230.42 642.305 1230.27C641.91 1230.11 641.483 1230.03 641.025 1230.03C640.449 1230.03 639.974 1230.17 639.601 1230.43C639.227 1230.7 639.041 1231.09 639.041 1231.6C639.041 1231.92 639.105 1232.19 639.233 1232.42C639.361 1232.63 639.595 1232.83 639.937 1233.01C640.289 1233.19 640.795 1233.38 641.457 1233.58C642.15 1233.8 642.726 1234.03 643.185 1234.27C643.643 1234.52 644.011 1234.86 644.289 1235.3C644.577 1235.72 644.721 1236.27 644.721 1236.93C644.721 1237.57 644.561 1238.13 644.241 1238.62C643.931 1239.11 643.478 1239.5 642.881 1239.78C642.294 1240.05 641.595 1240.19 640.785 1240.19C639.259 1240.19 638.011 1239.72 637.041 1238.77L637.873 1237.84C638.321 1238.2 638.774 1238.48 639.233 1238.67C639.691 1238.85 640.203 1238.94 640.769 1238.94C641.451 1238.94 642.017 1238.78 642.465 1238.45C642.913 1238.11 643.137 1237.62 643.137 1236.98C643.137 1236.61 643.067 1236.31 642.929 1236.08C642.79 1235.83 642.55 1235.62 642.209 1235.42C641.878 1235.23 641.393 1235.04 640.753 1234.85C639.622 1234.51 638.795 1234.1 638.273 1233.62C637.75 1233.14 637.489 1232.49 637.489 1231.66C637.489 1231.11 637.633 1230.61 637.921 1230.18C638.219 1229.74 638.63 1229.4 639.153 1229.15C639.686 1228.91 640.289 1228.78 640.961 1228.78ZM652.559 1238.03C652.559 1238.37 652.618 1238.63 652.735 1238.8C652.853 1238.96 653.029 1239.08 653.263 1239.17L652.927 1240.19C652.49 1240.14 652.138 1240.02 651.871 1239.82C651.605 1239.63 651.407 1239.33 651.279 1238.93C650.714 1239.77 649.877 1240.19 648.767 1240.19C647.935 1240.19 647.279 1239.96 646.799 1239.49C646.319 1239.02 646.079 1238.41 646.079 1237.65C646.079 1236.75 646.399 1236.06 647.039 1235.58C647.69 1235.1 648.607 1234.86 649.791 1234.86H651.087V1234.24C651.087 1233.64 650.943 1233.22 650.655 1232.96C650.367 1232.7 649.925 1232.58 649.327 1232.58C648.709 1232.58 647.951 1232.73 647.055 1233.02L646.687 1231.95C647.733 1231.57 648.703 1231.38 649.599 1231.38C650.591 1231.38 651.333 1231.62 651.823 1232.11C652.314 1232.59 652.559 1233.28 652.559 1234.18V1238.03ZM649.103 1239.09C649.946 1239.09 650.607 1238.65 651.087 1237.78V1235.84H649.983C648.426 1235.84 647.647 1236.42 647.647 1237.57C647.647 1238.07 647.77 1238.45 648.015 1238.7C648.261 1238.96 648.623 1239.09 649.103 1239.09ZM659.551 1231.38C660.319 1231.38 660.916 1231.61 661.343 1232.06C661.78 1232.52 661.999 1233.15 661.999 1233.95V1240H660.527V1234.16C660.527 1233.56 660.415 1233.14 660.191 1232.9C659.967 1232.65 659.636 1232.53 659.199 1232.53C658.751 1232.53 658.356 1232.66 658.015 1232.91C657.673 1233.17 657.353 1233.54 657.055 1234.02V1240H655.583V1231.57H656.847L656.975 1232.82C657.273 1232.37 657.641 1232.02 658.079 1231.76C658.527 1231.5 659.017 1231.38 659.551 1231.38ZM669.214 1239.62C668.659 1240 668.03 1240.19 667.326 1240.19C666.611 1240.19 666.051 1239.99 665.646 1239.58C665.251 1239.17 665.054 1238.57 665.054 1237.79V1232.7H663.582V1231.57H665.054V1229.66L666.526 1229.49V1231.57H668.526L668.366 1232.7H666.526V1237.73C666.526 1238.17 666.6 1238.49 666.75 1238.69C666.91 1238.88 667.171 1238.98 667.534 1238.98C667.864 1238.98 668.238 1238.86 668.654 1238.64L669.214 1239.62ZM673.672 1231.38C674.856 1231.38 675.774 1231.77 676.424 1232.56C677.086 1233.35 677.416 1234.42 677.416 1235.78C677.416 1236.65 677.267 1237.42 676.968 1238.1C676.67 1238.76 676.238 1239.27 675.672 1239.65C675.107 1240.01 674.435 1240.19 673.656 1240.19C672.472 1240.19 671.55 1239.8 670.888 1239.01C670.227 1238.22 669.896 1237.15 669.896 1235.79C669.896 1234.92 670.046 1234.15 670.344 1233.49C670.643 1232.82 671.075 1232.3 671.64 1231.94C672.206 1231.56 672.883 1231.38 673.672 1231.38ZM673.672 1232.56C672.211 1232.56 671.48 1233.64 671.48 1235.79C671.48 1237.94 672.206 1239.01 673.656 1239.01C675.107 1239.01 675.832 1237.93 675.832 1235.78C675.832 1233.63 675.112 1232.56 673.672 1232.56ZM682.136 1231.38C682.712 1231.38 683.229 1231.46 683.688 1231.62C684.147 1231.78 684.584 1232.02 685 1232.34L684.376 1233.26C683.992 1233.02 683.624 1232.84 683.272 1232.72C682.931 1232.6 682.568 1232.54 682.184 1232.54C681.704 1232.54 681.325 1232.65 681.048 1232.85C680.771 1233.04 680.632 1233.31 680.632 1233.65C680.632 1233.99 680.76 1234.26 681.016 1234.45C681.283 1234.64 681.757 1234.83 682.44 1235.01C683.379 1235.24 684.077 1235.56 684.536 1235.97C685.005 1236.37 685.24 1236.93 685.24 1237.63C685.24 1238.46 684.915 1239.1 684.264 1239.54C683.624 1239.97 682.84 1240.19 681.912 1240.19C680.632 1240.19 679.571 1239.82 678.728 1239.09L679.512 1238.19C680.227 1238.74 681.016 1239.01 681.88 1239.01C682.435 1239.01 682.872 1238.9 683.192 1238.67C683.523 1238.44 683.688 1238.12 683.688 1237.73C683.688 1237.44 683.629 1237.21 683.512 1237.04C683.395 1236.86 683.192 1236.7 682.904 1236.58C682.616 1236.44 682.195 1236.29 681.64 1236.14C680.744 1235.91 680.093 1235.59 679.688 1235.2C679.293 1234.81 679.096 1234.3 679.096 1233.7C679.096 1233.26 679.224 1232.86 679.48 1232.51C679.747 1232.15 680.109 1231.87 680.568 1231.68C681.037 1231.48 681.56 1231.38 682.136 1231.38ZM687.701 1237.97C688.021 1237.97 688.288 1238.07 688.501 1238.29C688.714 1238.5 688.821 1238.76 688.821 1239.07C688.821 1239.4 688.725 1239.78 688.533 1240.21L687.461 1242.66H686.405L687.045 1240C686.906 1239.89 686.794 1239.76 686.709 1239.6C686.634 1239.44 686.597 1239.26 686.597 1239.07C686.597 1238.76 686.704 1238.5 686.917 1238.29C687.13 1238.07 687.392 1237.97 687.701 1237.97ZM699.331 1228.78C699.992 1228.78 700.547 1228.87 700.995 1229.04C701.454 1229.21 701.918 1229.49 702.387 1229.87L701.555 1230.85C700.883 1230.3 700.174 1230.03 699.427 1230.03C698.51 1230.03 697.768 1230.38 697.203 1231.09C696.648 1231.79 696.371 1232.92 696.371 1234.48C696.371 1235.99 696.648 1237.11 697.203 1237.84C697.758 1238.55 698.494 1238.91 699.411 1238.91C699.88 1238.91 700.291 1238.83 700.643 1238.67C700.995 1238.51 701.368 1238.29 701.763 1238L702.515 1238.96C702.174 1239.31 701.736 1239.61 701.203 1239.84C700.67 1240.07 700.056 1240.19 699.363 1240.19C698.467 1240.19 697.667 1239.97 696.963 1239.54C696.27 1239.09 695.726 1238.44 695.331 1237.58C694.947 1236.72 694.755 1235.69 694.755 1234.48C694.755 1233.27 694.958 1232.25 695.363 1231.39C695.768 1230.53 696.318 1229.88 697.011 1229.44C697.704 1229 698.478 1228.78 699.331 1228.78ZM710.3 1240L709.468 1237.23H705.292L704.46 1240H702.924L706.46 1228.98H708.38L711.9 1240H710.3ZM705.66 1236H709.1L707.388 1230.24L705.66 1236Z" fill="white"/>
<path d="M605.378 846.784C606.039 846.784 606.594 846.869 607.042 847.04C607.501 847.211 607.965 847.488 608.434 847.872L607.602 848.848C606.93 848.304 606.221 848.032 605.474 848.032C604.557 848.032 603.815 848.384 603.25 849.088C602.695 849.792 602.418 850.923 602.418 852.48C602.418 853.995 602.695 855.115 603.25 855.84C603.805 856.555 604.541 856.912 605.458 856.912C605.927 856.912 606.338 856.832 606.69 856.672C607.042 856.512 607.415 856.288 607.81 856L608.562 856.96C608.221 857.312 607.783 857.605 607.25 857.84C606.717 858.075 606.103 858.192 605.41 858.192C604.514 858.192 603.714 857.973 603.01 857.536C602.317 857.088 601.773 856.437 601.378 855.584C600.994 854.72 600.802 853.685 600.802 852.48C600.802 851.275 601.005 850.245 601.41 849.392C601.815 848.528 602.365 847.877 603.058 847.44C603.751 847.003 604.525 846.784 605.378 846.784ZM616.401 858H615.137L615.025 856.688C614.705 857.211 614.337 857.595 613.921 857.84C613.505 858.075 612.999 858.192 612.401 858.192C611.665 858.192 611.089 857.968 610.673 857.52C610.257 857.072 610.049 856.437 610.049 855.616V849.568H611.521V855.456C611.521 856.032 611.623 856.443 611.825 856.688C612.028 856.923 612.359 857.04 612.817 857.04C613.639 857.04 614.343 856.555 614.929 855.584V849.568H616.401V858ZM623.106 849.376C623.405 849.376 623.682 849.408 623.938 849.472L623.666 850.912C623.41 850.848 623.165 850.816 622.93 850.816C622.407 850.816 621.986 851.008 621.666 851.392C621.346 851.776 621.095 852.373 620.914 853.184V858H619.442V849.568H620.706L620.85 851.28C621.074 850.651 621.378 850.176 621.762 849.856C622.146 849.536 622.594 849.376 623.106 849.376ZM629.278 849.376C629.576 849.376 629.854 849.408 630.11 849.472L629.838 850.912C629.582 850.848 629.336 850.816 629.102 850.816C628.579 850.816 628.158 851.008 627.838 851.392C627.518 851.776 627.267 852.373 627.086 853.184V858H625.614V849.568H626.878L627.022 851.28C627.246 850.651 627.55 850.176 627.934 849.856C628.318 849.536 628.766 849.376 629.278 849.376ZM637.669 853.536C637.669 853.781 637.659 854.032 637.637 854.288H632.261C632.325 855.216 632.56 855.899 632.965 856.336C633.371 856.773 633.893 856.992 634.533 856.992C634.939 856.992 635.312 856.933 635.653 856.816C635.995 856.699 636.352 856.512 636.725 856.256L637.365 857.136C636.469 857.84 635.488 858.192 634.421 858.192C633.248 858.192 632.331 857.808 631.669 857.04C631.019 856.272 630.693 855.216 630.693 853.872C630.693 852.997 630.832 852.224 631.109 851.552C631.397 850.869 631.803 850.336 632.325 849.952C632.859 849.568 633.483 849.376 634.197 849.376C635.317 849.376 636.176 849.744 636.773 850.48C637.371 851.216 637.669 852.235 637.669 853.536ZM636.213 853.104C636.213 852.272 636.048 851.637 635.717 851.2C635.387 850.763 634.891 850.544 634.229 850.544C633.024 850.544 632.368 851.429 632.261 853.2H636.213V853.104ZM643.988 849.376C644.756 849.376 645.353 849.605 645.78 850.064C646.217 850.523 646.436 851.152 646.436 851.952V858H644.964V852.16C644.964 851.563 644.852 851.141 644.628 850.896C644.404 850.651 644.073 850.528 643.636 850.528C643.188 850.528 642.793 850.656 642.452 850.912C642.111 851.168 641.791 851.536 641.492 852.016V858H640.02V849.568H641.284L641.412 850.816C641.711 850.368 642.079 850.016 642.516 849.76C642.964 849.504 643.455 849.376 643.988 849.376ZM653.651 857.616C653.096 858 652.467 858.192 651.763 858.192C651.048 858.192 650.488 857.989 650.083 857.584C649.688 857.168 649.491 856.571 649.491 855.792V850.704H648.019V849.568H649.491V847.664L650.963 847.488V849.568H652.963L652.803 850.704H650.963V855.728C650.963 856.165 651.038 856.485 651.187 856.688C651.347 856.88 651.608 856.976 651.971 856.976C652.302 856.976 652.675 856.864 653.091 856.64L653.651 857.616ZM661.011 846.976V856.672H665.539L665.363 858H659.491V846.976H661.011ZM670.141 849.376C671.325 849.376 672.242 849.771 672.893 850.56C673.554 851.349 673.885 852.421 673.885 853.776C673.885 854.651 673.736 855.424 673.437 856.096C673.138 856.757 672.706 857.275 672.141 857.648C671.576 858.011 670.904 858.192 670.125 858.192C668.941 858.192 668.018 857.797 667.357 857.008C666.696 856.219 666.365 855.147 666.365 853.792C666.365 852.917 666.514 852.149 666.813 851.488C667.112 850.816 667.544 850.299 668.109 849.936C668.674 849.563 669.352 849.376 670.141 849.376ZM670.141 850.56C668.68 850.56 667.949 851.637 667.949 853.792C667.949 855.936 668.674 857.008 670.125 857.008C671.576 857.008 672.301 855.931 672.301 853.776C672.301 851.632 671.581 850.56 670.141 850.56ZM679.389 849.376C679.89 849.376 680.349 849.451 680.765 849.6C681.181 849.739 681.581 849.968 681.965 850.288L681.261 851.216C680.962 851.003 680.669 850.848 680.381 850.752C680.104 850.645 679.794 850.592 679.453 850.592C678.77 850.592 678.237 850.864 677.853 851.408C677.48 851.952 677.293 852.757 677.293 853.824C677.293 854.891 677.48 855.68 677.853 856.192C678.226 856.693 678.76 856.944 679.453 856.944C679.784 856.944 680.088 856.896 680.365 856.8C680.642 856.693 680.952 856.528 681.293 856.304L681.965 857.264C681.197 857.883 680.338 858.192 679.389 858.192C678.248 858.192 677.346 857.808 676.685 857.04C676.034 856.272 675.709 855.211 675.709 853.856C675.709 852.96 675.858 852.176 676.157 851.504C676.456 850.832 676.877 850.309 677.421 849.936C677.976 849.563 678.632 849.376 679.389 849.376ZM689.481 856.032C689.481 856.373 689.54 856.629 689.657 856.8C689.775 856.96 689.951 857.083 690.185 857.168L689.849 858.192C689.412 858.139 689.06 858.016 688.793 857.824C688.527 857.632 688.329 857.333 688.201 856.928C687.636 857.771 686.799 858.192 685.689 858.192C684.857 858.192 684.201 857.957 683.721 857.488C683.241 857.019 683.001 856.405 683.001 855.648C683.001 854.752 683.321 854.064 683.961 853.584C684.612 853.104 685.529 852.864 686.713 852.864H688.009V852.24C688.009 851.643 687.865 851.216 687.577 850.96C687.289 850.704 686.847 850.576 686.249 850.576C685.631 850.576 684.873 850.725 683.977 851.024L683.609 849.952C684.655 849.568 685.625 849.376 686.521 849.376C687.513 849.376 688.255 849.621 688.745 850.112C689.236 850.592 689.481 851.28 689.481 852.176V856.032ZM686.025 857.088C686.868 857.088 687.529 856.651 688.009 855.776V853.84H686.905C685.348 853.84 684.569 854.416 684.569 855.568C684.569 856.069 684.692 856.448 684.937 856.704C685.183 856.96 685.545 857.088 686.025 857.088ZM696.76 857.616C696.206 858 695.576 858.192 694.872 858.192C694.158 858.192 693.598 857.989 693.192 857.584C692.798 857.168 692.6 856.571 692.6 855.792V850.704H691.128V849.568H692.6V847.664L694.072 847.488V849.568H696.072L695.912 850.704H694.072V855.728C694.072 856.165 694.147 856.485 694.296 856.688C694.456 856.88 694.718 856.976 695.08 856.976C695.411 856.976 695.784 856.864 696.2 856.64L696.76 857.616ZM699.758 849.568V858H698.286V849.568H699.758ZM699.006 845.52C699.315 845.52 699.566 845.616 699.758 845.808C699.95 846 700.046 846.24 700.046 846.528C700.046 846.816 699.95 847.056 699.758 847.248C699.566 847.429 699.315 847.52 699.006 847.52C698.707 847.52 698.462 847.429 698.27 847.248C698.078 847.056 697.982 846.816 697.982 846.528C697.982 846.24 698.078 846 698.27 845.808C698.462 845.616 698.707 845.52 699.006 845.52ZM705.969 849.376C707.153 849.376 708.071 849.771 708.721 850.56C709.383 851.349 709.713 852.421 709.713 853.776C709.713 854.651 709.564 855.424 709.265 856.096C708.967 856.757 708.535 857.275 707.969 857.648C707.404 858.011 706.732 858.192 705.953 858.192C704.769 858.192 703.847 857.797 703.185 857.008C702.524 856.219 702.193 855.147 702.193 853.792C702.193 852.917 702.343 852.149 702.641 851.488C702.94 850.816 703.372 850.299 703.937 849.936C704.503 849.563 705.18 849.376 705.969 849.376ZM705.969 850.56C704.508 850.56 703.777 851.637 703.777 853.792C703.777 855.936 704.503 857.008 705.953 857.008C707.404 857.008 708.129 855.931 708.129 853.776C708.129 851.632 707.409 850.56 705.969 850.56ZM716.113 849.376C716.881 849.376 717.478 849.605 717.905 850.064C718.342 850.523 718.561 851.152 718.561 851.952V858H717.089V852.16C717.089 851.563 716.977 851.141 716.753 850.896C716.529 850.651 716.198 850.528 715.761 850.528C715.313 850.528 714.918 850.656 714.577 850.912C714.236 851.168 713.916 851.536 713.617 852.016V858H712.145V849.568H713.409L713.537 850.816C713.836 850.368 714.204 850.016 714.641 849.76C715.089 849.504 715.58 849.376 716.113 849.376Z" fill="white"/>
<path d="M727.5 865.5C712 887 703.5 898.5 744.5 909.5C785.5 920.5 888.5 943 808 970C727.5 1005.5 774 1046 791 1073C808 1100 750 1078.5 761.5 1121C773 1163.5 820.5 1156.5 791 1182C767.4 1202.4 744.5 1222.5 736 1230" stroke="white" stroke-width="2"/>
</svg>
