<svg width="1064" height="1267" viewBox="0 0 1064 1267" fill="none" xmlns="http://www.w3.org/2000/svg">
<g opacity="0.29827">
<path d="M1008.08 934.448L443.182 414.142V23.8104L28.1096 1C24.9043 8.54402 4.36709 30.2855 7.57176 42.404C11.43 56.898 30.8387 52.2648 36.4776 61.5906C43.0661 72.58 31.7291 117.251 28.3457 130.14C21.8759 154.555 7.09676 174.335 2.82235 198.75C-4.35982 239.737 10.1824 236.47 37.7242 262.073C84.141 305.258 46.9244 350.048 58.6176 400.777C68.1146 442.122 109.605 463.446 124.8 504.789C136.553 536.63 152.697 544.767 177.746 568.053C177.153 553.916 164.51 512.215 188.253 515.898C211.817 519.522 202.736 554.331 207.247 568.885C211.045 581.003 237.933 605.239 215.616 616.407C208.196 620.09 187.066 605.418 178.577 601.497C184.572 620.209 180.774 639.633 190.271 657.513C201.608 678.838 213.835 670.641 228.853 682.225C244.344 694.164 242.683 707.886 235.797 725.945C228.615 744.775 221.196 741.865 232.592 764.557C240.843 780.951 254.85 801.742 266.9 814.216C273.904 821.463 281.502 823.127 288.506 832.393C294.323 840.115 292.067 850.214 299.012 857.164C310.883 869.104 331.006 869.282 340.384 884.904C350.831 902.309 338.96 915.437 369.706 913.833C371.309 948.643 377.897 980.185 377.541 1014.99C394.695 1021.82 422.414 1013.69 440.399 1010.06C458.266 1034.18 481.355 1017.43 501.774 1030.56C510.678 1036.26 508.837 1050.52 514.239 1055.51C525.339 1065.72 533.529 1059.31 547.301 1062.87C557.51 1065.49 565.404 1072.97 575.138 1075.7C584.338 1078.26 599.475 1072.26 606.301 1080.4C614.492 1090.14 600.78 1107.96 613.127 1115.8C623.395 1122.33 638.115 1106.77 648.088 1109.03C659.721 1111.7 693.079 1142.17 701.271 1152.21C710.59 1163.68 719.969 1185.06 725.25 1199.79C733.501 1222.84 732.373 1234.13 749.408 1251C760.27 1261.75 749.942 1262.52 767.63 1265.67C779.204 1267.75 794.518 1259.37 806.212 1258.07C830.549 1255.39 855.122 1260.03 879.102 1255.45C901.421 1251.18 922.729 1244.17 945.64 1240.9C965.465 1238.05 1000.37 1240.25 1017.94 1230.8C1036.99 1220.64 1038.71 1197.65 1011.17 1201.93C1008.97 1187.26 1018.77 1167 1007.85 1156.85C1023.04 1136.06 1028.56 1121.38 1030.93 1095.96C1032 1084.79 1032.48 1072.44 1038 1063.05C1043.4 1053.78 1058.59 1048.26 1061.56 1040.3C1066.13 1027.94 1058.83 1022.42 1053.25 1015.53C1049.69 1011.07 1039.54 1013.21 1036.63 1009.29C1031.23 1002.1 1036.57 994.678 1033.6 987.431C1024.94 966.462 1014.61 958.205 1008.08 934.444C1008.26 938.424 1008.44 942.463 1008.2 946.384" stroke="white" stroke-width="2" stroke-linecap="round" stroke-linejoin="round"/>
</g>
<path fill-rule="evenodd" clip-rule="evenodd" d="M678.5 1147C682.09 1147 685 1144.09 685 1140.5C685 1136.91 682.09 1134 678.5 1134C674.91 1134 672 1136.91 672 1140.5C672 1144.09 674.91 1147 678.5 1147Z" fill="#4AF6CD"/>
<path fill-rule="evenodd" clip-rule="evenodd" d="M577 1087C578.657 1087 580 1085.66 580 1084C580 1082.34 578.657 1081 577 1081C575.343 1081 574 1082.34 574 1084C574 1085.66 575.343 1087 577 1087Z" fill="#4AF6CD"/>
<path fill-rule="evenodd" clip-rule="evenodd" d="M725 1242C726.657 1242 728 1240.66 728 1239C728 1237.34 726.657 1236 725 1236C723.343 1236 722 1237.34 722 1239C722 1240.66 723.343 1242 725 1242Z" fill="#4AF6CD"/>
<path fill-rule="evenodd" clip-rule="evenodd" d="M373 983C374.657 983 376 981.657 376 980C376 978.343 374.657 977 373 977C371.343 977 370 978.343 370 980C370 981.657 371.343 983 373 983Z" fill="#4AF6CD"/>
<path fill-rule="evenodd" clip-rule="evenodd" d="M734.5 866C738.09 866 741 863.09 741 859.5C741 855.91 738.09 853 734.5 853C730.91 853 728 855.91 728 859.5C728 863.09 730.91 866 734.5 866Z" fill="#4AF6CD"/>
<path d="M504.146 1131.98L503.97 1133.19H499.698V1136.79H503.41V1138.01H499.698V1141.78H504.274V1143H498.178V1131.98H504.146ZM512.153 1141.03C512.153 1141.37 512.212 1141.63 512.329 1141.8C512.446 1141.96 512.622 1142.08 512.857 1142.17L512.521 1143.19C512.084 1143.14 511.732 1143.02 511.465 1142.82C511.198 1142.63 511.001 1142.33 510.873 1141.93C510.308 1142.77 509.47 1143.19 508.361 1143.19C507.529 1143.19 506.873 1142.96 506.393 1142.49C505.913 1142.02 505.673 1141.41 505.673 1140.65C505.673 1139.75 505.993 1139.06 506.633 1138.58C507.284 1138.1 508.201 1137.86 509.385 1137.86H510.681V1137.24C510.681 1136.64 510.537 1136.22 510.249 1135.96C509.961 1135.7 509.518 1135.58 508.921 1135.58C508.302 1135.58 507.545 1135.73 506.649 1136.02L506.281 1134.95C507.326 1134.57 508.297 1134.38 509.193 1134.38C510.185 1134.38 510.926 1134.62 511.417 1135.11C511.908 1135.59 512.153 1136.28 512.153 1137.18V1141.03ZM508.697 1142.09C509.54 1142.09 510.201 1141.65 510.681 1140.78V1138.84H509.577C508.02 1138.84 507.241 1139.42 507.241 1140.57C507.241 1141.07 507.364 1141.45 507.609 1141.7C507.854 1141.96 508.217 1142.09 508.697 1142.09ZM517.308 1134.38C517.884 1134.38 518.401 1134.46 518.86 1134.62C519.319 1134.78 519.756 1135.02 520.172 1135.34L519.548 1136.26C519.164 1136.02 518.796 1135.84 518.444 1135.72C518.103 1135.6 517.74 1135.54 517.356 1135.54C516.876 1135.54 516.497 1135.65 516.22 1135.85C515.943 1136.04 515.804 1136.31 515.804 1136.65C515.804 1136.99 515.932 1137.26 516.188 1137.45C516.455 1137.64 516.929 1137.83 517.612 1138.01C518.551 1138.24 519.249 1138.56 519.708 1138.97C520.177 1139.37 520.412 1139.93 520.412 1140.63C520.412 1141.46 520.087 1142.1 519.436 1142.54C518.796 1142.97 518.012 1143.19 517.084 1143.19C515.804 1143.19 514.743 1142.82 513.9 1142.09L514.684 1141.19C515.399 1141.74 516.188 1142.01 517.052 1142.01C517.607 1142.01 518.044 1141.9 518.364 1141.67C518.695 1141.44 518.86 1141.12 518.86 1140.73C518.86 1140.44 518.801 1140.21 518.684 1140.04C518.567 1139.86 518.364 1139.7 518.076 1139.58C517.788 1139.44 517.367 1139.29 516.812 1139.14C515.916 1138.91 515.265 1138.59 514.86 1138.2C514.465 1137.81 514.268 1137.3 514.268 1136.7C514.268 1136.26 514.396 1135.86 514.652 1135.51C514.919 1135.15 515.281 1134.87 515.74 1134.68C516.209 1134.48 516.732 1134.38 517.308 1134.38ZM526.745 1142.62C526.19 1143 525.561 1143.19 524.857 1143.19C524.142 1143.19 523.582 1142.99 523.177 1142.58C522.782 1142.17 522.585 1141.57 522.585 1140.79V1135.7H521.113V1134.57H522.585V1132.66L524.057 1132.49V1134.57H526.057L525.897 1135.7H524.057V1140.73C524.057 1141.17 524.131 1141.49 524.281 1141.69C524.441 1141.88 524.702 1141.98 525.065 1141.98C525.395 1141.98 525.769 1141.86 526.185 1141.64L526.745 1142.62ZM535.304 1131.78C536.04 1131.78 536.67 1131.89 537.192 1132.1C537.715 1132.31 538.222 1132.63 538.712 1133.06L537.88 1133.99C537.464 1133.66 537.054 1133.42 536.648 1133.27C536.254 1133.11 535.827 1133.03 535.368 1133.03C534.792 1133.03 534.318 1133.17 533.944 1133.43C533.571 1133.7 533.384 1134.09 533.384 1134.6C533.384 1134.92 533.448 1135.19 533.576 1135.42C533.704 1135.63 533.939 1135.83 534.28 1136.01C534.632 1136.19 535.139 1136.38 535.8 1136.58C536.494 1136.8 537.07 1137.03 537.528 1137.27C537.987 1137.52 538.355 1137.86 538.632 1138.3C538.92 1138.72 539.064 1139.27 539.064 1139.93C539.064 1140.57 538.904 1141.13 538.584 1141.62C538.275 1142.11 537.822 1142.5 537.224 1142.78C536.638 1143.05 535.939 1143.19 535.128 1143.19C533.603 1143.19 532.355 1142.72 531.384 1141.77L532.216 1140.84C532.664 1141.2 533.118 1141.48 533.576 1141.67C534.035 1141.85 534.547 1141.94 535.112 1141.94C535.795 1141.94 536.36 1141.78 536.808 1141.45C537.256 1141.11 537.48 1140.62 537.48 1139.98C537.48 1139.61 537.411 1139.31 537.272 1139.08C537.134 1138.83 536.894 1138.62 536.552 1138.42C536.222 1138.23 535.736 1138.04 535.096 1137.85C533.966 1137.51 533.139 1137.1 532.616 1136.62C532.094 1136.14 531.832 1135.49 531.832 1134.66C531.832 1134.11 531.976 1133.61 532.264 1133.18C532.563 1132.74 532.974 1132.4 533.496 1132.15C534.03 1131.91 534.632 1131.78 535.304 1131.78ZM545.191 1134.38C545.959 1134.38 546.556 1134.61 546.983 1135.06C547.42 1135.52 547.639 1136.15 547.639 1136.95V1143H546.167V1137.16C546.167 1136.56 546.05 1136.14 545.815 1135.9C545.591 1135.65 545.26 1135.53 544.823 1135.53C544.386 1135.53 543.996 1135.66 543.655 1135.91C543.314 1136.17 542.994 1136.53 542.695 1137V1143H541.223V1131.19L542.695 1131.03V1135.74C543.356 1134.83 544.188 1134.38 545.191 1134.38ZM553.766 1134.38C554.95 1134.38 555.867 1134.77 556.518 1135.56C557.179 1136.35 557.51 1137.42 557.51 1138.78C557.51 1139.65 557.361 1140.42 557.062 1141.1C556.763 1141.76 556.331 1142.27 555.766 1142.65C555.201 1143.01 554.529 1143.19 553.75 1143.19C552.566 1143.19 551.643 1142.8 550.982 1142.01C550.321 1141.22 549.99 1140.15 549.99 1138.79C549.99 1137.92 550.139 1137.15 550.438 1136.49C550.737 1135.82 551.169 1135.3 551.734 1134.94C552.299 1134.56 552.977 1134.38 553.766 1134.38ZM553.766 1135.56C552.305 1135.56 551.574 1136.64 551.574 1138.79C551.574 1140.94 552.299 1142.01 553.75 1142.01C555.201 1142.01 555.926 1140.93 555.926 1138.78C555.926 1136.63 555.206 1135.56 553.766 1135.56ZM563.606 1134.38C563.905 1134.38 564.182 1134.41 564.438 1134.47L564.166 1135.91C563.91 1135.85 563.665 1135.82 563.43 1135.82C562.907 1135.82 562.486 1136.01 562.166 1136.39C561.846 1136.78 561.595 1137.37 561.414 1138.18V1143H559.942V1134.57H561.206L561.35 1136.28C561.574 1135.65 561.878 1135.18 562.262 1134.86C562.646 1134.54 563.094 1134.38 563.606 1134.38ZM571.997 1138.54C571.997 1138.78 571.987 1139.03 571.965 1139.29H566.589C566.653 1140.22 566.888 1140.9 567.293 1141.34C567.699 1141.77 568.221 1141.99 568.861 1141.99C569.267 1141.99 569.64 1141.93 569.981 1141.82C570.323 1141.7 570.68 1141.51 571.053 1141.26L571.693 1142.14C570.797 1142.84 569.816 1143.19 568.749 1143.19C567.576 1143.19 566.659 1142.81 565.997 1142.04C565.347 1141.27 565.021 1140.22 565.021 1138.87C565.021 1138 565.16 1137.22 565.437 1136.55C565.725 1135.87 566.131 1135.34 566.653 1134.95C567.187 1134.57 567.811 1134.38 568.525 1134.38C569.645 1134.38 570.504 1134.74 571.101 1135.48C571.699 1136.22 571.997 1137.23 571.997 1138.54ZM570.541 1138.1C570.541 1137.27 570.376 1136.64 570.045 1136.2C569.715 1135.76 569.219 1135.54 568.557 1135.54C567.352 1135.54 566.696 1136.43 566.589 1138.2H570.541V1138.1ZM580.951 1130.09V1144.63H579.623V1130.09H580.951ZM590.87 1131.98V1141.67H595.398L595.222 1143H589.35V1131.98H590.87ZM600.001 1134.38C601.185 1134.38 602.102 1134.77 602.753 1135.56C603.414 1136.35 603.745 1137.42 603.745 1138.78C603.745 1139.65 603.595 1140.42 603.297 1141.1C602.998 1141.76 602.566 1142.27 602.001 1142.65C601.435 1143.01 600.763 1143.19 599.985 1143.19C598.801 1143.19 597.878 1142.8 597.217 1142.01C596.555 1141.22 596.225 1140.15 596.225 1138.79C596.225 1137.92 596.374 1137.15 596.673 1136.49C596.971 1135.82 597.403 1135.3 597.969 1134.94C598.534 1134.56 599.211 1134.38 600.001 1134.38ZM600.001 1135.56C598.539 1135.56 597.809 1136.64 597.809 1138.79C597.809 1140.94 598.534 1142.01 599.985 1142.01C601.435 1142.01 602.161 1140.93 602.161 1138.78C602.161 1136.63 601.441 1135.56 600.001 1135.56ZM609.84 1134.38C610.139 1134.38 610.416 1134.41 610.672 1134.47L610.4 1135.91C610.144 1135.85 609.899 1135.82 609.664 1135.82C609.142 1135.82 608.72 1136.01 608.4 1136.39C608.08 1136.78 607.83 1137.37 607.648 1138.18V1143H606.176V1134.57H607.44L607.584 1136.28C607.808 1135.65 608.112 1135.18 608.496 1134.86C608.88 1134.54 609.328 1134.38 609.84 1134.38ZM618.232 1138.54C618.232 1138.78 618.221 1139.03 618.2 1139.29H612.824C612.888 1140.22 613.122 1140.9 613.528 1141.34C613.933 1141.77 614.456 1141.99 615.096 1141.99C615.501 1141.99 615.874 1141.93 616.216 1141.82C616.557 1141.7 616.914 1141.51 617.288 1141.26L617.928 1142.14C617.032 1142.84 616.05 1143.19 614.984 1143.19C613.81 1143.19 612.893 1142.81 612.232 1142.04C611.581 1141.27 611.256 1140.22 611.256 1138.87C611.256 1138 611.394 1137.22 611.672 1136.55C611.96 1135.87 612.365 1135.34 612.888 1134.95C613.421 1134.57 614.045 1134.38 614.76 1134.38C615.88 1134.38 616.738 1134.74 617.336 1135.48C617.933 1136.22 618.232 1137.23 618.232 1138.54ZM616.776 1138.1C616.776 1137.27 616.61 1136.64 616.28 1136.2C615.949 1135.76 615.453 1135.54 614.792 1135.54C613.586 1135.54 612.93 1136.43 612.824 1138.2H616.776V1138.1ZM624.839 1142.62C624.284 1143 623.655 1143.19 622.951 1143.19C622.236 1143.19 621.676 1142.99 621.271 1142.58C620.876 1142.17 620.679 1141.57 620.679 1140.79V1135.7H619.207V1134.57H620.679V1132.66L622.151 1132.49V1134.57H624.151L623.991 1135.7H622.151V1140.73C622.151 1141.17 622.225 1141.49 622.375 1141.69C622.535 1141.88 622.796 1141.98 623.159 1141.98C623.489 1141.98 623.863 1141.86 624.279 1141.64L624.839 1142.62ZM629.297 1134.38C630.481 1134.38 631.399 1134.77 632.049 1135.56C632.711 1136.35 633.041 1137.42 633.041 1138.78C633.041 1139.65 632.892 1140.42 632.593 1141.1C632.295 1141.76 631.863 1142.27 631.297 1142.65C630.732 1143.01 630.06 1143.19 629.281 1143.19C628.097 1143.19 627.175 1142.8 626.513 1142.01C625.852 1141.22 625.521 1140.15 625.521 1138.79C625.521 1137.92 625.671 1137.15 625.969 1136.49C626.268 1135.82 626.7 1135.3 627.265 1134.94C627.831 1134.56 628.508 1134.38 629.297 1134.38ZM629.297 1135.56C627.836 1135.56 627.105 1136.64 627.105 1138.79C627.105 1140.94 627.831 1142.01 629.281 1142.01C630.732 1142.01 631.457 1140.93 631.457 1138.78C631.457 1136.63 630.737 1135.56 629.297 1135.56ZM635.701 1140.97C636.021 1140.97 636.288 1141.07 636.501 1141.29C636.714 1141.5 636.821 1141.76 636.821 1142.07C636.821 1142.4 636.725 1142.78 636.533 1143.21L635.461 1145.66H634.405L635.045 1143C634.906 1142.89 634.794 1142.76 634.709 1142.6C634.634 1142.44 634.597 1142.26 634.597 1142.07C634.597 1141.76 634.704 1141.5 634.917 1141.29C635.13 1141.07 635.392 1140.97 635.701 1140.97ZM647.331 1131.78C647.992 1131.78 648.547 1131.87 648.995 1132.04C649.454 1132.21 649.918 1132.49 650.387 1132.87L649.555 1133.85C648.883 1133.3 648.174 1133.03 647.427 1133.03C646.51 1133.03 645.768 1133.38 645.203 1134.09C644.648 1134.79 644.371 1135.92 644.371 1137.48C644.371 1138.99 644.648 1140.11 645.203 1140.84C645.758 1141.55 646.494 1141.91 647.411 1141.91C647.88 1141.91 648.291 1141.83 648.643 1141.67C648.995 1141.51 649.368 1141.29 649.763 1141L650.515 1141.96C650.174 1142.31 649.736 1142.61 649.203 1142.84C648.67 1143.07 648.056 1143.19 647.363 1143.19C646.467 1143.19 645.667 1142.97 644.963 1142.54C644.27 1142.09 643.726 1141.44 643.331 1140.58C642.947 1139.72 642.755 1138.69 642.755 1137.48C642.755 1136.27 642.958 1135.25 643.363 1134.39C643.768 1133.53 644.318 1132.88 645.011 1132.44C645.704 1132 646.478 1131.78 647.331 1131.78ZM658.3 1143L657.468 1140.23H653.292L652.46 1143H650.924L654.46 1131.98H656.38L659.9 1143H658.3ZM653.66 1139H657.1L655.388 1133.24L653.66 1139Z" fill="white"/>
<path d="M605.378 846.784C606.039 846.784 606.594 846.869 607.042 847.04C607.501 847.211 607.965 847.488 608.434 847.872L607.602 848.848C606.93 848.304 606.221 848.032 605.474 848.032C604.557 848.032 603.815 848.384 603.25 849.088C602.695 849.792 602.418 850.923 602.418 852.48C602.418 853.995 602.695 855.115 603.25 855.84C603.805 856.555 604.541 856.912 605.458 856.912C605.927 856.912 606.338 856.832 606.69 856.672C607.042 856.512 607.415 856.288 607.81 856L608.562 856.96C608.221 857.312 607.783 857.605 607.25 857.84C606.717 858.075 606.103 858.192 605.41 858.192C604.514 858.192 603.714 857.973 603.01 857.536C602.317 857.088 601.773 856.437 601.378 855.584C600.994 854.72 600.802 853.685 600.802 852.48C600.802 851.275 601.005 850.245 601.41 849.392C601.815 848.528 602.365 847.877 603.058 847.44C603.751 847.003 604.525 846.784 605.378 846.784ZM616.401 858H615.137L615.025 856.688C614.705 857.211 614.337 857.595 613.921 857.84C613.505 858.075 612.999 858.192 612.401 858.192C611.665 858.192 611.089 857.968 610.673 857.52C610.257 857.072 610.049 856.437 610.049 855.616V849.568H611.521V855.456C611.521 856.032 611.623 856.443 611.825 856.688C612.028 856.923 612.359 857.04 612.817 857.04C613.639 857.04 614.343 856.555 614.929 855.584V849.568H616.401V858ZM623.106 849.376C623.405 849.376 623.682 849.408 623.938 849.472L623.666 850.912C623.41 850.848 623.165 850.816 622.93 850.816C622.407 850.816 621.986 851.008 621.666 851.392C621.346 851.776 621.095 852.373 620.914 853.184V858H619.442V849.568H620.706L620.85 851.28C621.074 850.651 621.378 850.176 621.762 849.856C622.146 849.536 622.594 849.376 623.106 849.376ZM629.278 849.376C629.576 849.376 629.854 849.408 630.11 849.472L629.838 850.912C629.582 850.848 629.336 850.816 629.102 850.816C628.579 850.816 628.158 851.008 627.838 851.392C627.518 851.776 627.267 852.373 627.086 853.184V858H625.614V849.568H626.878L627.022 851.28C627.246 850.651 627.55 850.176 627.934 849.856C628.318 849.536 628.766 849.376 629.278 849.376ZM637.669 853.536C637.669 853.781 637.659 854.032 637.637 854.288H632.261C632.325 855.216 632.56 855.899 632.965 856.336C633.371 856.773 633.893 856.992 634.533 856.992C634.939 856.992 635.312 856.933 635.653 856.816C635.995 856.699 636.352 856.512 636.725 856.256L637.365 857.136C636.469 857.84 635.488 858.192 634.421 858.192C633.248 858.192 632.331 857.808 631.669 857.04C631.019 856.272 630.693 855.216 630.693 853.872C630.693 852.997 630.832 852.224 631.109 851.552C631.397 850.869 631.803 850.336 632.325 849.952C632.859 849.568 633.483 849.376 634.197 849.376C635.317 849.376 636.176 849.744 636.773 850.48C637.371 851.216 637.669 852.235 637.669 853.536ZM636.213 853.104C636.213 852.272 636.048 851.637 635.717 851.2C635.387 850.763 634.891 850.544 634.229 850.544C633.024 850.544 632.368 851.429 632.261 853.2H636.213V853.104ZM643.988 849.376C644.756 849.376 645.353 849.605 645.78 850.064C646.217 850.523 646.436 851.152 646.436 851.952V858H644.964V852.16C644.964 851.563 644.852 851.141 644.628 850.896C644.404 850.651 644.073 850.528 643.636 850.528C643.188 850.528 642.793 850.656 642.452 850.912C642.111 851.168 641.791 851.536 641.492 852.016V858H640.02V849.568H641.284L641.412 850.816C641.711 850.368 642.079 850.016 642.516 849.76C642.964 849.504 643.455 849.376 643.988 849.376ZM653.651 857.616C653.096 858 652.467 858.192 651.763 858.192C651.048 858.192 650.488 857.989 650.083 857.584C649.688 857.168 649.491 856.571 649.491 855.792V850.704H648.019V849.568H649.491V847.664L650.963 847.488V849.568H652.963L652.803 850.704H650.963V855.728C650.963 856.165 651.038 856.485 651.187 856.688C651.347 856.88 651.608 856.976 651.971 856.976C652.302 856.976 652.675 856.864 653.091 856.64L653.651 857.616ZM661.011 846.976V856.672H665.539L665.363 858H659.491V846.976H661.011ZM670.141 849.376C671.325 849.376 672.242 849.771 672.893 850.56C673.554 851.349 673.885 852.421 673.885 853.776C673.885 854.651 673.736 855.424 673.437 856.096C673.138 856.757 672.706 857.275 672.141 857.648C671.576 858.011 670.904 858.192 670.125 858.192C668.941 858.192 668.018 857.797 667.357 857.008C666.696 856.219 666.365 855.147 666.365 853.792C666.365 852.917 666.514 852.149 666.813 851.488C667.112 850.816 667.544 850.299 668.109 849.936C668.674 849.563 669.352 849.376 670.141 849.376ZM670.141 850.56C668.68 850.56 667.949 851.637 667.949 853.792C667.949 855.936 668.674 857.008 670.125 857.008C671.576 857.008 672.301 855.931 672.301 853.776C672.301 851.632 671.581 850.56 670.141 850.56ZM679.389 849.376C679.89 849.376 680.349 849.451 680.765 849.6C681.181 849.739 681.581 849.968 681.965 850.288L681.261 851.216C680.962 851.003 680.669 850.848 680.381 850.752C680.104 850.645 679.794 850.592 679.453 850.592C678.77 850.592 678.237 850.864 677.853 851.408C677.48 851.952 677.293 852.757 677.293 853.824C677.293 854.891 677.48 855.68 677.853 856.192C678.226 856.693 678.76 856.944 679.453 856.944C679.784 856.944 680.088 856.896 680.365 856.8C680.642 856.693 680.952 856.528 681.293 856.304L681.965 857.264C681.197 857.883 680.338 858.192 679.389 858.192C678.248 858.192 677.346 857.808 676.685 857.04C676.034 856.272 675.709 855.211 675.709 853.856C675.709 852.96 675.858 852.176 676.157 851.504C676.456 850.832 676.877 850.309 677.421 849.936C677.976 849.563 678.632 849.376 679.389 849.376ZM689.481 856.032C689.481 856.373 689.54 856.629 689.657 856.8C689.775 856.96 689.951 857.083 690.185 857.168L689.849 858.192C689.412 858.139 689.06 858.016 688.793 857.824C688.527 857.632 688.329 857.333 688.201 856.928C687.636 857.771 686.799 858.192 685.689 858.192C684.857 858.192 684.201 857.957 683.721 857.488C683.241 857.019 683.001 856.405 683.001 855.648C683.001 854.752 683.321 854.064 683.961 853.584C684.612 853.104 685.529 852.864 686.713 852.864H688.009V852.24C688.009 851.643 687.865 851.216 687.577 850.96C687.289 850.704 686.847 850.576 686.249 850.576C685.631 850.576 684.873 850.725 683.977 851.024L683.609 849.952C684.655 849.568 685.625 849.376 686.521 849.376C687.513 849.376 688.255 849.621 688.745 850.112C689.236 850.592 689.481 851.28 689.481 852.176V856.032ZM686.025 857.088C686.868 857.088 687.529 856.651 688.009 855.776V853.84H686.905C685.348 853.84 684.569 854.416 684.569 855.568C684.569 856.069 684.692 856.448 684.937 856.704C685.183 856.96 685.545 857.088 686.025 857.088ZM696.76 857.616C696.206 858 695.576 858.192 694.872 858.192C694.158 858.192 693.598 857.989 693.192 857.584C692.798 857.168 692.6 856.571 692.6 855.792V850.704H691.128V849.568H692.6V847.664L694.072 847.488V849.568H696.072L695.912 850.704H694.072V855.728C694.072 856.165 694.147 856.485 694.296 856.688C694.456 856.88 694.718 856.976 695.08 856.976C695.411 856.976 695.784 856.864 696.2 856.64L696.76 857.616ZM699.758 849.568V858H698.286V849.568H699.758ZM699.006 845.52C699.315 845.52 699.566 845.616 699.758 845.808C699.95 846 700.046 846.24 700.046 846.528C700.046 846.816 699.95 847.056 699.758 847.248C699.566 847.429 699.315 847.52 699.006 847.52C698.707 847.52 698.462 847.429 698.27 847.248C698.078 847.056 697.982 846.816 697.982 846.528C697.982 846.24 698.078 846 698.27 845.808C698.462 845.616 698.707 845.52 699.006 845.52ZM705.969 849.376C707.153 849.376 708.071 849.771 708.721 850.56C709.383 851.349 709.713 852.421 709.713 853.776C709.713 854.651 709.564 855.424 709.265 856.096C708.967 856.757 708.535 857.275 707.969 857.648C707.404 858.011 706.732 858.192 705.953 858.192C704.769 858.192 703.847 857.797 703.185 857.008C702.524 856.219 702.193 855.147 702.193 853.792C702.193 852.917 702.343 852.149 702.641 851.488C702.94 850.816 703.372 850.299 703.937 849.936C704.503 849.563 705.18 849.376 705.969 849.376ZM705.969 850.56C704.508 850.56 703.777 851.637 703.777 853.792C703.777 855.936 704.503 857.008 705.953 857.008C707.404 857.008 708.129 855.931 708.129 853.776C708.129 851.632 707.409 850.56 705.969 850.56ZM716.113 849.376C716.881 849.376 717.478 849.605 717.905 850.064C718.342 850.523 718.561 851.152 718.561 851.952V858H717.089V852.16C717.089 851.563 716.977 851.141 716.753 850.896C716.529 850.651 716.198 850.528 715.761 850.528C715.313 850.528 714.918 850.656 714.577 850.912C714.236 851.168 713.916 851.536 713.617 852.016V858H712.145V849.568H713.409L713.537 850.816C713.836 850.368 714.204 850.016 714.641 849.76C715.089 849.504 715.58 849.376 716.113 849.376Z" fill="white"/>
<path d="M728.5 864.5C692.5 888 766.5 881 742 921.5C717.5 962 796 947 753 986.5C710 1026 803.5 1081.5 753 1089C712.6 1095 689.5 1121.17 683 1133.5" stroke="white" stroke-width="2"/>
</svg>
