<svg width="1064" height="1267" viewBox="0 0 1064 1267" fill="none" xmlns="http://www.w3.org/2000/svg">
<g opacity="0.29827">
<path d="M1008.08 934.448L443.182 414.142V23.8104L28.1096 1C24.9043 8.54402 4.36709 30.2855 7.57176 42.404C11.43 56.898 30.8387 52.2648 36.4776 61.5906C43.0661 72.58 31.7291 117.251 28.3457 130.14C21.8759 154.555 7.09676 174.335 2.82235 198.75C-4.35982 239.737 10.1824 236.47 37.7242 262.073C84.141 305.258 46.9244 350.048 58.6176 400.777C68.1146 442.122 109.605 463.446 124.8 504.789C136.553 536.63 152.697 544.767 177.746 568.053C177.153 553.916 164.51 512.215 188.253 515.898C211.817 519.522 202.736 554.331 207.247 568.885C211.045 581.003 237.933 605.239 215.616 616.407C208.196 620.09 187.066 605.418 178.577 601.497C184.572 620.209 180.774 639.633 190.271 657.513C201.608 678.838 213.835 670.641 228.853 682.225C244.344 694.164 242.683 707.886 235.797 725.945C228.615 744.775 221.196 741.865 232.592 764.557C240.843 780.951 254.85 801.742 266.9 814.216C273.904 821.463 281.502 823.127 288.506 832.393C294.323 840.115 292.067 850.214 299.012 857.164C310.883 869.104 331.006 869.282 340.384 884.904C350.831 902.309 338.96 915.437 369.706 913.833C371.309 948.643 377.897 980.185 377.541 1014.99C394.695 1021.82 422.414 1013.69 440.399 1010.06C458.266 1034.18 481.355 1017.43 501.774 1030.56C510.678 1036.26 508.837 1050.52 514.239 1055.51C525.339 1065.72 533.529 1059.31 547.301 1062.87C557.51 1065.49 565.404 1072.97 575.138 1075.7C584.338 1078.26 599.475 1072.26 606.301 1080.4C614.492 1090.14 600.78 1107.96 613.127 1115.8C623.395 1122.33 638.115 1106.77 648.088 1109.03C659.721 1111.7 693.079 1142.17 701.271 1152.21C710.59 1163.68 719.969 1185.06 725.25 1199.79C733.501 1222.84 732.373 1234.13 749.408 1251C760.27 1261.75 749.942 1262.52 767.63 1265.67C779.204 1267.75 794.518 1259.37 806.212 1258.07C830.549 1255.39 855.122 1260.03 879.102 1255.45C901.421 1251.18 922.729 1244.17 945.64 1240.9C965.465 1238.05 1000.37 1240.25 1017.94 1230.8C1036.99 1220.64 1038.71 1197.65 1011.17 1201.93C1008.97 1187.26 1018.77 1167 1007.85 1156.85C1023.04 1136.06 1028.56 1121.38 1030.93 1095.96C1032 1084.79 1032.48 1072.44 1038 1063.05C1043.4 1053.78 1058.59 1048.26 1061.56 1040.3C1066.13 1027.94 1058.83 1022.42 1053.25 1015.53C1049.69 1011.07 1039.54 1013.21 1036.63 1009.29C1031.23 1002.1 1036.57 994.678 1033.6 987.431C1024.94 966.462 1014.61 958.205 1008.08 934.444C1008.26 938.424 1008.44 942.463 1008.2 946.384" stroke="white" stroke-linecap="round" stroke-linejoin="round"/>
<path d="M1008.08 934.448L443.182 414.142V23.8104L28.1096 1C24.9043 8.54402 4.36709 30.2855 7.57176 42.404C11.43 56.898 30.8387 52.2648 36.4776 61.5906C43.0661 72.58 31.7291 117.251 28.3457 130.14C21.8759 154.555 7.09676 174.335 2.82235 198.75C-4.35982 239.737 10.1824 236.47 37.7242 262.073C84.141 305.258 46.9244 350.048 58.6176 400.777C68.1146 442.122 109.605 463.446 124.8 504.789C136.553 536.63 152.697 544.767 177.746 568.053C177.153 553.916 164.51 512.215 188.253 515.898C211.817 519.522 202.736 554.331 207.247 568.885C211.045 581.003 237.933 605.239 215.616 616.407C208.196 620.09 187.066 605.418 178.577 601.497C184.572 620.209 180.774 639.633 190.271 657.513C201.608 678.838 213.835 670.641 228.853 682.225C244.344 694.164 242.683 707.886 235.797 725.945C228.615 744.775 221.196 741.865 232.592 764.557C240.843 780.951 254.85 801.742 266.9 814.216C273.904 821.463 281.502 823.127 288.506 832.393C294.323 840.115 292.067 850.214 299.012 857.164C310.883 869.104 331.006 869.282 340.384 884.904C350.831 902.309 338.96 915.437 369.706 913.833C371.309 948.643 377.897 980.185 377.541 1014.99C394.695 1021.82 422.414 1013.69 440.399 1010.06C458.266 1034.18 481.355 1017.43 501.774 1030.56C510.678 1036.26 508.837 1050.52 514.239 1055.51C525.339 1065.72 533.529 1059.31 547.301 1062.87C557.51 1065.49 565.404 1072.97 575.138 1075.7C584.338 1078.26 599.475 1072.26 606.301 1080.4C614.492 1090.14 600.78 1107.96 613.127 1115.8C623.395 1122.33 638.115 1106.77 648.088 1109.03C659.721 1111.7 693.079 1142.17 701.271 1152.21C710.59 1163.68 719.969 1185.06 725.25 1199.79C733.501 1222.84 732.373 1234.13 749.408 1251C760.27 1261.75 749.942 1262.52 767.63 1265.67C779.204 1267.75 794.518 1259.37 806.212 1258.07C830.549 1255.39 855.122 1260.03 879.102 1255.45C901.421 1251.18 922.729 1244.17 945.64 1240.9C965.465 1238.05 1000.37 1240.25 1017.94 1230.8C1036.99 1220.64 1038.71 1197.65 1011.17 1201.93C1008.97 1187.26 1018.77 1167 1007.85 1156.85C1023.04 1136.06 1028.56 1121.38 1030.93 1095.96C1032 1084.79 1032.48 1072.44 1038 1063.05C1043.4 1053.78 1058.59 1048.26 1061.56 1040.3C1066.13 1027.94 1058.83 1022.42 1053.25 1015.53C1049.69 1011.07 1039.54 1013.21 1036.63 1009.29C1031.23 1002.1 1036.57 994.678 1033.6 987.431C1024.94 966.462 1014.61 958.205 1008.08 934.444C1008.26 938.424 1008.44 942.463 1008.2 946.384" stroke="white" stroke-linecap="round" stroke-linejoin="round"/>
</g>
<path fill-rule="evenodd" clip-rule="evenodd" d="M368.5 985C372.09 985 375 982.09 375 978.5C375 974.91 372.09 972 368.5 972C364.91 972 362 974.91 362 978.5C362 982.09 364.91 985 368.5 985Z" fill="#4AF6CD"/>
<path fill-rule="evenodd" clip-rule="evenodd" d="M577 1087C578.657 1087 580 1085.66 580 1084C580 1082.34 578.657 1081 577 1081C575.343 1081 574 1082.34 574 1084C574 1085.66 575.343 1087 577 1087Z" fill="#4AF6CD"/>
<path fill-rule="evenodd" clip-rule="evenodd" d="M725 1242C726.657 1242 728 1240.66 728 1239C728 1237.34 726.657 1236 725 1236C723.343 1236 722 1237.34 722 1239C722 1240.66 723.343 1242 725 1242Z" fill="#4AF6CD"/>
<path fill-rule="evenodd" clip-rule="evenodd" d="M663 1141C664.657 1141 666 1139.66 666 1138C666 1136.34 664.657 1135 663 1135C661.343 1135 660 1136.34 660 1138C660 1139.66 661.343 1141 663 1141Z" fill="#4AF6CD"/>
<path fill-rule="evenodd" clip-rule="evenodd" d="M730.5 864C734.09 864 737 861.09 737 857.5C737 853.91 734.09 851 730.5 851C726.91 851 724 853.91 724 857.5C724 861.09 726.91 864 730.5 864Z" fill="#4AF6CD"/>
<path d="M163.5 987H161.468L156.988 977.64C157.052 978.376 157.1 979.059 157.132 979.688C157.175 980.307 157.196 981.059 157.196 981.944V987H155.772V975.976H157.756L162.284 985.352C162.252 985.075 162.209 984.589 162.156 983.896C162.103 983.203 162.076 982.568 162.076 981.992V975.976H163.5V987ZM169.782 978.376C170.966 978.376 171.883 978.771 172.534 979.56C173.195 980.349 173.526 981.421 173.526 982.776C173.526 983.651 173.376 984.424 173.078 985.096C172.779 985.757 172.347 986.275 171.782 986.648C171.216 987.011 170.544 987.192 169.766 987.192C168.582 987.192 167.659 986.797 166.998 986.008C166.336 985.219 166.006 984.147 166.006 982.792C166.006 981.917 166.155 981.149 166.454 980.488C166.752 979.816 167.184 979.299 167.75 978.936C168.315 978.563 168.992 978.376 169.782 978.376ZM169.782 979.56C168.32 979.56 167.59 980.637 167.59 982.792C167.59 984.936 168.315 986.008 169.766 986.008C171.216 986.008 171.942 984.931 171.942 982.776C171.942 980.632 171.222 979.56 169.782 979.56ZM179.622 978.376C179.92 978.376 180.198 978.408 180.454 978.472L180.182 979.912C179.926 979.848 179.68 979.816 179.446 979.816C178.923 979.816 178.502 980.008 178.182 980.392C177.862 980.776 177.611 981.373 177.43 982.184V987H175.958V978.568H177.222L177.366 980.28C177.59 979.651 177.894 979.176 178.278 978.856C178.662 978.536 179.11 978.376 179.622 978.376ZM186.385 986.616C185.831 987 185.201 987.192 184.497 987.192C183.783 987.192 183.223 986.989 182.817 986.584C182.423 986.168 182.225 985.571 182.225 984.792V979.704H180.753V978.568H182.225V976.664L183.697 976.488V978.568H185.697L185.537 979.704H183.697V984.728C183.697 985.165 183.772 985.485 183.921 985.688C184.081 985.88 184.343 985.976 184.705 985.976C185.036 985.976 185.409 985.864 185.825 985.64L186.385 986.616ZM191.879 978.376C192.647 978.376 193.244 978.605 193.671 979.064C194.108 979.523 194.327 980.152 194.327 980.952V987H192.855V981.16C192.855 980.563 192.737 980.141 192.503 979.896C192.279 979.651 191.948 979.528 191.511 979.528C191.073 979.528 190.684 979.656 190.343 979.912C190.001 980.168 189.681 980.531 189.383 981V987H187.911V975.192L189.383 975.032V979.736C190.044 978.829 190.876 978.376 191.879 978.376ZM204.32 975.784C205.056 975.784 205.685 975.891 206.208 976.104C206.731 976.307 207.237 976.627 207.728 977.064L206.896 977.992C206.48 977.661 206.069 977.421 205.664 977.272C205.269 977.112 204.843 977.032 204.384 977.032C203.808 977.032 203.333 977.165 202.96 977.432C202.587 977.699 202.4 978.088 202.4 978.6C202.4 978.92 202.464 979.192 202.592 979.416C202.72 979.629 202.955 979.827 203.296 980.008C203.648 980.189 204.155 980.381 204.816 980.584C205.509 980.797 206.085 981.027 206.544 981.272C207.003 981.517 207.371 981.859 207.648 982.296C207.936 982.723 208.08 983.267 208.08 983.928C208.08 984.568 207.92 985.133 207.6 985.624C207.291 986.115 206.837 986.499 206.24 986.776C205.653 987.053 204.955 987.192 204.144 987.192C202.619 987.192 201.371 986.717 200.4 985.768L201.232 984.84C201.68 985.203 202.133 985.48 202.592 985.672C203.051 985.853 203.563 985.944 204.128 985.944C204.811 985.944 205.376 985.779 205.824 985.448C206.272 985.107 206.496 984.616 206.496 983.976C206.496 983.613 206.427 983.315 206.288 983.08C206.149 982.835 205.909 982.616 205.568 982.424C205.237 982.232 204.752 982.04 204.112 981.848C202.981 981.507 202.155 981.096 201.632 980.616C201.109 980.136 200.848 979.485 200.848 978.664C200.848 978.109 200.992 977.613 201.28 977.176C201.579 976.739 201.989 976.397 202.512 976.152C203.045 975.907 203.648 975.784 204.32 975.784ZM214.207 978.376C214.975 978.376 215.572 978.605 215.999 979.064C216.436 979.523 216.655 980.152 216.655 980.952V987H215.183V981.16C215.183 980.563 215.065 980.141 214.831 979.896C214.607 979.651 214.276 979.528 213.839 979.528C213.401 979.528 213.012 979.656 212.671 979.912C212.329 980.168 212.009 980.531 211.711 981V987H210.239V975.192L211.711 975.032V979.736C212.372 978.829 213.204 978.376 214.207 978.376ZM222.782 978.376C223.966 978.376 224.883 978.771 225.534 979.56C226.195 980.349 226.526 981.421 226.526 982.776C226.526 983.651 226.376 984.424 226.078 985.096C225.779 985.757 225.347 986.275 224.782 986.648C224.216 987.011 223.544 987.192 222.766 987.192C221.582 987.192 220.659 986.797 219.998 986.008C219.336 985.219 219.006 984.147 219.006 982.792C219.006 981.917 219.155 981.149 219.454 980.488C219.752 979.816 220.184 979.299 220.75 978.936C221.315 978.563 221.992 978.376 222.782 978.376ZM222.782 979.56C221.32 979.56 220.59 980.637 220.59 982.792C220.59 984.936 221.315 986.008 222.766 986.008C224.216 986.008 224.942 984.931 224.942 982.776C224.942 980.632 224.222 979.56 222.782 979.56ZM232.622 978.376C232.92 978.376 233.198 978.408 233.454 978.472L233.182 979.912C232.926 979.848 232.68 979.816 232.446 979.816C231.923 979.816 231.502 980.008 231.182 980.392C230.862 980.776 230.611 981.373 230.43 982.184V987H228.958V978.568H230.222L230.366 980.28C230.59 979.651 230.894 979.176 231.278 978.856C231.662 978.536 232.11 978.376 232.622 978.376ZM241.013 982.536C241.013 982.781 241.002 983.032 240.981 983.288H235.605C235.669 984.216 235.904 984.899 236.309 985.336C236.714 985.773 237.237 985.992 237.877 985.992C238.282 985.992 238.656 985.933 238.997 985.816C239.338 985.699 239.696 985.512 240.069 985.256L240.709 986.136C239.813 986.84 238.832 987.192 237.765 987.192C236.592 987.192 235.674 986.808 235.013 986.04C234.362 985.272 234.037 984.216 234.037 982.872C234.037 981.997 234.176 981.224 234.453 980.552C234.741 979.869 235.146 979.336 235.669 978.952C236.202 978.568 236.826 978.376 237.541 978.376C238.661 978.376 239.52 978.744 240.117 979.48C240.714 980.216 241.013 981.235 241.013 982.536ZM239.557 982.104C239.557 981.272 239.392 980.637 239.061 980.2C238.73 979.763 238.234 979.544 237.573 979.544C236.368 979.544 235.712 980.429 235.605 982.2H239.557V982.104ZM249.966 974.088V988.632H248.638V974.088H249.966ZM261.086 975.784C261.822 975.784 262.451 975.891 262.974 976.104C263.496 976.307 264.003 976.627 264.494 977.064L263.662 977.992C263.246 977.661 262.835 977.421 262.43 977.272C262.035 977.112 261.608 977.032 261.15 977.032C260.574 977.032 260.099 977.165 259.726 977.432C259.352 977.699 259.166 978.088 259.166 978.6C259.166 978.92 259.23 979.192 259.358 979.416C259.486 979.629 259.72 979.827 260.062 980.008C260.414 980.189 260.92 980.381 261.582 980.584C262.275 980.797 262.851 981.027 263.31 981.272C263.768 981.517 264.136 981.859 264.414 982.296C264.702 982.723 264.846 983.267 264.846 983.928C264.846 984.568 264.686 985.133 264.366 985.624C264.056 986.115 263.603 986.499 263.006 986.776C262.419 987.053 261.72 987.192 260.91 987.192C259.384 987.192 258.136 986.717 257.166 985.768L257.998 984.84C258.446 985.203 258.899 985.48 259.358 985.672C259.816 985.853 260.328 985.944 260.894 985.944C261.576 985.944 262.142 985.779 262.59 985.448C263.038 985.107 263.262 984.616 263.262 983.976C263.262 983.613 263.192 983.315 263.054 983.08C262.915 982.835 262.675 982.616 262.334 982.424C262.003 982.232 261.518 982.04 260.878 981.848C259.747 981.507 258.92 981.096 258.398 980.616C257.875 980.136 257.614 979.485 257.614 978.664C257.614 978.109 257.758 977.613 258.046 977.176C258.344 976.739 258.755 976.397 259.278 976.152C259.811 975.907 260.414 975.784 261.086 975.784ZM272.684 985.032C272.684 985.373 272.743 985.629 272.86 985.8C272.978 985.96 273.154 986.083 273.388 986.168L273.052 987.192C272.615 987.139 272.263 987.016 271.996 986.824C271.73 986.632 271.532 986.333 271.404 985.928C270.839 986.771 270.002 987.192 268.892 987.192C268.06 987.192 267.404 986.957 266.924 986.488C266.444 986.019 266.204 985.405 266.204 984.648C266.204 983.752 266.524 983.064 267.164 982.584C267.815 982.104 268.732 981.864 269.916 981.864H271.212V981.24C271.212 980.643 271.068 980.216 270.78 979.96C270.492 979.704 270.05 979.576 269.452 979.576C268.834 979.576 268.076 979.725 267.18 980.024L266.812 978.952C267.858 978.568 268.828 978.376 269.724 978.376C270.716 978.376 271.458 978.621 271.948 979.112C272.439 979.592 272.684 980.28 272.684 981.176V985.032ZM269.228 986.088C270.071 986.088 270.732 985.651 271.212 984.776V982.84H270.108C268.551 982.84 267.772 983.416 267.772 984.568C267.772 985.069 267.895 985.448 268.14 985.704C268.386 985.96 268.748 986.088 269.228 986.088ZM279.676 978.376C280.444 978.376 281.041 978.605 281.468 979.064C281.905 979.523 282.124 980.152 282.124 980.952V987H280.652V981.16C280.652 980.563 280.54 980.141 280.316 979.896C280.092 979.651 279.761 979.528 279.324 979.528C278.876 979.528 278.481 979.656 278.14 979.912C277.798 980.168 277.478 980.536 277.18 981.016V987H275.708V978.568H276.972L277.1 979.816C277.398 979.368 277.766 979.016 278.204 978.76C278.652 978.504 279.142 978.376 279.676 978.376ZM284.523 982.616V981.368H289.051V982.616H284.523ZM293.92 975.976C295.584 975.976 296.917 976.365 297.92 977.144C298.933 977.912 299.44 979.341 299.44 981.432C299.44 983.469 298.933 984.909 297.92 985.752C296.917 986.584 295.696 987 294.256 987H291.616V975.976H293.92ZM293.136 977.192V985.8H294.368C295.392 985.8 296.224 985.485 296.864 984.856C297.504 984.227 297.824 983.085 297.824 981.432C297.824 980.269 297.658 979.379 297.328 978.76C296.997 978.131 296.576 977.715 296.064 977.512C295.552 977.299 294.949 977.192 294.256 977.192H293.136ZM303.305 978.568V987H301.833V978.568H303.305ZM302.553 974.52C302.862 974.52 303.113 974.616 303.305 974.808C303.497 975 303.593 975.24 303.593 975.528C303.593 975.816 303.497 976.056 303.305 976.248C303.113 976.429 302.862 976.52 302.553 976.52C302.254 976.52 302.009 976.429 301.817 976.248C301.625 976.056 301.529 975.816 301.529 975.528C301.529 975.24 301.625 975 301.817 974.808C302.009 974.616 302.254 974.52 302.553 974.52ZM312.716 982.536C312.716 982.781 312.705 983.032 312.684 983.288H307.308C307.372 984.216 307.607 984.899 308.012 985.336C308.417 985.773 308.94 985.992 309.58 985.992C309.985 985.992 310.359 985.933 310.7 985.816C311.041 985.699 311.399 985.512 311.772 985.256L312.412 986.136C311.516 986.84 310.535 987.192 309.468 987.192C308.295 987.192 307.377 986.808 306.716 986.04C306.065 985.272 305.74 984.216 305.74 982.872C305.74 981.997 305.879 981.224 306.156 980.552C306.444 979.869 306.849 979.336 307.372 978.952C307.905 978.568 308.529 978.376 309.244 978.376C310.364 978.376 311.223 978.744 311.82 979.48C312.417 980.216 312.716 981.235 312.716 982.536ZM311.26 982.104C311.26 981.272 311.095 980.637 310.764 980.2C310.433 979.763 309.937 979.544 309.276 979.544C308.071 979.544 307.415 980.429 307.308 982.2H311.26V982.104ZM321.867 978.952C321.547 979.059 321.195 979.128 320.811 979.16C320.427 979.192 319.958 979.208 319.403 979.208C320.395 979.656 320.891 980.365 320.891 981.336C320.891 982.179 320.603 982.867 320.027 983.4C319.451 983.933 318.667 984.2 317.675 984.2C317.291 984.2 316.934 984.147 316.603 984.04C316.475 984.125 316.374 984.243 316.299 984.392C316.224 984.531 316.187 984.675 316.187 984.824C316.187 985.283 316.555 985.512 317.291 985.512H318.635C319.2 985.512 319.702 985.613 320.139 985.816C320.576 986.019 320.912 986.296 321.147 986.648C321.392 987 321.515 987.4 321.515 987.848C321.515 988.669 321.179 989.299 320.507 989.736C319.835 990.184 318.854 990.408 317.563 990.408C316.656 990.408 315.936 990.312 315.403 990.12C314.88 989.939 314.507 989.661 314.283 989.288C314.059 988.915 313.947 988.435 313.947 987.848H315.275C315.275 988.189 315.339 988.456 315.467 988.648C315.595 988.851 315.824 989 316.155 989.096C316.486 989.203 316.955 989.256 317.563 989.256C318.448 989.256 319.078 989.144 319.451 988.92C319.835 988.707 320.027 988.381 320.027 987.944C320.027 987.549 319.878 987.251 319.579 987.048C319.28 986.845 318.864 986.744 318.331 986.744H317.003C316.288 986.744 315.744 986.595 315.371 986.296C315.008 985.987 314.827 985.603 314.827 985.144C314.827 984.867 314.907 984.6 315.067 984.344C315.227 984.088 315.456 983.859 315.755 983.656C315.264 983.4 314.902 983.085 314.667 982.712C314.443 982.328 314.331 981.864 314.331 981.32C314.331 980.755 314.47 980.248 314.747 979.8C315.035 979.352 315.424 979.005 315.915 978.76C316.416 978.504 316.971 978.376 317.579 978.376C318.24 978.387 318.795 978.365 319.243 978.312C319.691 978.248 320.059 978.168 320.347 978.072C320.646 977.965 321.008 977.816 321.435 977.624L321.867 978.952ZM317.579 979.432C317.024 979.432 316.592 979.608 316.283 979.96C315.984 980.301 315.835 980.755 315.835 981.32C315.835 981.896 315.99 982.36 316.299 982.712C316.608 983.053 317.046 983.224 317.611 983.224C318.187 983.224 318.624 983.059 318.923 982.728C319.232 982.387 319.387 981.912 319.387 981.304C319.387 980.056 318.784 979.432 317.579 979.432ZM326.297 978.376C327.481 978.376 328.399 978.771 329.049 979.56C329.711 980.349 330.041 981.421 330.041 982.776C330.041 983.651 329.892 984.424 329.593 985.096C329.295 985.757 328.863 986.275 328.297 986.648C327.732 987.011 327.06 987.192 326.281 987.192C325.097 987.192 324.175 986.797 323.513 986.008C322.852 985.219 322.521 984.147 322.521 982.792C322.521 981.917 322.671 981.149 322.969 980.488C323.268 979.816 323.7 979.299 324.265 978.936C324.831 978.563 325.508 978.376 326.297 978.376ZM326.297 979.56C324.836 979.56 324.105 980.637 324.105 982.792C324.105 984.936 324.831 986.008 326.281 986.008C327.732 986.008 328.457 984.931 328.457 982.776C328.457 980.632 327.737 979.56 326.297 979.56ZM332.701 984.968C333.021 984.968 333.288 985.075 333.501 985.288C333.714 985.501 333.821 985.763 333.821 986.072C333.821 986.403 333.725 986.781 333.533 987.208L332.461 989.656H331.405L332.045 987C331.906 986.893 331.794 986.76 331.709 986.6C331.634 986.44 331.597 986.264 331.597 986.072C331.597 985.763 331.704 985.501 331.917 985.288C332.13 985.075 332.392 984.968 332.701 984.968ZM344.331 975.784C344.992 975.784 345.547 975.869 345.995 976.04C346.454 976.211 346.918 976.488 347.387 976.872L346.555 977.848C345.883 977.304 345.174 977.032 344.427 977.032C343.51 977.032 342.768 977.384 342.203 978.088C341.648 978.792 341.371 979.923 341.371 981.48C341.371 982.995 341.648 984.115 342.203 984.84C342.758 985.555 343.494 985.912 344.411 985.912C344.88 985.912 345.291 985.832 345.643 985.672C345.995 985.512 346.368 985.288 346.763 985L347.515 985.96C347.174 986.312 346.736 986.605 346.203 986.84C345.67 987.075 345.056 987.192 344.363 987.192C343.467 987.192 342.667 986.973 341.963 986.536C341.27 986.088 340.726 985.437 340.331 984.584C339.947 983.72 339.755 982.685 339.755 981.48C339.755 980.275 339.958 979.245 340.363 978.392C340.768 977.528 341.318 976.877 342.011 976.44C342.704 976.003 343.478 975.784 344.331 975.784ZM355.3 987L354.468 984.232H350.292L349.46 987H347.924L351.46 975.976H353.38L356.9 987H355.3ZM350.66 983H354.1L352.388 977.24L350.66 983Z" fill="white"/>
<path d="M725.5 862C679.5 897 737 887.5 711 914.5C685 941.5 668 895 610.5 923.5C553 952 532.5 884 501 914.5C469.5 945 433.5 936.5 411 961C387.8 979.8 378 980.833 376 979" stroke="white" stroke-width="2"/>
<path d="M598.378 846.784C599.039 846.784 599.594 846.869 600.042 847.04C600.501 847.211 600.965 847.488 601.434 847.872L600.602 848.848C599.93 848.304 599.221 848.032 598.474 848.032C597.557 848.032 596.815 848.384 596.25 849.088C595.695 849.792 595.418 850.923 595.418 852.48C595.418 853.995 595.695 855.115 596.25 855.84C596.805 856.555 597.541 856.912 598.458 856.912C598.927 856.912 599.338 856.832 599.69 856.672C600.042 856.512 600.415 856.288 600.81 856L601.562 856.96C601.221 857.312 600.783 857.605 600.25 857.84C599.717 858.075 599.103 858.192 598.41 858.192C597.514 858.192 596.714 857.973 596.01 857.536C595.317 857.088 594.773 856.437 594.378 855.584C593.994 854.72 593.802 853.685 593.802 852.48C593.802 851.275 594.005 850.245 594.41 849.392C594.815 848.528 595.365 847.877 596.058 847.44C596.751 847.003 597.525 846.784 598.378 846.784ZM609.401 858H608.137L608.025 856.688C607.705 857.211 607.337 857.595 606.921 857.84C606.505 858.075 605.999 858.192 605.401 858.192C604.665 858.192 604.089 857.968 603.673 857.52C603.257 857.072 603.049 856.437 603.049 855.616V849.568H604.521V855.456C604.521 856.032 604.623 856.443 604.825 856.688C605.028 856.923 605.359 857.04 605.817 857.04C606.639 857.04 607.343 856.555 607.929 855.584V849.568H609.401V858ZM616.106 849.376C616.405 849.376 616.682 849.408 616.938 849.472L616.666 850.912C616.41 850.848 616.165 850.816 615.93 850.816C615.407 850.816 614.986 851.008 614.666 851.392C614.346 851.776 614.095 852.373 613.914 853.184V858H612.442V849.568H613.706L613.85 851.28C614.074 850.651 614.378 850.176 614.762 849.856C615.146 849.536 615.594 849.376 616.106 849.376ZM622.278 849.376C622.576 849.376 622.854 849.408 623.11 849.472L622.838 850.912C622.582 850.848 622.336 850.816 622.102 850.816C621.579 850.816 621.158 851.008 620.838 851.392C620.518 851.776 620.267 852.373 620.086 853.184V858H618.614V849.568H619.878L620.022 851.28C620.246 850.651 620.55 850.176 620.934 849.856C621.318 849.536 621.766 849.376 622.278 849.376ZM630.669 853.536C630.669 853.781 630.659 854.032 630.637 854.288H625.261C625.325 855.216 625.56 855.899 625.965 856.336C626.371 856.773 626.893 856.992 627.533 856.992C627.939 856.992 628.312 856.933 628.653 856.816C628.995 856.699 629.352 856.512 629.725 856.256L630.365 857.136C629.469 857.84 628.488 858.192 627.421 858.192C626.248 858.192 625.331 857.808 624.669 857.04C624.019 856.272 623.693 855.216 623.693 853.872C623.693 852.997 623.832 852.224 624.109 851.552C624.397 850.869 624.803 850.336 625.325 849.952C625.859 849.568 626.483 849.376 627.197 849.376C628.317 849.376 629.176 849.744 629.773 850.48C630.371 851.216 630.669 852.235 630.669 853.536ZM629.213 853.104C629.213 852.272 629.048 851.637 628.717 851.2C628.387 850.763 627.891 850.544 627.229 850.544C626.024 850.544 625.368 851.429 625.261 853.2H629.213V853.104ZM636.988 849.376C637.756 849.376 638.353 849.605 638.78 850.064C639.217 850.523 639.436 851.152 639.436 851.952V858H637.964V852.16C637.964 851.563 637.852 851.141 637.628 850.896C637.404 850.651 637.073 850.528 636.636 850.528C636.188 850.528 635.793 850.656 635.452 850.912C635.111 851.168 634.791 851.536 634.492 852.016V858H633.02V849.568H634.284L634.412 850.816C634.711 850.368 635.079 850.016 635.516 849.76C635.964 849.504 636.455 849.376 636.988 849.376ZM646.651 857.616C646.096 858 645.467 858.192 644.763 858.192C644.048 858.192 643.488 857.989 643.083 857.584C642.688 857.168 642.491 856.571 642.491 855.792V850.704H641.019V849.568H642.491V847.664L643.963 847.488V849.568H645.963L645.803 850.704H643.963V855.728C643.963 856.165 644.038 856.485 644.187 856.688C644.347 856.88 644.608 856.976 644.971 856.976C645.302 856.976 645.675 856.864 646.091 856.64L646.651 857.616ZM654.011 846.976V856.672H658.539L658.363 858H652.491V846.976H654.011ZM663.141 849.376C664.325 849.376 665.242 849.771 665.893 850.56C666.554 851.349 666.885 852.421 666.885 853.776C666.885 854.651 666.736 855.424 666.437 856.096C666.138 856.757 665.706 857.275 665.141 857.648C664.576 858.011 663.904 858.192 663.125 858.192C661.941 858.192 661.018 857.797 660.357 857.008C659.696 856.219 659.365 855.147 659.365 853.792C659.365 852.917 659.514 852.149 659.813 851.488C660.112 850.816 660.544 850.299 661.109 849.936C661.674 849.563 662.352 849.376 663.141 849.376ZM663.141 850.56C661.68 850.56 660.949 851.637 660.949 853.792C660.949 855.936 661.674 857.008 663.125 857.008C664.576 857.008 665.301 855.931 665.301 853.776C665.301 851.632 664.581 850.56 663.141 850.56ZM672.389 849.376C672.89 849.376 673.349 849.451 673.765 849.6C674.181 849.739 674.581 849.968 674.965 850.288L674.261 851.216C673.962 851.003 673.669 850.848 673.381 850.752C673.104 850.645 672.794 850.592 672.453 850.592C671.77 850.592 671.237 850.864 670.853 851.408C670.48 851.952 670.293 852.757 670.293 853.824C670.293 854.891 670.48 855.68 670.853 856.192C671.226 856.693 671.76 856.944 672.453 856.944C672.784 856.944 673.088 856.896 673.365 856.8C673.642 856.693 673.952 856.528 674.293 856.304L674.965 857.264C674.197 857.883 673.338 858.192 672.389 858.192C671.248 858.192 670.346 857.808 669.685 857.04C669.034 856.272 668.709 855.211 668.709 853.856C668.709 852.96 668.858 852.176 669.157 851.504C669.456 850.832 669.877 850.309 670.421 849.936C670.976 849.563 671.632 849.376 672.389 849.376ZM682.481 856.032C682.481 856.373 682.54 856.629 682.657 856.8C682.775 856.96 682.951 857.083 683.185 857.168L682.849 858.192C682.412 858.139 682.06 858.016 681.793 857.824C681.527 857.632 681.329 857.333 681.201 856.928C680.636 857.771 679.799 858.192 678.689 858.192C677.857 858.192 677.201 857.957 676.721 857.488C676.241 857.019 676.001 856.405 676.001 855.648C676.001 854.752 676.321 854.064 676.961 853.584C677.612 853.104 678.529 852.864 679.713 852.864H681.009V852.24C681.009 851.643 680.865 851.216 680.577 850.96C680.289 850.704 679.847 850.576 679.249 850.576C678.631 850.576 677.873 850.725 676.977 851.024L676.609 849.952C677.655 849.568 678.625 849.376 679.521 849.376C680.513 849.376 681.255 849.621 681.745 850.112C682.236 850.592 682.481 851.28 682.481 852.176V856.032ZM679.025 857.088C679.868 857.088 680.529 856.651 681.009 855.776V853.84H679.905C678.348 853.84 677.569 854.416 677.569 855.568C677.569 856.069 677.692 856.448 677.937 856.704C678.183 856.96 678.545 857.088 679.025 857.088ZM689.76 857.616C689.206 858 688.576 858.192 687.872 858.192C687.158 858.192 686.598 857.989 686.192 857.584C685.798 857.168 685.6 856.571 685.6 855.792V850.704H684.128V849.568H685.6V847.664L687.072 847.488V849.568H689.072L688.912 850.704H687.072V855.728C687.072 856.165 687.147 856.485 687.296 856.688C687.456 856.88 687.718 856.976 688.08 856.976C688.411 856.976 688.784 856.864 689.2 856.64L689.76 857.616ZM692.758 849.568V858H691.286V849.568H692.758ZM692.006 845.52C692.315 845.52 692.566 845.616 692.758 845.808C692.95 846 693.046 846.24 693.046 846.528C693.046 846.816 692.95 847.056 692.758 847.248C692.566 847.429 692.315 847.52 692.006 847.52C691.707 847.52 691.462 847.429 691.27 847.248C691.078 847.056 690.982 846.816 690.982 846.528C690.982 846.24 691.078 846 691.27 845.808C691.462 845.616 691.707 845.52 692.006 845.52ZM698.969 849.376C700.153 849.376 701.071 849.771 701.721 850.56C702.383 851.349 702.713 852.421 702.713 853.776C702.713 854.651 702.564 855.424 702.265 856.096C701.967 856.757 701.535 857.275 700.969 857.648C700.404 858.011 699.732 858.192 698.953 858.192C697.769 858.192 696.847 857.797 696.185 857.008C695.524 856.219 695.193 855.147 695.193 853.792C695.193 852.917 695.343 852.149 695.641 851.488C695.94 850.816 696.372 850.299 696.937 849.936C697.503 849.563 698.18 849.376 698.969 849.376ZM698.969 850.56C697.508 850.56 696.777 851.637 696.777 853.792C696.777 855.936 697.503 857.008 698.953 857.008C700.404 857.008 701.129 855.931 701.129 853.776C701.129 851.632 700.409 850.56 698.969 850.56ZM709.113 849.376C709.881 849.376 710.478 849.605 710.905 850.064C711.342 850.523 711.561 851.152 711.561 851.952V858H710.089V852.16C710.089 851.563 709.977 851.141 709.753 850.896C709.529 850.651 709.198 850.528 708.761 850.528C708.313 850.528 707.918 850.656 707.577 850.912C707.236 851.168 706.916 851.536 706.617 852.016V858H705.145V849.568H706.409L706.537 850.816C706.836 850.368 707.204 850.016 707.641 849.76C708.089 849.504 708.58 849.376 709.113 849.376Z" fill="white"/>
</svg>
