<svg width="1064" height="1267" viewBox="0 0 1064 1267" fill="none" xmlns="http://www.w3.org/2000/svg">
<g opacity="0.29827">
<path d="M1008.08 934.448L443.182 414.142V23.8104L28.1096 1C24.9043 8.54402 4.36709 30.2855 7.57176 42.404C11.43 56.898 30.8387 52.2648 36.4776 61.5906C43.0661 72.58 31.7291 117.251 28.3457 130.14C21.8759 154.555 7.09676 174.335 2.82235 198.75C-4.35982 239.737 10.1824 236.47 37.7242 262.073C84.141 305.258 46.9244 350.048 58.6176 400.777C68.1146 442.122 109.605 463.446 124.8 504.789C136.553 536.63 152.697 544.767 177.746 568.053C177.153 553.916 164.51 512.215 188.253 515.898C211.817 519.522 202.736 554.331 207.247 568.885C211.045 581.003 237.933 605.239 215.616 616.407C208.196 620.09 187.066 605.418 178.577 601.497C184.572 620.209 180.774 639.633 190.271 657.513C201.608 678.838 213.835 670.641 228.853 682.225C244.344 694.164 242.683 707.886 235.797 725.945C228.615 744.775 221.196 741.865 232.592 764.557C240.843 780.951 254.85 801.742 266.9 814.216C273.904 821.463 281.502 823.127 288.506 832.393C294.323 840.115 292.067 850.214 299.012 857.164C310.883 869.104 331.006 869.282 340.384 884.904C350.831 902.309 338.96 915.437 369.706 913.833C371.309 948.643 377.897 980.185 377.541 1014.99C394.695 1021.82 422.414 1013.69 440.399 1010.06C458.266 1034.18 481.355 1017.43 501.774 1030.56C510.678 1036.26 508.837 1050.52 514.239 1055.51C525.339 1065.72 533.529 1059.31 547.301 1062.87C557.51 1065.49 565.404 1072.97 575.138 1075.7C584.338 1078.26 599.475 1072.26 606.301 1080.4C614.492 1090.14 600.78 1107.96 613.127 1115.8C623.395 1122.33 638.115 1106.77 648.088 1109.03C659.721 1111.7 693.079 1142.17 701.271 1152.21C710.59 1163.68 719.969 1185.06 725.25 1199.79C733.501 1222.84 732.373 1234.13 749.408 1251C760.27 1261.75 749.942 1262.52 767.63 1265.67C779.204 1267.75 794.518 1259.37 806.212 1258.07C830.549 1255.39 855.122 1260.03 879.102 1255.45C901.421 1251.18 922.729 1244.17 945.64 1240.9C965.465 1238.05 1000.37 1240.25 1017.94 1230.8C1036.99 1220.64 1038.71 1197.65 1011.17 1201.93C1008.97 1187.26 1018.77 1167 1007.85 1156.85C1023.04 1136.06 1028.56 1121.38 1030.93 1095.96C1032 1084.79 1032.48 1072.44 1038 1063.05C1043.4 1053.78 1058.59 1048.26 1061.56 1040.3C1066.13 1027.94 1058.83 1022.42 1053.25 1015.53C1049.69 1011.07 1039.54 1013.21 1036.63 1009.29C1031.23 1002.1 1036.57 994.678 1033.6 987.431C1024.94 966.462 1014.61 958.205 1008.08 934.444C1008.26 938.424 1008.44 942.463 1008.2 946.384" stroke="white" stroke-linecap="round" stroke-linejoin="round"/>
</g>
<path d="M732.47 843C723.902 866.381 743.969 874.586 760.031 889.868C764.79 894.396 765.244 901.878 760.235 906.403C749.462 916.134 708.619 901.977 711.21 914.806C713.886 928.055 748.417 946.592 749.973 947.86C763.64 958.992 768.091 987.235 760.564 1002.72C755.208 1013.74 719.698 1010.02 708.528 1006.35C635.38 982.326 668.341 985.192 586.172 977.73C579.882 977.159 573.291 976.867 567.25 978.711C561.027 980.61 561.225 988.399 563.313 992.611C570.231 1006.57 601.205 1030.24 592.869 1048.58C590.312 1054.21 584.319 1057.77 581.62 1063.33C579.506 1067.69 579.741 1072.83 578.801 1077.58" stroke="white" stroke-width="2"/>
<path fill-rule="evenodd" clip-rule="evenodd" d="M580.5 1091C584.09 1091 587 1088.09 587 1084.5C587 1080.91 584.09 1078 580.5 1078C576.91 1078 574 1080.91 574 1084.5C574 1088.09 576.91 1091 580.5 1091Z" fill="#4AF6CD"/>
<path fill-rule="evenodd" clip-rule="evenodd" d="M373 999C374.657 999 376 997.657 376 996C376 994.343 374.657 993 373 993C371.343 993 370 994.343 370 996C370 997.657 371.343 999 373 999Z" fill="#4AF6CD"/>
<path fill-rule="evenodd" clip-rule="evenodd" d="M725 1242C726.657 1242 728 1240.66 728 1239C728 1237.34 726.657 1236 725 1236C723.343 1236 722 1237.34 722 1239C722 1240.66 723.343 1242 725 1242Z" fill="#4AF6CD"/>
<path fill-rule="evenodd" clip-rule="evenodd" d="M663 1141C664.657 1141 666 1139.66 666 1138C666 1136.34 664.657 1135 663 1135C661.343 1135 660 1136.34 660 1138C660 1139.66 661.343 1141 663 1141Z" fill="#4AF6CD"/>
<path fill-rule="evenodd" clip-rule="evenodd" d="M734.5 849C738.09 849 741 846.09 741 842.5C741 838.91 738.09 836 734.5 836C730.91 836 728 838.91 728 842.5C728 846.09 730.91 849 734.5 849Z" fill="#4AF6CD"/>
<path d="M403.41 1079.98L401.17 1091H399.218L397.186 1081.77L395.138 1091H393.234L390.994 1079.98H392.482L394.258 1089.67L396.386 1079.98H398.002L400.178 1089.67L402.018 1079.98H403.41ZM411.544 1086.54C411.544 1086.78 411.534 1087.03 411.512 1087.29H406.136C406.2 1088.22 406.435 1088.9 406.84 1089.34C407.246 1089.77 407.768 1089.99 408.408 1089.99C408.814 1089.99 409.187 1089.93 409.528 1089.82C409.87 1089.7 410.227 1089.51 410.6 1089.26L411.24 1090.14C410.344 1090.84 409.363 1091.19 408.296 1091.19C407.123 1091.19 406.206 1090.81 405.544 1090.04C404.894 1089.27 404.568 1088.22 404.568 1086.87C404.568 1086 404.707 1085.22 404.984 1084.55C405.272 1083.87 405.678 1083.34 406.2 1082.95C406.734 1082.57 407.358 1082.38 408.072 1082.38C409.192 1082.38 410.051 1082.74 410.648 1083.48C411.246 1084.22 411.544 1085.23 411.544 1086.54ZM410.088 1086.1C410.088 1085.27 409.923 1084.64 409.592 1084.2C409.262 1083.76 408.766 1083.54 408.104 1083.54C406.899 1083.54 406.243 1084.43 406.136 1086.2H410.088V1086.1ZM416.183 1082.38C416.759 1082.38 417.276 1082.46 417.735 1082.62C418.194 1082.78 418.631 1083.02 419.047 1083.34L418.423 1084.26C418.039 1084.02 417.671 1083.84 417.319 1083.72C416.978 1083.6 416.615 1083.54 416.231 1083.54C415.751 1083.54 415.372 1083.65 415.095 1083.85C414.818 1084.04 414.679 1084.31 414.679 1084.65C414.679 1084.99 414.807 1085.26 415.063 1085.45C415.33 1085.64 415.804 1085.83 416.487 1086.01C417.426 1086.24 418.124 1086.56 418.583 1086.97C419.052 1087.37 419.287 1087.93 419.287 1088.63C419.287 1089.46 418.962 1090.1 418.311 1090.54C417.671 1090.97 416.887 1091.19 415.959 1091.19C414.679 1091.19 413.618 1090.82 412.775 1090.09L413.559 1089.19C414.274 1089.74 415.063 1090.01 415.927 1090.01C416.482 1090.01 416.919 1089.9 417.239 1089.67C417.57 1089.44 417.735 1089.12 417.735 1088.73C417.735 1088.44 417.676 1088.21 417.559 1088.04C417.442 1087.86 417.239 1087.7 416.951 1087.58C416.663 1087.44 416.242 1087.29 415.687 1087.14C414.791 1086.91 414.14 1086.59 413.735 1086.2C413.34 1085.81 413.143 1085.3 413.143 1084.7C413.143 1084.26 413.271 1083.86 413.527 1083.51C413.794 1083.15 414.156 1082.87 414.615 1082.68C415.084 1082.48 415.607 1082.38 416.183 1082.38ZM425.62 1090.62C425.065 1091 424.436 1091.19 423.732 1091.19C423.017 1091.19 422.457 1090.99 422.052 1090.58C421.657 1090.17 421.46 1089.57 421.46 1088.79V1083.7H419.988V1082.57H421.46V1080.66L422.932 1080.49V1082.57H424.932L424.772 1083.7H422.932V1088.73C422.932 1089.17 423.006 1089.49 423.156 1089.69C423.316 1089.88 423.577 1089.98 423.94 1089.98C424.27 1089.98 424.644 1089.86 425.06 1089.64L425.62 1090.62ZM434.179 1079.78C434.915 1079.78 435.545 1079.89 436.067 1080.1C436.59 1080.31 437.097 1080.63 437.587 1081.06L436.755 1081.99C436.339 1081.66 435.929 1081.42 435.523 1081.27C435.129 1081.11 434.702 1081.03 434.243 1081.03C433.667 1081.03 433.193 1081.17 432.819 1081.43C432.446 1081.7 432.259 1082.09 432.259 1082.6C432.259 1082.92 432.323 1083.19 432.451 1083.42C432.579 1083.63 432.814 1083.83 433.155 1084.01C433.507 1084.19 434.014 1084.38 434.675 1084.58C435.369 1084.8 435.945 1085.03 436.403 1085.27C436.862 1085.52 437.23 1085.86 437.507 1086.3C437.795 1086.72 437.939 1087.27 437.939 1087.93C437.939 1088.57 437.779 1089.13 437.459 1089.62C437.15 1090.11 436.697 1090.5 436.099 1090.78C435.513 1091.05 434.814 1091.19 434.003 1091.19C432.478 1091.19 431.23 1090.72 430.259 1089.77L431.091 1088.84C431.539 1089.2 431.993 1089.48 432.451 1089.67C432.91 1089.85 433.422 1089.94 433.987 1089.94C434.67 1089.94 435.235 1089.78 435.683 1089.45C436.131 1089.11 436.355 1088.62 436.355 1087.98C436.355 1087.61 436.286 1087.31 436.147 1087.08C436.009 1086.83 435.769 1086.62 435.427 1086.42C435.097 1086.23 434.611 1086.04 433.971 1085.85C432.841 1085.51 432.014 1085.1 431.491 1084.62C430.969 1084.14 430.707 1083.49 430.707 1082.66C430.707 1082.11 430.851 1081.61 431.139 1081.18C431.438 1080.74 431.849 1080.4 432.371 1080.15C432.905 1079.91 433.507 1079.78 434.179 1079.78ZM444.066 1082.38C444.834 1082.38 445.431 1082.61 445.858 1083.06C446.295 1083.52 446.514 1084.15 446.514 1084.95V1091H445.042V1085.16C445.042 1084.56 444.925 1084.14 444.69 1083.9C444.466 1083.65 444.135 1083.53 443.698 1083.53C443.261 1083.53 442.871 1083.66 442.53 1083.91C442.189 1084.17 441.869 1084.53 441.57 1085V1091H440.098V1079.19L441.57 1079.03V1083.74C442.231 1082.83 443.063 1082.38 444.066 1082.38ZM452.641 1082.38C453.825 1082.38 454.742 1082.77 455.393 1083.56C456.054 1084.35 456.385 1085.42 456.385 1086.78C456.385 1087.65 456.236 1088.42 455.937 1089.1C455.638 1089.76 455.206 1090.27 454.641 1090.65C454.076 1091.01 453.404 1091.19 452.625 1091.19C451.441 1091.19 450.518 1090.8 449.857 1090.01C449.196 1089.22 448.865 1088.15 448.865 1086.79C448.865 1085.92 449.014 1085.15 449.313 1084.49C449.612 1083.82 450.044 1083.3 450.609 1082.94C451.174 1082.56 451.852 1082.38 452.641 1082.38ZM452.641 1083.56C451.18 1083.56 450.449 1084.64 450.449 1086.79C450.449 1088.94 451.174 1090.01 452.625 1090.01C454.076 1090.01 454.801 1088.93 454.801 1086.78C454.801 1084.63 454.081 1083.56 452.641 1083.56ZM462.481 1082.38C462.78 1082.38 463.057 1082.41 463.313 1082.47L463.041 1083.91C462.785 1083.85 462.54 1083.82 462.305 1083.82C461.782 1083.82 461.361 1084.01 461.041 1084.39C460.721 1084.78 460.47 1085.37 460.289 1086.18V1091H458.817V1082.57H460.081L460.225 1084.28C460.449 1083.65 460.753 1083.18 461.137 1082.86C461.521 1082.54 461.969 1082.38 462.481 1082.38ZM470.872 1086.54C470.872 1086.78 470.862 1087.03 470.84 1087.29H465.464C465.528 1088.22 465.763 1088.9 466.168 1089.34C466.574 1089.77 467.096 1089.99 467.736 1089.99C468.142 1089.99 468.515 1089.93 468.856 1089.82C469.198 1089.7 469.555 1089.51 469.928 1089.26L470.568 1090.14C469.672 1090.84 468.691 1091.19 467.624 1091.19C466.451 1091.19 465.534 1090.81 464.872 1090.04C464.222 1089.27 463.896 1088.22 463.896 1086.87C463.896 1086 464.035 1085.22 464.312 1084.55C464.6 1083.87 465.006 1083.34 465.528 1082.95C466.062 1082.57 466.686 1082.38 467.4 1082.38C468.52 1082.38 469.379 1082.74 469.976 1083.48C470.574 1084.22 470.872 1085.23 470.872 1086.54ZM469.416 1086.1C469.416 1085.27 469.251 1084.64 468.92 1084.2C468.59 1083.76 468.094 1083.54 467.432 1083.54C466.227 1083.54 465.571 1084.43 465.464 1086.2H469.416V1086.1ZM479.41 1078.18V1092.57H479.058V1078.18H479.41ZM498.237 1091H496.765L496.381 1086.02C496.221 1084.07 496.131 1082.57 496.109 1081.53L493.725 1089.75H492.301L489.789 1081.51C489.789 1082.85 489.72 1084.39 489.581 1086.14L489.213 1091H487.773L488.685 1079.98H490.733L493.053 1087.99L495.261 1079.98H497.325L498.237 1091ZM506.434 1089.03C506.434 1089.37 506.493 1089.63 506.61 1089.8C506.728 1089.96 506.904 1090.08 507.138 1090.17L506.802 1091.19C506.365 1091.14 506.013 1091.02 505.746 1090.82C505.48 1090.63 505.282 1090.33 505.154 1089.93C504.589 1090.77 503.752 1091.19 502.642 1091.19C501.81 1091.19 501.154 1090.96 500.674 1090.49C500.194 1090.02 499.954 1089.41 499.954 1088.65C499.954 1087.75 500.274 1087.06 500.914 1086.58C501.565 1086.1 502.482 1085.86 503.666 1085.86H504.962V1085.24C504.962 1084.64 504.818 1084.22 504.53 1083.96C504.242 1083.7 503.8 1083.58 503.202 1083.58C502.584 1083.58 501.826 1083.73 500.93 1084.02L500.562 1082.95C501.608 1082.57 502.578 1082.38 503.474 1082.38C504.466 1082.38 505.208 1082.62 505.698 1083.11C506.189 1083.59 506.434 1084.28 506.434 1085.18V1089.03ZM502.978 1090.09C503.821 1090.09 504.482 1089.65 504.962 1088.78V1086.84H503.858C502.301 1086.84 501.522 1087.42 501.522 1088.57C501.522 1089.07 501.645 1089.45 501.89 1089.7C502.136 1089.96 502.498 1090.09 502.978 1090.09ZM510.981 1091.19C510.437 1091.19 510.005 1091.03 509.685 1090.71C509.376 1090.38 509.221 1089.92 509.221 1089.34V1079.18L510.693 1079V1089.3C510.693 1089.54 510.731 1089.71 510.805 1089.82C510.891 1089.92 511.029 1089.98 511.221 1089.98C511.424 1089.98 511.605 1089.94 511.765 1089.88L512.149 1090.9C511.797 1091.1 511.408 1091.19 510.981 1091.19ZM515.461 1082.57V1091H513.989V1082.57H515.461ZM514.709 1078.52C515.018 1078.52 515.269 1078.62 515.461 1078.81C515.653 1079 515.749 1079.24 515.749 1079.53C515.749 1079.82 515.653 1080.06 515.461 1080.25C515.269 1080.43 515.018 1080.52 514.709 1080.52C514.41 1080.52 514.165 1080.43 513.973 1080.25C513.781 1080.06 513.685 1079.82 513.685 1079.53C513.685 1079.24 513.781 1079 513.973 1078.81C514.165 1078.62 514.41 1078.52 514.709 1078.52ZM522.36 1082.38C523.32 1082.38 524.083 1082.77 524.648 1083.54C525.214 1084.31 525.496 1085.39 525.496 1086.78C525.496 1087.65 525.363 1088.42 525.096 1089.1C524.83 1089.76 524.446 1090.27 523.944 1090.65C523.443 1091.01 522.856 1091.19 522.184 1091.19C521.299 1091.19 520.552 1090.82 519.944 1090.07L519.8 1091H518.504V1079.18L519.976 1079V1083.62C520.584 1082.79 521.379 1082.38 522.36 1082.38ZM521.832 1090.02C522.483 1090.02 522.99 1089.76 523.352 1089.24C523.726 1088.71 523.912 1087.89 523.912 1086.78C523.912 1085.63 523.742 1084.81 523.4 1084.31C523.059 1083.8 522.574 1083.54 521.944 1083.54C521.198 1083.54 520.542 1083.98 519.976 1084.86V1088.89C520.2 1089.24 520.472 1089.52 520.792 1089.72C521.123 1089.92 521.47 1090.02 521.832 1090.02ZM534.276 1091H533.012L532.9 1089.69C532.58 1090.21 532.212 1090.59 531.796 1090.84C531.38 1091.07 530.874 1091.19 530.276 1091.19C529.54 1091.19 528.964 1090.97 528.548 1090.52C528.132 1090.07 527.924 1089.44 527.924 1088.62V1082.57H529.396V1088.46C529.396 1089.03 529.498 1089.44 529.7 1089.69C529.903 1089.92 530.234 1090.04 530.692 1090.04C531.514 1090.04 532.218 1089.55 532.804 1088.58V1082.57H534.276V1091ZM537.701 1088.97C538.021 1088.97 538.288 1089.07 538.501 1089.29C538.714 1089.5 538.821 1089.76 538.821 1090.07C538.821 1090.4 538.725 1090.78 538.533 1091.21L537.461 1093.66H536.405L537.045 1091C536.906 1090.89 536.794 1090.76 536.709 1090.6C536.634 1090.44 536.597 1090.26 536.597 1090.07C536.597 1089.76 536.704 1089.5 536.917 1089.29C537.13 1089.07 537.392 1088.97 537.701 1088.97ZM549.331 1079.78C549.992 1079.78 550.547 1079.87 550.995 1080.04C551.454 1080.21 551.918 1080.49 552.387 1080.87L551.555 1081.85C550.883 1081.3 550.174 1081.03 549.427 1081.03C548.51 1081.03 547.768 1081.38 547.203 1082.09C546.648 1082.79 546.371 1083.92 546.371 1085.48C546.371 1086.99 546.648 1088.11 547.203 1088.84C547.758 1089.55 548.494 1089.91 549.411 1089.91C549.88 1089.91 550.291 1089.83 550.643 1089.67C550.995 1089.51 551.368 1089.29 551.763 1089L552.515 1089.96C552.174 1090.31 551.736 1090.61 551.203 1090.84C550.67 1091.07 550.056 1091.19 549.363 1091.19C548.467 1091.19 547.667 1090.97 546.963 1090.54C546.27 1090.09 545.726 1089.44 545.331 1088.58C544.947 1087.72 544.755 1086.69 544.755 1085.48C544.755 1084.27 544.958 1083.25 545.363 1082.39C545.768 1081.53 546.318 1080.88 547.011 1080.44C547.704 1080 548.478 1079.78 549.331 1079.78ZM560.3 1091L559.468 1088.23H555.292L554.46 1091H552.924L556.46 1079.98H558.38L561.9 1091H560.3ZM555.66 1087H559.1L557.388 1081.24L555.66 1087Z" fill="white"/>
<path d="M598.378 846.784C599.039 846.784 599.594 846.869 600.042 847.04C600.501 847.211 600.965 847.488 601.434 847.872L600.602 848.848C599.93 848.304 599.221 848.032 598.474 848.032C597.557 848.032 596.815 848.384 596.25 849.088C595.695 849.792 595.418 850.923 595.418 852.48C595.418 853.995 595.695 855.115 596.25 855.84C596.805 856.555 597.541 856.912 598.458 856.912C598.927 856.912 599.338 856.832 599.69 856.672C600.042 856.512 600.415 856.288 600.81 856L601.562 856.96C601.221 857.312 600.783 857.605 600.25 857.84C599.717 858.075 599.103 858.192 598.41 858.192C597.514 858.192 596.714 857.973 596.01 857.536C595.317 857.088 594.773 856.437 594.378 855.584C593.994 854.72 593.802 853.685 593.802 852.48C593.802 851.275 594.005 850.245 594.41 849.392C594.815 848.528 595.365 847.877 596.058 847.44C596.751 847.003 597.525 846.784 598.378 846.784ZM609.401 858H608.137L608.025 856.688C607.705 857.211 607.337 857.595 606.921 857.84C606.505 858.075 605.999 858.192 605.401 858.192C604.665 858.192 604.089 857.968 603.673 857.52C603.257 857.072 603.049 856.437 603.049 855.616V849.568H604.521V855.456C604.521 856.032 604.623 856.443 604.825 856.688C605.028 856.923 605.359 857.04 605.817 857.04C606.639 857.04 607.343 856.555 607.929 855.584V849.568H609.401V858ZM616.106 849.376C616.405 849.376 616.682 849.408 616.938 849.472L616.666 850.912C616.41 850.848 616.165 850.816 615.93 850.816C615.407 850.816 614.986 851.008 614.666 851.392C614.346 851.776 614.095 852.373 613.914 853.184V858H612.442V849.568H613.706L613.85 851.28C614.074 850.651 614.378 850.176 614.762 849.856C615.146 849.536 615.594 849.376 616.106 849.376ZM622.278 849.376C622.576 849.376 622.854 849.408 623.11 849.472L622.838 850.912C622.582 850.848 622.336 850.816 622.102 850.816C621.579 850.816 621.158 851.008 620.838 851.392C620.518 851.776 620.267 852.373 620.086 853.184V858H618.614V849.568H619.878L620.022 851.28C620.246 850.651 620.55 850.176 620.934 849.856C621.318 849.536 621.766 849.376 622.278 849.376ZM630.669 853.536C630.669 853.781 630.659 854.032 630.637 854.288H625.261C625.325 855.216 625.56 855.899 625.965 856.336C626.371 856.773 626.893 856.992 627.533 856.992C627.939 856.992 628.312 856.933 628.653 856.816C628.995 856.699 629.352 856.512 629.725 856.256L630.365 857.136C629.469 857.84 628.488 858.192 627.421 858.192C626.248 858.192 625.331 857.808 624.669 857.04C624.019 856.272 623.693 855.216 623.693 853.872C623.693 852.997 623.832 852.224 624.109 851.552C624.397 850.869 624.803 850.336 625.325 849.952C625.859 849.568 626.483 849.376 627.197 849.376C628.317 849.376 629.176 849.744 629.773 850.48C630.371 851.216 630.669 852.235 630.669 853.536ZM629.213 853.104C629.213 852.272 629.048 851.637 628.717 851.2C628.387 850.763 627.891 850.544 627.229 850.544C626.024 850.544 625.368 851.429 625.261 853.2H629.213V853.104ZM636.988 849.376C637.756 849.376 638.353 849.605 638.78 850.064C639.217 850.523 639.436 851.152 639.436 851.952V858H637.964V852.16C637.964 851.563 637.852 851.141 637.628 850.896C637.404 850.651 637.073 850.528 636.636 850.528C636.188 850.528 635.793 850.656 635.452 850.912C635.111 851.168 634.791 851.536 634.492 852.016V858H633.02V849.568H634.284L634.412 850.816C634.711 850.368 635.079 850.016 635.516 849.76C635.964 849.504 636.455 849.376 636.988 849.376ZM646.651 857.616C646.096 858 645.467 858.192 644.763 858.192C644.048 858.192 643.488 857.989 643.083 857.584C642.688 857.168 642.491 856.571 642.491 855.792V850.704H641.019V849.568H642.491V847.664L643.963 847.488V849.568H645.963L645.803 850.704H643.963V855.728C643.963 856.165 644.038 856.485 644.187 856.688C644.347 856.88 644.608 856.976 644.971 856.976C645.302 856.976 645.675 856.864 646.091 856.64L646.651 857.616ZM654.011 846.976V856.672H658.539L658.363 858H652.491V846.976H654.011ZM663.141 849.376C664.325 849.376 665.242 849.771 665.893 850.56C666.554 851.349 666.885 852.421 666.885 853.776C666.885 854.651 666.736 855.424 666.437 856.096C666.138 856.757 665.706 857.275 665.141 857.648C664.576 858.011 663.904 858.192 663.125 858.192C661.941 858.192 661.018 857.797 660.357 857.008C659.696 856.219 659.365 855.147 659.365 853.792C659.365 852.917 659.514 852.149 659.813 851.488C660.112 850.816 660.544 850.299 661.109 849.936C661.674 849.563 662.352 849.376 663.141 849.376ZM663.141 850.56C661.68 850.56 660.949 851.637 660.949 853.792C660.949 855.936 661.674 857.008 663.125 857.008C664.576 857.008 665.301 855.931 665.301 853.776C665.301 851.632 664.581 850.56 663.141 850.56ZM672.389 849.376C672.89 849.376 673.349 849.451 673.765 849.6C674.181 849.739 674.581 849.968 674.965 850.288L674.261 851.216C673.962 851.003 673.669 850.848 673.381 850.752C673.104 850.645 672.794 850.592 672.453 850.592C671.77 850.592 671.237 850.864 670.853 851.408C670.48 851.952 670.293 852.757 670.293 853.824C670.293 854.891 670.48 855.68 670.853 856.192C671.226 856.693 671.76 856.944 672.453 856.944C672.784 856.944 673.088 856.896 673.365 856.8C673.642 856.693 673.952 856.528 674.293 856.304L674.965 857.264C674.197 857.883 673.338 858.192 672.389 858.192C671.248 858.192 670.346 857.808 669.685 857.04C669.034 856.272 668.709 855.211 668.709 853.856C668.709 852.96 668.858 852.176 669.157 851.504C669.456 850.832 669.877 850.309 670.421 849.936C670.976 849.563 671.632 849.376 672.389 849.376ZM682.481 856.032C682.481 856.373 682.54 856.629 682.657 856.8C682.775 856.96 682.951 857.083 683.185 857.168L682.849 858.192C682.412 858.139 682.06 858.016 681.793 857.824C681.527 857.632 681.329 857.333 681.201 856.928C680.636 857.771 679.799 858.192 678.689 858.192C677.857 858.192 677.201 857.957 676.721 857.488C676.241 857.019 676.001 856.405 676.001 855.648C676.001 854.752 676.321 854.064 676.961 853.584C677.612 853.104 678.529 852.864 679.713 852.864H681.009V852.24C681.009 851.643 680.865 851.216 680.577 850.96C680.289 850.704 679.847 850.576 679.249 850.576C678.631 850.576 677.873 850.725 676.977 851.024L676.609 849.952C677.655 849.568 678.625 849.376 679.521 849.376C680.513 849.376 681.255 849.621 681.745 850.112C682.236 850.592 682.481 851.28 682.481 852.176V856.032ZM679.025 857.088C679.868 857.088 680.529 856.651 681.009 855.776V853.84H679.905C678.348 853.84 677.569 854.416 677.569 855.568C677.569 856.069 677.692 856.448 677.937 856.704C678.183 856.96 678.545 857.088 679.025 857.088ZM689.76 857.616C689.206 858 688.576 858.192 687.872 858.192C687.158 858.192 686.598 857.989 686.192 857.584C685.798 857.168 685.6 856.571 685.6 855.792V850.704H684.128V849.568H685.6V847.664L687.072 847.488V849.568H689.072L688.912 850.704H687.072V855.728C687.072 856.165 687.147 856.485 687.296 856.688C687.456 856.88 687.718 856.976 688.08 856.976C688.411 856.976 688.784 856.864 689.2 856.64L689.76 857.616ZM692.758 849.568V858H691.286V849.568H692.758ZM692.006 845.52C692.315 845.52 692.566 845.616 692.758 845.808C692.95 846 693.046 846.24 693.046 846.528C693.046 846.816 692.95 847.056 692.758 847.248C692.566 847.429 692.315 847.52 692.006 847.52C691.707 847.52 691.462 847.429 691.27 847.248C691.078 847.056 690.982 846.816 690.982 846.528C690.982 846.24 691.078 846 691.27 845.808C691.462 845.616 691.707 845.52 692.006 845.52ZM698.969 849.376C700.153 849.376 701.071 849.771 701.721 850.56C702.383 851.349 702.713 852.421 702.713 853.776C702.713 854.651 702.564 855.424 702.265 856.096C701.967 856.757 701.535 857.275 700.969 857.648C700.404 858.011 699.732 858.192 698.953 858.192C697.769 858.192 696.847 857.797 696.185 857.008C695.524 856.219 695.193 855.147 695.193 853.792C695.193 852.917 695.343 852.149 695.641 851.488C695.94 850.816 696.372 850.299 696.937 849.936C697.503 849.563 698.18 849.376 698.969 849.376ZM698.969 850.56C697.508 850.56 696.777 851.637 696.777 853.792C696.777 855.936 697.503 857.008 698.953 857.008C700.404 857.008 701.129 855.931 701.129 853.776C701.129 851.632 700.409 850.56 698.969 850.56ZM709.113 849.376C709.881 849.376 710.478 849.605 710.905 850.064C711.342 850.523 711.561 851.152 711.561 851.952V858H710.089V852.16C710.089 851.563 709.977 851.141 709.753 850.896C709.529 850.651 709.198 850.528 708.761 850.528C708.313 850.528 707.918 850.656 707.577 850.912C707.236 851.168 706.916 851.536 706.617 852.016V858H705.145V849.568H706.409L706.537 850.816C706.836 850.368 707.204 850.016 707.641 849.76C708.089 849.504 708.58 849.376 709.113 849.376Z" fill="white"/>
</svg>
