<svg version="1.0" xmlns="http://www.w3.org/2000/svg" width="1989.333" height="1989.333" viewBox="0 0 1492 1492"><path d="M738.9 2.6c-7.2 1.3-21.9 7-21.9 8.5 0 .5-.6.9-1.4.9-2.6 0-15.3 9.2-27.2 19.6-8.6 7.6-22.8 22.3-28.1 29.1-1.2 1.5-3 3.7-4 4.8-9.3 9.9-37.9 52.1-46.2 68-1.4 2.7-2.9 5.2-3.2 5.5-.5.4-4.9 8.6-13.6 25-.7 1.4-1.3 3-1.3 3.7 0 .6-.3 1.3-.7 1.5-.5.1-1.6 1.9-2.5 3.8-.9 1.9-3.5 7.2-5.7 11.7-2.1 4.5-3.7 8.4-3.3 8.7.3.3.1.6-.4.6-.6 0-1.6 1.6-2.3 3.6-.7 2-2.5 6.2-3.9 9.3-1.4 3.1-2.6 5.8-2.7 6.1-.4 1.4-2.8 6.8-4.1 9.4-.8 1.6-1.4 3.4-1.4 4 0 .6-.6 2.2-1.3 3.6-.8 1.4-1.8 3.9-2.5 5.5-.6 1.7-2 5.5-3.2 8.5-5.7 14.6-16.6 46.1-17.5 50.5-.3 1.1-.9 2.9-1.5 4-.5 1.1-1.8 5.1-2.9 9-1.1 3.8-2.9 10.1-4.1 14-1.2 3.8-2.3 7.7-2.5 8.5-.2.8-1.1 4.2-2 7.5-2.2 8.3-2 7.4-6 23-2 7.7-3.8 15.1-4.1 16.4-.3 1.2-1.2 5.3-2 9-2.1 9-2 8.4-4.3 19.5-3.1 14.6-5.6 27.2-6.6 33.6-.3 1.9-1.2 7.1-2.1 11.5-.8 4.4-1.7 9.3-1.9 11-.3 1.6-1.2 7.7-2.1 13.5-.9 5.8-1.7 11.6-1.9 13-.2 1.4-.6 4.5-1 7-1.2 9-1.5 11.1-2.1 16.2-.3 2.9-.8 6.4-1.1 7.8-.2 1.4-.5 3.2-.5 4 0 .8-.4 5.1-.9 9.5-2.6 24.3-2.8 26.7-3.4 35-.3 3.8-.7 9.2-1 12-3 36.4-4 66.8-3.9 121.5 0 55.8 1.4 98.6 4 127.7.3 3.4.7 8.8.9 12 .2 3.2.7 9.8 1.1 14.8.4 4.9.8 10.9.8 13.2.1 2.4.3 4.3.6 4.3s.5 1.5.6 3.2c0 1.8.4 6.4.8 10.3.4 3.8.9 8.8 1.1 11 .6 6 1.6 14.7 2 17.5.2 1.4.6 5.2 1 8.5.6 6 .8 7.5 2.1 17 .3 2.7.8 6.3.9 8 .4 3.9 1.3 10.4 1.9 13.5.3 1.4.8 4.7 1.1 7.5.3 2.7.7 6.1 1 7.5.5 3 1.4 9.3 2.1 14 .2 1.9 1.1 7.3 1.9 12 .8 4.7 1.7 10.3 2 12.5.3 2.2 1 6 1.5 8.5s1.2 6.1 1.4 8c.3 1.9.8 4.5 1 5.6.2 1.2.7 3.8 1 5.8.3 2 1.7 9.1 3.1 15.9 1.3 6.7 2.6 13.3 2.9 14.7.8 4.4 3.7 18.5 4 19.5.3 1 1.4 6.3 2 9.5.2.8.6 2.6.9 4 .3 1.4 2.3 9.7 4.2 18.5 2 8.8 6.1 25.9 9.2 37.9 3 12 5.6 22.6 5.8 23.5.2.9.8 2.9 1.5 4.6.6 1.6 1.1 3.2 1.1 3.5 0 1.1 1.3 6.1 6.4 24 7.9 27.5 10.5 36.3 11.2 38 .3.8.7 2.2.9 3 .2.8 3.1 9.8 6.5 20 3.3 10.2 6.2 19.2 6.4 20 .2.8.9 2.8 1.6 4.5.6 1.6 1.3 3.4 1.5 4 .1.5 2.2 6.6 4.7 13.5s5 14.1 5.7 16c.7 1.9 2.8 7.5 4.7 12.5 2 4.9 3.6 9.4 3.7 10 .2.5.9 2.6 1.8 4.5 1.6 3.7 7.2 18.2 7.3 19 .1.3.7 1.8 1.4 3.5.8 1.6 1.7 3.9 2.1 5 .4 1.1 1.5 3.6 2.3 5.5.8 1.9 4.2 9.8 7.5 17.5 10.6 24.8 33 71.1 35.6 73.8 1.5 1.5 172.1 1.6 173.5.1.5-.5 2.6-4.1 4.6-7.9 2-3.9 4.1-7.7 4.6-8.5 2-3.2 15.9-32.8 15.9-33.9 0-.6.4-1.1 1-1.1.5 0 .9-.3.8-.8-.2-.9 2.2-6.5 13.2-31.4 2.6-6 4.2-10 4.6-11.3.1-.6 2.1-5.5 4.4-11 2.3-5.5 5.8-14.3 7.7-19.5 2-5.2 4-10.6 4.6-12 .6-1.4 1.1-3 1.3-3.5.1-.6 1.4-4.2 2.9-8 2.8-7.3 13.3-36.9 14-39.5.8-2.7 3.6-11.4 5.5-16.5 1.7-4.5 8.6-26.7 11.1-35.5.6-1.9 1.2-4 1.3-4.5.2-.6.4-1.2.4-1.5l2-6c1.1-3 2-5.7 2-6 0-.3.3-1.2.6-2s1-3.5 1.7-6 1.4-5 1.5-5.5c.2-.6.6-2.3.9-3.9.3-1.6 1.1-3.8 1.6-4.8.6-1.1.8-2.2.5-2.5-.3-.4-.2-1.1.3-1.7.9-1.1 3.3-10.7 3-11.6-.1-.3.3-1.4.9-2.6.6-1.1 1.3-3.2 1.6-4.5.3-1.3.7-3.4 1-4.6.4-1.3.8-3.1 1-4 .2-1 1.4-5.4 2.5-9.8 1.2-4.4 2.4-8.9 2.6-10 .7-2.8 1-4.4 4.5-19 1.8-7.2 3.4-14.1 3.6-15.4.3-1.2 1.2-5.3 2-9 .9-3.6 1.8-7.7 2-9.1.3-1.4.7-3.3 1-4.2.5-1.7 1-4.2 1.9-9.1.3-1.5 1.2-6 2.1-10 .8-3.9 1.8-8.3 2-9.7.2-1.4.7-3.9 1.1-5.5.3-1.7.7-3.7.9-4.5.1-.8.7-4.2 1.4-7.5.6-3.3 1.3-7.4 1.6-9 .2-1.7.7-4.1 1.1-5.5.6-2.7.7-2.8 1.8-10.5.4-2.8.9-5.9 1.1-7 .3-1.1.7-3.6 1-5.5.3-1.9.7-4.1.9-4.8.3-.7.7-3.4 1-6 .6-4.7 1-6.9 1.8-10.7.3-1.1.8-4.3 1.1-7 .4-2.8.9-6.4 1.1-8 .2-1.7.6-4.6 1-6.5.3-2 .7-5.4 1-7.5.2-2.2.4-4 .5-4 .2 0 .4-1.4 1.5-10.5.4-3.6.9-7.2 1-8 .4-2 1.3-9.5 2-15.5.3-2.8.7-6.6 1-8.5.2-1.9.7-5.8 1-8.5.3-2.8.8-6.8 1.1-9 .2-2.2.6-6.4.9-9.4.2-3 .7-7.5 1-9.9.3-2.5.8-7.2 1-10.6.3-3.3.7-8.6 1-11.6.3-3 .7-8.4 1-12 .2-3.6.7-9.7 1-13.5 6.1-80.1 6.5-174.7 1.1-250-1.1-15.5-1.8-23.2-2.2-25.5-.2-1.4-.6-5.9-.9-10-.3-4.1-.8-8.6-1-10-.4-2.4-.8-6.1-2-17.5-.6-6-1.5-13-2-16.5-.2-1.4-.7-4.5-1-7-1.1-8.4-4.6-32.5-5.2-35.5-.3-1.7-.7-3.9-.8-5-.2-1.1-1-6.1-1.9-11-.9-5-1.8-10.4-2.1-12-.3-1.7-1-5-1.5-7.5s-1.1-5.9-1.4-7.5c-.2-1.7-.9-5-1.5-7.5-.5-2.5-1.3-6-1.6-7.9-.3-1.9-.7-3.7-.9-4-.2-.3-.7-2.4-1-4.6-.4-2.2-1.4-6.7-2.2-10-.9-3.3-1.8-7.1-2-8.5-.3-1.4-1-4.3-1.6-6.5-.5-2.2-1.2-4.7-1.4-5.5-.2-.8-.8-3.3-1.4-5.5-.6-2.2-1.2-4.9-1.4-6-.2-1.1-1.6-6.3-3-11.5-1.5-5.2-3.4-12-4.2-15-.8-3-2.9-10-4.6-15.5-1.8-5.5-3.3-10.5-3.4-11-.2-.6-.5-1.9-.8-3-.8-2.9-8.6-26.6-9.5-29-1.4-3.3-3.7-9.5-7.2-19-1.7-5-3.8-10.4-4.5-12-.7-1.7-2.7-6.6-4.4-11-1.8-4.4-3.8-9.4-4.5-11-.8-1.7-3-6.8-5-11.5-5.8-13.5-21.5-45.9-27.2-56-1.1-1.9-3.7-6.7-5.8-10.5-2.2-3.9-5.4-9.3-7.2-12.2-1.8-2.9-3.3-5.7-3.3-6.3 0-.5-.4-1-1-1-.5 0-1-.5-1-1.1 0-1-10.7-17.8-12.1-18.9-.3-.3-1.4-2-2.3-3.8-.9-1.7-2.1-3.2-2.6-3.2-.6 0-1-.5-1-1.1 0-.6-.9-2.3-2.1-3.7-1.1-1.5-4-5.4-6.5-8.7-7.3-9.8-9-11.9-17.7-22-12.1-14-34.4-34.6-41.4-38.3-1.2-.7-2.7-1.8-3.5-2.4-2-2-16.7-9.5-21.9-11.2-7.7-2.6-15.8-3.3-23-2zm-14.6 815.5c15 .6 45.7.2 46-.6.2-.6.3-169.6.3-375.8-.1-206.1.2-374.7.5-374.7.9 0 17.7 17.7 22.9 24 2.5 3 4.7 5.7 5 6 1.1 1 17.7 23.5 19.1 25.9.8 1.4 2.2 3.4 3.2 4.5.9 1.1 1.7 2.5 1.7 3.2 0 .7.4 1.4.9 1.6 1.7.6 19.7 30.9 28.2 47.6 2.1 4.1 4.2 7.9 4.8 8.5.5.7 1.2 2.4 1.6 4 .4 1.5 1.1 2.7 1.5 2.7.5 0 1.2.9 1.5 2.1.4 1.1 2.9 6.9 5.7 12.7 2.7 5.9 5.6 12 6.3 13.7 3.1 7.4 4.4 10.4 6.7 15.5 1.4 3 3.5 8.2 4.7 11.5 1.3 3.3 2.9 7.3 3.6 9 2.1 4.9 9.7 25.8 9.6 26.3-.1.1.6 1.9 1.5 4 .8 2 1.7 4.4 1.9 5.2.2.8 1.8 5.5 3.5 10.5 1.7 4.9 3.4 10.1 3.6 11.4.3 1.4.8 2.9 1.2 3.5.3.6.8 2 .9 3.1.2 1.1 1 3.8 1.8 6s1.7 5.1 1.9 6.5c.3 1.4.5 2.6.7 2.7.1.2.2.6.4 1 .1.5.4 1.5.8 2.3.5 1.4 1.7 5.8 2.3 8.7.1.6.7 2.7 1.3 4.5.6 1.8 1.3 4.4 1.5 5.8.3 1.4 1 4.1 1.5 6 1.5 5.3 7.9 32.1 8.5 35.2.2 1.5.7 3.1 1 3.6.3.5.8 3.1 1.2 5.8.3 2.7.8 5.3 1.1 5.7.3.5.6 1.8.8 3 .4 3.4 1.5 9 2.1 10.8.2.9.7 3.3.9 5.4.3 2 .7 4 .9 4.4.2.3.7 3.1 1.1 6.1.4 3 .9 5.8 1.1 6.1.2.4.6 2.6.9 5 .3 2.4.7 5.5 1 6.9.3 1.4.8 4.1 1.1 6 .3 1.9.9 6 1.4 9 .5 3 1.2 7.3 1.5 9.5.3 2.3.7 5.2 1 6.5.3 1.4.7 4.7 1 7.5.3 2.7.7 6.1.9 7.5.3 1.4.8 5.2 1.1 8.5.4 3.3.8 7.1 1 8.5.2 1.4.6 5.2.9 8.5.3 3.3.8 8.2 1.2 11 .3 2.7.7 7 .9 9.5.2 2.5.6 7 .9 10 1.9 20.1 2.8 34.6 4.3 67.5 1 20.5.9 107.5 0 131-.9 21.9-1.5 34.6-2.2 44.5-.3 4.1-.7 10.6-1 14.5-.6 9.9-1.5 21.3-2 26-.2 2.2-.7 6.9-1 10.5-.3 3.6-.8 9-1 12-.3 3-.7 7.5-1 10-.3 2.5-.8 6.9-1 9.7-1.2 10.9-1.5 13.7-1.9 17.2-.3 2-.8 6.1-1.1 9.1-.4 3-.8 6.6-1 8-.2 1.4-.7 5-1 8-.4 3-.9 6.2-1 7.1-.2.8-.6 4-.9 7-.3 3-.8 6.3-1 7.4-.2 1.1-.7 4.2-1 6.8-.4 2.7-.9 5.7-1.1 6.6-.2 1-.6 4.2-1 7.2-.3 3-.9 6.3-1.2 7.4-.3 1.1-.7 3.1-.9 4.5-.6 5-1.3 10.5-1.8 12.5-.2 1.1-.7 4-1.1 6.5-.4 2.5-.9 5.4-1.1 6.5-.2 1.1-.8 4.5-1.4 7.5-.5 3-1.1 6.4-1.3 7.5-.3 1.1-.8 3.7-1.1 5.9l-.7 3.9-2.6-3.9c-1.5-2.2-2.9-4.1-3.2-4.4-.3-.3-1.9-2.3-3.6-4.5-1.6-2.2-3.2-4.2-3.5-4.5-.3-.3-1.3-1.4-2.1-2.6-3.1-4.6-14.1-16.6-27.9-30.4-14.5-14.6-19.5-19.1-39.5-35.9-1.1-.9-4.7-3.7-8-6.1-3.3-2.5-6.6-5-7.5-5.7-3.3-2.7-8.9-6.9-10.6-8.1-1.1-.7-6.4-4.4-11.8-8.2-5.5-3.9-10.3-7-10.7-7-.4 0-1.4-.6-2.1-1.3-1.1-1.1-14.5-9.7-20.6-13.2-31.1-18-68.1-41.4-69-43.7-.2-.4-.8-.8-1.2-.8-1.2 0-19.4-13.9-19.8-15.1-.2-.5-1-.9-1.7-.9s-1.5-.3-1.7-.8c-.1-.4-4.6-4.3-9.8-8.7-21-17.6-43.5-40.3-58-58.4-1.9-2.4-4-4.8-4.5-5.5-2.8-3-15.5-20.7-15.5-21.6 0-.6-.4-1-.8-1-.5 0-1.5-1.2-2.3-2.8-.8-1.5-1.7-2.9-2-3.2-1.8-1.5-24.1-40.6-24.5-43 0-.3-1.3-3.2-2.8-6.5-6.2-13.5-14-34.8-17.7-48.5-.7-2.5-1.4-5-1.5-5.5-2-7.3-5-22.3-5.9-29.5-.2-1.4-.7-5.2-1.1-8.5-1-7.3-1-25.5-.1-35 .4-3.9 1-9.9 1.3-13.5.3-3.6.7-7.7 1-9.2.2-1.5.6-5.5.9-9 .3-3.5.7-7.2.9-8.4.2-1.1.7-4.7 1-8 .4-3.2.8-7.3 1.1-8.9.6-4 1.5-10.2 2.1-14.4.2-1.9.6-4.6.9-6 .2-1.4.7-4.4 1-6.6.3-2.2 1.1-6.6 1.6-9.8.6-3.2 1.2-7.4 1.5-9.5.2-2 .9-6 1.4-8.8.6-2.8 1.3-6.4 1.6-8 .5-3.1 2.2-12.3 3-16.4.3-1.4 1.4-6.3 2.4-11s2.1-9.9 2.4-11.5c.3-1.7.8-3.9 1-5 .7-2.6 8.6-35.6 9.1-37.5.2-.8 2.7-9.4 5.5-19 2.7-9.6 5.2-18.3 5.5-19.2 3.3-13.7 24.2-71.4 31.9-88 1.4-3.1 2.6-5.9 2.6-6.2 0-2.1 22.8-48.5 31-63.1 9.5-16.9 9.4-16.7 10.3-17.9.4-.6 4-6.3 8-12.6 3.9-6.3 7.9-12.4 8.9-13.4 1-1.1 2-2.8 2.4-3.8.3-1 1-1.8 1.5-1.8s.9-.5.9-1c0-1 9.2-13.5 16.2-22 5.5-6.6 13.3-15.3 19.8-21.8l6.5-6.5.3 375.7.2 375.6 2.3.1zm-189-73.9c1.5 2.9 3.6 6.6 4.7 8.3 1.1 1.6 2.3 3.7 2.7 4.5.3.8 2.4 4.1 4.5 7.2 2.1 3.1 3.8 5.9 3.8 6.2 0 .3.7 1.4 1.5 2.3.8 1 4.1 5.6 7.4 10.3 3.3 4.7 6.6 9.2 7.3 9.9.7.8 2.8 3.6 4.8 6.2 7.9 10.5 23.9 28.5 36.4 41 16.4 16.5 36 33.7 52.6 46.4 3.6 2.7 6.7 5.3 6.8 5.7.2.4.8.8 1.4.8.5 0 2.9 1.6 5.2 3.5 2.4 1.9 4.8 3.5 5.4 3.5.6 0 1.2.4 1.4.8.4 1.2 10.5 8.2 11.7 8.2.5 0 1.1.4 1.3.8.6 1.6 41.9 27.2 43.9 27.2.5 0 .9.5.9 1.1 0 .5.4.8.9.5.5-.3 1.4.1 2.1.9.7.8 1.9 1.5 2.6 1.5.8 0 1.4.4 1.4 1 0 .5.4 1 .9 1 2.8 0 48.9 30.9 60 40.2.8.7 3.6 2.8 6.2 4.8 20.2 15.3 49.2 43.4 65.1 63.1 12.3 15.3 21.5 29.1 28.3 42.4 8 15.8 8.8 18 7.4 20.7-.7 1.3-1.2 2.5-1.1 2.8.3.9-1 7.3-3.5 17.5-1.4 5.5-2.7 11.1-2.9 12.4-.5 2.3-5.1 20.1-7.4 28.1-2.9 10.3-10.2 36.7-10.5 38-.5 1.9-5.7 19.4-8.6 28.7-1.2 4-2.5 7.3-2.8 7.3-.4 0-1.5-1.7-2.6-3.8-1.9-3.6-11.4-18.2-12.5-19.2-.3-.3-1.7-2.1-3-4s-2.7-3.7-3-4c-.3-.3-1.8-2.3-3.5-4.5-1.6-2.2-3.9-4.9-5-6.1-1.1-1.2-2.9-3.3-4-4.7-8.2-10.5-40.2-40-50.3-46.4-1.5-1-2.9-2-3.2-2.3-.3-.3-3.4-2.6-7-5.1-3.6-2.4-6.7-4.6-7-4.9-.3-.3-1.7-1.1-3.2-1.9-1.6-.8-2.8-1.8-2.8-2.3 0-.4-.4-.8-.9-.8-1.2 0-27.5-16.2-27.9-17.2-.2-.4-.8-.8-1.3-.8-3.1 0-40.5-27.9-59.5-44.5-8.5-7.4-17.6-16-26.3-25-13-13.3-16.5-17.1-24.1-26.1-8.5-10.1-10.9-13.1-17.3-21.8-3.7-5-7.4-9.9-8.2-10.9-.8-.9-1.5-2-1.5-2.3 0-.2-2.7-4.5-6-9.3-3.3-4.9-6-9.4-6-10 0-.6-.4-1.1-1-1.1-.5 0-1-.5-1-1.2 0-.6-.6-1.9-1.4-2.7-2.6-3.1-18.4-33.4-24-46.1-1.5-3.6-3.4-7.9-4.2-9.7-.8-1.7-1.4-3.4-1.4-3.8 0-.4-.7-2.1-1.5-3.8-6.2-13.4-17.7-54-20-70.7-.3-1.9-.7-4.4-.9-5.5-.2-1.1-.7-7.4-1-14-.4-6.6-.9-14.7-1.1-18-.4-5.6-1.4-30.5-1.8-47.8-.1-4.2 0-7.7.3-7.7s1.8 2.4 3.3 5.2zm29.8 276.2c11.2 15.6 18.7 25.3 27.2 35.6 26.8 32.1 63.3 65.5 100.2 91.7 7.2 5.1 13.5 9.6 14.1 10 1.5 1.1 3.2 2.2 19.2 12 7.9 4.9 15 9.4 15.7 10 .8.7 1.7 1.3 2 1.3.6 0 15.4 9.8 16.5 11 .3.3 3.2 2.5 6.5 4.9 3.3 2.5 6.2 4.7 6.5 5 .3.4 3 2.6 6 5.1 9.4 7.7 27.1 26.1 35.7 37 11 14 11.7 14.9 13.9 19 1 1.9 2.2 3.7 2.5 4 .4.3 3.1 5.1 6.1 10.6 7.3 13.5 14.6 31.7 16.4 40.7.2 1.1-.3 3.4-1 5.1-.7 1.7-2.1 5.3-3.1 8.1-.9 2.7-2.4 6.5-3.2 8.4-.8 1.8-1.6 3.9-1.8 4.5-.1.6-.6 2-1 3.1-10.2 25.7-13.7 34.5-19 47-6.2 14.8-8.6 20.2-17 38.1l-4.3 9.2h-16.1c-11.3 0-16.1-.4-16.2-1.2-.1-.6-.2-38.4-.3-84l-.1-82.9-23-.1c-12.6-.1-23.6 0-24.2.2-1 .3-1.3 18-1.3 84.2v83.7l-16.3.1h-16.3l-3.7-7.6c-4.8-10.1-9.9-21.4-10.3-22.7-.1-.6-1.6-4.2-3.4-8-1.7-3.9-3.5-7.9-3.9-9-.5-1.1-1.6-3.6-2.4-5.5-2.6-5.9-19.8-49.4-20.2-51-.7-2.7-10.6-29.5-11.5-31.2-.6-1-1-2.7-1-3.7 0-1.1-.4-2.2-.9-2.5-.4-.3-1.1-1.8-1.4-3.3-.3-1.6-1-3.9-1.5-5.3s-1.1-3-1.2-3.5c-.1-.6-1.3-3.9-2.5-7.5-2.7-7.7-13.2-40.7-17-53.5-1.5-5-3.2-10.6-3.8-12.5-.6-1.9-1.2-4-1.3-4.5-.1-.6-.7-3-1.5-5.5-.7-2.5-1.4-5-1.5-5.5-.2-.6-1.5-5.3-2.9-10.5-3.6-13-12.5-47.1-12.9-49.5-.3-1.7-4.4-18.9-6.3-26.5-.3-1.4-.7-3-.9-3.5-.1-.6-.4-2.1-.7-3.5-.3-1.4-1.7-7.8-3.1-14.2-1.4-6.4-2.7-12.7-3-14-.2-1.3-.7-3.4-1-4.8-.3-1.4-.8-3.6-1-5-.2-1.4-1.1-5.9-2-10-.8-4.1-1.7-8.6-2-10-.3-1.4-1-5-1.6-8-1.3-6.8-2-10.7-2.5-14-.2-1.4-.9-4.9-1.4-7.9-1.2-5.8-1.4-9.7-.4-7.2.3.8 3.2 5.1 6.4 9.5z"/></svg>