<svg width="1064" height="1267" fill="none" xmlns="http://www.w3.org/2000/svg"><path d="M1008.08 934.448L443.182 414.142V23.81L28.11 1C24.904 8.544 4.367 30.285 7.572 42.404c3.858 14.494 23.267 9.86 28.906 19.187 6.588 10.989-4.749 55.66-8.132 68.549-6.47 24.415-21.25 44.195-25.524 68.61-7.182 40.987 7.36 37.72 34.902 63.323 46.417 43.185 9.2 87.975 20.894 138.704 9.497 41.345 50.987 62.669 66.182 104.012 11.753 31.841 27.897 39.978 52.946 63.264-.593-14.137-13.236-55.838 10.507-52.155 23.564 3.624 14.483 38.433 18.994 52.987 3.798 12.118 30.686 36.354 8.369 47.522-7.42 3.683-28.55-10.989-37.039-14.91 5.995 18.712 2.197 38.136 11.694 56.016 11.337 21.325 23.564 13.128 38.582 24.712 15.491 11.939 13.83 25.661 6.944 43.72-7.182 18.83-14.601 15.92-3.205 38.612 8.251 16.394 22.258 37.185 34.308 49.659 7.004 7.247 14.602 8.911 21.606 18.177 5.817 7.722 3.561 17.821 10.506 24.771 11.871 11.94 31.994 12.118 41.372 27.74 10.447 17.405-1.424 30.533 29.322 28.929 1.603 34.81 8.191 66.352 7.835 101.157 17.154 6.83 44.873-1.3 62.858-4.93 17.867 24.12 40.956 7.37 61.375 20.5 8.904 5.7 7.063 19.96 12.465 24.95 11.1 10.21 19.29 3.8 33.062 7.36 10.209 2.62 18.103 10.1 27.837 12.83 9.2 2.56 24.337-3.44 31.163 4.7 8.191 9.74-5.521 27.56 6.826 35.4 10.268 6.53 24.988-9.03 34.961-6.77 11.633 2.67 44.991 33.14 53.183 43.18 9.319 11.47 18.698 32.85 23.979 47.58 8.251 23.05 7.123 34.34 24.158 51.21 10.862 10.75.534 11.52 18.222 14.67 11.574 2.08 26.888-6.3 38.582-7.6 24.337-2.68 48.91 1.96 72.89-2.62 22.319-4.27 43.627-11.28 66.538-14.55 19.825-2.85 54.73-.65 72.3-10.1 19.05-10.16 20.77-33.15-6.77-28.87-2.2-14.67 7.6-34.93-3.32-45.08 15.19-20.79 20.71-35.47 23.08-60.89 1.07-11.17 1.55-23.52 7.07-32.91 5.4-9.27 20.59-14.79 23.56-22.75 4.57-12.36-2.73-17.88-8.31-24.77-3.56-4.46-13.71-2.32-16.62-6.24-5.4-7.19-.06-14.612-3.03-21.859-8.66-20.969-18.99-29.226-25.52-52.987.18 3.98.36 8.019.12 11.94" stroke="#fff" stroke-linecap="round" stroke-linejoin="round" opacity=".298"/><path d="M732.47 843c-8.568 23.381 11.499 31.586 27.561 46.868 4.759 4.528 5.213 12.01.204 16.535-10.773 9.731-51.616-4.426-49.025 8.403 2.676 13.249 37.207 31.786 38.763 33.054 13.667 11.132 18.118 39.375 10.591 54.86-5.356 11.02-40.866 7.3-52.036 3.63-73.148-24.024-40.187-21.158-122.356-28.62-6.29-.571-12.881-.863-18.922.981-6.223 1.899-6.025 9.688-3.937 13.9 6.918 13.959 37.892 37.629 29.556 55.969-2.557 5.63-8.55 9.19-11.249 14.75-2.114 4.36-1.879 9.5-2.819 14.25" stroke="#fff" stroke-width="2"/><path fill-rule="evenodd" clip-rule="evenodd" d="M580.5 1091a6.5 6.5 0 100-13 6.5 6.5 0 000 13zM373 999a3 3 0 100-6 3 3 0 000 6zm352 243c1.657 0 3-1.34 3-3s-1.343-3-3-3-3 1.34-3 3 1.343 3 3 3zm-62-101c1.657 0 3-1.34 3-3s-1.343-3-3-3-3 1.34-3 3 1.343 3 3 3zm71.5-292a6.5 6.5 0 100-13 6.5 6.5 0 000 13z" fill="#4AF6CD"/><path d="M403.41 1079.98l-2.24 11.02h-1.952l-2.032-9.23-2.048 9.23h-1.904l-2.24-11.02h1.488l1.776 9.69 2.128-9.69h1.616l2.176 9.69 1.84-9.69h1.392zm8.134 6.56c0 .24-.01.49-.032.75h-5.376c.064.93.299 1.61.704 2.05.406.43.928.65 1.568.65.406 0 .779-.06 1.12-.17.342-.12.699-.31 1.072-.56l.64.88c-.896.7-1.877 1.05-2.944 1.05-1.173 0-2.09-.38-2.752-1.15-.65-.77-.976-1.82-.976-3.17 0-.87.139-1.65.416-2.32.288-.68.694-1.21 1.216-1.6.534-.38 1.158-.57 1.872-.57 1.12 0 1.979.36 2.576 1.1.598.74.896 1.75.896 3.06zm-1.456-.44c0-.83-.165-1.46-.496-1.9-.33-.44-.826-.66-1.488-.66-1.205 0-1.861.89-1.968 2.66h3.952v-.1zm6.095-3.72c.576 0 1.093.08 1.552.24.459.16.896.4 1.312.72l-.624.92a5.376 5.376 0 00-1.104-.54 3.255 3.255 0 00-1.088-.18c-.48 0-.859.11-1.136.31a.92.92 0 00-.416.8c0 .34.128.61.384.8.267.19.741.38 1.424.56.939.23 1.637.55 2.096.96.469.4.704.96.704 1.66 0 .83-.325 1.47-.976 1.91-.64.43-1.424.65-2.352.65-1.28 0-2.341-.37-3.184-1.1l.784-.9c.715.55 1.504.82 2.368.82.555 0 .992-.11 1.312-.34.331-.23.496-.55.496-.94 0-.29-.059-.52-.176-.69-.117-.18-.32-.34-.608-.46-.288-.14-.709-.29-1.264-.44-.896-.23-1.547-.55-1.952-.94-.395-.39-.592-.9-.592-1.5 0-.44.128-.84.384-1.19.267-.36.629-.64 1.088-.83.469-.2.992-.3 1.568-.3zm9.437 8.24c-.555.38-1.184.57-1.888.57-.715 0-1.275-.2-1.68-.61-.395-.41-.592-1.01-.592-1.79v-5.09h-1.472v-1.13h1.472v-1.91l1.472-.17v2.08h2l-.16 1.13h-1.84v5.03c0 .44.074.76.224.96.16.19.421.29.784.29.33 0 .704-.12 1.12-.34l.56.98zm8.559-10.84c.736 0 1.366.11 1.888.32.523.21 1.03.53 1.52.96l-.832.93a4.53 4.53 0 00-1.232-.72 3.37 3.37 0 00-1.28-.24c-.576 0-1.05.14-1.424.4-.373.27-.56.66-.56 1.17 0 .32.064.59.192.82.128.21.363.41.704.59.352.18.859.37 1.52.57.694.22 1.27.45 1.728.69.459.25.827.59 1.104 1.03.288.42.432.97.432 1.63 0 .64-.16 1.2-.48 1.69-.309.49-.762.88-1.36 1.16-.586.27-1.285.41-2.096.41-1.525 0-2.773-.47-3.744-1.42l.832-.93c.448.36.902.64 1.36.83.459.18.971.27 1.536.27.683 0 1.248-.16 1.696-.49.448-.34.672-.83.672-1.47 0-.37-.069-.67-.208-.9-.138-.25-.378-.46-.72-.66-.33-.19-.816-.38-1.456-.57-1.13-.34-1.957-.75-2.48-1.23-.522-.48-.784-1.13-.784-1.96 0-.55.144-1.05.432-1.48.299-.44.71-.78 1.232-1.03a4.364 4.364 0 011.808-.37zm9.887 2.6c.768 0 1.365.23 1.792.68.437.46.656 1.09.656 1.89v6.05h-1.472v-5.84c0-.6-.117-1.02-.352-1.26-.224-.25-.555-.37-.992-.37-.437 0-.827.13-1.168.38-.341.26-.661.62-.96 1.09v6h-1.472v-11.81l1.472-.16v4.71c.661-.91 1.493-1.36 2.496-1.36zm8.575 0c1.184 0 2.101.39 2.752 1.18.661.79.992 1.86.992 3.22 0 .87-.149 1.64-.448 2.32a3.618 3.618 0 01-1.296 1.55c-.565.36-1.237.54-2.016.54-1.184 0-2.107-.39-2.768-1.18-.661-.79-.992-1.86-.992-3.22 0-.87.149-1.64.448-2.3.299-.67.731-1.19 1.296-1.55.565-.38 1.243-.56 2.032-.56zm0 1.18c-1.461 0-2.192 1.08-2.192 3.23s.725 3.22 2.176 3.22 2.176-1.08 2.176-3.23-.72-3.22-2.16-3.22zm9.84-1.18c.299 0 .576.03.832.09l-.272 1.44a3.223 3.223 0 00-.736-.09c-.523 0-.944.19-1.264.57-.32.39-.571.98-.752 1.79v4.82h-1.472v-8.43h1.264l.144 1.71c.224-.63.528-1.1.912-1.42.384-.32.832-.48 1.344-.48zm8.391 4.16c0 .24-.01.49-.032.75h-5.376c.064.93.299 1.61.704 2.05.406.43.928.65 1.568.65.406 0 .779-.06 1.12-.17.342-.12.699-.31 1.072-.56l.64.88c-.896.7-1.877 1.05-2.944 1.05-1.173 0-2.09-.38-2.752-1.15-.65-.77-.976-1.82-.976-3.17 0-.87.139-1.65.416-2.32.288-.68.694-1.21 1.216-1.6.534-.38 1.158-.57 1.872-.57 1.12 0 1.979.36 2.576 1.1.598.74.896 1.75.896 3.06zm-1.456-.44c0-.83-.165-1.46-.496-1.9-.33-.44-.826-.66-1.488-.66-1.205 0-1.861.89-1.968 2.66h3.952v-.1zm9.994-7.92v14.39h-.352v-14.39h.352zm18.827 12.82h-1.472l-.384-4.98c-.16-1.95-.25-3.45-.272-4.49l-2.384 8.22h-1.424l-2.512-8.24c0 1.34-.069 2.88-.208 4.63l-.368 4.86h-1.44l.912-11.02h2.048l2.32 8.01 2.208-8.01h2.064l.912 11.02zm8.197-1.97c0 .34.059.6.176.77.118.16.294.28.528.37l-.336 1.02c-.437-.05-.789-.17-1.056-.37-.266-.19-.464-.49-.592-.89-.565.84-1.402 1.26-2.512 1.26-.832 0-1.488-.23-1.968-.7s-.72-1.08-.72-1.84c0-.9.32-1.59.96-2.07.651-.48 1.568-.72 2.752-.72h1.296v-.62c0-.6-.144-1.02-.432-1.28-.288-.26-.73-.38-1.328-.38-.618 0-1.376.15-2.272.44l-.368-1.07c1.046-.38 2.016-.57 2.912-.57.992 0 1.734.24 2.224.73.491.48.736 1.17.736 2.07v3.85zm-3.456 1.06c.843 0 1.504-.44 1.984-1.31v-1.94h-1.104c-1.557 0-2.336.58-2.336 1.73 0 .5.123.88.368 1.13.246.26.608.39 1.088.39zm8.003 1.1c-.544 0-.976-.16-1.296-.48-.309-.33-.464-.79-.464-1.37v-10.16l1.472-.18v10.3c0 .24.038.41.112.52.086.1.224.16.416.16.203 0 .384-.04.544-.1l.384 1.02c-.352.2-.741.29-1.168.29zm4.48-8.62v8.43h-1.472v-8.43h1.472zm-.752-4.05c.309 0 .56.1.752.29a.97.97 0 01.288.72.97.97 0 01-.288.72c-.192.18-.443.27-.752.27-.299 0-.544-.09-.736-.27a.97.97 0 01-.288-.72c0-.29.096-.53.288-.72.192-.19.437-.29.736-.29zm7.651 3.86c.96 0 1.723.39 2.288 1.16.566.77.848 1.85.848 3.24 0 .87-.133 1.64-.4 2.32-.266.66-.65 1.17-1.152 1.55-.501.36-1.088.54-1.76.54-.885 0-1.632-.37-2.24-1.12l-.144.93h-1.296v-11.82l1.472-.18v4.62c.608-.83 1.403-1.24 2.384-1.24zm-.528 7.64c.651 0 1.158-.26 1.52-.78.374-.53.56-1.35.56-2.46 0-1.15-.17-1.97-.512-2.47-.341-.51-.826-.77-1.456-.77-.746 0-1.402.44-1.968 1.32v4.03c.224.35.496.63.816.83.331.2.678.3 1.04.3zm12.444.98h-1.264l-.112-1.31c-.32.52-.688.9-1.104 1.15-.416.23-.922.35-1.52.35-.736 0-1.312-.22-1.728-.67-.416-.45-.624-1.08-.624-1.9v-6.05h1.472v5.89c0 .57.102.98.304 1.23.203.23.534.35.992.35.822 0 1.526-.49 2.112-1.46v-6.01h1.472v8.43zm3.425-2.03c.32 0 .587.1.8.32.213.21.32.47.32.78 0 .33-.096.71-.288 1.14l-1.072 2.45h-1.056l.64-2.66a1.251 1.251 0 01-.336-.4 1.244 1.244 0 01-.112-.53c0-.31.107-.57.32-.78.213-.22.475-.32.784-.32zm11.63-9.19c.661 0 1.216.09 1.664.26.459.17.923.45 1.392.83l-.832.98c-.672-.55-1.381-.82-2.128-.82-.917 0-1.659.35-2.224 1.06-.555.7-.832 1.83-.832 3.39 0 1.51.277 2.63.832 3.36.555.71 1.291 1.07 2.208 1.07.469 0 .88-.08 1.232-.24a6.34 6.34 0 001.12-.67l.752.96c-.341.35-.779.65-1.312.88-.533.23-1.147.35-1.84.35-.896 0-1.696-.22-2.4-.65-.693-.45-1.237-1.1-1.632-1.96-.384-.86-.576-1.89-.576-3.1 0-1.21.203-2.23.608-3.09.405-.86.955-1.51 1.648-1.95a4.24 4.24 0 012.32-.66zM560.3 1091l-.832-2.77h-4.176l-.832 2.77h-1.536l3.536-11.02h1.92l3.52 11.02h-1.6zm-4.64-4h3.44l-1.712-5.76-1.728 5.76zm42.718-240.216c.661 0 1.216.085 1.664.256.459.171.923.448 1.392.832l-.832.976c-.672-.544-1.381-.816-2.128-.816-.917 0-1.659.352-2.224 1.056-.555.704-.832 1.835-.832 3.392 0 1.515.277 2.635.832 3.36.555.715 1.291 1.072 2.208 1.072.469 0 .88-.08 1.232-.24.352-.16.725-.384 1.12-.672l.752.96c-.341.352-.779.645-1.312.88s-1.147.352-1.84.352c-.896 0-1.696-.219-2.4-.656-.693-.448-1.237-1.099-1.632-1.952-.384-.864-.576-1.899-.576-3.104s.203-2.235.608-3.088c.405-.864.955-1.515 1.648-1.952a4.262 4.262 0 012.32-.656zM609.401 858h-1.264l-.112-1.312c-.32.523-.688.907-1.104 1.152-.416.235-.922.352-1.52.352-.736 0-1.312-.224-1.728-.672-.416-.448-.624-1.083-.624-1.904v-6.048h1.472v5.888c0 .576.102.987.304 1.232.203.235.534.352.992.352.822 0 1.526-.485 2.112-1.456v-6.016h1.472V858zm6.705-8.624c.299 0 .576.032.832.096l-.272 1.44a3.032 3.032 0 00-.736-.096c-.523 0-.944.192-1.264.576-.32.384-.571.981-.752 1.792V858h-1.472v-8.432h1.264l.144 1.712c.224-.629.528-1.104.912-1.424.384-.32.832-.48 1.344-.48zm6.172 0c.298 0 .576.032.832.096l-.272 1.44a3.038 3.038 0 00-.736-.096c-.523 0-.944.192-1.264.576-.32.384-.571.981-.752 1.792V858h-1.472v-8.432h1.264l.144 1.712c.224-.629.528-1.104.912-1.424.384-.32.832-.48 1.344-.48zm8.391 4.16c0 .245-.01.496-.032.752h-5.376c.064.928.299 1.611.704 2.048.406.437.928.656 1.568.656a3.43 3.43 0 001.12-.176 4.486 4.486 0 001.072-.56l.64.88c-.896.704-1.877 1.056-2.944 1.056-1.173 0-2.09-.384-2.752-1.152-.65-.768-.976-1.824-.976-3.168 0-.875.139-1.648.416-2.32.288-.683.694-1.216 1.216-1.6.534-.384 1.158-.576 1.872-.576 1.12 0 1.979.368 2.576 1.104.598.736.896 1.755.896 3.056zm-1.456-.432c0-.832-.165-1.467-.496-1.904-.33-.437-.826-.656-1.488-.656-1.205 0-1.861.885-1.968 2.656h3.952v-.096zm7.775-3.728c.768 0 1.365.229 1.792.688.437.459.656 1.088.656 1.888V858h-1.472v-5.84c0-.597-.112-1.019-.336-1.264-.224-.245-.555-.368-.992-.368a1.92 1.92 0 00-1.184.384c-.341.256-.661.624-.96 1.104V858h-1.472v-8.432h1.264l.128 1.248c.299-.448.667-.8 1.104-1.056a2.916 2.916 0 011.472-.384zm9.663 8.24a3.238 3.238 0 01-1.888.576c-.715 0-1.275-.203-1.68-.608-.395-.416-.592-1.013-.592-1.792v-5.088h-1.472v-1.136h1.472v-1.904l1.472-.176v2.08h2l-.16 1.136h-1.84v5.024c0 .437.075.757.224.96.16.192.421.288.784.288.331 0 .704-.112 1.12-.336l.56.976zm7.36-10.64v9.696h4.528l-.176 1.328h-5.872v-11.024h1.52zm9.13 2.4c1.184 0 2.101.395 2.752 1.184.661.789.992 1.861.992 3.216 0 .875-.149 1.648-.448 2.32-.299.661-.731 1.179-1.296 1.552-.565.363-1.237.544-2.016.544-1.184 0-2.107-.395-2.768-1.184-.661-.789-.992-1.861-.992-3.216 0-.875.149-1.643.448-2.304.299-.672.731-1.189 1.296-1.552.565-.373 1.243-.56 2.032-.56zm0 1.184c-1.461 0-2.192 1.077-2.192 3.232 0 2.144.725 3.216 2.176 3.216s2.176-1.077 2.176-3.232c0-2.144-.72-3.216-2.16-3.216zm9.248-1.184c.501 0 .96.075 1.376.224.416.139.816.368 1.2.688l-.704.928a3.365 3.365 0 00-.88-.464 2.56 2.56 0 00-.928-.16c-.683 0-1.216.272-1.6.816-.373.544-.56 1.349-.56 2.416s.187 1.856.56 2.368c.373.501.907.752 1.6.752.331 0 .635-.048.912-.144.277-.107.587-.272.928-.496l.672.96c-.768.619-1.627.928-2.576.928-1.141 0-2.043-.384-2.704-1.152-.651-.768-.976-1.829-.976-3.184 0-.896.149-1.68.448-2.352.299-.672.72-1.195 1.264-1.568.555-.373 1.211-.56 1.968-.56zm10.092 6.656c0 .341.059.597.176.768a1.1 1.1 0 00.528.368l-.336 1.024c-.437-.053-.789-.176-1.056-.368-.266-.192-.464-.491-.592-.896-.565.843-1.402 1.264-2.512 1.264-.832 0-1.488-.235-1.968-.704s-.72-1.083-.72-1.84c0-.896.32-1.584.96-2.064.651-.48 1.568-.72 2.752-.72h1.296v-.624c0-.597-.144-1.024-.432-1.28-.288-.256-.73-.384-1.328-.384-.618 0-1.376.149-2.272.448l-.368-1.072c1.046-.384 2.016-.576 2.912-.576.992 0 1.734.245 2.224.736.491.48.736 1.168.736 2.064v3.856zm-3.456 1.056c.843 0 1.504-.437 1.984-1.312v-1.936h-1.104c-1.557 0-2.336.576-2.336 1.728 0 .501.123.88.368 1.136.246.256.608.384 1.088.384zm10.735.528a3.236 3.236 0 01-1.888.576c-.714 0-1.274-.203-1.68-.608-.394-.416-.592-1.013-.592-1.792v-5.088h-1.472v-1.136h1.472v-1.904l1.472-.176v2.08h2l-.16 1.136h-1.84v5.024c0 .437.075.757.224.96.16.192.422.288.784.288.331 0 .704-.112 1.12-.336l.56.976zm2.998-8.048V858h-1.472v-8.432h1.472zm-.752-4.048c.309 0 .56.096.752.288a.977.977 0 01.288.72.977.977 0 01-.288.72c-.192.181-.443.272-.752.272-.299 0-.544-.091-.736-.272a.977.977 0 01-.288-.72c0-.288.096-.528.288-.72a.996.996 0 01.736-.288zm6.963 3.856c1.184 0 2.102.395 2.752 1.184.662.789.992 1.861.992 3.216 0 .875-.149 1.648-.448 2.32-.298.661-.73 1.179-1.296 1.552-.565.363-1.237.544-2.016.544-1.184 0-2.106-.395-2.768-1.184-.661-.789-.992-1.861-.992-3.216 0-.875.15-1.643.448-2.304.299-.672.731-1.189 1.296-1.552.566-.373 1.243-.56 2.032-.56zm0 1.184c-1.461 0-2.192 1.077-2.192 3.232 0 2.144.726 3.216 2.176 3.216 1.451 0 2.176-1.077 2.176-3.232 0-2.144-.72-3.216-2.16-3.216zm10.144-1.184c.768 0 1.365.229 1.792.688.437.459.656 1.088.656 1.888V858h-1.472v-5.84c0-.597-.112-1.019-.336-1.264-.224-.245-.555-.368-.992-.368a1.92 1.92 0 00-1.184.384c-.341.256-.661.624-.96 1.104V858h-1.472v-8.432h1.264l.128 1.248c.299-.448.667-.8 1.104-1.056a2.916 2.916 0 011.472-.384z" fill="#fff"/></svg>