<svg width="22" height="24" fill="none" xmlns="http://www.w3.org/2000/svg"><path d="M11.267 23.888c.398-.04.775-.2 1.077-.46l8.138-6.977a1.937 1.937 0 00.26-2.774 1.94 1.94 0 00-2.779-.17l-6.878 5.9-6.879-5.9a1.94 1.94 0 00-2.779.17 1.937 1.937 0 00.26 2.774l8.138 6.977c.399.342.92.507 1.442.46zm0-13c.398-.04.775-.2 1.077-.46l8.138-6.977a1.937 1.937 0 00.26-2.774 1.94 1.94 0 00-2.779-.17l-6.878 5.9-6.879-5.9a1.94 1.94 0 00-2.779.17 1.937 1.937 0 00.26 2.774l8.138 6.977c.399.342.92.507 1.442.46z" fill="#fff"/></svg>