<svg width="11" height="13" fill="none" xmlns="http://www.w3.org/2000/svg"><path fill-rule="evenodd" clip-rule="evenodd" d="M5.392 0c1.225 0 2.414.414 3.352 1.165a5.359 5.359 0 012.033 3.926 5.401 5.401 0 01-1.569 4.11l-3.58 3.534a.377.377 0 01-.519-.002l-3.53-3.53A5.4 5.4 0 01.01 5.09a5.358 5.358 0 012.03-3.926A5.37 5.37 0 015.393 0zM2.986 5.39a2.409 2.409 0 002.406 2.406A2.408 2.408 0 007.8 5.39a2.409 2.409 0 00-2.407-2.407A2.409 2.409 0 002.986 5.39z" fill="#fff"/><path d="M5.392 4.217a1.173 1.173 0 10.001 2.346 1.173 1.173 0 000-2.346z" fill="#fff"/></svg>