<svg width="39" height="39" fill="none" xmlns="http://www.w3.org/2000/svg"><mask id="a" fill="#fff"><path d="M38.03 31.704h-8.285a.484.484 0 000 .97h8.286a.484.484 0 000-.97z"/></mask><path d="M38.03 30.704h-8.285v2h8.286v-2zm-8.285 0c-.825 0-1.481.673-1.481 1.485h2a.516.516 0 01-.519.515v-2zm-1.481 1.485c0 .812.656 1.486 1.481 1.486v-2c.295 0 .519.237.519.514h-2zm1.481 1.486h8.286v-2h-8.286v2zm8.286 0c.825 0 1.48-.674 1.48-1.486h-2c0-.277.225-.514.52-.514v2zm1.48-1.486c0-.812-.656-1.485-1.48-1.485v2a.516.516 0 01-.52-.515h2z" fill="#fff" mask="url(#a)"/><mask id="b" fill="#fff"><path d="M38.03 37.856h-9.29a.484.484 0 000 .97h9.29a.484.484 0 000-.97z"/></mask><path d="M38.03 36.856h-9.29v2h9.29v-2zm-9.29 0c-.824 0-1.48.673-1.48 1.485h2a.516.516 0 01-.52.515v-2zm-1.48 1.485c0 .812.656 1.486 1.48 1.486v-2c.296 0 .52.237.52.514h-2zm1.48 1.486h9.29v-2h-9.29v2zm9.29 0c.825 0 1.482-.674 1.482-1.486h-2c0-.277.224-.514.519-.514v2zm1.482-1.486c0-.812-.657-1.485-1.481-1.485v2a.516.516 0 01-.52-.515h2z" fill="#fff" mask="url(#b)"/><mask id="c" fill="#fff"><path d="M.481 35.207h7.492a.484.484 0 000-.97H.48a.484.484 0 00-.481.485c0 .27.216.485.481.485z"/></mask><path d="M.481 36.207h7.492v-2H.48v2zm7.492 0c.825 0 1.481-.673 1.481-1.485h-2c0-.277.224-.515.519-.515v2zm1.481-1.485c0-.812-.656-1.485-1.481-1.485v2a.516.516 0 01-.519-.515h2zm-1.481-1.485H.48v2h7.492v-2zm-7.492 0c-.825 0-1.481.673-1.481 1.485h2a.516.516 0 01-.519.515v-2zM-1 34.722c0 .816.659 1.485 1.481 1.485v-2c.293 0 .519.237.519.515h-2z" fill="#fff" mask="url(#c)"/><mask id="d" fill="#fff"><path fill-rule="evenodd" clip-rule="evenodd" d="M3.744.05A.478.478 0 014.3.143a.49.49 0 01.089.562 4.264 4.264 0 00-.45 1.91c0 2.378 1.93 4.313 4.299 4.313a4.24 4.24 0 001.907-.453.478.478 0 01.554.093.488.488 0 01.09.56 5.23 5.23 0 01-4.71 2.94c-2.902 0-5.262-2.372-5.262-5.286A5.258 5.258 0 013.744.05zm5.382 7.773a5.154 5.154 0 01-.89.076c-2.901 0-5.26-2.37-5.26-5.284.001-.303.025-.6.076-.895A4.287 4.287 0 001.78 4.782c0 2.38 1.93 4.315 4.299 4.315a4.255 4.255 0 003.048-1.274z"/></mask><path d="M4.3.143l-.71.705.01.01.011.011L4.3.143zM3.743.05l.447.895L3.744.05zM4.3.144l.715-.7L5-.57l-.014-.012-.688.726zm.089.56L3.494.258 3.492.26l.896.445zm5.756 5.771l.445.896h.001l-.446-.896zm.554.093l-.71.705.71-.705zm.09.56l-.895-.445v.001l.896.444zm-2.551.77v-1H6.299l1.122 1.58.816-.58zm.89-.075l.712.7 2.183-2.22-3.068.535.172.985zm-.89.076v1h1.937l-1.122-1.58-.815.58zm-5.26-5.284h1-1zm.075-.895l.986.17.53-3.07L2.35 1.008l.702.711zM5.01-.56a1.478 1.478 0 00-1.711-.284L4.19.946a.522.522 0 01-.602-.098L5.01-.561zm-.022-.022L3.61.868 4.988-.581zm.295 1.735a1.49 1.49 0 00-.268-1.71l-1.43 1.4a.51.51 0 01-.09-.586l1.788.896zm-.344 1.463c0-.51.115-1.002.346-1.467L3.492.26a5.264 5.264 0 00-.554 2.356h2zm3.299 3.312a3.312 3.312 0 01-3.299-3.312h-2c0 2.926 2.374 5.312 5.299 5.312v-2zm1.461-.348a3.245 3.245 0 01-1.461.348v2c.822 0 1.616-.19 2.352-.557L9.7 5.58zm1.71.284a1.478 1.478 0 00-1.71-.283l.892 1.79a.522.522 0 01-.601-.098l1.42-1.409zm.277 1.708a1.488 1.488 0 00-.277-1.708l-1.42 1.409a.512.512 0 01-.095-.59l1.792.889zm-5.607 3.496a6.23 6.23 0 005.607-3.497l-1.793-.887a4.23 4.23 0 01-3.814 2.384v2zM-.184 4.782c0 3.462 2.804 6.286 6.262 6.286v-2c-2.345 0-4.262-1.92-4.262-4.286h-2zM3.298-.844A6.258 6.258 0 00-.184 4.782h2c0-1.64.908-3.105 2.375-3.837l-.893-1.79zm4.939 9.743c.356 0 .709-.03 1.061-.091l-.344-1.97a4.24 4.24 0 01-.717.06v2zm.815-1.58l-1.63 1.159 1.63-1.158zM1.977 2.616C1.975 6.078 4.779 8.9 8.237 8.9v-2c-2.346 0-4.262-1.918-4.26-4.283l-2-.001zm.09-1.065a6.24 6.24 0 00-.09 1.065h2c0-.249.02-.49.06-.724l-1.97-.34zm.712 3.232c0-.906.36-1.742.976-2.35L2.35 1.01A5.287 5.287 0 00.78 4.782h2zm3.299 3.315a3.312 3.312 0 01-3.299-3.315h-2c0 2.928 2.374 5.315 5.299 5.315v-2zm2.335-.975a3.255 3.255 0 01-2.335.975v2a5.255 5.255 0 003.761-1.573L8.413 7.122z" fill="#fff" mask="url(#d)"/><mask id="e" fill="#fff"><path fill-rule="evenodd" clip-rule="evenodd" d="M38.032 23.926h-.001a.484.484 0 00-.482.483l-.011 2.592L19.674.439c-.179-.267-.617-.267-.798 0L1.026 26.982l.01-2.751a.483.483 0 00-.48-.487.484.484 0 00-.481.483l-.017 4.341a.486.486 0 00.481.488.485.485 0 00.399-.213l2.81-4.176v3.905c0 .268.215.486.48.486H14.95a4.367 4.367 0 004.167 3.093h.019l.018-.001h.01l.01.002.027-.003a.215.215 0 01.022-.003h.007a4.366 4.366 0 004.052-3.088h11.042a.484.484 0 00.482-.486v-3.905l2.81 4.176a.477.477 0 00.537.192.485.485 0 00.34-.463l.02-4.159a.482.482 0 00-.48-.487zm-18.802 7.25l-.076.003a1.535 1.535 0 01-1.512-1.531c0-.552.805-1.822 1.531-2.78.726.958 1.531 2.228 1.531 2.78a1.53 1.53 0 01-1.474 1.527zm2.435-1.53c0 .144-.02.28-.042.417.551-.607.89-1.409.886-2.29 0-1.454-2.189-4.548-3.396-6.088-1.206 1.54-3.396 4.636-3.396 6.088 0 .955.396 1.82 1.03 2.44a2.568 2.568 0 01-.07-.567c0-1.229 1.77-3.437 2.124-3.868a.496.496 0 01.74 0c.356.43 2.124 2.64 2.124 3.868zm-2.178-9.041a.496.496 0 00-.74 0c-.409.494-3.99 4.908-3.99 7.168 0 .076.006.151.01.226l.004.059.002.03H9.925v-3.2c.628-.512 2.71-2.287 4.818-4.92 1.711-2.137 3.665-5.157 4.55-8.6.886 3.445 2.84 6.463 4.551 8.6 2.108 2.633 4.19 4.407 4.818 4.92v3.2H23.46c.007-.105.015-.209.015-.315.002-2.26-3.579-6.673-3.987-7.168zm10.136 7.482h4.22l.002-4.85-14.568-21.66-14.568 21.66v4.85H8.96v-3.435c0-.151.07-.294.189-.385.116-.092 9.661-7.634 9.661-16.561 0-.267.216-.485.482-.485.265 0 .481.218.481.485 0 8.924 9.538 16.464 9.661 16.561a.49.49 0 01.189.385v3.435z"/></mask><path d="M38.032 23.926v1h.023l.023-.001-.046-1zm-.483.483l-1-.007v.003l1 .004zm-.011 2.592l-.83.558 1.816 2.7.014-3.254-1-.004zM19.674.439l-.832.556.002.002.83-.558zm-.798 0l-.828-.56-.001.002.83.558zM1.026 26.982l-1-.004-.014 3.303 1.843-2.741-.83-.558zm.01-2.751l-1-.007v.003l1 .004zm-.962-.004l-1-.007v.003l1 .004zm-.017 4.341l1 .01v-.006l-1-.003zm.338.467l.307-.952H.7l-.305.952zm.542-.192l.825.565.005-.006-.83-.559zm2.81-4.176h1v-3.278l-1.83 2.72.83.558zm11.203 4.39l.956-.292-.216-.707h-.74v1zm4.186 3.094l.077.997-.077-.997zm.024-.001l-.12.993.12-.993zm.004 0l-.143.99.143-.99zm.037-.001l.15.989-.15-.99zm.022-.003l-.035-1-.015.001-.016.001.066.998zm.007 0l-.026-1h-.009l.035 1zm4.052-3.088v-1h-.74l-.216.707.956.293zm11.524-4.391l.83-.558-1.83-2.72v3.278h1zm2.81 4.176l.83-.557h-.001l-.83.557zm.537.192l.297.955-.297-.955zm.34-.463l-1-.004v.004h1zm.02-4.159l-1-.007v.003l1 .004zm-.48-.487l.007-1h-.053l.046 1zm-18.879 7.253l-.013 1h.014v-1zm.076-.003l.225-.975-.147-.034-.15.011.072.997zm-.057-4.308l.797-.604-.797-1.05-.796 1.05.796.604zm.057 4.308l-.225.974.13.03.132-.005-.037-1zm2.393-1.113l.969.25.01-.043.008-.044-.987-.163zm0 0l-.968-.25 1.709.922-.74-.672zm.886-2.29h-1v.004l1-.004zm-3.396-6.088l.787-.617-.788-1.004-.786 1.005.787.616zm-2.366 8.527l-.699.715 2.417 2.364-.742-3.298-.976.22zm2.054-4.434l-.773-.635.773.635zm.74 0l-.772.635.002.002.77-.637zm-.795-5.173l.772.636v-.001l-.772-.635zm.741 0l-.772.635.3.365h.472v-1zm-4.72 7.394l.998-.064-.998.064zm.004.059l-.998.06.998-.06zm.002.03v1h1.055l-.057-1.054-.998.054zm-4.848 0h-1v1h1v-1zm0-3.2l-.632-.776-.368.3v.476h1zm4.818-4.92l-.78-.625.78.625zm4.55-8.6l.97-.248h-1.938l.969.248zm4.551 8.6l.781-.625-.78.625zm4.818 4.92h1v-.476l-.368-.3-.632.776zm0 3.2v1h1v-1h-1zm-5.203 0l-.998-.072-.077 1.072h1.075v-1zm.015-.315l-1-.001h1zm-3.987-7.168l.772-.636-.3-.364h-.472v1zm14.355 7.482v1h1v-1h-1zm-4.22 0h-1v1h1v-1zm4.223-4.85h1v-.306l-.17-.253-.83.558zM19.277 1.576l.83-.558-.83-1.234-.83 1.234.83.558zM4.709 23.237l-.83-.559-.17.253v.305h1zm0 4.85h-1v1h1v-1zm4.251 0v1h1v-1h-1zm.189-3.82l.609.794.01-.009-.62-.785zm0 0l.62.785-.62-.785zm20.285 0l.621-.784-.62.784zm0 0l-.62.784.004.003.617-.787zm8.597.659h.002v-2h-.002v2zm.518-.51a.516.516 0 01-.518.51v-2c-.827 0-1.476.671-1.482 1.476l2 .014zm-.011 2.59l.011-2.592-2-.01-.011 2.592 2 .01zM18.844.996L36.708 27.56l1.66-1.116L20.503-.12 18.843.997zm.861.002a.525.525 0 01-.43.24.528.528 0 01-.433-.244l1.663-1.111a1.473 1.473 0 00-1.23-.645c-.425 0-.92.185-1.227.64L19.705 1zm-17.85 26.54L19.706.998l-1.66-1.116L.197 26.424l1.659 1.116zm-1.819-3.31l-.01 2.75 2 .009.01-2.75-2-.01zm.52.517a.517.517 0 01-.52-.52l2 .014a1.483 1.483 0 00-1.48-1.494v2zm-.001 0h.002v-2H.555v2zm.519-.51a.516.516 0 01-.519.51v-2c-.826 0-1.476.671-1.481 1.476l2 .014zm-.017 4.338l.017-4.34-2-.009-.017 4.342 2 .007zm-.357-.49a.514.514 0 01.357.495l-2-.017A1.486 1.486 0 00.09 29.987l.61-1.904zm-.162-.026a.56.56 0 01.164.027l-.614 1.904c.167.054.321.069.45.069v-2zm-.426.223a.515.515 0 01.426-.223v2c.487 0 .946-.242 1.224-.648l-1.65-1.13zm2.804-4.17L.107 28.285l1.66 1.117 2.809-4.177-1.66-1.116zm1.83 4.463v-3.905h-2v3.905h2zm-.518-.514c.294 0 .518.237.518.514h-2c0 .812.657 1.486 1.482 1.486v-2zm10.722 0H4.228v2H14.95v-2zm4.167 3.093a3.367 3.367 0 01-3.21-2.386l-1.914.585c.672 2.195 2.71 3.801 5.124 3.801v-2zm-.059.003a.916.916 0 01.058-.002v2c.052 0 .095-.004.097-.004l-.155-1.994zm.096-.004a1.17 1.17 0 00-.096.004l.155 1.994h-.011a.825.825 0 01-.048.002v-2zm.126.007a1.04 1.04 0 00-.126-.007v2a.954.954 0 01-.115-.007l.241-1.986zm.027.004l-.008-.001-.019-.003-.24 1.986a1.437 1.437 0 01-.02-.003l.287-1.98zm-.134-.01c.051 0 .09.005.107.006l.027.004-.286 1.98h.01a1.026 1.026 0 00.142.01v-2zm-.121.009l.023-.003a.886.886 0 01.098-.006v2c.054 0 .099-.004.127-.007l.05-.006-.298-1.978zm.105-.012a1.183 1.183 0 00-.074.008l-.031.004.3 1.977-.011.002a.81.81 0 01-.053.005l-.131-1.996zm.038-.002h-.007l.069 2h.007l-.069-2zm3.13-2.38a3.366 3.366 0 01-3.121 2.38l.052 2a5.365 5.365 0 004.982-3.796l-1.912-.585zm12-.708H23.281v2h11.042v-2zm-.52.514c0-.277.225-.514.52-.514v2c.825 0 1.48-.674 1.48-1.486h-2zm0-3.905v3.905h2v-3.905h-2zm4.64 3.618l-2.81-4.176-1.659 1.116 2.81 4.177 1.659-1.117zm-.589-.205c.226-.07.464.02.59.206l-1.66 1.115a1.477 1.477 0 001.664.589l-.594-1.91zm-.363.492c0-.226.147-.425.363-.492l.594 1.91a1.485 1.485 0 001.043-1.418h-2zm.02-4.163l-.02 4.159 2 .009.02-4.16-2-.009zm.513.517a.518.518 0 01-.514-.52l2 .014a1.482 1.482 0 00-1.472-1.494l-.014 2zm.052-.001l-.09-1.998.09 1.998zM19.154 32.18c.069 0 .134-.005.148-.006l-.144-1.995h-.01l-.007.001h.014v2zm-2.512-2.532a2.535 2.535 0 002.499 2.532l.027-2a.535.535 0 01-.526-.531h-2zm1.735-3.383c-.38.502-.79 1.094-1.108 1.646a7.058 7.058 0 00-.415.826c-.1.242-.212.573-.212.912h2c0 .062-.011.027.063-.153.064-.156.164-.354.297-.585.265-.46.623-.982.968-1.438l-1.593-1.208zm3.327 3.384c0-.34-.112-.67-.212-.912a7.052 7.052 0 00-.415-.826 16.501 16.501 0 00-1.107-1.646l-1.593 1.209c.345.455.702.977.968 1.437.133.23.233.429.297.585.074.18.062.215.062.152h2zm-2.437 2.527a2.532 2.532 0 002.437-2.527h-2a.532.532 0 01-.511.528l.074 1.999zm-.262-.025l.45-1.949-.45 1.949zm3.605-1.924c.025-.15.055-.352.055-.58h-2c0 .06-.008.13-.028.254l1.973.326zm-.018.087l-1.937-.5 1.937.5zm-1.083-2.536a2.374 2.374 0 01-.626 1.613l1.48 1.345a4.374 4.374 0 001.146-2.967l-2 .009zm-3.183-5.475a32.613 32.613 0 012.083 2.979c.336.552.622 1.08.821 1.54.21.485.279.798.279.952h2c0-.574-.204-1.193-.443-1.745a14.97 14.97 0 00-.948-1.787 34.591 34.591 0 00-2.218-3.173l-1.574 1.234zm-1.61 5.47c0-.152.07-.464.28-.95.199-.46.485-.988.821-1.54a32.834 32.834 0 012.083-2.98l-1.574-1.233a34.783 34.783 0 00-2.218 3.173 15 15 0 00-.948 1.786c-.238.552-.443 1.171-.443 1.745h2zm.73 1.726a2.406 2.406 0 01-.73-1.725h-2c0 1.238.516 2.356 1.332 3.154l1.399-1.43zm-1.768.148c0 .291.042.556.094.786l1.95-.439a1.58 1.58 0 01-.044-.347h-2zm2.35-4.503a19.24 19.24 0 00-1.263 1.73c-.259.404-.52.855-.72 1.305-.19.43-.367.951-.367 1.468h2c0-.099.044-.314.196-.657a8.03 8.03 0 01.575-1.037c.455-.71.957-1.336 1.124-1.539l-1.545-1.27zm2.286 0a1.495 1.495 0 00-2.286 0l1.545 1.27a.524.524 0 01-.402.199.524.524 0 01-.402-.199l1.545-1.27zm2.35 4.503c0-.516-.176-1.037-.367-1.468-.2-.45-.46-.901-.718-1.305a18.942 18.942 0 00-1.266-1.732l-1.542 1.274c.166.201.668.826 1.123 1.537.228.356.432.713.575 1.037.152.342.196.558.196.657h2zM19.52 21.24a.524.524 0 01-.402.198.524.524 0 01-.402-.198l1.544-1.27a1.495 1.495 0 00-2.285 0l1.545 1.27zm-3.761 6.533c0-.342.147-.88.473-1.584.314-.679.746-1.413 1.205-2.115a34.611 34.611 0 012.082-2.833l-1.543-1.273a36.593 36.593 0 00-2.213 3.012c-.487.745-.976 1.569-1.346 2.37-.358.774-.658 1.635-.658 2.423h2zm.007.162a2.668 2.668 0 01-.007-.162h-2c0 .113.007.22.012.29l1.995-.128zm.004.063a7.255 7.255 0 00-.004-.063l-1.995.128c0 .02.002.037.003.054l1.996-.12zm.002.036l-.002-.036-1.996.12.001.024 1.997-.108zm-5.846 1.054h4.848v-2H9.925v2zm-1-4.2v3.2h2v-3.2h-2zm5.037-5.545c-2.049 2.56-4.073 4.284-4.669 4.77l1.264 1.55c.66-.539 2.8-2.363 4.967-5.07l-1.562-1.25zm4.363-8.224c-.836 3.25-2.696 6.143-4.363 8.224l1.562 1.25c1.755-2.192 3.803-5.34 4.738-8.975l-1.937-.499zm6.3 8.224c-1.667-2.082-3.527-4.971-4.363-8.223l-1.937.498c.935 3.637 2.983 6.783 4.739 8.975l1.56-1.25zm4.669 4.77c-.596-.486-2.62-2.21-4.669-4.77l-1.561 1.25c2.167 2.707 4.306 4.531 4.966 5.07l1.264-1.55zm.368 3.975v-3.2h-2v3.2h2zm-6.203 1h5.203v-2H23.46v2zm-.985-1.315c0 .064-.005.133-.013.243l1.995.144c.007-.1.018-.24.018-.387h-2zm-3.758-6.532c.194.236 1.165 1.43 2.081 2.833.459.702.89 1.436 1.204 2.115.326.704.473 1.241.473 1.583l2 .002c0-.789-.3-1.65-.657-2.425-.37-.8-.858-1.623-1.346-2.369a36.588 36.588 0 00-2.212-3.011l-1.543 1.272zm.771.364v-2 2zm14.355 5.482h-4.22v2h4.22v-2zm-.997-3.851l-.003 4.85 2 .002.003-4.851-2-.001zM18.447 2.135l14.568 21.66 1.66-1.117-14.568-21.66-1.66 1.117zM5.54 23.795l14.568-21.66-1.66-1.116L3.88 22.678l1.66 1.116zm.17 4.292v-4.85h-2v4.85h2zm3.251-1H4.71v2h4.25v-2zm-1-2.435v3.435h2v-3.435h-2zm.58-1.178c-.37.284-.58.72-.58 1.178h2a.515.515 0 01-.202.408L8.54 23.474zm-.01.008l1.238 1.57-1.239-1.57zm9.28-15.776c0 4.125-2.218 8.02-4.569 10.97-2.333 2.929-4.682 4.783-4.712 4.807l1.24 1.569c.086-.068 2.568-2.031 5.036-5.13 2.45-3.074 5.005-7.414 5.005-12.216h-2zm1.482-1.485c-.826 0-1.482.673-1.482 1.485h2a.516.516 0 01-.518.515v-2zm1.481 1.485c0-.812-.656-1.485-1.481-1.485v2a.516.516 0 01-.519-.515h2zm9.281 15.777c-.033-.027-2.382-1.882-4.714-4.81-2.35-2.95-4.567-6.844-4.567-10.967h-2c0 4.8 2.553 9.139 5.002 12.214 2.468 3.097 4.95 5.06 5.039 5.131l1.24-1.568zm.002 0l-1.243 1.568 1.243-1.567zm.567 1.17c0-.46-.213-.892-.571-1.172l-1.234 1.573a.51.51 0 01-.195-.402h2zm0 3.434v-3.435h-2v3.435h2z" fill="#fff" mask="url(#e)"/><mask id="f" fill="#fff"><path fill-rule="evenodd" clip-rule="evenodd" d="M26.591 33.949a.488.488 0 01-.304.622l-1.78.593 1.71.487a.486.486 0 01.332.605l-.615 2.089a.48.48 0 01-.593.328l-6.126-1.746-5.623 1.875a.474.474 0 01-.602-.301l-.709-2.061a.486.486 0 01.303-.62l1.485-.495-1.784-.508a.486.486 0 01-.331-.605l.615-2.089a.48.48 0 01.592-.33l6.2 1.767 5.916-1.973a.48.48 0 01.605.301l.71 2.06zm-13.234-1.092l-.342 1.158 2.685.766 2.032-.677-4.375-1.247zm12.13 3.594l-.343 1.158-4.3-1.226 2.032-.677 2.61.745zm-12.14.137l.394 1.143 11.78-3.928-.392-1.143-11.781 3.928z"/></mask><path d="M26.569 34.322l-.899-.438-.69 1.413 1.573.025.016-1zm.023-.373l-.946.325.003.01.942-.335zm-.023.373l.896.444.704-1.418-1.584-.026-.016 1zm-.282.248l.316.95.003-.002-.319-.947zm-1.78.594l-.317-.949-3.072 1.024 3.115.887.273-.962zm1.71.487l.28-.96-.006-.002-.273.962zm.292.233l-.878.48.878-.48zm.04.372l.959.282.002-.007-.961-.275zm-.615 2.089l.959.283-.96-.283zm-.593.328l-.274.962.01.003.01.002.254-.967zm-6.126-1.746l.274-.962-.298-.084-.293.097.317.949zm-5.623 1.875l-.317-.949-.013.005.33.944zm-.602-.301l.95-.312-.002-.007-.002-.007-.946.326zm-.709-2.061l.946-.326-.004-.01-.942.336zm.023-.374l.899.439.002-.006-.901-.433zm.28-.246l-.316-.949-.007.002.323.947zm1.485-.495l.316.949 3.074-1.024-3.116-.887-.274.962zm-1.784-.508l-.279.96.005.002.274-.962zm-.292-.233l.878-.48-.878.48zm-.04-.372l-.958-.282-.003.008.962.274zm.616-2.089l.96.283-.96-.283zm.592-.33l.274-.962-.274.962zm6.2 1.767l-.274.962.297.084.293-.097-.316-.949zm5.916-1.973l-.316-.949.316.949zm.605.301l.946-.325v-.002l-.945.327zm-12.867 2.127l-.96-.283-.285.968.97.277.275-.962zm.342-1.158l.274-.962-.952-.271-.28.95.958.283zm2.344 1.924l-.275.962.297.084.294-.097-.316-.949zm2.03-.677l.317.949 3.07-1.023-3.112-.888-.274.962zm7.413 3.505l-.274.962.953.272.28-.95-.959-.284zm.343-1.158l.959.283.286-.968-.971-.276-.274.961zm-4.642-.068l-.316-.949-3.07 1.023 3.111.887.275-.961zm2.031-.677l.274-.962-.297-.084-.293.097.316.95zm-9.135 2.025l-.946.325.322.937.94-.314-.316-.948zm-.393-1.143l-.317-.95-.957.32.328.955.946-.325zm12.174-2.785l.316.948.958-.319-.328-.954-.946.325zm-.393-1.143l.945-.326-.322-.937-.94.314.317.949zm2.339 2.1c.17-.348.202-.763.065-1.147l-1.884.672a.514.514 0 01.021-.401l1.798.877zm-.883-1.438l-.032 2 .032-2zm.02 2.196c.385-.129.688-.405.86-.752l-1.792-.888a.513.513 0 01.296-.255l.637 1.895zm-1.782.595l1.78-.594-.632-1.897-1.78.593.632 1.898zm1.668-1.424l-1.71-.487-.548 1.924 1.71.487.548-1.924zm.896.716a1.485 1.485 0 00-.89-.714l-.558 1.92a.514.514 0 01-.308-.248l1.756-.958zm.123 1.126c.105-.369.07-.773-.123-1.126l-1.756.958a.509.509 0 01-.044-.382l1.923.55zm-.617 2.096l.615-2.089-1.919-.564-.615 2.089 1.919.564zm-1.42 1.065a1.48 1.48 0 001.42-1.064l-1.919-.566a.52.52 0 01.499-.37v2zm-.386-.052c.098.026.232.052.386.052v-2a.557.557 0 01.123.014l-.509 1.934zm-6.146-1.751l6.126 1.746.548-1.924-6.126-1.746-.549 1.924zm-5.033 1.861l5.623-1.874-.633-1.898-5.623 1.875.633 1.898zm-.467.077c.15 0 .314-.023.48-.08l-.659-1.89a.546.546 0 01.18-.03v2zm-1.401-1.015a1.473 1.473 0 001.401 1.015v-2c.215 0 .425.135.5.362l-1.901.623zm-.704-2.047l.708 2.06 1.892-.65-.71-2.06-1.89.65zm.069-1.137c-.17.348-.203.764-.066 1.148l1.884-.672a.514.514 0 01-.02.4l-1.798-.876zm.856-.755a1.487 1.487 0 00-.859.76l1.803.866a.52.52 0 01-.298.267l-.646-1.893zm1.492-.497l-1.485.495.632 1.898 1.485-.495-.632-1.898zm-1.742 1.403l1.785.508.547-1.924-1.784-.508-.548 1.924zm-.895-.716c.192.352.515.605.89.714l.558-1.92c.127.037.24.123.307.248l-1.755.958zm-.124-1.125c-.105.368-.069.772.123 1.125l1.756-.958a.51.51 0 01.044.382l-1.923-.55zm.617-2.097l-.614 2.089 1.918.565.615-2.09-1.918-.564zm1.825-1.01a1.48 1.48 0 00-1.825 1.01l1.92.564a.52.52 0 01-.64.35l.545-1.924zm6.201 1.767l-6.2-1.767-.548 1.924 6.2 1.767.548-1.924zm5.326-1.96l-5.916 1.973.632 1.898 5.916-1.974-.632-1.897zm1.867.923a1.48 1.48 0 00-1.867-.923l.632 1.897a.52.52 0 01-.656-.32l1.89-.654zm.71 2.062l-.71-2.06-1.891.65.709 2.061 1.891-.65zm-13.564.675l.342-1.158-1.918-.567-.342 1.159 1.918.566zm2-.479l-2.685-.766-.548 1.924 2.685.766.549-1.924zm1.442-.663l-2.032.676.633 1.898 2.03-.677-.631-1.897zm-4.333.662l4.375 1.248.548-1.924-4.375-1.247-.548 1.923zm13.02 4.075l.342-1.159-1.918-.566-.342 1.158 1.918.567zm-5.533-.549l4.3 1.227.549-1.923-4.3-1.227-.549 1.923zm1.99-2.587l-2.031.677.632 1.898 2.031-.677-.632-1.898zm3.201.733l-2.61-.746-.55 1.924 2.611.745.549-1.923zm-11.075 1.916l-.393-1.143-1.891.65.393 1.143 1.891-.65zm10.52-4.552l-11.782 3.928.633 1.897 11.781-3.928-.633-1.897zm-1.023.13l.393 1.144 1.892-.65-.393-1.144-1.892.65zm-10.52 4.552l11.782-3.928-.633-1.897-11.78 3.928.632 1.897z" fill="#fff" mask="url(#f)"/></svg>