<svg width="50" height="32" fill="none" xmlns="http://www.w3.org/2000/svg"><mask id="a" fill="#fff"><path fill-rule="evenodd" clip-rule="evenodd" d="M48.492 21.03v2.747c.57.116 1 .617 1 1.212v.988c0 .599-.43 1.098-1 1.214v.025h-6.563a4.74 4.74 0 01-4.685 3.958c-2.363 0-4.322-1.718-4.683-3.958H15.183a4.74 4.74 0 01-4.685 3.958c-2.363 0-4.323-1.72-4.685-3.958H2l-.748.002A1.247 1.247 0 010 25.978v-.987c0-.684.562-1.239 1.252-1.239H2v-11.13C2 9.21 4.804 6.433 8.25 6.433l5.77-.003V4.457C7.934 3.883 2.78 2.811 1.218 1.267a.733.733 0 01-.135-.869.752.752 0 01.797-.386c4.975.881 12.713 1 19.621 1a1028.855 1028.855 0 005.346-.014c.913-.003 1.798-.006 2.647-.006l6.437.002h.002c4.356 0 7.04-.03 10.52-.197a.758.758 0 01.757.537.74.74 0 01-.353.852c-.502.279-1.127.538-1.867.777v1.502a1.7 1.7 0 01-.963 1.548 1.773 1.773 0 01-.793.192c-.363 0-.724-.116-1.037-.346l-2.42-1.777c-3.08.445-6.896.727-11.282.828v1.526l5.247-.001c3.343 0 6.426 1.107 8.903 2.968l.205.159a14.658 14.658 0 014.659 6.24l.006.012.014.033c.013.039.028.076.043.113l.037.096.298.767h-.043a14.42 14.42 0 01.627 4.208zm-13.747-5.69h10.93a13.228 13.228 0 00-3.552-4.453h-7.378a.253.253 0 00-.25.248v3.958c0 .133.115.248.25.248zm8.748-10.875a.23.23 0 01-.138.222.232.232 0 01-.262-.023l-1.258-.922a33.62 33.62 0 001.658-.357v1.08zM24.837 2.491c-1.086.003-2.201.006-3.332.006-4.438 0-9.219-.05-13.42-.319 4.035.754 9.837 1.288 16.662 1.288 6.272 0 11.757-.364 15.74-1.003-1.358.015-2.825.02-4.55.02h-.003l-6.438-.005c-1.168 0-2.404.004-3.69.01l-.969.003zm-9.318 2.1c3.01.237 6.185.36 9.227.36.764 0 1.514-.007 2.25-.016v1.5H15.519V4.59zM7.25 26.474c0 1.774 1.457 3.216 3.25 3.216 1.792 0 3.25-1.442 3.25-3.216 0-1.774-1.458-3.216-3.25-3.216-1.793 0-3.25 1.442-3.25 3.216zm29.995 3.216c-1.792 0-3.25-1.442-3.25-3.216 0-1.774 1.458-3.216 3.25-3.216 1.793 0 3.25 1.442 3.25 3.216 0 1.774-1.457 3.216-3.25 3.216zm0-7.917c2.363 0 4.324 1.718 4.685 3.959h6.063v-.495h-4.499v-1.485h3.5v-2.719c0-1.473-.25-2.886-.704-4.208H34.745c-.965 0-1.75-.777-1.75-1.731v-3.959c0-.955.785-1.732 1.75-1.732h5.11a13.29 13.29 0 00-6.112-1.484H8.25c-2.62 0-4.751 2.11-4.751 4.702v2.72h7.534v1.484H3.5v6.927h1v1.485h-3v.495h4.314a4.74 4.74 0 014.685-3.959c2.363 0 4.323 1.718 4.684 3.959H32.56a4.74 4.74 0 014.684-3.959z"/></mask><path d="M48.492 23.777l.223.768.577-.167v-.6h-.8zm0 0l-.223-.768.063 1.552.16-.784zm0 3.414l-.16-.784-.64.13v.654h.8zm0 .025v.8h.8v-.8h-.8zm-6.563 0v-.8h-.681l-.11.672.79.128zm-9.368 0l.79-.128-.109-.672h-.681v.8zm-17.378 0v-.8h-.68l-.11.672.79.128zm-9.37 0l.79-.128-.108-.672h-.682v.8zm-3.813 0v-.8h-.002l.002.8zm-.748.002v.8h.002l-.002-.8zM2 23.752v.8h.8v-.8H2zM8.25 6.435v.8h.001v-.8zm5.77-.004v.8h.8v-.8h-.8zm0-1.974h.8V3.73l-.726-.068-.075.796zM1.218 1.267l.563-.57-.003-.002-.56.571zm-.134-.87L.378.022.377.024l.707.374zm.797-.386L1.74.799h.001l.14-.787zm23.92.99l-.003-.8.003.8zm1.047-.004l-.002-.8h-.001l.003.8zm0 0l.002.8-.002-.8zm2.647-.006v-.8.8zm6.437.002v.8-.8zM46.453.797l-.031-.8h-.007l.038.8zm.758.537l.768-.223-.768.223zm-.353.852l.388.7-.389-.7zm-1.867.777l-.247-.76-.553.178v.582h.8zm-.963 3.05l.357.716-.357-.716zm-1.83-.154l.474-.645-.474.645zm-2.42-1.777l.474-.645-.264-.193-.324.047.115.791zm-11.282.828l-.019-.8-.781.018v.782h.8zm0 1.526h-.8v.8h.8v-.8zm5.247-.001v-.8.8zm8.903 2.968l.489-.633-.009-.006-.48.64zm.205.159l.491-.631-.002-.002-.49.633zm4.659 6.24l-.746.29.014.037.018.034.714-.36zm.006.012l.739-.307-.012-.027-.013-.027-.714.361zm.014.033l.753-.268-.007-.02-.008-.02-.738.308zm.043.113l-.744.294v.003l.744-.297zm0 0l.744-.294-.001-.003-.743.297zm.037.096l-.752.274.003.008.003.008.746-.29zm.298.767v.8h1.17l-.424-1.09-.746.29zm-.043 0v-.8h-1.08l.315 1.033.765-.233zm-2.19-1.482v.8h1.282l-.564-1.152-.718.352zm-3.552-4.454l.503-.62-.22-.18h-.283v.8zm1.232-6.2L43 3.97l.355.717zm.138-.222h-.8.8zm-.4.199l.474-.644-.001-.001-.473.645zm-1.258-.922l-.15-.786-1.807.344 1.484 1.087.473-.645zm1.658-.357h.8V2.366l-.989.241.19.778zM24.837 2.49l.002.8h.001l-.003-.8zm0 0l-.002-.8.002.8zm-3.332.006l-.072-.796.072 1.596v-.8zm0 0l.073.797-.073-1.597v.8zm-13.42-.319l.052-.798-.198 1.585.147-.787zm32.401.285l.127.79-.136-1.59.01.8zm-4.552.02v.8-.8zm-6.438-.005v-.8.8zm-3.69.01l.003.8h.002l-.004-.8zM15.52 4.59l.063-.798-.863-.068v.866h.8zm11.477.344h.8v-.811l-.81.01.01.8zm0 1.5v.8h.8v-.8h-.8zm-11.477 0h-.8v.8h.8v-.8zm26.41 19.297l-.79.127.109.673h.681v-.8zm6.063 0v.8h.8v-.8h-.8zm0-.495h.8v-.8h-.8v.8zm-4.499 0h-.8v.8h.8v-.8zm0-1.485v-.8h-.8v.8h.8zm3.5 0v.8h.8v-.8h-.8zm-.704-6.927l.757-.259-.185-.54h-.572v.8zm-6.434-7.422v.8l.367-1.51-.367.71zM3.5 15.341h-.8v.8h.8v-.8zm7.534 0h.8v-.8h-.8v.8zm0 1.484v.8h.8v-.8h-.8zm-7.534 0v-.8h-.8v.8h.8zm0 6.927h-.8v.8h.8v-.8zm1 0h.8v-.8h-.8v.8zm0 1.485v.8h.8v-.8h-.8zm-3 0v-.8H.7v.8h.8zm0 .495H.7v.8h.8v-.8zm4.314 0v.8h.68l.11-.672-.79-.128zm9.37 0l-.79.127.108.673h.681v-.8zm17.376 0v.8h.68l.11-.672-.79-.128zm16.732-1.955v-2.746h-1.6v2.746h1.6zm-.577.769l-.446-1.537.446 1.537zm1.577.443c0-.99-.712-1.807-1.64-1.996l-.32 1.568c.212.043.36.228.36.428h1.6zm0 .988v-.988h-1.6v.988h1.6zm-1.64 1.998a2.043 2.043 0 001.64-1.998h-1.6a.443.443 0 01-.36.43l.32 1.568zm.64-.76v-.024h-1.6v.025h1.6zm-7.364.8h6.564v-1.6h-6.563v1.6zm-4.684 3.96c2.758 0 5.049-2.007 5.474-4.631l-1.58-.256a3.94 3.94 0 01-3.894 3.286v1.6zm-5.473-4.632c.423 2.625 2.715 4.631 5.473 4.631v-1.6c-1.968 0-3.594-1.43-3.893-3.286l-1.58.255zm-16.588.673H32.56v-1.6H15.183v1.6zm-4.685 3.958c2.758 0 5.049-2.006 5.475-4.63l-1.58-.256a3.94 3.94 0 01-3.895 3.286v1.6zm-5.474-4.63c.423 2.623 2.716 4.63 5.474 4.63v-1.6c-1.968 0-3.596-1.433-3.895-3.286l-1.58.255zM2 28.015h3.813v-1.6H2v1.6zm-.746.002l.748-.002-.004-1.6-.748.002.004 1.6zM-.8 25.978c0 1.132.926 2.04 2.052 2.04v-1.6a.447.447 0 01-.452-.44H-.8zm0-.987v.988H.8v-.988H-.8zm2.052-2.039A2.047 2.047 0 00-.8 24.992H.8c0-.235.196-.44.452-.44v-1.6zm.748 0h-.748v1.6H2v-1.6zm-.8-10.33v11.13h1.6v-11.13H1.2zm7.05-6.987c-3.88 0-7.05 3.125-7.05 6.986h1.6c0-2.961 2.438-5.387 5.45-5.387v-1.6zm5.769-.004l-5.769.003.001 1.6 5.769-.003-.001-1.6zm-.8-1.174v1.974h1.6V4.457h-1.6zM.656 1.835c.5.494 1.226.899 2.062 1.241.85.348 1.873.656 3.02.928 2.293.545 5.143.96 8.206 1.25l.15-1.593c-3.021-.285-5.792-.692-7.987-1.214-1.098-.26-2.036-.546-2.782-.852-.76-.31-1.262-.62-1.543-.897L.656 1.835zM.376.025a1.534 1.534 0 00.283 1.811L1.78.695c.02.02.025.053.012.077L.377.024zm1.646-.8A1.552 1.552 0 00.378.021L1.79.774A.048.048 0 011.74.8l.282-1.575zm19.48.986C14.577.211 6.914.091 2.02-.776L1.741.8c5.059.896 12.87 1.01 19.761 1.01V.21zm4.295-.01c-1.385.006-2.827.01-4.295.01v1.6c1.47 0 2.915-.004 4.302-.01l-.007-1.6zm1.048-.003l-1.047.003.005 1.6c.353 0 .702-.002 1.047-.003l-.005-1.6zm.001 0l.003 1.6-.003-1.6zm2.65-.006c-.851 0-1.738.003-2.651.006l.006 1.6a775.83 775.83 0 012.644-.006v-1.6zm6.436.002L29.495.192v1.6l6.436.002v-1.6zm.002 0h-.002v1.6h.002v-1.6zm10.48-.197c-3.46.168-6.128.197-10.48.197v1.6c4.36 0 7.059-.03 10.558-.198l-.077-1.599zm1.565 1.114a1.558 1.558 0 00-1.557-1.114l.063 1.599a.032.032 0 01-.02-.006.063.063 0 01-.023-.034l1.537-.445zm-.733 1.775a1.54 1.54 0 00.733-1.775l-1.536.445a.06.06 0 01.026-.07l.777 1.4zm-2.009.838c.772-.25 1.448-.527 2.008-.838l-.776-1.4c-.443.246-1.016.487-1.725.716l.493 1.522zm.554.741V2.963h-1.6v1.502h1.6zm-1.405 2.264a2.5 2.5 0 001.405-2.264h-1.6a.902.902 0 01-.52.833l.715 1.43zm-1.151.276a2.57 2.57 0 001.15-.276l-.714-1.432a.973.973 0 01-.436.107v1.6zm-1.511-.502c.448.33.975.502 1.511.502v-1.6a.944.944 0 01-.563-.19l-.948 1.288zm-2.419-1.776l2.42 1.776.947-1.29-2.42-1.776-.947 1.29zm-10.791.982c4.407-.1 8.256-.384 11.379-.835l-.229-1.583c-3.04.438-6.822.719-11.187.819l.037 1.6zm.782.727V4.91h-1.6v1.526h1.6zm4.446-.801l-5.247.001v1.6l5.248-.001v-1.6zm9.384 3.129a15.569 15.569 0 00-9.383-3.13v1.6a13.97 13.97 0 018.422 2.809l.961-1.28zm.214.165l-.205-.159-.979 1.266.205.159.979-1.266zm4.916 6.584a15.459 15.459 0 00-4.914-6.582l-.983 1.262a13.858 13.858 0 014.405 5.9l1.492-.58zm-.026-.06l-.006-.011-1.428.721.006.012 1.428-.722zm.038.087l-.014-.033-1.477.615.014.032 1.477-.614zm.048.126a2.666 2.666 0 01-.033-.087l-1.507.536c.019.054.039.104.053.14l1.487-.59zm0-.003l-1.486.594 1.486-.594zm.045.118a4.616 4.616 0 00-.044-.115l-1.488.589.03.075 1.502-.548zm.293.752l-.299-.768-1.49.581.298.767 1.49-.58zm-.789 1.09h.043v-1.6h-.043v1.6zm1.427 3.408c0-1.542-.233-3.034-.661-4.441l-1.53.466a13.65 13.65 0 01.591 3.975h1.6zm-3.618-6.49h-10.93v1.6h10.93v-1.6zm0 0v1.6-1.6zm-4.055-3.032a12.43 12.43 0 013.337 4.184l1.437-.704a14.03 14.03 0 00-3.767-4.723L41.62 11.51zm-6.874.178h7.378v-1.6h-7.378v1.6zm.55-.552c0 .316-.25.553-.55.553v-1.6c-.569 0-1.05.464-1.05 1.047h1.6zm0 3.958v-3.958h-1.6v3.958h1.6zm-.55-.552c.3 0 .55.236.55.552h-1.6c0 .583.481 1.048 1.05 1.048v-1.6zm8.965-9.137c.154-.076.313-.198.429-.385.116-.187.154-.383.154-.554h-1.6c0-.068.017-.177.087-.29A.555.555 0 0143 3.97l.71 1.434zm-1.091-.096a1.035 1.035 0 001.09.096L43 3.97a.553.553 0 01.291-.05.552.552 0 01.276.1l-.948 1.288zm-1.257-.92l1.258.921.946-1.29-1.258-.922-.946 1.29zm1.942-1.78a34.12 34.12 0 01-1.618.348l.299 1.572a33.972 33.972 0 001.698-.366l-.379-1.555zm.99 1.857v-1.08h-1.6v1.08h1.6zM24.84 3.291l-.006-1.6.006 1.6zm-3.335.006c1.132 0 2.248-.003 3.334-.006l-.005-1.6c-1.086.003-2.2.006-3.33.006v1.6zm-.072-1.596l.144 1.593-.144-1.593zM8.035 2.977c4.227.27 9.03.32 13.47.32v-1.6c-4.436 0-9.195-.05-13.368-.317l-.102 1.597zm16.712-.311c-6.789 0-12.54-.531-16.514-1.274l-.294 1.573c4.094.765 9.947 1.3 16.808 1.3v-1.6zm15.612-.993c-3.925.63-9.365.993-15.612.993v1.6c6.296 0 11.828-.365 15.866-1.014l-.254-1.58zm-4.423 1.61c1.728 0 3.198-.005 4.56-.02l-.019-1.6c-1.353.015-2.816.02-4.54.02v1.6zm-.002 0h.002v-1.6h-.002v1.6zm-6.439-.005l6.438.006.002-1.6-6.439-.006-.001 1.6zm-3.684.01c1.284-.006 2.519-.01 3.685-.01v-1.6c-1.17 0-2.407.004-3.693.01l.008 1.6zm-.971.003l.97-.003-.005-1.6-.97.003.005 1.6zm-.094.86c-3.022 0-6.176-.122-9.164-.358l-.126 1.595c3.031.24 6.227.362 9.29.362v-1.6zm2.24-.016c-.734.01-1.48.015-2.24.015v1.6c.768 0 1.521-.006 2.26-.015l-.02-1.6zm.81 2.3v-1.5h-1.6v1.5h1.6zm-12.277.8h11.477v-1.6H15.519v1.6zm-.8-2.644v1.843h1.6V4.591h-1.6zM10.5 28.89c-1.359 0-2.45-1.091-2.45-2.416h-1.6c0 2.224 1.823 4.016 4.05 4.016v-1.6zm2.45-2.416c0 1.325-1.092 2.416-2.45 2.416v1.6c2.226 0 4.05-1.792 4.05-4.016h-1.6zm-2.45-2.416c1.358 0 2.45 1.091 2.45 2.416h1.6c0-2.224-1.823-4.016-4.05-4.016v1.6zm-2.45 2.416c0-1.325 1.091-2.416 2.45-2.416v-1.6c-2.227 0-4.05 1.792-4.05 4.016h1.6zm25.146 0c0 2.224 1.822 4.016 4.05 4.016v-1.6c-1.36 0-2.45-1.091-2.45-2.416h-1.6zm4.05-4.016c-2.227 0-4.05 1.792-4.05 4.016h1.6c0-1.325 1.09-2.416 2.45-2.416v-1.6zm4.049 4.016c0-2.224-1.823-4.016-4.05-4.016v1.6c1.359 0 2.45 1.091 2.45 2.416h1.6zm-4.05 4.016c2.227 0 4.05-1.792 4.05-4.016h-1.6c0 1.325-1.091 2.416-2.45 2.416v1.6zm5.475-4.886c-.424-2.625-2.717-4.63-5.475-4.63v1.6c1.968 0 3.596 1.43 3.895 3.285l1.58-.255zm5.273-.672H41.93v1.6h6.063v-1.6zm-.8.305v.495h1.6v-.495h-1.6zm-3.699.8h4.5v-1.6h-4.5v1.6zm-.8-2.285v1.485h1.6v-1.485h-1.6zm4.3-.8h-3.5v1.6h3.5v-1.6zm-.8-1.919v2.72h1.6v-2.72h-1.6zm-.66-3.948c.425 1.241.66 2.566.66 3.948h1.6c0-1.564-.266-3.065-.747-4.467l-1.513.519zm-10.788.54H46.29v-1.6H34.745v1.6zm-2.55-2.531c0 1.404 1.15 2.531 2.55 2.531v-1.6a.943.943 0 01-.95-.931h-1.6zm0-3.959v3.959h1.6v-3.959h-1.6zm2.55-2.532c-1.4 0-2.55 1.128-2.55 2.532h1.6c0-.505.419-.932.95-.932v-1.6zm5.11 0h-5.11v1.6h5.11v-1.6zm-6.112.116c2.07 0 4.025.507 5.745 1.395l.734-1.421a14.09 14.09 0 00-6.48-1.574v1.6zm-25.492 0h25.492v-1.6H8.25v1.6zM4.3 12.621c0-2.141 1.765-3.901 3.95-3.901v-1.6c-3.054 0-5.55 2.46-5.55 5.501h1.6zm0 2.72v-2.72H2.7v2.72h1.6zm6.734-.8H3.5v1.6h7.534v-1.6zm.8 2.284v-1.484h-1.6v1.484h1.6zm-8.334.8h7.534v-1.6H3.5v1.6zm.8 6.127v-6.927H2.7v6.927h1.6zm.2-.8h-1v1.6h1v-1.6zm.8 2.285v-1.485H3.7v1.485h1.6zm-3.8.8h3v-1.6h-3v1.6zm.8-.305v-.495H.7v.495h1.6zm3.514-.8H1.5v1.6h4.314v-1.6zm4.685-3.959c-2.758 0-5.05 2.006-5.475 4.63l1.58.257a3.94 3.94 0 013.895-3.287v-1.6zm5.474 4.631c-.423-2.625-2.717-4.63-5.474-4.63v1.6c1.968 0 3.596 1.43 3.895 3.285l1.58-.255zm16.587-.672H15.183v1.6H32.56v-1.6zm4.684-3.959c-2.758 0-5.049 2.006-5.474 4.63l1.58.257a3.94 3.94 0 013.894-3.287v-1.6z" fill="#fff" mask="url(#a)"/><mask id="b" fill="#fff"><path fill-rule="evenodd" clip-rule="evenodd" d="M22.497 11.135v3.958c0 .955-.785 1.732-1.75 1.732h-5a1.743 1.743 0 01-1.749-1.732v-3.958c0-.955.785-1.732 1.75-1.732h4.999c.965 0 1.75.777 1.75 1.732zm-7 0v3.958c0 .136.116.248.25.248h5c.136 0 .25-.114.25-.248v-3.958a.253.253 0 00-.25-.248h-5a.253.253 0 00-.25.248z"/></mask><path d="M23.497 15.093v-3.958h-2v3.958h2zm-2.75 2.732c1.507 0 2.75-1.215 2.75-2.732h-2a.743.743 0 01-.75.732v2zm-5 0h5v-2h-5v2zm-2.749-2.732c0 1.517 1.243 2.732 2.75 2.732v-2a.743.743 0 01-.75-.732h-2zm0-3.958v3.958h2v-3.958h-2zm2.75-2.732c-1.507 0-2.75 1.215-2.75 2.732h2c0-.393.328-.732.75-.732v-2zm4.999 0h-5v2h5v-2zm2.75 2.732c0-1.517-1.243-2.732-2.75-2.732v2c.422 0 .75.339.75.732h2zm-7 3.958v-3.958h-2v3.958h2zm-.75-.752c.403 0 .75.32.75.752h-2c0 .703.579 1.248 1.25 1.248v-2zm5 0h-5v2h5v-2zm-.75.752c0-.429.343-.752.75-.752v2c.678 0 1.25-.552 1.25-1.248h-2zm0-3.958v3.958h2v-3.958h-2zm.75.752a.747.747 0 01-.75-.752h2c0-.696-.572-1.248-1.25-1.248v2zm-5 0h5v-2h-5v2zm.75-.752a.747.747 0 01-.75.752v-2c-.676 0-1.25.552-1.25 1.248h2z" fill="#fff" mask="url(#b)"/><mask id="c" fill="#fff"><path fill-rule="evenodd" clip-rule="evenodd" d="M25.246 9.403h5c.964 0 1.75.777 1.75 1.732v3.958c0 .955-.786 1.732-1.75 1.732h-5c-.964 0-1.75-.777-1.75-1.732v-3.958c0-.955.786-1.732 1.75-1.732zm5 5.938c.135 0 .25-.114.25-.248v-3.958a.253.253 0 00-.25-.248h-5a.253.253 0 00-.25.248v3.958c0 .133.116.248.25.248h5z"/></mask><path d="M30.245 8.403h-4.999v2h5v-2zm2.75 2.732c0-1.517-1.242-2.732-2.75-2.732v2c.423 0 .75.339.75.732h2zm0 3.958v-3.958h-2v3.958h2zm-2.75 2.732c1.508 0 2.75-1.215 2.75-2.732h-2a.743.743 0 01-.75.732v2zm-4.999 0h5v-2h-5v2zm-2.75-2.732c0 1.517 1.243 2.732 2.75 2.732v-2a.743.743 0 01-.75-.732h-2zm0-3.958v3.958h2v-3.958h-2zm2.75-2.732c-1.507 0-2.75 1.215-2.75 2.732h2c0-.393.328-.732.75-.732v-2zm4.25 6.69c0-.429.343-.752.75-.752v2c.678 0 1.25-.552 1.25-1.248h-2zm0-3.958v3.958h2v-3.958h-2zm.75.752a.747.747 0 01-.75-.752h2c0-.696-.572-1.248-1.25-1.248v2zm-5 0h5v-2h-5v2zm.75-.752a.747.747 0 01-.75.752v-2c-.677 0-1.25.552-1.25 1.248h2zm0 3.958v-3.958h-2v3.958h2zm-.75-.752c.408 0 .75.323.75.752h-2c0 .696.573 1.248 1.25 1.248v-2zm5 0h-5v2h5v-2z" fill="#fff" mask="url(#c)"/><mask id="d" fill="#fff"><path fill-rule="evenodd" clip-rule="evenodd" d="M35.245 26.473a1.99 1.99 0 012-1.979c1.103 0 2 .89 2 1.98a1.992 1.992 0 01-2 1.979c-1.104 0-2-.888-2-1.98zm1.5 0c0 .273.224.495.5.495.275 0 .5-.222.5-.495a.498.498 0 00-.5-.494c-.276 0-.5.222-.5.494z"/></mask><path d="M37.245 23.494c-1.646 0-3 1.325-3 2.98h2c0-.53.438-.98 1-.98v-2zm3 2.98c0-1.652-1.354-2.98-3-2.98v2c.56 0 1 .45 1 .98h2zm-3 2.979c1.645 0 3-1.326 3-2.98h-2c0 .53-.44.98-1 .98v2zm-3-2.98c0 1.654 1.354 2.98 3 2.98v-2c-.562 0-1-.45-1-.98h-2zm3-.505c.266 0 .5.216.5.505h-2c0 .835.681 1.495 1.5 1.495v-2zm-.5.505a.5.5 0 01.5-.505v2c.817 0 1.5-.66 1.5-1.495h-2zm.5.506a.502.502 0 01-.5-.506h2c0-.834-.683-1.494-1.5-1.494v2zm.5-.506c0 .29-.234.506-.5.506v-2c-.819 0-1.5.66-1.5 1.494h2z" fill="#fff" mask="url(#d)"/><mask id="e" fill="#fff"><path fill-rule="evenodd" clip-rule="evenodd" d="M8.5 26.473a1.99 1.99 0 012-1.979c1.103 0 2 .89 2 1.98a1.992 1.992 0 01-2 1.979c-1.104 0-2-.89-2-1.98zm1.499 0c0 .273.224.495.5.495.275 0 .5-.222.5-.495a.498.498 0 00-.5-.494c-.276 0-.5.222-.5.494z"/></mask><path d="M10.5 23.494c-1.647 0-3 1.325-3 2.98h2c0-.53.438-.98 1-.98v-2zm3 2.98c0-1.652-1.354-2.98-3-2.98v2c.56 0 1 .45 1 .98h2zm-3 2.979c1.645 0 3-1.326 3-2.98h-2c0 .53-.44.98-1 .98v2zm-3-2.98c0 1.652 1.353 2.98 3 2.98v-2c-.561 0-1-.451-1-.98h-2zm2.999-.505c.267 0 .5.216.5.505h-2c0 .835.682 1.495 1.5 1.495v-2zm-.5.505c0-.29.233-.505.5-.505v2c.818 0 1.5-.66 1.5-1.495h-2zm.5.506a.502.502 0 01-.5-.506h2c0-.834-.682-1.494-1.5-1.494v2zm.5-.506c0 .29-.233.506-.5.506v-2c-.818 0-1.5.66-1.5 1.494h2z" fill="#fff" mask="url(#e)"/><path d="M16.498 24.252h14.497v.484H16.498v-.484z" stroke="#fff"/></svg>