<svg width="59" height="46" fill="none" xmlns="http://www.w3.org/2000/svg"><mask id="a" fill="#fff"><path fill-rule="evenodd" clip-rule="evenodd" d="M58.25 42.486a.53.53 0 01-.035.083.171.171 0 01-.056.073c-.016.026-.033.047-.05.071a1.892 1.892 0 01-.06.074l-.059.057a.643.643 0 01-.18.128l-.05.026a.577.577 0 01-.063.026 1.067 1.067 0 00-.084.032h-.019l-.006.001a.892.892 0 01-.226.031.39.39 0 00-.143.017c-.044.05-.122.303-.172.464l-.005.015c-.183.594-.566 1.828-2.116 1.828-1.325 0-1.983-.889-2.465-1.538l-.004-.005c-.451-.615-.623-.78-.961-.78-.339 0-.508.165-.962.778l-.003.004c-.482.65-1.14 1.538-2.468 1.538-1.326 0-1.984-.888-2.466-1.538l-.003-.004c-.452-.613-.623-.779-.962-.779-.336 0-.508.166-.962.781-.48.65-1.14 1.543-2.469 1.543-1.327 0-1.986-.889-2.467-1.538l-.004-.005c-.451-.612-.623-.778-.961-.778-.34 0-.508.166-.962.778-.48.65-1.138 1.543-2.47 1.543-1.325 0-1.983-.889-2.465-1.538l-.003-.005c-.451-.612-.623-.778-.962-.778-.336 0-.508.166-.962.78-.48.65-1.14 1.543-2.468 1.543-1.326 0-1.984-.888-2.466-1.538l-.003-.005c-.452-.612-.623-.778-.962-.778-.336 0-.508.166-.962.78-.48.651-1.14 1.544-2.469 1.544a1.4 1.4 0 01-1.074-.487c-.656-.755-.525-2.041-.254-4.077l.004-.035c.097-.737.244-1.86.196-2.407-1.757.346-4.25 3.899-5.542 6.483a.937.937 0 01-.84.523c-.019 0-.037 0-.056-.003a.937.937 0 01-.828-.622c-.216-.603-2.064-5.973-.143-8.945.72-1.11 1.886-1.749 3.376-1.846 1.296-.085 1.888-.437 2.001-.714.075-.185-.044-.501-.308-.802-.7-.805-2.266-1.45-4.049-.962-2.471.675-5.241 4.019-6.174 7.455-.327 1.208-.68 3.444.655 4.827a.958.958 0 01-.018 1.343.934.934 0 01-1.331-.019c-1.474-1.525-1.872-3.89-1.122-6.652.971-3.578 4.042-7.843 7.499-8.785 2.574-.703 4.843.265 5.953 1.54.769.88 1 1.894.635 2.781-.317.772-1.201 1.726-3.619 1.885-.9.06-1.528.384-1.92.99-.793 1.224-.61 3.395-.25 5.128 1.41-2.286 3.887-5.606 6.45-5.525.414.014.787.195 1.05.51.264.314.393.72.44 1.222 1.731-1.155 4.257-2.3 9.241-2.807C25.184 13.32 35.343.883 35.803.335a.12.12 0 01.011-.01L35.83.31a.948.948 0 01.087-.083.384.384 0 01.058-.05c.03-.02.058-.036.088-.053l.02-.011a.475.475 0 01.06-.033.92.92 0 01.169-.054l.016-.006a.9.9 0 01.197-.02l.138.005a.93.93 0 01.718.334c.46.546 10.569 12.92 5.262 34.909 13.877.82 15.575 6.41 15.64 6.654l.003.015.002.016.014.092c.005.034.01.067.01.1l.002.029a.24.24 0 01-.004.048v.01c-.003.033-.006.067-.012.1a.945.945 0 01-.02.085l-.007.028c-.006.021-.012.042-.02.062zM37.466 38.17h2.431c5.355-17.673.318-29.587-2.431-34.317V38.17zm-1.88-34.068V38.17H33.29c-5.251-17.329-.477-29.167 2.293-34.068zm19.667 38.942l.005-.016c.11-.356.298-.94.761-1.35-1.041-1.33-4.326-4.058-13.86-4.554a62.14 62.14 0 01-.675 2.287.942.942 0 01-.896.663h-7.99a.942.942 0 01-.896-.663 70.303 70.303 0 01-.627-2.13c-6.046.574-8.209 2.104-9.862 3.395l-.021.167-.035.268c-.092.693-.233 1.76-.205 2.33.172-.102.346-.31.628-.695l.003-.005c.482-.65 1.14-1.538 2.468-1.538 1.326 0 1.984.888 2.466 1.538l.003.005c.452.612.623.778.962.778.338 0 .508-.166.961-.778l.004-.005c.482-.65 1.14-1.538 2.468-1.538 1.325 0 1.984.888 2.465 1.538l.004.005c.453.612.625.778.961.778.339 0 .508-.166.962-.778.48-.65 1.138-1.543 2.469-1.543 1.325 0 1.984.888 2.465 1.538l.004.005c.454.614.625.78.964.78.339 0 .508-.166.962-.778l.003-.004c.482-.65 1.14-1.538 2.468-1.538 1.325 0 1.984.888 2.465 1.538l.004.004c.451.612.623.779.962.779.338 0 .51-.166.964-.781.48-.65 1.14-1.543 2.469-1.543 1.327 0 1.986.888 2.467 1.538l.004.005c.454.612.625.778.962.778.105 0 .143-.016.143-.016.043-.051.122-.304.171-.464z"/></mask><path d="M58.215 42.569l-.88-.476 1.516 1.248-.636-.772zm.036-.083l-.925-.382-.014.034-.011.034.95.314zm-.035.083l.896.444-1.532-1.216.636.772zm-.057.073l-.558-.83-.175.118-.113.179.846.533zm-.05.071l.785.621.02-.025.018-.026-.822-.57zm-.04.05l.765.645-.765-.645zm-.02.024l.71.704.019-.019.017-.02-.746-.665zm-.059.057l-.668-.745-.022.02-.02.02.71.705zm-.075.064l.558.83.017-.012.017-.012-.592-.806zm-.07.045l.45.893.034-.018.033-.02-.518-.855zm-.036.019l.489.872-.489-.872zm-.05.026l-.422-.906-.014.006-.014.007.45.893zm-.062.026l.317.948.013-.004.014-.005-.343-.94zm0 0l-.316-.95-.013.005-.014.005.343.94zm-.01.004l.346.938-.347-.938zm-.017.006l.354.935.008-.003-.362-.932zm-.018.007l.402.916-.402-.916zm-.038.014l-.219-.976-.013.003-.013.003.245.97zm-.007.001l.065.998h.001l-.066-.998zm-.013 0l.087.997h.002l-.09-.997zm-.006.001l-.245-.97-.007.003.252.967zm-.37.048l-.403-.915-.208.092-.148.173.76.65zm-.17.464l.948.316.003-.01.003-.01-.955-.296zm0 0l-.95-.316-.003.01-.003.01.955.296zm-.006.015l-.955-.296.955.296zm-4.581.29l.803-.596-.803.596zm-.004-.005l-.806.592.003.004.803-.596zm-1.923-.002l.803.595-.803-.595zm-.003.004l-.804-.596.804.596zm-4.934 0l.803-.595-.803.595zm-.003-.004l-.805.593.002.002.803-.595zm-1.924.002l-.804-.594.804.594zm-4.936.005l-.804.595.804-.595zm-.004-.005l-.805.593.002.002.803-.595zm-1.923 0l-.804-.596-.001.002.805.594zm-4.935.005l-.803.595.803-.595zm-.003-.005l-.805.593.002.002.803-.595zm-1.924.002l-.804-.593.805.593zm-4.934.005l-.803.595.803-.595zm-.003-.005l-.805.594.001.002.804-.596zm-1.924.003l-.804-.594.804.594zm-3.543 1.056l.757-.654-.002-.002-.755.656zm-.254-4.077l.991.131v-.001l-.991-.13zm.004-.035l-.991-.13.991.13zm.196-2.407l.996-.089-.099-1.108-1.09.216.193.98zm-5.542 6.483l-.895-.447-.001.004.896.444zm-.896.52l.125-.992-.034-.004-.034-.002-.057.998zm-.828-.622l.942-.336v-.001l-.942.337zm-.143-8.945l-.84-.543.84.543zm3.376-1.846l.065.998h.001L15.454 34zm2.001-.714l.927.376-.927-.376zm-.308-.802l-.754.656.001.002.753-.658zm-4.049-.962l.263.965h.002l-.265-.965zm-6.174 7.455l-.966-.262.966.262zm.655 4.827l.722-.692-.002-.002-.72.694zm-.018 1.343l.699.716.002-.003-.701-.712zM6.23 45.13l.72-.694h-.001l-.72.694zm-1.122-6.652l.965.263-.965-.263zm7.499-8.785l.263.964-.263-.964zm5.953 1.54l-.754.657.754-.657zm.635 2.781l.925.38-.925-.38zm-3.619 1.885l-.065-.998.065.998zm-1.92.99l-.84-.545v.001l.84.543zm-.25 5.128l-.979.203.51 2.46 1.32-2.138-.85-.525zm6.45-5.525l.034-1h-.003l-.031 1zm1.05.51l-.767.64.002.004.766-.644zm.44 1.222l-.995.093.156 1.67 1.395-.931-.555-.832zm9.241-2.807l.102.995 1.143-.117-.273-1.116-.972.238zM35.803.335l-.71-.704-.03.029-.026.031.766.644zm.011-.01l.624.781-.624-.781zM35.83.31l-.738-.675-.035.038-.03.04.803.597zm.087-.083l.649.76.032-.027.029-.03-.71-.703zm.058-.05l-.558-.83.558.83zm.088-.053l.49.872h.002l-.492-.872zm.02-.011l.492.87.021-.011.021-.013-.533-.846zm.06-.033l-.392-.92-.009.003-.009.004.41.913zm.136-.045l-.143-.99-.051.007-.05.013.244.97zm.033-.01l.318.948.032-.01.03-.013-.38-.924zm0 0l-.169-.985-.11.019-.103.042.382.925zm0 0l.168.986.077-.013.074-.025-.32-.947zm.016-.005l-.219-.975-.03.006-.028.009.277.96zm.197-.02l.034-1h-.034v1zm.138.005l-.034 1h.034v-1zm.718.334l-.767.642.003.004.764-.646zm5.262 34.909l-.972-.235-.28 1.162 1.193.07.059-.997zm15.64 6.654l.971-.24-.002-.01-.003-.01-.966.26zm.005.03l.989-.15-.007-.045-.011-.044-.97.24zm.014.093l-.988.151.003.023.005.023.98-.197zm0 0l.99-.14-.004-.028-.005-.028-.98.196zm.01.153l-.995-.091.996.09zm-.002.025l-.992-.125.992.124zm0 .005l-.993-.124-.003.027-.002.027.997.07zm0 .003l.997.07-.998-.07zm-.012.1l-.979-.209-.004.023-.004.022.987.163zm-.02.085l.957.291.008-.025.006-.026-.97-.24zm-.007.028l.962.27-.962-.27zM39.896 38.17v1h.742l.215-.71-.957-.29zm-2.431 0h-1v1h1v-1zm0-34.317l.864-.502L36.465.144v3.71h1zm-1.88 34.317v1h1v-1h-1zm0-34.068h1v-3.8L34.713 3.61l.87.492zM33.29 38.171l-.957.29.216.71h.741v-1zm21.966 4.858l.955.296.463-1.49-1.548.203.13.991zm-.005.016l.956.296-.956-.296zm.005-.016l-.956-.296-.462 1.491 1.548-.203-.13-.992zm.761-1.35l.664.748.704-.624-.58-.74-.788.616zm-13.86-4.554l.051-.999-.802-.042-.214.775.965.266zm-.675 2.287l.953.302-.953-.302zm-9.781 0l-.955.299.001.003.953-.302zm-.628-2.13l.963-.27-.225-.805-.833.079.095.995zm-9.862 3.395l-.615-.788-.323.252-.053.405.991.131zm-.021.167l-.992-.126.992.126zm-.035.268l-.99-.138-.002.007.992.13zm-.205 2.33l-.999.05.082 1.658 1.428-.848-.51-.86zm.628-.695l-.803-.596-.003.004.806.592zm.003-.005l.804.596-.804-.596zm4.934 0l.803-.595-.803.595zm.003.005l.805-.594-.002-.002-.803.596zm1.924 0l.803.595-.803-.595zm.003-.005l-.804-.595.804.595zm4.933 0l-.803.596.803-.596zm.004.005l.803-.596-.803.596zm1.923 0l.803.595.002-.002-.805-.593zm4.934-.005l.804-.595-.803.595zm.004.005l.804-.594v-.002l-.804.596zm1.926.002l-.803-.596.803.596zm.003-.004l.803.596-.803-.596zm4.933 0l.804-.596-.803.596zm.004.004l.805-.593-.002-.002-.803.595zm1.926-.002l.804.594-.804-.594zm4.936-.005l-.803.596.803-.596zm.004.005l.803-.596-.803.596zm1.105.762l.404.914.208-.092.148-.172-.76-.65zm4.014-.465c.047-.087.08-.171.105-.245l-1.899-.627a.48.48 0 01.035-.078l1.76.95zm-1.515-1.247l1.271 1.544-1.271-1.544zm1.138 1.675c.267-.18.378-.428.394-.46l-1.792-.888c-.013.026.07-.17.281-.312l1.117 1.66zm.214-.189l.003-.005.014-.02c.013-.018.034-.047.056-.083l-1.692-1.066.007-.01-.004.005-.007.01a3.007 3.007 0 00-.02.03l1.643 1.14zm-.098.125l.06-.074-1.568-1.242a1.18 1.18 0 01-.02.026l1.528 1.29zm-.039.044a2.18 2.18 0 00.039-.044l-1.529-1.29-.002.003 1.492 1.331zm-.137.136c.046-.041.085-.08.101-.097l-1.42-1.408-.012.011a.275.275 0 01-.006.007c-.003.002-.002.001.001-.002l1.336 1.49zm-.151.126c.056-.041.124-.097.193-.166l-1.42-1.408a.385.385 0 01.043-.038l1.184 1.612zm-.145.094a3.15 3.15 0 00.111-.07l-1.117-1.66a.956.956 0 01-.03.02l1.036 1.71zm-.064.036l.006-.003a.238.238 0 01-.01.005l-.9-1.786-.074.04.978 1.744zm-.116.06c.056-.026.104-.053.116-.06L57.32 42.1l-.007.005c-.001 0-.001 0 0 0l.024-.012.845 1.813zm-.142.059c.012-.004.09-.031.17-.072l-.901-1.786a.658.658 0 01.055-.024l-.01.003.687 1.879zm-.026.01l-.633-1.898.633 1.897zm.019-.007l.008-.003-.686-1.879-.015.005.693 1.877zm0 0l-.693-1.877a2.783 2.783 0 00-.032.012l.724 1.865zm.021-.01a.25.25 0 00-.003.002l-.027.01-.708-1.87a1.283 1.283 0 00-.066.028l.804 1.83zm-.221.075c.121-.028.217-.072.22-.074l-.803-1.831.03-.012a.86.86 0 01.115-.035l.438 1.952zm-.16.023a.908.908 0 00.185-.03l-.489-1.939a.957.957 0 01.172-.027l.132 1.996zm-.072.002h.019c.012 0 .03 0 .052-.002l-.13-1.996a1.08 1.08 0 01.045-.002h.014v2zm.082-.004a.924.924 0 01-.063.004h-.02v-2h-.007a.84.84 0 00-.088.004l.178 1.992zm.15-.025a.958.958 0 01-.151.026l-.176-1.993a1.036 1.036 0 00-.163.028l.49 1.939zm-.47.061c.18 0 .34-.027.477-.063l-.504-1.935c-.01.002.002-.002.026-.002v2zm-.144-.983l.403.915h-.001l-.002.001-.004.002-.007.003-.014.006a.927.927 0 01-.163.048c-.045.008-.07.008-.069.008v-2a1.58 1.58 0 00-.292.025 1.25 1.25 0 00-.225.064l-.015.007a.241.241 0 00-.008.003l-.003.001-.002.001h-.001s-.001.001.403.916zm.783.76l.04-.125a4.597 4.597 0 01.052-.155l.005-.013a.073.073 0 00-.002.004.753.753 0 01-.118.179l-1.52-1.3c-.124.144-.189.307-.198.329a3.263 3.263 0 00-.07.182c-.038.11-.075.23-.099.306l1.91.593zm-.006.02l-1.897-.633 1.897.633zm.002-.005l.004-.015-1.91-.593-.005.016 1.91.593zm-3.072 2.532c1.09 0 1.852-.455 2.345-1.06.451-.551.639-1.187.727-1.472l-1.911-.591c-.095.307-.19.586-.365.799-.132.162-.336.324-.796.324v2zm-3.269-1.943c.466.629 1.395 1.943 3.27 1.943v-2c-.777 0-1.165-.463-1.663-1.134l-1.607 1.191zm-.003-.004l.004.004 1.606-1.191-.003-.005-1.607 1.192zm-.158-.377s-.044 0-.106-.022a.42.42 0 01-.072-.033c-.017-.01-.026-.018-.025-.017a.99.99 0 01.102.111c.066.078.146.184.256.334l1.612-1.184c-.213-.29-.438-.587-.688-.796a1.62 1.62 0 00-1.08-.393v2zm-.159.374c.111-.15.193-.256.258-.334a1.01 1.01 0 01.104-.113.404.404 0 01-.097.05c-.062.023-.107.023-.106.023v-2a1.62 1.62 0 00-1.079.392c-.248.208-.473.503-.687.791l1.607 1.191zm-.003.005l.003-.005-1.606-1.191-.004.004 1.607 1.192zm-3.271 1.942c1.876 0 2.804-1.313 3.27-1.942l-1.606-1.191c-.497.67-.885 1.133-1.664 1.133v2zm-3.27-1.942c.467.628 1.395 1.942 3.27 1.942v-2c-.777 0-1.165-.462-1.663-1.133l-1.606 1.19zm-.002-.005l.003.005 1.606-1.191-.003-.005-1.606 1.191zm-.159-.374s-.043 0-.105-.022a.416.416 0 01-.071-.033c-.018-.01-.027-.018-.026-.017a.938.938 0 01.103.111c.065.078.146.184.256.333l1.61-1.187c-.214-.29-.438-.585-.688-.793a1.621 1.621 0 00-1.079-.392v2zm-.157.375c.11-.15.192-.256.257-.334a.877.877 0 01.105-.113c0-.002-.008.006-.025.016a.41.41 0 01-.149.053l-.03.003v-2c-.397 0-.752.12-1.079.393-.249.208-.473.503-.688.794l1.609 1.188zM41.2 46.412c1.879 0 2.81-1.32 3.274-1.95l-1.61-1.187c-.494.67-.885 1.137-1.664 1.137v2zm-3.27-1.943c.466.63 1.394 1.943 3.27 1.943v-2c-.779 0-1.167-.463-1.664-1.134L37.93 44.47zm-.004-.005l.003.005 1.607-1.19-.003-.005-1.607 1.19zm-.158-.373s-.044 0-.106-.023a.409.409 0 01-.071-.033.122.122 0 01-.025-.017c.005.005.036.033.102.112.065.078.146.183.256.332l1.61-1.187c-.214-.29-.438-.585-.688-.793a1.621 1.621 0 00-1.078-.391v2zm-.159.373a7.66 7.66 0 01.258-.334.956.956 0 01.104-.112l-.026.017a.404.404 0 01-.071.033c-.063.022-.107.023-.106.023v-2a1.62 1.62 0 00-1.08.392c-.248.207-.472.502-.686.79l1.607 1.191zm-3.272 1.948c1.88 0 2.81-1.32 3.273-1.95l-1.609-1.187c-.495.671-.883 1.137-1.664 1.137v2zm-3.269-1.943c.466.629 1.395 1.943 3.269 1.943v-2c-.777 0-1.165-.463-1.662-1.134l-1.607 1.191zm-.003-.005l.003.005 1.607-1.19-.004-.005-1.606 1.19zm-.159-.373s-.043 0-.105-.023a.404.404 0 01-.071-.033c-.018-.01-.026-.017-.026-.017a.98.98 0 01.103.112c.065.078.146.183.256.332l1.61-1.187c-.214-.29-.438-.585-.688-.793a1.621 1.621 0 00-1.079-.391v2zm-.157.374c.11-.15.192-.256.258-.334a1.02 1.02 0 01.104-.113l-.025.017a.4.4 0 01-.149.053l-.03.003v-2c-.396 0-.752.12-1.079.392-.249.208-.473.504-.688.795l1.609 1.187zm-3.273 1.949c1.878 0 2.808-1.319 3.273-1.949l-1.61-1.187c-.494.67-.884 1.136-1.663 1.136v2zm-3.27-1.943c.467.63 1.395 1.943 3.27 1.943v-2c-.777 0-1.165-.462-1.663-1.133l-1.606 1.19zm-.003-.004l.004.004 1.607-1.19-.004-.005-1.607 1.19zm-.158-.374s-.044 0-.105-.022a.417.417 0 01-.072-.033c-.017-.01-.026-.018-.025-.017a.938.938 0 01.103.111c.065.078.146.184.256.333l1.61-1.187c-.214-.29-.438-.585-.688-.794a1.622 1.622 0 00-1.079-.391v2zm-.157.375c.11-.15.192-.256.257-.335a.997.997 0 01.104-.113.414.414 0 01-.173.07c-.02.003-.032.003-.031.003v-2c-.396 0-.751.12-1.078.392-.249.209-.474.504-.688.795l1.609 1.188zm-3.274 1.948c1.879 0 2.81-1.318 3.274-1.948l-1.61-1.188c-.494.67-.885 1.136-1.664 1.136v2zm-1.831-.833a2.4 2.4 0 001.831.834v-2a.4.4 0 01-.317-.14l-1.514 1.306zm-.488-4.862c-.133 1-.247 1.911-.23 2.674.018.77.17 1.558.72 2.191l1.51-1.312c-.106-.122-.217-.354-.23-.925-.013-.578.075-1.33.212-2.365l-1.982-.263zm.004-.033l-.005.035 1.983.26.005-.035-1.983-.26zm.19-2.189c.016.17.001.503-.042.947-.04.422-.1.87-.148 1.242l1.983.26c.048-.366.111-.848.156-1.309.042-.438.077-.94.044-1.317l-1.992.177zm-3.651 6.843c.62-1.237 1.529-2.71 2.484-3.904.477-.596.949-1.1 1.383-1.467.453-.381.781-.541.974-.58l-.387-1.961c-.685.135-1.327.549-1.876 1.012-.567.478-1.13 1.088-1.656 1.746a25.273 25.273 0 00-2.71 4.259l1.788.895zm-1.734 1.075c.73 0 1.406-.413 1.736-1.079l-1.792-.887a.063.063 0 01.056-.034v2zm-.181-.01c.091.01.173.01.181.01v-2h.004a.56.56 0 01.065.005l-.25 1.984zm-1.645-1.279a1.94 1.94 0 001.713 1.285l.114-1.997c.029.002.05.02.057.04l-1.884.672zm-.041-9.824c-1.167 1.806-1.136 4.206-.88 6.042a20.2 20.2 0 00.922 3.784l1.883-.675a18.217 18.217 0 01-.825-3.385c-.242-1.743-.174-3.514.58-4.68l-1.68-1.086zm4.151-2.3c-1.76.114-3.236.887-4.15 2.3l1.678 1.087c.524-.809 1.38-1.312 2.602-1.392l-.13-1.996zm1.14-.094a.578.578 0 01.123-.188.957.957 0 01-.134.069c-.195.08-.554.174-1.13.212L15.52 35c.72-.047 1.305-.172 1.758-.358.402-.165.893-.46 1.104-.978l-1.853-.753zm-.135.233a.836.836 0 01.095.133l.005.01-.006-.019a.651.651 0 01.04-.357l1.854.753c.175-.432.073-.847-.02-1.091a2.529 2.529 0 00-.462-.745l-1.506 1.315zm-3.031-.655c1.434-.394 2.597.156 3.03.653l1.508-1.313c-.968-1.111-2.937-1.853-5.067-1.269l.529 1.929zM7.889 39.24c.425-1.567 1.279-3.136 2.315-4.387 1.052-1.27 2.2-2.104 3.157-2.365l-.526-1.93c-1.514.414-2.987 1.59-4.171 3.02-1.2 1.447-2.198 3.268-2.706 5.138l1.93.524zm.41 3.87c-.44-.454-.64-1.087-.672-1.827-.032-.74.112-1.49.262-2.044l-1.93-.522c-.178.655-.374 1.626-.33 2.652.044 1.026.334 2.202 1.231 3.13l1.439-1.388zm-.037 2.751c.762-.749.78-1.976.039-2.748l-1.443 1.385a.05.05 0 01-.01-.016.04.04 0 01-.003-.015.03.03 0 01.004-.015.052.052 0 01.01-.016l1.403 1.425zm-2.751-.037c.75.778 1.98.792 2.749.04l-1.398-1.43a.058.058 0 01.018-.012.068.068 0 01.07.013l-1.44 1.39zm-1.368-7.609c-.806 2.968-.435 5.744 1.368 7.61l1.438-1.39c-1.146-1.187-1.57-3.139-.876-5.696l-1.93-.524zm8.2-9.488c-2.006.547-3.802 2.02-5.195 3.74-1.402 1.73-2.48 3.815-3.005 5.749l1.93.523c.447-1.645 1.39-3.482 2.63-5.014 1.25-1.543 2.717-2.673 4.167-3.069l-.526-1.93zm6.971 1.848c-1.36-1.561-4.023-2.652-6.97-1.848l.526 1.93c2.201-.601 4.076.244 4.936 1.232l1.508-1.314zm.806 3.818c.542-1.32.146-2.727-.807-3.819l-1.506 1.316c.585.67.65 1.29.463 1.743l1.85.76zm-4.478 2.502c1.328-.087 2.326-.398 3.064-.864.75-.473 1.181-1.072 1.414-1.637l-1.85-.761c-.085.206-.254.47-.63.706-.387.244-1.04.49-2.13.56l.132 1.996zm-1.148.537c.18-.277.477-.492 1.148-.537l-.131-1.995c-1.13.074-2.088.509-2.695 1.443l1.678 1.089zm-.109 4.38c-.171-.825-.294-1.725-.286-2.542.007-.84.152-1.463.396-1.84l-1.68-1.086c-.548.848-.707 1.924-.716 2.908-.01 1.009.14 2.06.328 2.967l1.958-.406zm5.502-6.32c-1.71-.054-3.229 1.011-4.392 2.164-1.198 1.187-2.218 2.665-2.94 3.835l1.702 1.05c.689-1.115 1.612-2.44 2.646-3.465 1.068-1.058 2.069-1.612 2.921-1.586l.063-1.998zm1.788.869a2.414 2.414 0 00-1.785-.87l-.069 2c.135.004.24.058.318.15l1.536-1.28zm.667 1.77c-.057-.615-.227-1.246-.67-1.773l-1.53 1.287c.083.1.172.28.209.671l1.991-.186zm8.144-3.71c-5.117.521-7.805 1.709-9.695 2.97l1.11 1.664c1.573-1.05 3.935-2.15 8.788-2.644l-.203-1.99zm4.551-34.73c-.58.69-10.927 13.447-5.42 35.962l1.942-.475c-5.3-21.674 4.667-33.793 5.01-34.2L35.036-.309zm.153-.148s-.047.037-.098.088l1.421 1.407a.88.88 0 01-.056.052l-.019.016L35.19-.457zm-.164.172a.947.947 0 01.12-.134c.027-.025.052-.044.044-.038l1.248 1.563.017-.014a1.101 1.101 0 00.176-.185L35.026-.285zm.24-.248c-.05.044-.111.099-.175.169l1.476 1.35a.119.119 0 01-.008.007l.006-.005-1.299-1.52zm.15-.119a1.383 1.383 0 00-.21.176l1.42 1.408a.627.627 0 01-.093.076l-1.117-1.66zm.156-.094c-.025.014-.089.05-.156.094l1.117 1.66-.007.004.009-.005a1.98 1.98 0 01.018-.01l-.981-1.743zm.02-.011l-.021.011.983 1.742.02-.011-.983-1.742zm.14-.075c-.096.043-.172.093-.183.1L36.616.96c.012-.008.006-.004-.002.001a.674.674 0 01-.063.032l-.819-1.825zm.301-.102a1.917 1.917 0 00-.283.094l.782 1.841a.165.165 0 01-.012.005h.002l-.489-1.94zm-.041.013l.025-.008a.879.879 0 01.118-.025l.285 1.98a1.12 1.12 0 00.151-.033l.058-.019-.637-1.895zm-.063.023l.763 1.85-.763-1.85zm.213-.061l.337 1.971-.337-1.971zm-.092.02a.666.666 0 00-.058.018L36.63.974l-.003.001a.676.676 0 01-.023.007L36.05-.939zM36.525-1a1.9 1.9 0 00-.417.046l.438 1.951a.106.106 0 01-.021.003v-2zm.172.005l-.138-.004L36.49.999l.14.005.067-1.999zm1.45.693a1.931 1.931 0 00-1.484-.693v2a.068.068 0 01-.05-.024l1.534-1.283zm5.468 35.784c5.408-22.407-4.89-35.1-5.47-35.788l-1.53 1.29c.341.404 10.26 12.46 5.055 34.029l1.944.47zm15.634 6.16c-.087-.325-.654-1.99-3.03-3.668-2.363-1.668-6.454-3.307-13.517-3.725l-.118 1.997c6.813.403 10.51 1.97 12.482 3.362 1.958 1.383 2.274 2.635 2.252 2.554l1.931-.52zm.03.166a.293.293 0 00-.004-.039 1.073 1.073 0 00-.02-.107l-1.942.48a.924.924 0 01-.018-.093l-.003-.022 1.988-.219zm-.02-.115c.01.042.016.076.018.092l.003.023-1.988.219.001.011.004.027c.003.022.009.06.02.108l1.942-.48zm.032.182l-.014-.093-1.977.302.014.092 1.977-.301zm-.008-.046l-1.961.392 1.96-.392zm.029.296c0-.115-.017-.219-.02-.24l-1.98.28.002.017v-.001a.538.538 0 01-.002-.056h2zm.002.029a1.07 1.07 0 00-.005-.1l-.002-.026a.472.472 0 00-.002-.012v.005l.003.019a.921.921 0 01.004.085h-2a1.09 1.09 0 00.008.137v-.004a.91.91 0 01-.006-.105h2zm-.005.115a1.2 1.2 0 00.005-.115h-2c0-.03.002-.053.003-.067l1.992.182zm-.007.058l.007-.058-1.992-.182.001-.013v.004l1.984.25zm0 .005v-.006l-1.984-.247-.001.005 1.985.248zm.005-.05v-.004l-1.995-.14v.003l1.995.14zm-.031.236a1.55 1.55 0 00.03-.236l-1.994-.141-.002.016c0 .003 0 .002 0 0a.458.458 0 01.01-.054l1.956.415zm-.027.118c.006-.022.023-.089.035-.163l-1.973-.326.003-.015-.002.007-.004.016 1.941.481zm-.016.059a.494.494 0 01.003-.009v.001l-1.914-.583-.014.049 1.925.542zm-.058.172c.034-.083.055-.161.058-.172l-1.925-.542-.002.009.001-.005a.609.609 0 01.02-.053l1.848.763zm-19.279-5.696h-2.431v2h2.431v-2zM36.6 4.357c2.644 4.548 7.596 16.175 2.34 33.524l1.913.58c5.453-17.997.331-30.198-2.524-35.11L36.6 4.358zm1.865 33.814V3.854h-2v34.317h2zm-1.88 0V4.103h-2v34.068h2zm-3.294 1h2.293v-2h-2.293v2zm1.423-35.56c-2.873 5.082-7.727 17.203-2.38 34.85l1.914-.58c-5.155-17.011-.46-28.566 2.207-33.285l-1.741-.985zm19.588 39.122l-.005.015 1.91.593.005-.016-1.91-.592zm1.085 1.288l-.26-1.983.26 1.983zm-.032-3.09c-.695.616-.947 1.458-1.053 1.802l1.91.593c.114-.368.239-.694.47-.899l-1.327-1.496zm-13.25-2.808c9.37.488 12.327 3.153 13.126 4.173l1.575-1.234c-1.284-1.638-4.896-4.431-14.596-4.936l-.104 1.997zm.331 1.59c.249-.786.476-1.56.686-2.323l-1.929-.53a62.233 62.233 0 01-.664 2.251l1.907.603zm-1.85 1.361c.854 0 1.596-.557 1.85-1.36l-1.907-.603c.005-.015.023-.036.058-.036v2zm-7.989 0h7.99v-2h-7.99v2zm-1.849-1.36c.254.803.997 1.36 1.85 1.36v-2c.034 0 .052.022.057.037l-1.907.603zm-.638-2.164c.198.708.408 1.428.637 2.161l1.909-.597a69.777 69.777 0 01-.62-2.101l-1.926.537zm-8.282 3.916c.798-.624 1.668-1.265 3.047-1.83 1.39-.57 3.341-1.079 6.293-1.36l-.189-1.99c-3.093.294-5.246.837-6.862 1.5-1.628.666-2.666 1.436-3.52 2.103l1.23 1.576zm.355-.497l.02-.16-1.982-.263-.022.172 1.984.251zm-.037.28l.037-.28-1.984-.25-.034.255 1.981.276zm-.196 2.144c-.023-.456.1-1.41.197-2.15l-1.983-.263c-.085.647-.245 1.828-.212 2.512l1.998-.1zm-1.177-1.238a5.3 5.3 0 01-.298.382c-.068.077-.075.07-.035.046l1.022 1.719c.38-.226.672-.621.923-.963l-1.612-1.184zm.006-.008l-.003.004 1.606 1.191.004-.004-1.607-1.191zm3.271-1.943c-1.876 0-2.805 1.314-3.271 1.943l1.607 1.19c.497-.67.885-1.133 1.664-1.133v-2zm3.27 1.943c-.467-.629-1.396-1.943-3.27-1.943v2c.777 0 1.165.463 1.662 1.134l1.607-1.191zm.003.004l-.004-.004-1.607 1.19.004.005 1.607-1.19zm.158.374s.043 0 .105.022c.029.01.053.023.071.034l.026.016a.99.99 0 01-.103-.111 7.35 7.35 0 01-.256-.333l-1.61 1.187c.214.29.438.585.688.794.328.273.684.391 1.079.391v-2zm.158-.374a7.58 7.58 0 01-.258.334 1.03 1.03 0 01-.104.113l.026-.017a.409.409 0 01.072-.033c.062-.023.106-.023.106-.023v2c.395 0 .751-.118 1.078-.392.249-.207.473-.502.687-.79l-1.607-1.192zm.003-.004l-.003.005 1.607 1.19.003-.005-1.607-1.19zm3.272-1.943c-1.876 0-2.805 1.314-3.272 1.943l1.607 1.19c.497-.67.886-1.133 1.665-1.133v-2zm3.269 1.943c-.466-.629-1.395-1.943-3.27-1.943v2c.777 0 1.165.463 1.663 1.134l1.607-1.191zm.003.004l-.003-.004-1.607 1.19.003.005 1.607-1.19zm.158.374s.011 0 .031.003c.022.004.048.01.077.02.062.022.096.05.096.05a.995.995 0 01-.104-.113 7.496 7.496 0 01-.258-.334l-1.607 1.191c.215.29.44.584.688.792a1.62 1.62 0 001.077.391v-2zm.159-.374a7.58 7.58 0 01-.258.334 1.03 1.03 0 01-.104.113l.025-.017a.409.409 0 01.072-.033c.062-.023.107-.023.106-.023v2c.396 0 .752-.118 1.079-.392.248-.207.473-.502.686-.79l-1.606-1.192zm3.272-1.947c-1.88 0-2.81 1.32-3.274 1.95l1.61 1.186c.495-.67.883-1.136 1.664-1.136v-2zm3.269 1.943c-.466-.629-1.395-1.943-3.269-1.943v2c.777 0 1.165.463 1.662 1.134l1.607-1.191zm.004.005l-.004-.005-1.607 1.19.003.005 1.608-1.19zm.16.376s.044 0 .105.022c.03.01.053.022.072.033.017.01.026.018.025.017a.999.999 0 01-.104-.113 7.48 7.48 0 01-.258-.334L39.44 43.34c.215.29.44.586.69.795.328.273.684.392 1.079.392v-2zm.158-.374a6.77 6.77 0 01-.258.334.822.822 0 01-.103.112c-.001.001.007-.006.025-.017a.416.416 0 01.072-.033c.062-.022.106-.022.106-.022v2c.395 0 .751-.119 1.079-.392.248-.208.472-.503.686-.791l-1.607-1.191zm.004-.005l-.003.005 1.606 1.191.003-.005-1.606-1.191zm3.271-1.942c-1.876 0-2.805 1.313-3.271 1.942l1.606 1.191c.498-.67.886-1.133 1.665-1.133v-2zm3.269 1.942c-.466-.628-1.395-1.942-3.269-1.942v2c.777 0 1.165.462 1.662 1.133l1.607-1.19zm.003.005l-.003-.005-1.607 1.191.004.005 1.606-1.191zm.159.374s.043 0 .105.022c.029.01.053.022.071.033.018.01.026.018.025.017a.983.983 0 01-.102-.112 7.333 7.333 0 01-.256-.332l-1.61 1.187c.214.29.438.585.688.793.328.273.684.392 1.079.392v-2zm.16-.375a7.48 7.48 0 01-.258.334 1.01 1.01 0 01-.104.113.411.411 0 01.096-.05c.062-.022.106-.022.106-.022v2c.395 0 .75-.119 1.079-.392.25-.209.474-.505.69-.795l-1.61-1.188zm3.273-1.949c-1.879 0-2.81 1.32-3.274 1.95l1.61 1.186c.494-.67.885-1.136 1.664-1.136v-2zm3.27 1.943c-.466-.63-1.394-1.943-3.27-1.943v2c.779 0 1.167.463 1.664 1.134l1.607-1.191zm.004.004l-.003-.005-1.607 1.192.004.005 1.606-1.192zm.158.374s.011 0 .032.003c.02.004.047.01.076.02.062.022.096.05.096.05a1.001 1.001 0 01-.104-.113 7.408 7.408 0 01-.258-.334l-1.607 1.191c.215.29.44.584.689.792.326.272.681.391 1.077.391v-2zm.144.984c-.404-.915-.404-.915-.403-.916h.003l.003-.002.008-.004a.753.753 0 01.093-.034.784.784 0 01.083-.02c.045-.008.07-.008.07-.008v2c.104 0 .201-.008.291-.024a1.21 1.21 0 00.226-.065l.015-.006a.241.241 0 00.008-.003l.003-.002h.002l.001-.001-.403-.915zm-.784-.76a12.682 12.682 0 01-.091.28.578.578 0 01-.005.012l-.002.004.004-.007a.587.587 0 01.042-.077.887.887 0 01.076-.102l1.52 1.3c.124-.145.188-.307.198-.33.027-.063.05-.128.07-.182.038-.109.075-.23.099-.306l-1.91-.593z" fill="#fff" mask="url(#a)"/><path d="M5.565 30.08h.001l.619.742h-5.09l.385-.676s0 0 0 0 0 0 0 0c.632-1.11 1.385-1.29 1.863-1.29.55 0 1.07.25 1.49.553.416.3.688.617.732.67z" stroke="#fff"/><mask id="b" fill="#fff"><path fill-rule="evenodd" clip-rule="evenodd" d="M4.127 33.2l.966.101-.122.973c-.355 2.63-3.102 5.404-3.22 5.523L.48 41.069l-.315-1.78c-.374-2.093-.108-3.702.788-4.782 1.253-1.512 3.175-1.308 3.175-1.308zm-1.73 2.524c-.166.2-.29.454-.378.753.2-.302.393-.617.558-.935a1.633 1.633 0 00-.18.182z"/></mask><path d="M5.093 33.301l.993.125.127-1.012-1.015-.107-.105.994zm-.966-.102l-.106.995.106-.995zm.844 1.075l.991.134.001-.01-.992-.124zm-3.22 5.523l.708.707.003-.003-.71-.704zM.48 41.069l-.984.174.334 1.89 1.357-1.357-.707-.707zm-.315-1.78l.985-.174v-.002l-.985.176zm.788-4.782l.77.638-.77-.638zm1.067 1.97l-.96-.28-.108.372.17.348.898-.44zm.379-.753l.767.643.006-.008-.773-.635zm-.379.753l-.898.44.768 1.566.964-1.454-.834-.552zm.558-.935l.888.46-1.554-1.206.666.746zm2.621-3.235l-.966-.102-.21 1.989.966.102.21-1.99zm.765 2.092l.123-.973-1.985-.25-.122.974 1.984.249zM2.462 40.5c.075-.076.832-.842 1.622-1.94.771-1.072 1.667-2.588 1.878-4.153L3.98 34.14c-.144 1.065-.799 2.25-1.52 3.253a15.16 15.16 0 01-1.419 1.7l1.42 1.408zm-1.276 1.275l1.273-1.272-1.414-1.414-1.273 1.272 1.414 1.414zM-.82 39.463l.316 1.78 1.969-.349-.315-1.78-1.97.35zm1.003-5.595C-.98 35.271-1.219 37.232-.82 39.465l1.969-.352c-.35-1.954-.056-3.21.573-3.968l-1.54-1.277zm3.945-.669l.105-.994h-.005l-.005-.001-.01-.001a1.418 1.418 0 00-.124-.009 5.268 5.268 0 00-1.292.114c-.784.17-1.806.583-2.616 1.56l1.54 1.277c.443-.534 1.01-.776 1.5-.882a3.258 3.258 0 01.772-.07l.033.001h-.005l.105-.995zM2.98 36.756a1.1 1.1 0 01.186-.39L1.63 35.083a3.06 3.06 0 00-.572 1.115l1.92.56zm-.062-.72l-1.796.88 1.796-.88zm-1.228-.954c-.144.277-.316.56-.503.842l1.667 1.105c.213-.32.426-.668.612-1.028l-1.776-.92zm1.482 1.276a.664.664 0 01.072-.07L1.91 34.796a2.46 2.46 0 00-.286.294l1.546 1.268z" fill="#fff" mask="url(#b)"/><mask id="c" fill="#fff"><path fill-rule="evenodd" clip-rule="evenodd" d="M11.368 27.916c0 .992-.802 1.799-1.785 1.799a1.793 1.793 0 01-1.782-1.799c0-.992.8-1.799 1.782-1.799.986 0 1.785.807 1.785 1.799zm-1.686 0a.1.1 0 00-.099-.1.098.098 0 00-.096.1c0 .11.195.11.195 0z"/></mask><path d="M9.583 30.715a2.795 2.795 0 002.785-2.799h-2a.795.795 0 01-.785.799v2zm-2.782-2.799c0 1.536 1.238 2.799 2.782 2.799v-2a.793.793 0 01-.782-.799h-2zm2.782-2.799c-1.544 0-2.782 1.263-2.782 2.799h2c0-.448.36-.799.782-.799v-2zm2.785 2.799a2.793 2.793 0 00-2.785-2.799v2c.426 0 .785.351.785.799h2zm-2.785.9a.9.9 0 01-.901-.9h2a1.1 1.1 0 00-1.099-1.1v2zm.904-.9c0 .457-.366.9-.904.9v-2c-.646 0-1.096.534-1.096 1.1h2zm-1.805 0c0-.311.156-.58.371-.74a.888.888 0 01.531-.178.88.88 0 01.53.178c.217.16.373.429.373.74h-2c0 .366.18.675.432.863a1.113 1.113 0 001.33 0c.252-.188.433-.497.433-.863h-2z" fill="#fff" mask="url(#c)"/></svg>