<svg width="16" height="44" fill="none" xmlns="http://www.w3.org/2000/svg"><mask id="a" fill="#fff"><path fill-rule="evenodd" clip-rule="evenodd" d="M0 20.139C0 7.058 5.42 0 7.638 0c2.217 0 7.637 7.057 7.637 20.139 0 13.217-4.742 22.177-4.944 22.552l-.196.364H5.14l-.196-.364C4.742 42.316 0 33.356 0 20.139zM6.943 1.844zm0 0V23.61h1.39V1.844c1.777 1.586 5.554 7.36 5.554 18.295 0 3.65-.384 6.979-.93 9.887-.804-1.144-2.282-2.701-4.974-4.24-6.545-3.741-6.466-8.878-6.46-9.095H1.52C2.203 7.974 5.364 3.255 6.943 1.844zM1.525 23.78a51.367 51.367 0 01-.113-2.526c.993 1.845 2.754 3.951 5.882 5.74 4.445 2.54 5.206 5.053 5.225 5.117a52.618 52.618 0 01-1.087 4.023c-.585-1.037-1.616-2.31-3.437-3.396-5.483-3.266-6.35-8.003-6.47-8.958zm6.807 17.887h.96c.276-.57.835-1.789 1.47-3.542-.135-.578-.785-2.59-3.479-4.195-2.449-1.46-4.06-3.197-5.124-4.826 1.137 6.662 3.2 11.275 3.824 12.563h.96v-4.861h1.389v4.86z"/></mask><path d="M7.638 0v-1 1zm2.694 42.69l.88.474-.88-.473zm-.197.365v1h.598l.283-.526-.88-.474zm-4.995 0l-.88.474.282.526h.598v-1zm-.196-.364l-.882.472.001.002.88-.474zm2-40.847L6.62.897l-.678.23v.717h1zm0 0l.666.745L6.62.897l.323.947zm0 21.767h-1v1h1v-1zm1.388 0v1h1v-1h-1zm0-21.767l.666-.746L7.332-.39v2.234h1zm4.624 28.182l-.818.575 1.363 1.94.438-2.33-.983-.185zm-4.973-4.24l-.496.868.496-.868zm-6.46-9.095l1 .024.025-1.024H1.523v1zm-.002 0l-.997-.078L.44 17.69h1.08v-1zm-.11 4.563l.881-.474-1.88.496 1-.022zm.114 2.526l-.998.071.002.028.003.027.993-.126zm5.77 3.213l-.497.868.496-.868zm5.224 5.118l.957-.29-.957.29zm0 0l.975.224.059-.26-.077-.253-.957.29zm-1.087 4.023l-.87.491 1.133 2.009.691-2.2-.954-.3zm-3.437-3.396l.512-.859-.512.86zm1.297 8.929v1h1.717l-.847-1.494-.87.494zm-.96 0h-1v1h1v-1zm.96 0l-.9-.437-.23.473.26.457.87-.493zm1.47-3.542l.94.34.101-.279-.067-.29-.974.229zM7.283 33.93l-.512.86.512-.86zM2.16 29.104l.838-.547-1.823.715.985-.168zm3.824 12.563l-.9.436.274.564h.626v-1zm.96 0v1h1v-1h-1zm0-4.861v-1h-1v1h1zm1.389 0h1v-1h-1v1zM7.637-1C7.11-1 6.6-.796 6.154-.526 5.698-.25 5.236.14 4.783.62c-.907.958-1.847 2.342-2.697 4.111C.383 8.278-1 13.463-1 20.14h2C1 13.735 2.327 8.85 3.889 5.598c.782-1.63 1.613-2.828 2.346-3.602.367-.388.692-.65.956-.811.276-.167.421-.184.447-.184v-2zm8.638 21.139c0-6.677-1.383-11.861-3.086-15.408-.85-1.77-1.79-3.153-2.697-4.111-.452-.48-.915-.87-1.371-1.146C8.676-.796 8.166-1 7.638-1v2c.025 0 .17.017.446.184.264.16.59.423.956.81.733.775 1.564 1.973 2.346 3.603 1.562 3.252 2.89 8.137 2.89 14.542h2zm-5.062 23.025c.242-.452 5.062-9.58 5.062-23.025h-2c0 12.988-4.664 21.78-4.825 22.079l1.763.946zm-.197.365l.196-.365-1.761-.947-.196.364 1.761.948zm-5.876.526h4.995v-2H5.14v2zm-1.077-.89l.196.364 1.761-.948-.196-.364-1.761.947zM-1 20.138c0 13.446 4.82 22.573 5.062 23.024l1.763-.945C5.665 41.918 1 33.126 1 20.138h-2zM5.943 1.844h2-2zm.678-.947l.645 1.893L6.62.897zM7.61 2.59L6.277 1.097 7.61 2.59zm.333 21.021V1.844h-2V23.61h2zm.39-1h-1.39v2h1.39v-2zm-1-20.767V23.61h2V1.844h-2zm7.554 18.295c0-11.142-3.846-17.218-5.889-19.041L7.666 2.59c1.513 1.35 5.22 6.82 5.22 17.549h2zm-.948 10.072c.557-2.96.948-6.353.948-10.072h-2a52.5 52.5 0 01-.914 9.702l1.966.37zm-6.452-3.556c2.573 1.47 3.937 2.93 4.651 3.946l1.637-1.15c-.894-1.272-2.484-2.926-5.296-4.533l-.992 1.737zM.523 16.666c-.01.43-.015 6 6.964 9.988l.993-1.736c-6.112-3.494-5.958-8.2-5.958-8.203l-1.999-.049zm.998 1.025h.002v-2H1.52v2zM6.277 1.098C4.46 2.723 1.221 7.71.524 16.613l1.994.156c.667-8.53 3.751-12.981 5.092-14.18L6.277 1.1zM.412 21.276c.02.871.055 1.732.115 2.575l1.995-.143a50.339 50.339 0 01-.11-2.476l-2 .044zm7.378 4.849c-2.965-1.695-4.593-3.664-5.498-5.345l-1.76.948c1.08 2.01 2.976 4.252 6.266 6.133l.992-1.736zm5.686 5.696c-.09-.298-1.01-3.023-5.686-5.696l-.992 1.736c2.118 1.211 3.318 2.392 3.981 3.237.332.424.533.768.648.994a2.983 2.983 0 01.133.303l.002.007V32.4l1.914-.58zm0 .001l-1.915.578 1.915-.578zm-1.09 4.612a53.885 53.885 0 001.108-4.1l-1.95-.446a51.67 51.67 0 01-1.066 3.946l1.908.6zm-4.902-2.837c1.659.989 2.571 2.131 3.078 3.028l1.741-.983c-.663-1.175-1.813-2.582-3.796-3.763l-1.023 1.718zM.532 23.906c.143 1.118 1.102 6.207 6.952 9.691l1.023-1.718c-5.117-3.048-5.89-7.434-5.99-8.225l-1.985.252zm8.76 16.76h-.96v2h.96v-2zm-.87 1.494l1.74-.986-1.74.986zm1.4-4.376a36.843 36.843 0 01-1.43 3.446l1.8.873c.289-.597.862-1.847 1.51-3.638l-1.88-.68zm-3.05-2.994c2.407 1.433 2.927 3.182 3.016 3.563l1.948-.456c-.182-.776-.96-3.051-3.94-4.826L6.771 34.79zm-5.45-5.139c1.142 1.747 2.86 3.595 5.45 5.138l1.023-1.718c-2.309-1.376-3.812-3.004-4.798-4.514l-1.675 1.094zm5.561 11.58c-.596-1.23-2.62-5.75-3.738-12.295l-1.971.336c1.157 6.78 3.256 11.484 3.91 12.831l1.8-.873zm.06-.564h-.96v2h.96v-2zm-1-3.861v4.86h2v-4.86h-2zm2.389-1H6.943v2h1.389v-2zm1 5.86v-4.86h-2v4.86h2z" fill="#fff" mask="url(#a)"/></svg>