<svg width="31" height="31" fill="none" xmlns="http://www.w3.org/2000/svg"><path d="M22.437 20.71l-.373.456.416.416 7.496 7.495c.249.25.249.65 0 .899a.633.633 0 01-.898 0l-7.49-7.49-.416-.416-.456.373a12.231 12.231 0 01-7.781 2.777C6.15 25.22.65 19.72.65 12.935S6.15.65 12.935.65c6.778 0 12.279 5.5 12.279 12.279 0 2.957-1.04 5.661-2.777 7.781zM12.929 1.922c-6.082 0-11.013 4.932-11.013 11.013 0 6.081 4.931 11.013 11.013 11.013 6.081 0 11.013-4.932 11.013-11.013 0-6.081-4.932-11.013-11.013-11.013z" stroke="#fff" stroke-width="1.3"/></svg>