<?xml version="1.0" encoding="utf-8"?><svg viewBox="0 0 87 258" xmlns="http://www.w3.org/2000/svg" xmlns:xlink="http://www.w3.org/1999/xlink"><style>:root>svg{display:none}:root>svg:target{display:block}</style><svg viewBox="0 0 25 34" id="active-dot" xmlns="http://www.w3.org/2000/svg"><path fill-rule="evenodd" clip-rule="evenodd" d="M.5 21.5c0 6.627 5.373 12 12 12s12-5.373 12-12-12-21-12-21-12 14.373-12 21Z"/></svg><svg viewBox="0 0 22 24" id="down-arrows" xmlns="http://www.w3.org/2000/svg"><path d="M11.267 23.888c.398-.04.775-.2 1.077-.46l8.138-6.977a1.937 1.937 0 0 0 .26-2.774 1.94 1.94 0 0 0-2.779-.17l-6.878 5.9-6.879-5.9a1.94 1.94 0 0 0-2.779.17 1.937 1.937 0 0 0 .26 2.774l8.138 6.977c.399.342.92.507 1.442.46Zm0-13c.398-.04.775-.2 1.077-.46l8.138-6.977a1.937 1.937 0 0 0 .26-2.774 1.94 1.94 0 0 0-2.779-.17l-6.878 5.9-6.879-5.9a1.94 1.94 0 0 0-2.779.17 1.937 1.937 0 0 0 .26 2.774l8.138 6.977c.399.342.92.507 1.442.46Z"/></svg><svg viewBox="0 0 25 21" id="left-arrow" xmlns="http://www.w3.org/2000/svg"><path d="M9.552.563 1.34 8.713a1.92 1.92 0 0 0 0 2.72l8.212 8.155a1.957 1.957 0 0 0 2.745 0 1.922 1.922 0 0 0 0-2.719l-4.804-4.767h15.411a2.012 2.012 0 1 0 0-4.027H7.464l4.833-4.792a1.92 1.92 0 0 0 0-2.718A1.952 1.952 0 0 0 9.552.563Z"/></svg><svg viewBox="0 0 87 258" id="logo" xmlns="http://www.w3.org/2000/svg"><path d="M36.983 169v-20h1v20h-1ZM14.21 123.36c0-3.16.46-5.94 1.38-8.34.92-2.44 2.3-4.62 4.14-6.54l5.88 4.98c-2.28 2.88-3.42 5.9-3.42 9.06 0 1.64.32 2.9.96 3.78.6.84 1.46 1.26 2.58 1.26.8 0 1.46-.22 1.98-.66.52-.44 1.02-1.18 1.5-2.22.48-1.04 1.08-2.68 1.8-4.92 1.36-4.28 3.08-7.4 5.16-9.36 2.04-2 4.88-3 8.52-3 2.64 0 4.98.68 7.02 2.04 2 1.36 3.56 3.34 4.68 5.94 1.12 2.56 1.68 5.58 1.68 9.06 0 6.64-2.02 12.06-6.06 16.26l-6.06-5.46c2.72-3.32 4.08-6.78 4.08-10.38 0-1.88-.4-3.34-1.2-4.38-.84-1.04-1.94-1.56-3.3-1.56-.96 0-1.74.2-2.34.6-.64.4-1.2 1.12-1.68 2.16-.52 1-1.08 2.48-1.68 4.44-1.48 4.72-3.26 8.04-5.34 9.96-2.08 1.92-4.7 2.88-7.86 2.88-2.48 0-4.66-.66-6.54-1.98-1.88-1.36-3.32-3.22-4.32-5.58-1.04-2.4-1.56-5.08-1.56-8.04Zm28.8-53.405c2.88 0 5.46.64 7.74 1.92 2.28 1.24 4.08 3.12 5.4 5.64 1.28 2.52 1.92 5.6 1.92 9.24 0 5.52-1.34 9.7-4.02 12.54-2.72 2.84-6.4 4.26-11.04 4.26H15.29v-11.1h27.36c2.52 0 4.38-.44 5.58-1.32 1.16-.92 1.74-2.38 1.74-4.38s-.6-3.44-1.8-4.32c-1.2-.88-3.04-1.32-5.52-1.32H15.29v-11.16h27.72Zm-1.38-20.007v3.06h15.36v11.1h-41.7v-14.46c0-5.88 1.06-10.26 3.18-13.14 2.12-2.92 5.38-4.38 9.78-4.38 2.64 0 4.84.62 6.6 1.86 1.76 1.2 3.34 3.14 4.74 5.82l17.4-10.38v12.36l-15.36 8.16Zm-7.56 3.06v-3.72c0-3.84-1.94-5.76-5.82-5.76-1.8 0-3.12.54-3.96 1.62-.84 1.04-1.26 2.62-1.26 4.74v3.12h11.04ZM56.99 26.9h-41.7V1.28l7.86 1.14V15.8h10.02V4.04h7.86V15.8h15.96v11.1ZM14.21 235.92c0-5.56 1.76-10.34 5.28-14.34l5.7 5.46c-1.08 1.52-1.86 2.9-2.34 4.14-.52 1.2-.78 2.58-.78 4.14 0 3 1.16 5.36 3.48 7.08 2.32 1.68 5.86 2.52 10.62 2.52 3.48 0 6.24-.28 8.28-.84 2-.56 3.44-1.4 4.32-2.52.88-1.16 1.32-2.64 1.32-4.44 0-1.8-.38-3.44-1.14-4.92h-8.58v4.74l-7.62 1.08v-16.56h20.76c1.44 2.16 2.56 4.6 3.36 7.32.8 2.72 1.2 5.4 1.2 8.04 0 13.04-7.32 19.56-21.96 19.56-4.56 0-8.48-.88-11.76-2.64-3.32-1.8-5.84-4.24-7.56-7.32-1.72-3.08-2.58-6.58-2.58-10.5Zm0-37.585c0-6.04 1.92-10.74 5.76-14.1 3.84-3.36 9.22-5.04 16.14-5.04 4.52 0 8.44.76 11.76 2.28 3.28 1.48 5.8 3.66 7.56 6.54 1.76 2.88 2.64 6.32 2.64 10.32 0 6.04-1.92 10.74-5.76 14.1-3.84 3.32-9.24 4.98-16.2 4.98-4.52 0-8.42-.74-11.7-2.22-3.28-1.52-5.8-3.7-7.56-6.54-1.76-2.88-2.64-6.32-2.64-10.32Zm7.98 0c0 2.6 1.08 4.52 3.24 5.76 2.16 1.2 5.72 1.8 10.68 1.8s8.54-.62 10.74-1.86c2.16-1.24 3.24-3.14 3.24-5.7 0-2.64-1.08-4.56-3.24-5.76-2.16-1.2-5.74-1.8-10.74-1.8-4.96 0-8.52.6-10.68 1.8-2.16 1.2-3.24 3.12-3.24 5.76Z"/></svg><svg viewBox="0 0 11 13" id="map-marker" xmlns="http://www.w3.org/2000/svg"><path fill-rule="evenodd" clip-rule="evenodd" d="M5.392 0c1.225 0 2.414.414 3.352 1.165a5.359 5.359 0 0 1 2.033 3.926 5.401 5.401 0 0 1-1.569 4.11l-3.58 3.534a.377.377 0 0 1-.519-.002l-3.53-3.53A5.4 5.4 0 0 1 .01 5.09a5.358 5.358 0 0 1 2.03-3.926A5.37 5.37 0 0 1 5.393 0ZM2.986 5.39a2.409 2.409 0 0 0 2.406 2.406A2.408 2.408 0 0 0 7.8 5.39a2.409 2.409 0 0 0-2.407-2.407A2.409 2.409 0 0 0 2.986 5.39Z"/><path d="M5.392 4.217a1.173 1.173 0 1 0 .001 2.346 1.173 1.173 0 0 0 0-2.346Z"/></svg><svg viewBox="0 0 16 44" id="nav-shop" xmlns="http://www.w3.org/2000/svg"><mask id="fa"><path fill-rule="evenodd" clip-rule="evenodd" d="M0 20.139C0 7.058 5.42 0 7.638 0c2.217 0 7.637 7.057 7.637 20.139 0 13.217-4.742 22.177-4.944 22.552l-.196.364H5.14l-.196-.364C4.742 42.316 0 33.356 0 20.139ZM6.943 1.844Zm0 0V23.61h1.39V1.844c1.777 1.586 5.554 7.36 5.554 18.295 0 3.65-.384 6.979-.93 9.887-.804-1.144-2.282-2.701-4.974-4.24-6.545-3.741-6.466-8.878-6.46-9.095H1.52C2.203 7.974 5.364 3.255 6.943 1.844ZM1.525 23.78a51.367 51.367 0 0 1-.113-2.526c.993 1.845 2.754 3.951 5.882 5.74 4.445 2.54 5.206 5.053 5.225 5.117a52.618 52.618 0 0 1-1.087 4.023c-.585-1.037-1.616-2.31-3.437-3.396-5.483-3.266-6.35-8.003-6.47-8.958Zm6.807 17.887h.96c.276-.57.835-1.789 1.47-3.542-.135-.578-.785-2.59-3.479-4.195-2.449-1.46-4.06-3.197-5.124-4.826 1.137 6.662 3.2 11.275 3.824 12.563h.96v-4.861h1.389v4.86Z"/></mask><path d="M7.638 0v-1 1Zm2.694 42.69.88.474-.88-.473Zm-.197.365v1h.598l.283-.526-.88-.474Zm-4.995 0-.88.474.282.526h.598v-1Zm-.196-.364-.882.472.001.002.88-.474Zm2-40.847L6.62.897l-.678.23v.717h1Zm0 0 .666.745L6.62.897l.323.947Zm0 21.767h-1v1h1v-1Zm1.388 0v1h1v-1h-1Zm0-21.767.666-.746L7.332-.39v2.234h1Zm4.624 28.182-.818.575 1.363 1.94.438-2.33-.983-.185Zm-4.973-4.24-.496.868.496-.868Zm-6.46-9.095 1 .024.025-1.024H1.523v1Zm-.002 0-.997-.078L.44 17.69h1.08v-1Zm-.11 4.563.881-.474-1.88.496 1-.022Zm.114 2.526-.998.071.002.028.003.027.993-.126Zm5.77 3.213-.497.868.496-.868Zm5.224 5.118.957-.29-.957.29Zm0 0 .975.224.059-.26-.077-.253-.957.29Zm-1.087 4.023-.87.491 1.133 2.009.691-2.2-.954-.3Zm-3.437-3.396.512-.859-.512.86Zm1.297 8.929v1h1.717l-.847-1.494-.87.494Zm-.96 0h-1v1h1v-1Zm.96 0-.9-.437-.23.473.26.457.87-.493Zm1.47-3.542.94.34.101-.279-.067-.29-.974.229ZM7.283 33.93l-.512.86.512-.86ZM2.16 29.104l.838-.547-1.823.715.985-.168Zm3.824 12.563-.9.436.274.564h.626v-1Zm.96 0v1h1v-1h-1Zm0-4.861v-1h-1v1h1Zm1.389 0h1v-1h-1v1ZM7.637-1C7.11-1 6.6-.796 6.154-.526 5.698-.25 5.236.14 4.783.62c-.907.958-1.847 2.342-2.697 4.111C.383 8.278-1 13.463-1 20.14h2C1 13.735 2.327 8.85 3.889 5.598c.782-1.63 1.613-2.828 2.346-3.602.367-.388.692-.65.956-.811.276-.167.421-.184.447-.184v-2Zm8.638 21.139c0-6.677-1.383-11.861-3.086-15.408-.85-1.77-1.79-3.153-2.697-4.111-.452-.48-.915-.87-1.371-1.146C8.676-.796 8.166-1 7.638-1v2c.025 0 .17.017.446.184.264.16.59.423.956.81.733.775 1.564 1.973 2.346 3.603 1.562 3.252 2.89 8.137 2.89 14.542h2Zm-5.062 23.025c.242-.452 5.062-9.58 5.062-23.025h-2c0 12.988-4.664 21.78-4.825 22.079l1.763.946Zm-.197.365.196-.365-1.761-.947-.196.364 1.761.948Zm-5.876.526h4.995v-2H5.14v2Zm-1.077-.89.196.364 1.761-.948-.196-.364-1.761.947ZM-1 20.138c0 13.446 4.82 22.573 5.062 23.024l1.763-.945C5.665 41.918 1 33.126 1 20.138h-2ZM5.943 1.844h2-2Zm.678-.947.645 1.893L6.62.897ZM7.61 2.59 6.277 1.097 7.61 2.59Zm.333 21.021V1.844h-2V23.61h2Zm.39-1h-1.39v2h1.39v-2Zm-1-20.767V23.61h2V1.844h-2Zm7.554 18.295c0-11.142-3.846-17.218-5.889-19.041L7.666 2.59c1.513 1.35 5.22 6.82 5.22 17.549h2Zm-.948 10.072c.557-2.96.948-6.353.948-10.072h-2a52.5 52.5 0 0 1-.914 9.702l1.966.37Zm-6.452-3.556c2.573 1.47 3.937 2.93 4.651 3.946l1.637-1.15c-.894-1.272-2.484-2.926-5.296-4.533l-.992 1.737ZM.523 16.666c-.01.43-.015 6 6.964 9.988l.993-1.736c-6.112-3.494-5.958-8.2-5.958-8.203l-1.999-.049Zm.998 1.025h.002v-2H1.52v2ZM6.277 1.098C4.46 2.723 1.221 7.71.524 16.613l1.994.156c.667-8.53 3.751-12.981 5.092-14.18L6.277 1.1ZM.412 21.276c.02.871.055 1.732.115 2.575l1.995-.143a50.339 50.339 0 0 1-.11-2.476l-2 .044Zm7.378 4.849c-2.965-1.695-4.593-3.664-5.498-5.345l-1.76.948c1.08 2.01 2.976 4.252 6.266 6.133l.992-1.736Zm5.686 5.696c-.09-.298-1.01-3.023-5.686-5.696l-.992 1.736c2.118 1.211 3.318 2.392 3.981 3.237.332.424.533.768.648.994a2.983 2.983 0 0 1 .133.303l.002.007V32.4l1.914-.58Zm0 .001-1.915.578 1.915-.578Zm-1.09 4.612a53.885 53.885 0 0 0 1.108-4.1l-1.95-.446a51.67 51.67 0 0 1-1.066 3.946l1.908.6Zm-4.902-2.837c1.659.989 2.571 2.131 3.078 3.028l1.741-.983c-.663-1.175-1.813-2.582-3.796-3.763l-1.023 1.718ZM.532 23.906c.143 1.118 1.102 6.207 6.952 9.691l1.023-1.718c-5.117-3.048-5.89-7.434-5.99-8.225l-1.985.252Zm8.76 16.76h-.96v2h.96v-2Zm-.87 1.494 1.74-.986-1.74.986Zm1.4-4.376a36.843 36.843 0 0 1-1.43 3.446l1.8.873c.289-.597.862-1.847 1.51-3.638l-1.88-.68Zm-3.05-2.994c2.407 1.433 2.927 3.182 3.016 3.563l1.948-.456c-.182-.776-.96-3.051-3.94-4.826L6.771 34.79Zm-5.45-5.139c1.142 1.747 2.86 3.595 5.45 5.138l1.023-1.718c-2.309-1.376-3.812-3.004-4.798-4.514l-1.675 1.094Zm5.561 11.58c-.596-1.23-2.62-5.75-3.738-12.295l-1.971.336c1.157 6.78 3.256 11.484 3.91 12.831l1.8-.873Zm.06-.564h-.96v2h.96v-2Zm-1-3.861v4.86h2v-4.86h-2Zm2.389-1H6.943v2h1.389v-2Zm1 5.86v-4.86h-2v4.86h2Z" mask="url(#fa)"/></svg><svg viewBox="0 0 39 39" id="nav-sleep" xmlns="http://www.w3.org/2000/svg"><mask id="ga"><path d="M38.03 31.704h-8.285a.484.484 0 0 0 0 .97h8.286a.484.484 0 0 0 0-.97Z"/></mask><path d="M38.03 30.704h-8.285v2h8.286v-2Zm-8.285 0c-.825 0-1.481.673-1.481 1.485h2a.516.516 0 0 1-.519.515v-2Zm-1.481 1.485c0 .812.656 1.486 1.481 1.486v-2c.295 0 .519.237.519.514h-2Zm1.481 1.486h8.286v-2h-8.286v2Zm8.286 0c.825 0 1.48-.674 1.48-1.486h-2c0-.277.225-.514.52-.514v2Zm1.48-1.486c0-.812-.656-1.485-1.48-1.485v2a.516.516 0 0 1-.52-.515h2Z" mask="url(#ga)"/><mask id="gb"><path d="M38.03 37.856h-9.29a.484.484 0 0 0 0 .97h9.29a.484.484 0 0 0 0-.97Z"/></mask><path d="M38.03 36.856h-9.29v2h9.29v-2Zm-9.29 0c-.824 0-1.48.673-1.48 1.485h2a.516.516 0 0 1-.52.515v-2Zm-1.48 1.485c0 .812.656 1.486 1.48 1.486v-2c.296 0 .52.237.52.514h-2Zm1.48 1.486h9.29v-2h-9.29v2Zm9.29 0c.825 0 1.482-.674 1.482-1.486h-2c0-.277.224-.514.519-.514v2Zm1.482-1.486c0-.812-.657-1.485-1.481-1.485v2a.516.516 0 0 1-.52-.515h2Z" mask="url(#gb)"/><mask id="gc"><path d="M.481 35.207h7.492a.484.484 0 0 0 0-.97H.48a.484.484 0 0 0-.481.485c0 .27.216.485.481.485Z"/></mask><path d="M.481 36.207h7.492v-2H.48v2Zm7.492 0c.825 0 1.481-.673 1.481-1.485h-2c0-.277.224-.515.519-.515v2Zm1.481-1.485c0-.812-.656-1.485-1.481-1.485v2a.516.516 0 0 1-.519-.515h2Zm-1.481-1.485H.48v2h7.492v-2Zm-7.492 0c-.825 0-1.481.673-1.481 1.485h2a.516.516 0 0 1-.519.515v-2ZM-1 34.722c0 .816.659 1.485 1.481 1.485v-2c.293 0 .519.237.519.515h-2Z" mask="url(#gc)"/><mask id="gd"><path fill-rule="evenodd" clip-rule="evenodd" d="M3.744.05A.478.478 0 0 1 4.3.143a.49.49 0 0 1 .089.562 4.264 4.264 0 0 0-.45 1.91c0 2.378 1.93 4.313 4.299 4.313a4.24 4.24 0 0 0 1.907-.453.478.478 0 0 1 .554.093.488.488 0 0 1 .09.56 5.23 5.23 0 0 1-4.71 2.94c-2.902 0-5.262-2.372-5.262-5.286A5.258 5.258 0 0 1 3.744.05Zm5.382 7.773a5.154 5.154 0 0 1-.89.076c-2.901 0-5.26-2.37-5.26-5.284.001-.303.025-.6.076-.895A4.287 4.287 0 0 0 1.78 4.782c0 2.38 1.93 4.315 4.299 4.315a4.255 4.255 0 0 0 3.048-1.274Z"/></mask><path d="m4.3.143-.71.705.01.01.011.011L4.3.143ZM3.743.05l.447.895L3.744.05ZM4.3.144l.715-.7L5-.57l-.014-.012-.688.726Zm.089.56L3.494.258 3.492.26l.896.445Zm5.756 5.771.445.896h.001l-.446-.896Zm.554.093-.71.705.71-.705Zm.09.56-.895-.445v.001l.896.444Zm-2.551.77v-1H6.299l1.122 1.58.816-.58Zm.89-.075.712.7 2.183-2.22-3.068.535.172.985Zm-.89.076v1h1.937l-1.122-1.58-.815.58Zm-5.26-5.284h1-1Zm.075-.895.986.17.53-3.07L2.35 1.008l.702.711ZM5.01-.56a1.478 1.478 0 0 0-1.711-.284L4.19.946a.522.522 0 0 1-.602-.098L5.01-.561Zm-.022-.022L3.61.868 4.988-.581Zm.295 1.735a1.49 1.49 0 0 0-.268-1.71l-1.43 1.4a.51.51 0 0 1-.09-.586l1.788.896Zm-.344 1.463c0-.51.115-1.002.346-1.467L3.492.26a5.264 5.264 0 0 0-.554 2.356h2Zm3.299 3.312a3.312 3.312 0 0 1-3.299-3.312h-2c0 2.926 2.374 5.312 5.299 5.312v-2Zm1.461-.348a3.245 3.245 0 0 1-1.461.348v2c.822 0 1.616-.19 2.352-.557L9.7 5.58Zm1.71.284a1.478 1.478 0 0 0-1.71-.283l.892 1.79a.522.522 0 0 1-.601-.098l1.42-1.409Zm.277 1.708a1.488 1.488 0 0 0-.277-1.708l-1.42 1.409a.512.512 0 0 1-.095-.59l1.792.889Zm-5.607 3.496a6.23 6.23 0 0 0 5.607-3.497l-1.793-.887a4.23 4.23 0 0 1-3.814 2.384v2ZM-.184 4.782c0 3.462 2.804 6.286 6.262 6.286v-2c-2.345 0-4.262-1.92-4.262-4.286h-2ZM3.298-.844A6.258 6.258 0 0 0-.184 4.782h2c0-1.64.908-3.105 2.375-3.837l-.893-1.79Zm4.939 9.743c.356 0 .709-.03 1.061-.091l-.344-1.97a4.24 4.24 0 0 1-.717.06v2Zm.815-1.58-1.63 1.159 1.63-1.158ZM1.977 2.616C1.975 6.078 4.779 8.9 8.237 8.9v-2c-2.346 0-4.262-1.918-4.26-4.283l-2-.001Zm.09-1.065a6.24 6.24 0 0 0-.09 1.065h2c0-.249.02-.49.06-.724l-1.97-.34Zm.712 3.232c0-.906.36-1.742.976-2.35L2.35 1.01A5.287 5.287 0 0 0 .78 4.782h2Zm3.299 3.315a3.312 3.312 0 0 1-3.299-3.315h-2c0 2.928 2.374 5.315 5.299 5.315v-2Zm2.335-.975a3.255 3.255 0 0 1-2.335.975v2a5.255 5.255 0 0 0 3.761-1.573L8.413 7.122Z" mask="url(#gd)"/><mask id="ge"><path fill-rule="evenodd" clip-rule="evenodd" d="M38.032 23.926h-.001a.484.484 0 0 0-.482.483l-.011 2.592L19.674.439c-.179-.267-.617-.267-.798 0L1.026 26.982l.01-2.751a.483.483 0 0 0-.48-.487.484.484 0 0 0-.481.483l-.017 4.341a.486.486 0 0 0 .481.488.485.485 0 0 0 .399-.213l2.81-4.176v3.905c0 .268.215.486.48.486H14.95a4.367 4.367 0 0 0 4.167 3.093h.019l.018-.001h.01l.01.002.027-.003a.215.215 0 0 1 .022-.003h.007a4.366 4.366 0 0 0 4.052-3.088h11.042a.484.484 0 0 0 .482-.486v-3.905l2.81 4.176a.477.477 0 0 0 .537.192.485.485 0 0 0 .34-.463l.02-4.159a.482.482 0 0 0-.48-.487Zm-18.802 7.25-.076.003a1.535 1.535 0 0 1-1.512-1.531c0-.552.805-1.822 1.531-2.78.726.958 1.531 2.228 1.531 2.78a1.53 1.53 0 0 1-1.474 1.527Zm2.435-1.53c0 .144-.02.28-.042.417.551-.607.89-1.409.886-2.29 0-1.454-2.189-4.548-3.396-6.088-1.206 1.54-3.396 4.636-3.396 6.088 0 .955.396 1.82 1.03 2.44a2.568 2.568 0 0 1-.07-.567c0-1.229 1.77-3.437 2.124-3.868a.496.496 0 0 1 .74 0c.356.43 2.124 2.64 2.124 3.868Zm-2.178-9.041a.496.496 0 0 0-.74 0c-.409.494-3.99 4.908-3.99 7.168 0 .076.006.151.01.226l.004.059.002.03H9.925v-3.2c.628-.512 2.71-2.287 4.818-4.92 1.711-2.137 3.665-5.157 4.55-8.6.886 3.445 2.84 6.463 4.551 8.6 2.108 2.633 4.19 4.407 4.818 4.92v3.2H23.46c.007-.105.015-.209.015-.315.002-2.26-3.579-6.673-3.987-7.168Zm10.136 7.482h4.22l.002-4.85-14.568-21.66-14.568 21.66v4.85H8.96v-3.435c0-.151.07-.294.189-.385.116-.092 9.661-7.634 9.661-16.561 0-.267.216-.485.482-.485.265 0 .481.218.481.485 0 8.924 9.538 16.464 9.661 16.561a.49.49 0 0 1 .189.385v3.435Z"/></mask><path d="M38.032 23.926v1h.023l.023-.001-.046-1Zm-.483.483-1-.007v.003l1 .004Zm-.011 2.592-.83.558 1.816 2.7.014-3.254-1-.004ZM19.674.439l-.832.556.002.002.83-.558Zm-.798 0-.828-.56-.001.002.83.558ZM1.026 26.982l-1-.004-.014 3.303 1.843-2.741-.83-.558Zm.01-2.751-1-.007v.003l1 .004Zm-.962-.004-1-.007v.003l1 .004Zm-.017 4.341 1 .01v-.006l-1-.003Zm.338.467.307-.952H.7l-.305.952Zm.542-.192.825.565.005-.006-.83-.559Zm2.81-4.176h1v-3.278l-1.83 2.72.83.558Zm11.203 4.39.956-.292-.216-.707h-.74v1Zm4.186 3.094.077.997-.077-.997Zm.024-.001-.12.993.12-.993Zm.004 0-.143.99.143-.99Zm.037-.001.15.989-.15-.99Zm.022-.003-.035-1-.015.001-.016.001.066.998Zm.007 0-.026-1h-.009l.035 1Zm4.052-3.088v-1h-.74l-.216.707.956.293Zm11.524-4.391.83-.558-1.83-2.72v3.278h1Zm2.81 4.176.83-.557h-.001l-.83.557Zm.537.192.297.955-.297-.955Zm.34-.463-1-.004v.004h1Zm.02-4.159-1-.007v.003l1 .004Zm-.48-.487.007-1h-.053l.046 1Zm-18.879 7.253-.013 1h.014v-1Zm.076-.003.225-.975-.147-.034-.15.011.072.997Zm-.057-4.308.797-.604-.797-1.05-.796 1.05.796.604Zm.057 4.308-.225.974.13.03.132-.005-.037-1Zm2.393-1.113.969.25.01-.043.008-.044-.987-.163Zm0 0-.968-.25 1.709.922-.74-.672Zm.886-2.29h-1v.004l1-.004Zm-3.396-6.088.787-.617-.788-1.004-.786 1.005.787.616Zm-2.366 8.527-.699.715 2.417 2.364-.742-3.298-.976.22Zm2.054-4.434-.773-.635.773.635Zm.74 0-.772.635.002.002.77-.637Zm-.795-5.173.772.636v-.001l-.772-.635Zm.741 0-.772.635.3.365h.472v-1Zm-4.72 7.394.998-.064-.998.064Zm.004.059-.998.06.998-.06Zm.002.03v1h1.055l-.057-1.054-.998.054Zm-4.848 0h-1v1h1v-1Zm0-3.2-.632-.776-.368.3v.476h1Zm4.818-4.92-.78-.625.78.625Zm4.55-8.6.97-.248h-1.938l.969.248Zm4.551 8.6.781-.625-.78.625Zm4.818 4.92h1v-.476l-.368-.3-.632.776Zm0 3.2v1h1v-1h-1Zm-5.203 0-.998-.072-.077 1.072h1.075v-1Zm.015-.315-1-.001h1Zm-3.987-7.168.772-.636-.3-.364h-.472v1Zm14.355 7.482v1h1v-1h-1Zm-4.22 0h-1v1h1v-1Zm4.223-4.85h1v-.306l-.17-.253-.83.558ZM19.277 1.576l.83-.558-.83-1.234-.83 1.234.83.558ZM4.709 23.237l-.83-.559-.17.253v.305h1Zm0 4.85h-1v1h1v-1Zm4.251 0v1h1v-1h-1Zm.189-3.82.609.794.01-.009-.62-.785Zm0 0 .62.785-.62-.785Zm20.285 0 .621-.784-.62.784Zm0 0-.62.784.004.003.617-.787Zm8.597.659h.002v-2h-.002v2Zm.518-.51a.516.516 0 0 1-.518.51v-2c-.827 0-1.476.671-1.482 1.476l2 .014Zm-.011 2.59.011-2.592-2-.01-.011 2.592 2 .01ZM18.844.996 36.708 27.56l1.66-1.116L20.503-.12 18.843.997Zm.861.002a.525.525 0 0 1-.43.24.528.528 0 0 1-.433-.244l1.663-1.111a1.473 1.473 0 0 0-1.23-.645c-.425 0-.92.185-1.227.64L19.705 1Zm-17.85 26.54L19.706.998l-1.66-1.116L.197 26.424l1.659 1.116Zm-1.819-3.31-.01 2.75 2 .009.01-2.75-2-.01Zm.52.517a.517.517 0 0 1-.52-.52l2 .014a1.483 1.483 0 0 0-1.48-1.494v2Zm-.001 0h.002v-2H.555v2Zm.519-.51a.516.516 0 0 1-.519.51v-2c-.826 0-1.476.671-1.481 1.476l2 .014Zm-.017 4.338.017-4.34-2-.009-.017 4.342 2 .007Zm-.357-.49a.514.514 0 0 1 .357.495l-2-.017A1.486 1.486 0 0 0 .09 29.987l.61-1.904Zm-.162-.026a.56.56 0 0 1 .164.027l-.614 1.904c.167.054.321.069.45.069v-2Zm-.426.223a.515.515 0 0 1 .426-.223v2c.487 0 .946-.242 1.224-.648l-1.65-1.13Zm2.804-4.17L.107 28.285l1.66 1.117 2.809-4.177-1.66-1.116Zm1.83 4.463v-3.905h-2v3.905h2Zm-.518-.514c.294 0 .518.237.518.514h-2c0 .812.657 1.486 1.482 1.486v-2Zm10.722 0H4.228v2H14.95v-2Zm4.167 3.093a3.367 3.367 0 0 1-3.21-2.386l-1.914.585c.672 2.195 2.71 3.801 5.124 3.801v-2Zm-.059.003a.916.916 0 0 1 .058-.002v2c.052 0 .095-.004.097-.004l-.155-1.994Zm.096-.004a1.17 1.17 0 0 0-.096.004l.155 1.994h-.011a.825.825 0 0 1-.048.002v-2Zm.126.007a1.04 1.04 0 0 0-.126-.007v2a.954.954 0 0 1-.115-.007l.241-1.986Zm.027.004-.008-.001-.019-.003-.24 1.986a1.437 1.437 0 0 1-.02-.003l.287-1.98Zm-.134-.01c.051 0 .09.005.107.006l.027.004-.286 1.98h.01a1.026 1.026 0 0 0 .142.01v-2Zm-.121.009.023-.003a.886.886 0 0 1 .098-.006v2c.054 0 .099-.004.127-.007l.05-.006-.298-1.978Zm.105-.012a1.183 1.183 0 0 0-.074.008l-.031.004.3 1.977-.011.002a.81.81 0 0 1-.053.005l-.131-1.996Zm.038-.002h-.007l.069 2h.007l-.069-2Zm3.13-2.38a3.366 3.366 0 0 1-3.121 2.38l.052 2a5.365 5.365 0 0 0 4.982-3.796l-1.912-.585Zm12-.708H23.281v2h11.042v-2Zm-.52.514c0-.277.225-.514.52-.514v2c.825 0 1.48-.674 1.48-1.486h-2Zm0-3.905v3.905h2v-3.905h-2Zm4.64 3.618-2.81-4.176-1.659 1.116 2.81 4.177 1.659-1.117Zm-.589-.205c.226-.07.464.02.59.206l-1.66 1.115a1.477 1.477 0 0 0 1.664.589l-.594-1.91Zm-.363.492c0-.226.147-.425.363-.492l.594 1.91a1.485 1.485 0 0 0 1.043-1.418h-2Zm.02-4.163-.02 4.159 2 .009.02-4.16-2-.009Zm.513.517a.518.518 0 0 1-.514-.52l2 .014a1.482 1.482 0 0 0-1.472-1.494l-.014 2Zm.052-.001-.09-1.998.09 1.998ZM19.154 32.18c.069 0 .134-.005.148-.006l-.144-1.995h-.01l-.007.001h-.006.02v2Zm-2.512-2.532a2.535 2.535 0 0 0 2.499 2.532l.027-2a.535.535 0 0 1-.526-.531h-2Zm1.735-3.383c-.38.502-.79 1.094-1.108 1.646a7.058 7.058 0 0 0-.415.826c-.1.242-.212.573-.212.912h2c0 .062-.011.027.063-.153.064-.156.164-.354.297-.585.265-.46.623-.982.968-1.438l-1.593-1.208Zm3.327 3.384c0-.34-.112-.67-.212-.912a7.052 7.052 0 0 0-.415-.826 16.501 16.501 0 0 0-1.107-1.646l-1.593 1.209c.345.455.702.977.968 1.437.133.23.233.429.297.585.074.18.062.215.062.152h2Zm-2.437 2.527a2.532 2.532 0 0 0 2.437-2.527h-2a.532.532 0 0 1-.511.528l.074 1.999Zm-.262-.025.45-1.949-.45 1.949Zm3.605-1.924c.025-.15.055-.352.055-.58h-2c0 .06-.008.13-.028.254l1.973.326Zm-.018.087-1.937-.5 1.937.5Zm-1.083-2.536a2.374 2.374 0 0 1-.626 1.613l1.48 1.345a4.374 4.374 0 0 0 1.146-2.967l-2 .009Zm-3.183-5.475a32.613 32.613 0 0 1 2.083 2.979c.336.552.622 1.08.821 1.54.21.485.279.798.279.952h2c0-.574-.204-1.193-.443-1.745a14.97 14.97 0 0 0-.948-1.787 34.591 34.591 0 0 0-2.218-3.173l-1.574 1.234Zm-1.61 5.47c0-.152.07-.464.28-.95.199-.46.485-.988.821-1.54a32.834 32.834 0 0 1 2.083-2.98l-1.574-1.233a34.783 34.783 0 0 0-2.218 3.173 15 15 0 0 0-.948 1.786c-.238.552-.443 1.171-.443 1.745h2Zm.73 1.726a2.406 2.406 0 0 1-.73-1.725h-2c0 1.238.516 2.356 1.332 3.154l1.399-1.43Zm-1.768.148c0 .291.042.556.094.786l1.95-.439a1.58 1.58 0 0 1-.044-.347h-2Zm2.35-4.503a19.24 19.24 0 0 0-1.263 1.73c-.259.404-.52.855-.72 1.305-.19.43-.367.951-.367 1.468h2c0-.099.044-.314.196-.657a8.03 8.03 0 0 1 .575-1.037c.455-.71.957-1.336 1.124-1.539l-1.545-1.27Zm2.286 0a1.495 1.495 0 0 0-2.286 0l1.545 1.27a.524.524 0 0 1-.402.199.524.524 0 0 1-.402-.199l1.545-1.27Zm2.35 4.503c0-.516-.176-1.037-.367-1.468-.2-.45-.46-.901-.718-1.305a18.942 18.942 0 0 0-1.266-1.732l-1.542 1.274c.166.201.668.826 1.123 1.537.228.356.432.713.575 1.037.152.342.196.558.196.657h2ZM19.52 21.24a.524.524 0 0 1-.402.198.524.524 0 0 1-.402-.198l1.544-1.27a1.495 1.495 0 0 0-2.285 0l1.545 1.27Zm-3.761 6.533c0-.342.147-.88.473-1.584.314-.679.746-1.413 1.205-2.115a34.611 34.611 0 0 1 2.082-2.833l-1.543-1.273a36.593 36.593 0 0 0-2.213 3.012c-.487.745-.976 1.569-1.346 2.37-.358.774-.658 1.635-.658 2.423h2Zm.007.162a2.668 2.668 0 0 1-.007-.162h-2c0 .113.007.22.012.29l1.995-.128Zm.004.063a7.255 7.255 0 0 0-.004-.063l-1.995.128c0 .02.002.037.003.054l1.996-.12Zm.002.036-.002-.036-1.996.12.001.024 1.997-.108Zm-5.846 1.054h4.848v-2H9.925v2Zm-1-4.2v3.2h2v-3.2h-2Zm5.037-5.545c-2.049 2.56-4.073 4.284-4.669 4.77l1.264 1.55c.66-.539 2.8-2.363 4.967-5.07l-1.562-1.25Zm4.363-8.224c-.836 3.25-2.696 6.143-4.363 8.224l1.562 1.25c1.755-2.192 3.803-5.34 4.738-8.975l-1.937-.499Zm6.3 8.224c-1.667-2.082-3.527-4.971-4.363-8.223l-1.937.498c.935 3.637 2.983 6.783 4.739 8.975l1.56-1.25Zm4.669 4.77c-.596-.486-2.62-2.21-4.669-4.77l-1.561 1.25c2.167 2.707 4.306 4.531 4.966 5.07l1.264-1.55Zm.368 3.975v-3.2h-2v3.2h2Zm-6.203 1h5.203v-2H23.46v2Zm-.985-1.315c0 .064-.005.133-.013.243l1.995.144c.007-.1.018-.24.018-.387h-2Zm-3.758-6.532c.194.236 1.165 1.43 2.081 2.833.459.702.89 1.436 1.204 2.115.326.704.473 1.241.473 1.583l2 .002c0-.789-.3-1.65-.657-2.425-.37-.8-.858-1.623-1.346-2.369a36.588 36.588 0 0 0-2.212-3.011l-1.543 1.272Zm.771.364v-2 2Zm14.355 5.482h-4.22v2h4.22v-2Zm-.997-3.851-.003 4.85 2 .002.003-4.851-2-.001ZM18.447 2.135l14.568 21.66 1.66-1.117-14.568-21.66-1.66 1.117ZM5.54 23.795l14.568-21.66-1.66-1.116L3.88 22.678l1.66 1.116Zm.17 4.292v-4.85h-2v4.85h2Zm3.251-1H4.71v2h4.25v-2Zm-1-2.435v3.435h2v-3.435h-2Zm.58-1.178c-.37.284-.58.72-.58 1.178h2a.515.515 0 0 1-.202.408L8.54 23.474Zm-.01.008 1.238 1.57-1.239-1.57Zm9.28-15.776c0 4.125-2.218 8.02-4.569 10.97-2.333 2.929-4.682 4.783-4.712 4.807l1.24 1.569c.086-.068 2.568-2.031 5.036-5.13 2.45-3.074 5.005-7.414 5.005-12.216h-2Zm1.482-1.485c-.826 0-1.482.673-1.482 1.485h2a.516.516 0 0 1-.518.515v-2Zm1.481 1.485c0-.812-.656-1.485-1.481-1.485v2a.516.516 0 0 1-.519-.515h2Zm9.281 15.777c-.033-.027-2.382-1.882-4.714-4.81-2.35-2.95-4.567-6.844-4.567-10.967h-2c0 4.8 2.553 9.139 5.002 12.214 2.468 3.097 4.95 5.06 5.039 5.131l1.24-1.568Zm.002 0-1.243 1.568 1.243-1.567Zm.567 1.17c0-.46-.213-.892-.571-1.172l-1.234 1.573a.51.51 0 0 1-.195-.402h2Zm0 3.434v-3.435h-2v3.435h2Z" mask="url(#ge)"/><mask id="gf"><path fill-rule="evenodd" clip-rule="evenodd" d="M26.591 33.949a.488.488 0 0 1-.304.622l-1.78.593 1.71.487a.486.486 0 0 1 .332.605l-.615 2.089a.48.48 0 0 1-.593.328l-6.126-1.746-5.623 1.875a.474.474 0 0 1-.602-.301l-.709-2.061a.486.486 0 0 1 .303-.62l1.485-.495-1.784-.508a.486.486 0 0 1-.331-.605l.615-2.089a.48.48 0 0 1 .592-.33l6.2 1.767 5.916-1.973a.48.48 0 0 1 .605.301l.71 2.06Zm-13.234-1.092-.342 1.158 2.685.766 2.032-.677-4.375-1.247Zm12.13 3.594-.343 1.158-4.3-1.226 2.032-.677 2.61.745Zm-12.14.137.394 1.143 11.78-3.928-.392-1.143-11.781 3.928Z"/></mask><path d="m26.569 34.322-.899-.438-.69 1.413 1.573.025.016-1Zm.023-.373-.946.325.003.01.942-.335Zm-.023.373.896.444.704-1.418-1.584-.026-.016 1Zm-.282.248.316.95.003-.002-.319-.947Zm-1.78.594-.317-.949-3.072 1.024 3.115.887.273-.962Zm1.71.487.28-.96-.006-.002-.273.962Zm.292.233-.878.48.878-.48Zm.04.372.959.282.002-.007-.961-.275Zm-.615 2.089.959.283-.96-.283Zm-.593.328-.274.962.01.003.01.002.254-.967Zm-6.126-1.746.274-.962-.298-.084-.293.097.317.949Zm-5.623 1.875-.317-.949-.013.005.33.944Zm-.602-.301.95-.312-.002-.007-.002-.007-.946.326Zm-.709-2.061.946-.326-.004-.01-.942.336Zm.023-.374.899.439.002-.006-.901-.433Zm.28-.246-.316-.949-.007.002.323.947Zm1.485-.495.316.949 3.074-1.024-3.116-.887-.274.962Zm-1.784-.508-.279.96.005.002.274-.962Zm-.292-.233.878-.48-.878.48Zm-.04-.372-.958-.282-.003.008.962.274Zm.616-2.089.96.283-.96-.283Zm.592-.33.274-.962-.274.962Zm6.2 1.767-.274.962.297.084.293-.097-.316-.949Zm5.916-1.973-.316-.949.316.949Zm.605.301.946-.325v-.002l-.945.327Zm-12.867 2.127-.96-.283-.285.968.97.277.275-.962Zm.342-1.158.274-.962-.952-.271-.28.95.958.283Zm2.344 1.924-.275.962.297.084.294-.097-.316-.949Zm2.03-.677.317.949 3.07-1.023-3.112-.888-.274.962Zm7.413 3.505-.274.962.953.272.28-.95-.959-.284Zm.343-1.158.959.283.286-.968-.971-.276-.274.961Zm-4.642-.068-.316-.949-3.07 1.023 3.111.887.275-.961Zm2.031-.677.274-.962-.297-.084-.293.097.316.95Zm-9.135 2.025-.946.325.322.937.94-.314-.316-.948Zm-.393-1.143-.317-.95-.957.32.328.955.946-.325Zm12.174-2.785.316.948.958-.319-.328-.954-.946.325Zm-.393-1.143.945-.326-.322-.937-.94.314.317.949Zm2.339 2.1c.17-.348.202-.763.065-1.147l-1.884.672a.514.514 0 0 1 .021-.401l1.798.877Zm-.883-1.438-.032 2 .032-2Zm.02 2.196c.385-.129.688-.405.86-.752l-1.792-.888a.513.513 0 0 1 .296-.255l.637 1.895Zm-1.782.595 1.78-.594-.632-1.897-1.78.593.632 1.898Zm1.668-1.424-1.71-.487-.548 1.924 1.71.487.548-1.924Zm.896.716a1.485 1.485 0 0 0-.89-.714l-.558 1.92a.514.514 0 0 1-.308-.248l1.756-.958Zm.123 1.126c.105-.369.07-.773-.123-1.126l-1.756.958a.509.509 0 0 1-.044-.382l1.923.55Zm-.617 2.096.615-2.089-1.919-.564-.615 2.089 1.919.564Zm-1.42 1.065a1.48 1.48 0 0 0 1.42-1.064l-1.919-.566a.52.52 0 0 1 .499-.37v2Zm-.386-.052c.098.026.232.052.386.052v-2a.557.557 0 0 1 .123.014l-.509 1.934Zm-6.146-1.751 6.126 1.746.548-1.924-6.126-1.746-.549 1.924Zm-5.033 1.861 5.623-1.874-.633-1.898-5.623 1.875.633 1.898Zm-.467.077c.15 0 .314-.023.48-.08l-.659-1.89a.546.546 0 0 1 .18-.03v2Zm-1.401-1.015a1.473 1.473 0 0 0 1.401 1.015v-2c.215 0 .425.135.5.362l-1.901.623Zm-.704-2.047.708 2.06 1.892-.65-.71-2.06-1.89.65Zm.069-1.137c-.17.348-.203.764-.066 1.148l1.884-.672a.514.514 0 0 1-.02.4l-1.798-.876Zm.856-.755a1.487 1.487 0 0 0-.859.76l1.803.866a.52.52 0 0 1-.298.267l-.646-1.893Zm1.492-.497-1.485.495.632 1.898 1.485-.495-.632-1.898Zm-1.742 1.403 1.785.508.547-1.924-1.784-.508-.548 1.924Zm-.895-.716c.192.352.515.605.89.714l.558-1.92c.127.037.24.123.307.248l-1.755.958Zm-.124-1.125c-.105.368-.069.772.123 1.125l1.756-.958a.51.51 0 0 1 .044.382l-1.923-.55Zm.617-2.097-.614 2.089 1.918.565.615-2.09-1.918-.564Zm1.825-1.01a1.48 1.48 0 0 0-1.825 1.01l1.92.564a.52.52 0 0 1-.64.35l.545-1.924Zm6.201 1.767-6.2-1.767-.548 1.924 6.2 1.767.548-1.924Zm5.326-1.96-5.916 1.973.632 1.898 5.916-1.974-.632-1.897Zm1.867.923a1.48 1.48 0 0 0-1.867-.923l.632 1.897a.52.52 0 0 1-.656-.32l1.89-.654Zm.71 2.062-.71-2.06-1.891.65.709 2.061 1.891-.65Zm-13.564.675.342-1.158-1.918-.567-.342 1.159 1.918.566Zm2-.479-2.685-.766-.548 1.924 2.685.766.549-1.924Zm1.442-.663-2.032.676.633 1.898 2.03-.677-.631-1.897Zm-4.333.662 4.375 1.248.548-1.924-4.375-1.247-.548 1.923Zm13.02 4.075.342-1.159-1.918-.566-.342 1.158 1.918.567Zm-5.533-.549 4.3 1.227.549-1.923-4.3-1.227-.549 1.923Zm1.99-2.587-2.031.677.632 1.898 2.031-.677-.632-1.898Zm3.201.733-2.61-.746-.55 1.924 2.611.745.549-1.923Zm-11.075 1.916-.393-1.143-1.891.65.393 1.143 1.891-.65Zm10.52-4.552-11.782 3.928.633 1.897 11.781-3.928-.633-1.897Zm-1.023.13.393 1.144 1.892-.65-.393-1.144-1.892.65Zm-10.52 4.552 11.782-3.928-.633-1.897-11.78 3.928.632 1.897Z" mask="url(#gf)"/></svg><svg viewBox="0 0 59 46" id="nav-surf" xmlns="http://www.w3.org/2000/svg"><mask id="ha"><path fill-rule="evenodd" clip-rule="evenodd" d="M58.25 42.486a.53.53 0 0 1-.035.083.171.171 0 0 1-.056.073c-.016.026-.033.047-.05.071a1.892 1.892 0 0 1-.06.074l-.059.057a.643.643 0 0 1-.18.128l-.05.026a.577.577 0 0 1-.063.026 1.067 1.067 0 0 0-.084.032h-.019l-.006.001a.892.892 0 0 1-.226.031.39.39 0 0 0-.143.017c-.044.05-.122.303-.172.464l-.005.015c-.183.594-.566 1.828-2.116 1.828-1.325 0-1.983-.889-2.465-1.538l-.004-.005c-.451-.615-.623-.78-.961-.78-.339 0-.508.165-.962.778l-.003.004c-.482.65-1.14 1.538-2.468 1.538-1.326 0-1.984-.888-2.466-1.538l-.003-.004c-.452-.613-.623-.779-.962-.779-.336 0-.508.166-.962.781-.48.65-1.14 1.543-2.469 1.543-1.327 0-1.986-.889-2.467-1.538l-.004-.005c-.451-.612-.623-.778-.961-.778-.34 0-.508.166-.962.778-.48.65-1.138 1.543-2.47 1.543-1.325 0-1.983-.889-2.465-1.538l-.003-.005c-.451-.612-.623-.778-.962-.778-.336 0-.508.166-.962.78-.48.65-1.14 1.543-2.468 1.543-1.326 0-1.984-.888-2.466-1.538l-.003-.005c-.452-.612-.623-.778-.962-.778-.336 0-.508.166-.962.78-.48.651-1.14 1.544-2.469 1.544a1.4 1.4 0 0 1-1.074-.487c-.656-.755-.525-2.041-.254-4.077l.004-.035c.097-.737.244-1.86.196-2.407-1.757.346-4.25 3.899-5.542 6.483a.937.937 0 0 1-.84.523c-.019 0-.037 0-.056-.003a.937.937 0 0 1-.828-.622c-.216-.603-2.064-5.973-.143-8.945.72-1.11 1.886-1.749 3.376-1.846 1.296-.085 1.888-.437 2.001-.714.075-.185-.044-.501-.308-.802-.7-.805-2.266-1.45-4.049-.962-2.471.675-5.241 4.019-6.174 7.455-.327 1.208-.68 3.444.655 4.827a.958.958 0 0 1-.018 1.343.934.934 0 0 1-1.331-.019c-1.474-1.525-1.872-3.89-1.122-6.652.971-3.578 4.042-7.843 7.499-8.785 2.574-.703 4.843.265 5.953 1.54.769.88 1 1.894.635 2.781-.317.772-1.201 1.726-3.619 1.885-.9.06-1.528.384-1.92.99-.793 1.224-.61 3.395-.25 5.128 1.41-2.286 3.887-5.606 6.45-5.525.414.014.787.195 1.05.51.264.314.393.72.44 1.222 1.731-1.155 4.257-2.3 9.241-2.807C25.184 13.32 35.343.883 35.803.335a.12.12 0 0 1 .011-.01L35.83.31a.948.948 0 0 1 .087-.083.384.384 0 0 1 .058-.05c.03-.02.058-.036.088-.053l.02-.011a.475.475 0 0 1 .06-.033.92.92 0 0 1 .169-.054l.016-.006a.9.9 0 0 1 .197-.02l.138.005a.93.93 0 0 1 .718.334c.46.546 10.569 12.92 5.262 34.909 13.877.82 15.575 6.41 15.64 6.654l.003.015.002.016.014.092c.005.034.01.067.01.1l.002.029a.24.24 0 0 1-.004.048v.01c-.003.033-.006.067-.012.1a.945.945 0 0 1-.02.085l-.007.028c-.006.021-.012.042-.02.062ZM37.466 38.17h2.431c5.355-17.673.318-29.587-2.431-34.317V38.17Zm-1.88-34.068V38.17H33.29c-5.251-17.329-.477-29.167 2.293-34.068Zm19.667 38.942.005-.016c.11-.356.298-.94.761-1.35-1.041-1.33-4.326-4.058-13.86-4.554a62.14 62.14 0 0 1-.675 2.287.942.942 0 0 1-.896.663h-7.99a.942.942 0 0 1-.896-.663 70.303 70.303 0 0 1-.627-2.13c-6.046.574-8.209 2.104-9.862 3.395l-.021.167-.035.268c-.092.693-.233 1.76-.205 2.33.172-.102.346-.31.628-.695l.003-.005c.482-.65 1.14-1.538 2.468-1.538 1.326 0 1.984.888 2.466 1.538l.003.005c.452.612.623.778.962.778.338 0 .508-.166.961-.778l.004-.005c.482-.65 1.14-1.538 2.468-1.538 1.325 0 1.984.888 2.465 1.538l.004.005c.453.612.625.778.961.778.339 0 .508-.166.962-.778.48-.65 1.138-1.543 2.469-1.543 1.325 0 1.984.888 2.465 1.538l.004.005c.454.614.625.78.964.78.339 0 .508-.166.962-.778l.003-.004c.482-.65 1.14-1.538 2.468-1.538 1.325 0 1.984.888 2.465 1.538l.004.004c.451.612.623.779.962.779.338 0 .51-.166.964-.781.48-.65 1.14-1.543 2.469-1.543 1.327 0 1.986.888 2.467 1.538l.004.005c.454.612.625.778.962.778.105 0 .143-.016.143-.016.043-.051.122-.304.171-.464Z"/></mask><path d="m58.215 42.569-.88-.476 1.516 1.248-.636-.772Zm.036-.083-.925-.382-.014.034-.011.034.95.314Zm-.035.083.896.444-1.532-1.216.636.772Zm-.057.073-.558-.83-.175.118-.113.179.846.533Zm-.05.071.785.621.02-.025.018-.026-.822-.57Zm-.04.05.765.645-.765-.645Zm-.02.024.71.704.019-.019.017-.02-.746-.665Zm-.059.057-.668-.745-.022.02-.02.02.71.705Zm-.075.064.558.83.017-.012.017-.012-.592-.806Zm-.07.045.45.893.034-.018.033-.02-.518-.855Zm-.036.019.489.872-.489-.872Zm-.05.026-.422-.906-.014.006-.014.007.45.893Zm-.062.026.317.948.013-.004.014-.005-.343-.94Zm0 0-.316-.95-.013.005-.014.005.343.94Zm-.01.004.346.938-.347-.938Zm-.017.006.354.935.008-.003-.362-.932Zm-.018.007.402.916-.402-.916Zm-.038.014-.219-.976-.013.003-.013.003.245.97Zm-.007.001.065.998h.001l-.066-.998Zm-.013 0 .087.997h.002l-.09-.997Zm-.006.001-.245-.97-.007.003.252.967Zm-.37.048-.403-.915-.208.092-.148.173.76.65Zm-.17.464.948.316.003-.01.003-.01-.955-.296Zm0 0-.95-.316-.003.01-.003.01.955.296Zm-.006.015-.955-.296.955.296Zm-4.581.29.803-.596-.803.596Zm-.004-.005-.806.592.003.004.803-.596Zm-1.923-.002.803.595-.803-.595Zm-.003.004-.804-.596.804.596Zm-4.934 0 .803-.595-.803.595Zm-.003-.004-.805.593.002.002.803-.595Zm-1.924.002-.804-.594.804.594Zm-4.936.005-.804.595.804-.595Zm-.004-.005-.805.593.002.002.803-.595Zm-1.923 0-.804-.596-.001.002.805.594Zm-4.935.005-.803.595.803-.595Zm-.003-.005-.805.593.002.002.803-.595Zm-1.924.002-.804-.593.805.593Zm-4.934.005-.803.595.803-.595Zm-.003-.005-.805.594.001.002.804-.596Zm-1.924.003-.804-.594.804.594Zm-3.543 1.056.757-.654-.002-.002-.755.656Zm-.254-4.077.991.131v-.001l-.991-.13Zm.004-.035-.991-.13.991.13Zm.196-2.407.996-.089-.099-1.108-1.09.216.193.98Zm-5.542 6.483-.895-.447-.001.004.896.444Zm-.896.52.125-.992-.034-.004-.034-.002-.057.998Zm-.828-.622.942-.336v-.001l-.942.337Zm-.143-8.945-.84-.543.84.543Zm3.376-1.846.065.998h.001L15.454 34Zm2.001-.714.927.376-.927-.376Zm-.308-.802-.754.656.001.002.753-.658Zm-4.049-.962.263.965h.002l-.265-.965Zm-6.174 7.455-.966-.262.966.262Zm.655 4.827.722-.692-.002-.002-.72.694Zm-.018 1.343.699.716.002-.003-.701-.712ZM6.23 45.13l.72-.694h-.001l-.72.694Zm-1.122-6.652.965.263-.965-.263Zm7.499-8.785.263.964-.263-.964Zm5.953 1.54-.754.657.754-.657Zm.635 2.781.925.38-.925-.38Zm-3.619 1.885-.065-.998.065.998Zm-1.92.99-.84-.545v.001l.84.543Zm-.25 5.128-.979.203.51 2.46 1.32-2.138-.85-.525Zm6.45-5.525.034-1h-.003l-.031 1Zm1.05.51-.767.64.002.004.766-.644Zm.44 1.222-.995.093.156 1.67 1.395-.931-.555-.832Zm9.241-2.807.102.995 1.143-.117-.273-1.116-.972.238ZM35.803.335l-.71-.704-.03.029-.026.031.766.644Zm.011-.01.624.781-.624-.781ZM35.83.31l-.738-.675-.035.038-.03.04.803.597Zm.087-.083.649.76.032-.027.029-.03-.71-.703Zm.058-.05-.558-.83.558.83Zm.088-.053.49.872h.002l-.492-.872Zm.02-.011.492.87.021-.011.021-.013-.533-.846Zm.06-.033-.392-.92-.009.003-.009.004.41.913Zm.136-.045-.143-.99-.051.007-.05.013.244.97Zm.033-.01.318.948.032-.01.03-.013-.38-.924Zm0 0-.169-.985-.11.019-.103.042.382.925Zm0 0 .168.986.077-.013.074-.025-.32-.947Zm.016-.005-.219-.975-.03.006-.028.009.277.96Zm.197-.02.034-1h-.034v1Zm.138.005-.034 1h.034v-1Zm.718.334-.767.642.003.004.764-.646Zm5.262 34.909-.972-.235-.28 1.162 1.193.07.059-.997Zm15.64 6.654.971-.24-.002-.01-.003-.01-.966.26Zm.005.03.989-.15-.007-.045-.011-.044-.97.24Zm.014.093-.988.151.003.023.005.023.98-.197Zm0 0 .99-.14-.004-.028-.005-.028-.98.196Zm.01.153-.995-.091.996.09Zm-.002.025-.992-.125.992.124Zm0 .005-.993-.124-.003.027-.002.027.997.07Zm0 .003.997.07-.998-.07Zm-.012.1-.979-.209-.004.023-.004.022.987.163Zm-.02.085.957.291.008-.025.006-.026-.97-.24Zm-.007.028.962.27-.962-.27ZM39.896 38.17v1h.742l.215-.71-.957-.29Zm-2.431 0h-1v1h1v-1Zm0-34.317.864-.502L36.465.144v3.71h1Zm-1.88 34.317v1h1v-1h-1Zm0-34.068h1v-3.8L34.713 3.61l.87.492ZM33.29 38.171l-.957.29.216.71h.741v-1Zm21.966 4.858.955.296.463-1.49-1.548.203.13.991Zm-.005.016.956.296-.956-.296Zm.005-.016-.956-.296-.462 1.491 1.548-.203-.13-.992Zm.761-1.35.664.748.704-.624-.58-.74-.788.616Zm-13.86-4.554.051-.999-.802-.042-.214.775.965.266Zm-.675 2.287.953.302-.953-.302Zm-9.781 0-.955.299.001.003.953-.302Zm-.628-2.13.963-.27-.225-.805-.833.079.095.995Zm-9.862 3.395-.615-.788-.323.252-.053.405.991.131Zm-.021.167-.992-.126.992.126Zm-.035.268-.99-.138-.002.007.992.13Zm-.205 2.33-.999.05.082 1.658 1.428-.848-.51-.86Zm.628-.695-.803-.596-.003.004.806.592Zm.003-.005.804.596-.804-.596Zm4.934 0 .803-.595-.803.595Zm.003.005.805-.594-.002-.002-.803.596Zm1.924 0 .803.595-.803-.595Zm.003-.005-.804-.595.804.595Zm4.933 0-.803.596.803-.596Zm.004.005.803-.596-.803.596Zm1.923 0 .803.595.002-.002-.805-.593Zm4.934-.005.804-.595-.803.595Zm.004.005.804-.594v-.002l-.804.596Zm1.926.002-.803-.596.803.596Zm.003-.004.803.596-.803-.596Zm4.933 0 .804-.596-.803.596Zm.004.004.805-.593-.002-.002-.803.595Zm1.926-.002.804.594-.804-.594Zm4.936-.005-.803.596.803-.596Zm.004.005.803-.596-.803.596Zm1.105.762.404.914.208-.092.148-.172-.76-.65Zm4.014-.465c.047-.087.08-.171.105-.245l-1.899-.627a.48.48 0 0 1 .035-.078l1.76.95Zm-1.515-1.247 1.271 1.544-1.271-1.544Zm1.138 1.675c.267-.18.378-.428.394-.46l-1.792-.888c-.013.026.07-.17.281-.312l1.117 1.66Zm.214-.189.003-.005.014-.02c.013-.018.034-.047.056-.083l-1.692-1.066.007-.01-.004.005-.007.01a3.007 3.007 0 0 0-.02.03l1.643 1.14Zm-.098.125.06-.074-1.568-1.242a1.18 1.18 0 0 1-.02.026l1.528 1.29Zm-.039.044a2.18 2.18 0 0 0 .039-.044l-1.529-1.29-.002.003 1.492 1.331Zm-.137.136c.046-.041.085-.08.101-.097l-1.42-1.408-.012.011a.275.275 0 0 1-.006.007c-.003.002-.002.001.001-.002l1.336 1.49Zm-.151.126c.056-.041.124-.097.193-.166l-1.42-1.408a.385.385 0 0 1 .043-.038l1.184 1.612Zm-.145.094a3.15 3.15 0 0 0 .111-.07l-1.117-1.66a.956.956 0 0 1-.03.02l1.036 1.71Zm-.064.036.006-.003a.238.238 0 0 1-.01.005l-.9-1.786-.074.04.978 1.744Zm-.116.06c.056-.026.104-.053.116-.06L57.32 42.1l-.007.005c-.001 0-.001 0 0 0l.024-.012.845 1.813Zm-.142.059c.012-.004.09-.031.17-.072l-.901-1.786a.658.658 0 0 1 .055-.024l-.01.003.687 1.879Zm-.026.01-.633-1.898.633 1.897Zm.019-.007.008-.003-.686-1.879-.015.005.693 1.877Zm0 0-.693-1.877a2.783 2.783 0 0 0-.032.012l.724 1.865Zm.021-.01a.25.25 0 0 0-.003.002l-.027.01-.708-1.87a1.283 1.283 0 0 0-.066.028l.804 1.83Zm-.221.075c.121-.028.217-.072.22-.074l-.803-1.831.03-.012a.86.86 0 0 1 .115-.035l.438 1.952Zm-.16.023a.908.908 0 0 0 .185-.03l-.489-1.939a.957.957 0 0 1 .172-.027l.132 1.996Zm-.072.002h.019c.012 0 .03 0 .052-.002l-.13-1.996a1.08 1.08 0 0 1 .045-.002h.014v2Zm.082-.004a.924.924 0 0 1-.063.004h-.02v-2h-.007a.84.84 0 0 0-.088.004l.178 1.992Zm.15-.025a.958.958 0 0 1-.151.026l-.176-1.993a1.036 1.036 0 0 0-.163.028l.49 1.939Zm-.47.061c.18 0 .34-.027.477-.063l-.504-1.935c-.01.002.002-.002.026-.002v2Zm-.144-.983.403.915h-.001l-.002.001-.004.002-.007.003-.014.006a.927.927 0 0 1-.163.048c-.045.008-.07.008-.069.008v-2a1.58 1.58 0 0 0-.292.025 1.25 1.25 0 0 0-.225.064l-.015.007a.241.241 0 0 0-.008.003l-.003.001-.002.001h-.001s-.001.001.403.916Zm.783.76.04-.125a4.597 4.597 0 0 1 .052-.155l.005-.013a.073.073 0 0 0-.002.004.753.753 0 0 1-.118.179l-1.52-1.3c-.124.144-.189.307-.198.329a3.263 3.263 0 0 0-.07.182c-.038.11-.075.23-.099.306l1.91.593Zm-.006.02-1.897-.633 1.897.633Zm.002-.005.004-.015-1.91-.593-.005.016 1.91.593Zm-3.072 2.532c1.09 0 1.852-.455 2.345-1.06.451-.551.639-1.187.727-1.472l-1.911-.591c-.095.307-.19.586-.365.799-.132.162-.336.324-.796.324v2Zm-3.269-1.943c.466.629 1.395 1.943 3.27 1.943v-2c-.777 0-1.165-.463-1.663-1.134l-1.607 1.191Zm-.003-.004.004.004 1.606-1.191-.003-.005-1.607 1.192Zm-.158-.377s-.044 0-.106-.022a.42.42 0 0 1-.072-.033c-.017-.01-.026-.018-.025-.017a.99.99 0 0 1 .102.111c.066.078.146.184.256.334l1.612-1.184c-.213-.29-.438-.587-.688-.796a1.62 1.62 0 0 0-1.08-.393v2Zm-.159.374c.111-.15.193-.256.258-.334a1.01 1.01 0 0 1 .104-.113.404.404 0 0 1-.097.05c-.062.023-.107.023-.106.023v-2a1.62 1.62 0 0 0-1.079.392c-.248.208-.473.503-.687.791l1.607 1.191Zm-.003.005.003-.005-1.606-1.191-.004.004 1.607 1.192Zm-3.271 1.942c1.876 0 2.804-1.313 3.27-1.942l-1.606-1.191c-.497.67-.885 1.133-1.664 1.133v2Zm-3.27-1.942c.467.628 1.395 1.942 3.27 1.942v-2c-.777 0-1.165-.462-1.663-1.133l-1.606 1.19Zm-.002-.005.003.005 1.606-1.191-.003-.005-1.606 1.191Zm-.159-.374s-.043 0-.105-.022a.416.416 0 0 1-.071-.033c-.018-.01-.027-.018-.026-.017a.938.938 0 0 1 .103.111c.065.078.146.184.256.333l1.61-1.187c-.214-.29-.438-.585-.688-.793a1.621 1.621 0 0 0-1.079-.392v2Zm-.157.375c.11-.15.192-.256.257-.334a.877.877 0 0 1 .105-.113c0-.002-.008.006-.025.016a.41.41 0 0 1-.149.053l-.03.003v-2c-.397 0-.752.12-1.079.393-.249.208-.473.503-.688.794l1.609 1.188ZM41.2 46.412c1.879 0 2.81-1.32 3.274-1.95l-1.61-1.187c-.494.67-.885 1.137-1.664 1.137v2Zm-3.27-1.943c.466.63 1.394 1.943 3.27 1.943v-2c-.779 0-1.167-.463-1.664-1.134L37.93 44.47Zm-.004-.005.003.005 1.607-1.19-.003-.005-1.607 1.19Zm-.158-.373s-.044 0-.106-.023a.409.409 0 0 1-.071-.033.122.122 0 0 1-.025-.017c.005.005.036.033.102.112.065.078.146.183.256.332l1.61-1.187c-.214-.29-.438-.585-.688-.793a1.621 1.621 0 0 0-1.078-.391v2Zm-.159.373a7.66 7.66 0 0 1 .258-.334.956.956 0 0 1 .104-.112l-.026.017a.404.404 0 0 1-.071.033c-.063.022-.107.023-.106.023v-2a1.62 1.62 0 0 0-1.08.392c-.248.207-.472.502-.686.79l1.607 1.191Zm-3.272 1.948c1.88 0 2.81-1.32 3.273-1.95l-1.609-1.187c-.495.671-.883 1.137-1.664 1.137v2Zm-3.269-1.943c.466.629 1.395 1.943 3.269 1.943v-2c-.777 0-1.165-.463-1.662-1.134l-1.607 1.191Zm-.003-.005.003.005 1.607-1.19-.004-.005-1.606 1.19Zm-.159-.373s-.043 0-.105-.023a.404.404 0 0 1-.071-.033c-.018-.01-.026-.017-.026-.017a.98.98 0 0 1 .103.112c.065.078.146.183.256.332l1.61-1.187c-.214-.29-.438-.585-.688-.793a1.621 1.621 0 0 0-1.079-.391v2Zm-.157.374c.11-.15.192-.256.258-.334a1.02 1.02 0 0 1 .104-.113l-.025.017a.4.4 0 0 1-.149.053l-.03.003v-2c-.396 0-.752.12-1.079.392-.249.208-.473.504-.688.795l1.609 1.187Zm-3.273 1.949c1.878 0 2.808-1.319 3.273-1.949l-1.61-1.187c-.494.67-.884 1.136-1.663 1.136v2Zm-3.27-1.943c.467.63 1.395 1.943 3.27 1.943v-2c-.777 0-1.165-.462-1.663-1.133l-1.606 1.19Zm-.003-.004.004.004 1.607-1.19-.004-.005-1.607 1.19Zm-.158-.374s-.044 0-.105-.022a.417.417 0 0 1-.072-.033c-.017-.01-.026-.018-.025-.017a.938.938 0 0 1 .103.111c.065.078.146.184.256.333l1.61-1.187c-.214-.29-.438-.585-.688-.794a1.622 1.622 0 0 0-1.079-.391v2Zm-.157.375c.11-.15.192-.256.257-.335a.997.997 0 0 1 .104-.113.414.414 0 0 1-.173.07c-.02.003-.032.003-.031.003v-2c-.396 0-.751.12-1.078.392-.249.209-.474.504-.688.795l1.609 1.188Zm-3.274 1.948c1.879 0 2.81-1.318 3.274-1.948l-1.61-1.188c-.494.67-.885 1.136-1.664 1.136v2Zm-1.831-.833a2.4 2.4 0 0 0 1.831.834v-2a.4.4 0 0 1-.317-.14l-1.514 1.306Zm-.488-4.862c-.133 1-.247 1.911-.23 2.674.018.77.17 1.558.72 2.191l1.51-1.312c-.106-.122-.217-.354-.23-.925-.013-.578.075-1.33.212-2.365l-1.982-.263Zm.004-.033-.005.035 1.983.26.005-.035-1.983-.26Zm.19-2.189c.016.17.001.503-.042.947-.04.422-.1.87-.148 1.242l1.983.26c.048-.366.111-.848.156-1.309.042-.438.077-.94.044-1.317l-1.992.177Zm-3.651 6.843c.62-1.237 1.529-2.71 2.484-3.904.477-.596.949-1.1 1.383-1.467.453-.381.781-.541.974-.58l-.387-1.961c-.685.135-1.327.549-1.876 1.012-.567.478-1.13 1.088-1.656 1.746a25.273 25.273 0 0 0-2.71 4.259l1.788.895Zm-1.734 1.075c.73 0 1.406-.413 1.736-1.079l-1.792-.887a.063.063 0 0 1 .056-.034v2Zm-.181-.01c.091.01.173.01.181.01v-2h.004a.56.56 0 0 1 .065.005l-.25 1.984Zm-1.645-1.279a1.94 1.94 0 0 0 1.713 1.285l.114-1.997c.029.002.05.02.057.04l-1.884.672Zm-.041-9.824c-1.167 1.806-1.136 4.206-.88 6.042a20.2 20.2 0 0 0 .922 3.784l1.883-.675a18.217 18.217 0 0 1-.825-3.385c-.242-1.743-.174-3.514.58-4.68l-1.68-1.086Zm4.151-2.3c-1.76.114-3.236.887-4.15 2.3l1.678 1.087c.524-.809 1.38-1.312 2.602-1.392l-.13-1.996Zm1.14-.094a.578.578 0 0 1 .123-.188.957.957 0 0 1-.134.069c-.195.08-.554.174-1.13.212L15.52 35c.72-.047 1.305-.172 1.758-.358.402-.165.893-.46 1.104-.978l-1.853-.753Zm-.135.233a.836.836 0 0 1 .095.133l.005.01-.006-.019a.651.651 0 0 1 .04-.357l1.854.753c.175-.432.073-.847-.02-1.091a2.529 2.529 0 0 0-.462-.745l-1.506 1.315Zm-3.031-.655c1.434-.394 2.597.156 3.03.653l1.508-1.313c-.968-1.111-2.937-1.853-5.067-1.269l.529 1.929ZM7.889 39.24c.425-1.567 1.279-3.136 2.315-4.387 1.052-1.27 2.2-2.104 3.157-2.365l-.526-1.93c-1.514.414-2.987 1.59-4.171 3.02-1.2 1.447-2.198 3.268-2.706 5.138l1.93.524Zm.41 3.87c-.44-.454-.64-1.087-.672-1.827-.032-.74.112-1.49.262-2.044l-1.93-.522c-.178.655-.374 1.626-.33 2.652.044 1.026.334 2.202 1.231 3.13l1.439-1.388Zm-.037 2.751c.762-.749.78-1.976.039-2.748l-1.443 1.385a.05.05 0 0 1-.01-.016.04.04 0 0 1-.003-.015.03.03 0 0 1 .004-.015.052.052 0 0 1 .01-.016l1.403 1.425Zm-2.751-.037c.75.778 1.98.792 2.749.04l-1.398-1.43a.058.058 0 0 1 .018-.012.068.068 0 0 1 .07.013l-1.44 1.39Zm-1.368-7.609c-.806 2.968-.435 5.744 1.368 7.61l1.438-1.39c-1.146-1.187-1.57-3.139-.876-5.696l-1.93-.524Zm8.2-9.488c-2.006.547-3.802 2.02-5.195 3.74-1.402 1.73-2.48 3.815-3.005 5.749l1.93.523c.447-1.645 1.39-3.482 2.63-5.014 1.25-1.543 2.717-2.673 4.167-3.069l-.526-1.93Zm6.971 1.848c-1.36-1.561-4.023-2.652-6.97-1.848l.526 1.93c2.201-.601 4.076.244 4.936 1.232l1.508-1.314Zm.806 3.818c.542-1.32.146-2.727-.807-3.819l-1.506 1.316c.585.67.65 1.29.463 1.743l1.85.76Zm-4.478 2.502c1.328-.087 2.326-.398 3.064-.864.75-.473 1.181-1.072 1.414-1.637l-1.85-.761c-.085.206-.254.47-.63.706-.387.244-1.04.49-2.13.56l.132 1.996Zm-1.148.537c.18-.277.477-.492 1.148-.537l-.131-1.995c-1.13.074-2.088.509-2.695 1.443l1.678 1.089Zm-.109 4.38c-.171-.825-.294-1.725-.286-2.542.007-.84.152-1.463.396-1.84l-1.68-1.086c-.548.848-.707 1.924-.716 2.908-.01 1.009.14 2.06.328 2.967l1.958-.406Zm5.502-6.32c-1.71-.054-3.229 1.011-4.392 2.164-1.198 1.187-2.218 2.665-2.94 3.835l1.702 1.05c.689-1.115 1.612-2.44 2.646-3.465 1.068-1.058 2.069-1.612 2.921-1.586l.063-1.998Zm1.788.869a2.414 2.414 0 0 0-1.785-.87l-.069 2c.135.004.24.058.318.15l1.536-1.28Zm.667 1.77c-.057-.615-.227-1.246-.67-1.773l-1.53 1.287c.083.1.172.28.209.671l1.991-.186Zm8.144-3.71c-5.117.521-7.805 1.709-9.695 2.97l1.11 1.664c1.573-1.05 3.935-2.15 8.788-2.644l-.203-1.99Zm4.551-34.73c-.58.69-10.927 13.447-5.42 35.962l1.942-.475c-5.3-21.674 4.667-33.793 5.01-34.2L35.036-.309Zm.153-.148s-.047.037-.098.088l1.421 1.407a.88.88 0 0 1-.056.052l-.019.016L35.19-.457Zm-.164.172a.947.947 0 0 1 .12-.134c.027-.025.052-.044.044-.038l1.248 1.563.017-.014a1.101 1.101 0 0 0 .176-.185L35.026-.285Zm.24-.248c-.05.044-.111.099-.175.169l1.476 1.35a.119.119 0 0 1-.008.007l.006-.005-1.299-1.52Zm.15-.119a1.383 1.383 0 0 0-.21.176l1.42 1.408a.627.627 0 0 1-.093.076l-1.117-1.66Zm.156-.094c-.025.014-.089.05-.156.094l1.117 1.66-.007.004.009-.005a1.98 1.98 0 0 1 .018-.01l-.981-1.743Zm.02-.011-.021.011.983 1.742.02-.011-.983-1.742Zm.14-.075c-.096.043-.172.093-.183.1L36.616.96c.012-.008.006-.004-.002.001a.674.674 0 0 1-.063.032l-.819-1.825Zm.301-.102a1.917 1.917 0 0 0-.283.094l.782 1.841a.165.165 0 0 1-.012.005h.002l-.489-1.94Zm-.041.013.025-.008a.879.879 0 0 1 .118-.025l.285 1.98a1.12 1.12 0 0 0 .151-.033l.058-.019-.637-1.895Zm-.063.023.763 1.85-.763-1.85Zm.213-.061.337 1.971-.337-1.971Zm-.092.02a.666.666 0 0 0-.058.018L36.63.974l-.003.001a.676.676 0 0 1-.023.007L36.05-.939ZM36.525-1a1.9 1.9 0 0 0-.417.046l.438 1.951a.106.106 0 0 1-.021.003v-2Zm.172.005-.138-.004L36.49.999l.14.005.067-1.999Zm1.45.693a1.931 1.931 0 0 0-1.484-.693v2a.068.068 0 0 1-.05-.024l1.534-1.283Zm5.468 35.784c5.408-22.407-4.89-35.1-5.47-35.788l-1.53 1.29c.341.404 10.26 12.46 5.055 34.029l1.944.47Zm15.634 6.16c-.087-.325-.654-1.99-3.03-3.668-2.363-1.668-6.454-3.307-13.517-3.725l-.118 1.997c6.813.403 10.51 1.97 12.482 3.362 1.958 1.383 2.274 2.635 2.252 2.554l1.931-.52Zm.03.166a.293.293 0 0 0-.004-.039 1.073 1.073 0 0 0-.02-.107l-1.942.48a.924.924 0 0 1-.018-.093l-.003-.022 1.988-.219Zm-.02-.115c.01.042.016.076.018.092l.003.023-1.988.219.001.011.004.027c.003.022.009.06.02.108l1.942-.48Zm.032.182-.014-.093-1.977.302.014.092 1.977-.301Zm-.008-.046-1.961.392 1.96-.392Zm.029.296c0-.115-.017-.219-.02-.24l-1.98.28.002.017v-.001a.538.538 0 0 1-.002-.056h2Zm.002.029a1.07 1.07 0 0 0-.005-.1l-.002-.026a.472.472 0 0 0-.002-.012v.005l.003.019a.921.921 0 0 1 .004.085h-2a1.09 1.09 0 0 0 .008.137v-.004a.91.91 0 0 1-.006-.105h2Zm-.005.115a1.2 1.2 0 0 0 .005-.115h-2c0-.03.002-.053.003-.067l1.992.182Zm-.007.058.007-.058-1.992-.182.001-.013v.004l1.984.25Zm0 .005v-.006l-1.984-.247-.001.005 1.985.248Zm.005-.05v-.004l-1.995-.14v.003l1.995.14Zm-.031.236a1.55 1.55 0 0 0 .03-.236l-1.994-.141-.002.016c0 .003 0 .002 0 0a.458.458 0 0 1 .01-.054l1.956.415Zm-.027.118c.006-.022.023-.089.035-.163l-1.973-.326.003-.015-.002.007-.004.016 1.941.481Zm-.016.059a.494.494 0 0 1 .003-.009v.001l-1.914-.583-.014.049 1.925.542Zm-.058.172c.034-.083.055-.161.058-.172l-1.925-.542-.002.009.001-.005a.609.609 0 0 1 .02-.053l1.848.763Zm-19.279-5.696h-2.431v2h2.431v-2ZM36.6 4.357c2.644 4.548 7.596 16.175 2.34 33.524l1.913.58c5.453-17.997.331-30.198-2.524-35.11L36.6 4.358Zm1.865 33.814V3.854h-2v34.317h2Zm-1.88 0V4.103h-2v34.068h2Zm-3.294 1h2.293v-2h-2.293v2Zm1.423-35.56c-2.873 5.082-7.727 17.203-2.38 34.85l1.914-.58c-5.155-17.011-.46-28.566 2.207-33.285l-1.741-.985Zm19.588 39.122-.005.015 1.91.593.005-.016-1.91-.592Zm1.085 1.288-.26-1.983.26 1.983Zm-.032-3.09c-.695.616-.947 1.458-1.053 1.802l1.91.593c.114-.368.239-.694.47-.899l-1.327-1.496Zm-13.25-2.808c9.37.488 12.327 3.153 13.126 4.173l1.575-1.234c-1.284-1.638-4.896-4.431-14.596-4.936l-.104 1.997Zm.331 1.59c.249-.786.476-1.56.686-2.323l-1.929-.53a62.233 62.233 0 0 1-.664 2.251l1.907.603Zm-1.85 1.361c.854 0 1.596-.557 1.85-1.36l-1.907-.603c.005-.015.023-.036.058-.036v2Zm-7.989 0h7.99v-2h-7.99v2Zm-1.849-1.36c.254.803.997 1.36 1.85 1.36v-2c.034 0 .052.022.057.037l-1.907.603Zm-.638-2.164c.198.708.408 1.428.637 2.161l1.909-.597a69.777 69.777 0 0 1-.62-2.101l-1.926.537Zm-8.282 3.916c.798-.624 1.668-1.265 3.047-1.83 1.39-.57 3.341-1.079 6.293-1.36l-.189-1.99c-3.093.294-5.246.837-6.862 1.5-1.628.666-2.666 1.436-3.52 2.103l1.23 1.576Zm.355-.497.02-.16-1.982-.263-.022.172 1.984.251Zm-.037.28.037-.28-1.984-.25-.034.255 1.981.276Zm-.196 2.144c-.023-.456.1-1.41.197-2.15l-1.983-.263c-.085.647-.245 1.828-.212 2.512l1.998-.1Zm-1.177-1.238a5.3 5.3 0 0 1-.298.382c-.068.077-.075.07-.035.046l1.022 1.719c.38-.226.672-.621.923-.963l-1.612-1.184Zm.006-.008-.003.004 1.606 1.191.004-.004-1.607-1.191Zm3.271-1.943c-1.876 0-2.805 1.314-3.271 1.943l1.607 1.19c.497-.67.885-1.133 1.664-1.133v-2Zm3.27 1.943c-.467-.629-1.396-1.943-3.27-1.943v2c.777 0 1.165.463 1.662 1.134l1.607-1.191Zm.003.004-.004-.004-1.607 1.19.004.005 1.607-1.19Zm.158.374s.043 0 .105.022c.029.01.053.023.071.034l.026.016a.99.99 0 0 1-.103-.111 7.35 7.35 0 0 1-.256-.333l-1.61 1.187c.214.29.438.585.688.794.328.273.684.391 1.079.391v-2Zm.158-.374a7.58 7.58 0 0 1-.258.334 1.03 1.03 0 0 1-.104.113l.026-.017a.409.409 0 0 1 .072-.033c.062-.023.106-.023.106-.023v2c.395 0 .751-.118 1.078-.392.249-.207.473-.502.687-.79l-1.607-1.192Zm.003-.004-.003.005 1.607 1.19.003-.005-1.607-1.19Zm3.272-1.943c-1.876 0-2.805 1.314-3.272 1.943l1.607 1.19c.497-.67.886-1.133 1.665-1.133v-2Zm3.269 1.943c-.466-.629-1.395-1.943-3.27-1.943v2c.777 0 1.165.463 1.663 1.134l1.607-1.191Zm.003.004-.003-.004-1.607 1.19.003.005 1.607-1.19Zm.158.374s.011 0 .031.003c.022.004.048.01.077.02.062.022.096.05.096.05a.995.995 0 0 1-.104-.113 7.496 7.496 0 0 1-.258-.334l-1.607 1.191c.215.29.44.584.688.792a1.62 1.62 0 0 0 1.077.391v-2Zm.159-.374a7.58 7.58 0 0 1-.258.334 1.03 1.03 0 0 1-.104.113l.025-.017a.409.409 0 0 1 .072-.033c.062-.023.107-.023.106-.023v2c.396 0 .752-.118 1.079-.392.248-.207.473-.502.686-.79l-1.606-1.192Zm3.272-1.947c-1.88 0-2.81 1.32-3.274 1.95l1.61 1.186c.495-.67.883-1.136 1.664-1.136v-2Zm3.269 1.943c-.466-.629-1.395-1.943-3.269-1.943v2c.777 0 1.165.463 1.662 1.134l1.607-1.191Zm.004.005-.004-.005-1.607 1.19.003.005 1.608-1.19Zm.16.376s.044 0 .105.022c.03.01.053.022.072.033.017.01.026.018.025.017a.999.999 0 0 1-.104-.113 7.48 7.48 0 0 1-.258-.334L39.44 43.34c.215.29.44.586.69.795.328.273.684.392 1.079.392v-2Zm.158-.374a6.77 6.77 0 0 1-.258.334.822.822 0 0 1-.103.112c-.001.001.007-.006.025-.017a.416.416 0 0 1 .072-.033c.062-.022.106-.022.106-.022v2c.395 0 .751-.119 1.079-.392.248-.208.472-.503.686-.791l-1.607-1.191Zm.004-.005-.003.005 1.606 1.191.003-.005-1.606-1.191Zm3.271-1.942c-1.876 0-2.805 1.313-3.271 1.942l1.606 1.191c.498-.67.886-1.133 1.665-1.133v-2Zm3.269 1.942c-.466-.628-1.395-1.942-3.269-1.942v2c.777 0 1.165.462 1.662 1.133l1.607-1.19Zm.003.005-.003-.005-1.607 1.191.004.005 1.606-1.191Zm.159.374s.043 0 .105.022c.029.01.053.022.071.033.018.01.026.018.025.017a.983.983 0 0 1-.102-.112 7.333 7.333 0 0 1-.256-.332l-1.61 1.187c.214.29.438.585.688.793.328.273.684.392 1.079.392v-2Zm.16-.375a7.48 7.48 0 0 1-.258.334 1.01 1.01 0 0 1-.104.113.411.411 0 0 1 .096-.05c.062-.022.106-.022.106-.022v2c.395 0 .75-.119 1.079-.392.25-.209.474-.505.69-.795l-1.61-1.188Zm3.273-1.949c-1.879 0-2.81 1.32-3.274 1.95l1.61 1.186c.494-.67.885-1.136 1.664-1.136v-2Zm3.27 1.943c-.466-.63-1.394-1.943-3.27-1.943v2c.779 0 1.167.463 1.664 1.134l1.607-1.191Zm.004.004-.003-.005-1.607 1.192.004.005 1.606-1.192Zm.158.374s.011 0 .032.003c.02.004.047.01.076.02.062.022.096.05.096.05a1.001 1.001 0 0 1-.104-.113 7.408 7.408 0 0 1-.258-.334l-1.607 1.191c.215.29.44.584.689.792.326.272.681.391 1.077.391v-2Zm.144.984c-.404-.915-.404-.915-.403-.916h.003l.003-.002.008-.004a.753.753 0 0 1 .093-.034.784.784 0 0 1 .083-.02c.045-.008.07-.008.07-.008v2c.104 0 .201-.008.291-.024a1.21 1.21 0 0 0 .226-.065l.015-.006a.241.241 0 0 0 .008-.003l.003-.002h.002l.001-.001-.403-.915Zm-.784-.76a12.682 12.682 0 0 1-.091.28.578.578 0 0 1-.005.012l-.002.004.004-.007a.587.587 0 0 1 .042-.077.887.887 0 0 1 .076-.102l1.52 1.3c.124-.145.188-.307.198-.33.027-.063.05-.128.07-.182.038-.109.075-.23.099-.306l-1.91-.593Z" mask="url(#ha)"/><path d="M5.565 30.08h.001l.619.742h-5.09l.385-.676c.632-1.11 1.385-1.29 1.863-1.29.55 0 1.07.25 1.49.553.416.3.688.617.732.67Z"/><mask id="hb"><path fill-rule="evenodd" clip-rule="evenodd" d="m4.127 33.2.966.101-.122.973c-.355 2.63-3.102 5.404-3.22 5.523L.48 41.069l-.315-1.78c-.374-2.093-.108-3.702.788-4.782 1.253-1.512 3.175-1.308 3.175-1.308Zm-1.73 2.524c-.166.2-.29.454-.378.753.2-.302.393-.617.558-.935a1.633 1.633 0 0 0-.18.182Z"/></mask><path d="m5.093 33.301.993.125.127-1.012-1.015-.107-.105.994Zm-.966-.102-.106.995.106-.995Zm.844 1.075.991.134.001-.01-.992-.124Zm-3.22 5.523.708.707.003-.003-.71-.704ZM.48 41.069l-.984.174.334 1.89 1.357-1.357-.707-.707Zm-.315-1.78.985-.174v-.002l-.985.176Zm.788-4.782.77.638-.77-.638Zm1.067 1.97-.96-.28-.108.372.17.348.898-.44Zm.379-.753.767.643.006-.008-.773-.635Zm-.379.753-.898.44.768 1.566.964-1.454-.834-.552Zm.558-.935.888.46-1.554-1.206.666.746Zm2.621-3.235-.966-.102-.21 1.989.966.102.21-1.99Zm.765 2.092.123-.973-1.985-.25-.122.974 1.984.249ZM2.462 40.5c.075-.076.832-.842 1.622-1.94.771-1.072 1.667-2.588 1.878-4.153L3.98 34.14c-.144 1.065-.799 2.25-1.52 3.253a15.16 15.16 0 0 1-1.419 1.7l1.42 1.408Zm-1.276 1.275 1.273-1.272-1.414-1.414-1.273 1.272 1.414 1.414ZM-.82 39.463l.316 1.78 1.969-.349-.315-1.78-1.97.35Zm1.003-5.595C-.98 35.271-1.219 37.232-.82 39.465l1.969-.352c-.35-1.954-.056-3.21.573-3.968l-1.54-1.277Zm3.945-.669.105-.994H4.23l-.005-.001-.01-.001a1.418 1.418 0 0 0-.124-.009 5.268 5.268 0 0 0-1.292.114c-.784.17-1.806.583-2.616 1.56l1.54 1.277c.443-.534 1.01-.776 1.5-.882a3.258 3.258 0 0 1 .772-.07l.033.001h.002-.007l.105-.995ZM2.98 36.756a1.1 1.1 0 0 1 .186-.39L1.63 35.083a3.06 3.06 0 0 0-.572 1.115l1.92.56Zm-.062-.72-1.796.88 1.796-.88Zm-1.228-.954c-.144.277-.316.56-.503.842l1.667 1.105c.213-.32.426-.668.612-1.028l-1.776-.92Zm1.482 1.276a.664.664 0 0 1 .072-.07L1.91 34.796a2.46 2.46 0 0 0-.286.294l1.546 1.268Z" mask="url(#hb)"/><mask id="hc"><path fill-rule="evenodd" clip-rule="evenodd" d="M11.368 27.916c0 .992-.802 1.799-1.785 1.799a1.793 1.793 0 0 1-1.782-1.799c0-.992.8-1.799 1.782-1.799.986 0 1.785.807 1.785 1.799Zm-1.686 0a.1.1 0 0 0-.099-.1.098.098 0 0 0-.096.1c0 .11.195.11.195 0Z"/></mask><path d="M9.583 30.715a2.795 2.795 0 0 0 2.785-2.799h-2a.795.795 0 0 1-.785.799v2Zm-2.782-2.799c0 1.536 1.238 2.799 2.782 2.799v-2a.793.793 0 0 1-.782-.799h-2Zm2.782-2.799c-1.544 0-2.782 1.263-2.782 2.799h2c0-.448.36-.799.782-.799v-2Zm2.785 2.799a2.793 2.793 0 0 0-2.785-2.799v2c.426 0 .785.351.785.799h2Zm-2.785.9a.9.9 0 0 1-.901-.9h2a1.1 1.1 0 0 0-1.099-1.1v2Zm.904-.9c0 .457-.366.9-.904.9v-2c-.646 0-1.096.534-1.096 1.1h2Zm-1.805 0c0-.311.156-.58.371-.74a.888.888 0 0 1 .531-.178.88.88 0 0 1 .53.178c.217.16.373.429.373.74h-2c0 .366.18.675.432.863a1.113 1.113 0 0 0 1.33 0c.252-.188.433-.497.433-.863h-2Z" mask="url(#hc)"/></svg><svg viewBox="0 0 50 32" id="nav-travel" xmlns="http://www.w3.org/2000/svg"><mask id="ia"><path fill-rule="evenodd" clip-rule="evenodd" d="M48.492 21.03v2.747c.57.116 1 .617 1 1.212v.988c0 .599-.43 1.098-1 1.214v.025h-6.563a4.74 4.74 0 0 1-4.685 3.958c-2.363 0-4.322-1.718-4.683-3.958H15.183a4.74 4.74 0 0 1-4.685 3.958c-2.363 0-4.323-1.72-4.685-3.958H2l-.748.002A1.247 1.247 0 0 1 0 25.978v-.987c0-.684.562-1.239 1.252-1.239H2v-11.13C2 9.21 4.804 6.433 8.25 6.433l5.77-.003V4.457C7.934 3.883 2.78 2.811 1.218 1.267a.733.733 0 0 1-.135-.869.752.752 0 0 1 .797-.386c4.975.881 12.713 1 19.621 1a1028.855 1028.855 0 0 0 5.346-.014c.913-.003 1.798-.006 2.647-.006l6.437.002h.002c4.356 0 7.04-.03 10.52-.197a.758.758 0 0 1 .757.537.74.74 0 0 1-.353.852c-.502.279-1.127.538-1.867.777v1.502a1.7 1.7 0 0 1-.963 1.548 1.773 1.773 0 0 1-.793.192c-.363 0-.724-.116-1.037-.346l-2.42-1.777c-3.08.445-6.896.727-11.282.828v1.526l5.247-.001c3.343 0 6.426 1.107 8.903 2.968l.205.159a14.658 14.658 0 0 1 4.659 6.24l.006.012.014.033c.013.039.028.076.043.113l.037.096.298.767h-.043a14.42 14.42 0 0 1 .627 4.208Zm-13.747-5.69h10.93a13.228 13.228 0 0 0-3.552-4.453h-7.378a.253.253 0 0 0-.25.248v3.958c0 .133.115.248.25.248Zm8.748-10.875a.23.23 0 0 1-.138.222.232.232 0 0 1-.262-.023l-1.258-.922a33.62 33.62 0 0 0 1.658-.357v1.08ZM24.837 2.491c-1.086.003-2.201.006-3.332.006-4.438 0-9.219-.05-13.42-.319 4.035.754 9.837 1.288 16.662 1.288 6.272 0 11.757-.364 15.74-1.003-1.358.015-2.825.02-4.55.02h-.003l-6.438-.005c-1.168 0-2.404.004-3.69.01l-.969.003Zm-9.318 2.1c3.01.237 6.185.36 9.227.36.764 0 1.514-.007 2.25-.016v1.5H15.519V4.59ZM7.25 26.474c0 1.774 1.457 3.216 3.25 3.216 1.792 0 3.25-1.442 3.25-3.216 0-1.774-1.458-3.216-3.25-3.216-1.793 0-3.25 1.442-3.25 3.216Zm29.995 3.216c-1.792 0-3.25-1.442-3.25-3.216 0-1.774 1.458-3.216 3.25-3.216 1.793 0 3.25 1.442 3.25 3.216 0 1.774-1.457 3.216-3.25 3.216Zm0-7.917c2.363 0 4.324 1.718 4.685 3.959h6.063v-.495h-4.499v-1.485h3.5v-2.719c0-1.473-.25-2.886-.704-4.208H34.745c-.965 0-1.75-.777-1.75-1.731v-3.959c0-.955.785-1.732 1.75-1.732h5.11a13.29 13.29 0 0 0-6.112-1.484H8.25c-2.62 0-4.751 2.11-4.751 4.702v2.72h7.534v1.484H3.5v6.927h1v1.485h-3v.495h4.314a4.74 4.74 0 0 1 4.685-3.959c2.363 0 4.323 1.718 4.684 3.959H32.56a4.74 4.74 0 0 1 4.684-3.959Z"/></mask><path d="m48.492 23.777.223.768.577-.167v-.6h-.8Zm0 0-.223-.768.063 1.552.16-.784Zm0 3.414-.16-.784-.64.13v.654h.8Zm0 .025v.8h.8v-.8h-.8Zm-6.563 0v-.8h-.681l-.11.672.79.128Zm-9.368 0 .79-.128-.109-.672h-.681v.8Zm-17.378 0v-.8h-.68l-.11.672.79.128Zm-9.37 0 .79-.128-.108-.672h-.682v.8Zm-3.813 0v-.8h-.002l.002.8Zm-.748.002v.8h.002l-.002-.8ZM2 23.752v.8h.8v-.8H2ZM8.25 6.435v.8h.001v-.8Zm5.77-.004v.8h.8v-.8h-.8Zm0-1.974h.8V3.73l-.726-.068-.075.796ZM1.218 1.267l.563-.57-.003-.002-.56.571Zm-.134-.87L.378.022.377.024l.707.374Zm.797-.386L1.74.799h.001l.14-.787Zm23.92.99-.003-.8.003.8Zm1.047-.004-.002-.8h-.001l.003.8Zm0 0 .002.8-.002-.8Zm2.647-.006v-.8.8Zm6.437.002v.8-.8ZM46.453.797l-.031-.8h-.007l.038.8Zm.758.537.768-.223-.768.223Zm-.353.852.388.7-.389-.7Zm-1.867.777-.247-.76-.553.178v.582h.8Zm-.963 3.05.357.716-.357-.716Zm-1.83-.154.474-.645-.474.645Zm-2.42-1.777.474-.645-.264-.193-.324.047.115.791Zm-11.282.828-.019-.8-.781.018v.782h.8Zm0 1.526h-.8v.8h.8v-.8Zm5.247-.001v-.8.8Zm8.903 2.968.489-.633-.009-.006-.48.64Zm.205.159.491-.631-.002-.002-.49.633Zm4.659 6.24-.746.29.014.037.018.034.714-.36Zm.006.012.739-.307-.012-.027-.013-.027-.714.361Zm.014.033.753-.268-.007-.02-.008-.02-.738.308Zm.043.113-.744.294v.003l.744-.297Zm0 0 .744-.294-.001-.003-.743.297Zm.037.096-.752.274.003.008.003.008.746-.29Zm.298.767v.8h1.17l-.424-1.09-.746.29Zm-.043 0v-.8h-1.08l.315 1.033.765-.233Zm-2.19-1.482v.8h1.282l-.564-1.152-.718.352Zm-3.552-4.454.503-.62-.22-.18h-.283v.8Zm1.232-6.2L43 3.97l.355.717Zm.138-.222h-.8.8Zm-.4.199.474-.644-.001-.001-.473.645Zm-1.258-.922-.15-.786-1.807.344 1.484 1.087.473-.645Zm1.658-.357h.8V2.366l-.989.241.19.778ZM24.837 2.49l.002.8h.001l-.003-.8Zm0 0-.002-.8.002.8Zm-3.332.006-.072-.796.072 1.596v-.8Zm0 0 .073.797-.073-1.597v.8Zm-13.42-.319.052-.798-.198 1.585.147-.787Zm32.401.285.127.79-.136-1.59.01.8Zm-4.552.02v.8-.8Zm-6.438-.005v-.8.8Zm-3.69.01.003.8h.002l-.004-.8ZM15.52 4.59l.063-.798-.863-.068v.866h.8Zm11.477.344h.8v-.811l-.81.01.01.8Zm0 1.5v.8h.8v-.8h-.8Zm-11.477 0h-.8v.8h.8v-.8Zm26.41 19.297-.79.127.109.673h.681v-.8Zm6.063 0v.8h.8v-.8h-.8Zm0-.495h.8v-.8h-.8v.8Zm-4.499 0h-.8v.8h.8v-.8Zm0-1.485v-.8h-.8v.8h.8Zm3.5 0v.8h.8v-.8h-.8Zm-.704-6.927.757-.259-.185-.54h-.572v.8Zm-6.434-7.422v.8l.367-1.51-.367.71ZM3.5 15.341h-.8v.8h.8v-.8Zm7.534 0h.8v-.8h-.8v.8Zm0 1.484v.8h.8v-.8h-.8Zm-7.534 0v-.8h-.8v.8h.8Zm0 6.927h-.8v.8h.8v-.8Zm1 0h.8v-.8h-.8v.8Zm0 1.485v.8h.8v-.8h-.8Zm-3 0v-.8H.7v.8h.8Zm0 .495H.7v.8h.8v-.8Zm4.314 0v.8h.68l.11-.672-.79-.128Zm9.37 0-.79.127.108.673h.681v-.8Zm17.376 0v.8h.68l.11-.672-.79-.128Zm16.732-1.955v-2.746h-1.6v2.746h1.6Zm-.577.769-.446-1.537.446 1.537Zm1.577.443c0-.99-.712-1.807-1.64-1.996l-.32 1.568c.212.043.36.228.36.428h1.6Zm0 .988v-.988h-1.6v.988h1.6Zm-1.64 1.998a2.043 2.043 0 0 0 1.64-1.998h-1.6a.443.443 0 0 1-.36.43l.32 1.568Zm.64-.76v-.024h-1.6v.025h1.6Zm-7.364.8h6.564v-1.6h-6.563v1.6Zm-4.684 3.96c2.758 0 5.049-2.007 5.474-4.631l-1.58-.256a3.94 3.94 0 0 1-3.894 3.286v1.6Zm-5.473-4.632c.423 2.625 2.715 4.631 5.473 4.631v-1.6c-1.968 0-3.594-1.43-3.893-3.286l-1.58.255Zm-16.588.673H32.56v-1.6H15.183v1.6Zm-4.685 3.958c2.758 0 5.049-2.006 5.475-4.63l-1.58-.256a3.94 3.94 0 0 1-3.895 3.286v1.6Zm-5.474-4.63c.423 2.623 2.716 4.63 5.474 4.63v-1.6c-1.968 0-3.596-1.433-3.895-3.286l-1.58.255ZM2 28.015h3.813v-1.6H2v1.6Zm-.746.002.748-.002-.004-1.6-.748.002.004 1.6ZM-.8 25.978c0 1.132.926 2.04 2.052 2.04v-1.6a.447.447 0 0 1-.452-.44H-.8Zm0-.987v.988H.8v-.988H-.8Zm2.052-2.039A2.047 2.047 0 0 0-.8 24.992H.8c0-.235.196-.44.452-.44v-1.6Zm.748 0h-.748v1.6H2v-1.6Zm-.8-10.33v11.13h1.6v-11.13H1.2Zm7.05-6.987c-3.88 0-7.05 3.125-7.05 6.986h1.6c0-2.961 2.438-5.387 5.45-5.387v-1.6Zm5.769-.004-5.769.003.001 1.6 5.769-.003-.001-1.6Zm-.8-1.174v1.974h1.6V4.457h-1.6ZM.656 1.835c.5.494 1.226.899 2.062 1.241.85.348 1.873.656 3.02.928 2.293.545 5.143.96 8.206 1.25l.15-1.593c-3.021-.285-5.792-.692-7.987-1.214-1.098-.26-2.036-.546-2.782-.852-.76-.31-1.262-.62-1.543-.897L.656 1.835ZM.376.025a1.534 1.534 0 0 0 .283 1.811L1.78.695c.02.02.025.053.012.077L.377.024Zm1.646-.8A1.552 1.552 0 0 0 .378.021L1.79.774A.048.048 0 0 1 1.74.8l.282-1.575Zm19.48.986C14.577.211 6.914.091 2.02-.776L1.741.8c5.059.896 12.87 1.01 19.761 1.01V.21Zm4.295-.01c-1.385.006-2.827.01-4.295.01v1.6c1.47 0 2.915-.004 4.302-.01l-.007-1.6Zm1.048-.003-1.047.003.005 1.6c.353 0 .702-.002 1.047-.003l-.005-1.6Zm.001 0 .003 1.6-.003-1.6Zm2.65-.006c-.851 0-1.738.003-2.651.006l.006 1.6a775.83 775.83 0 0 1 2.644-.006v-1.6Zm6.436.002L29.495.192v1.6l6.436.002v-1.6Zm.002 0h-.002v1.6h.002v-1.6Zm10.48-.197c-3.46.168-6.128.197-10.48.197v1.6c4.36 0 7.059-.03 10.558-.198l-.077-1.599Zm1.565 1.114a1.558 1.558 0 0 0-1.557-1.114l.063 1.599a.032.032 0 0 1-.02-.006.063.063 0 0 1-.023-.034l1.537-.445Zm-.733 1.775a1.54 1.54 0 0 0 .733-1.775l-1.536.445a.06.06 0 0 1 .026-.07l.777 1.4Zm-2.009.838c.772-.25 1.448-.527 2.008-.838l-.776-1.4c-.443.246-1.016.487-1.725.716l.493 1.522Zm.554.741V2.963h-1.6v1.502h1.6Zm-1.405 2.264a2.5 2.5 0 0 0 1.405-2.264h-1.6a.902.902 0 0 1-.52.833l.715 1.43Zm-1.151.276a2.57 2.57 0 0 0 1.15-.276l-.714-1.432a.973.973 0 0 1-.436.107v1.6Zm-1.511-.502c.448.33.975.502 1.511.502v-1.6a.944.944 0 0 1-.563-.19l-.948 1.288Zm-2.419-1.776 2.42 1.776.947-1.29-2.42-1.776-.947 1.29Zm-10.791.982c4.407-.1 8.256-.384 11.379-.835l-.229-1.583c-3.04.438-6.822.719-11.187.819l.037 1.6Zm.782.727V4.91h-1.6v1.526h1.6Zm4.446-.801-5.247.001v1.6l5.248-.001v-1.6Zm9.384 3.129a15.569 15.569 0 0 0-9.383-3.13v1.6a13.97 13.97 0 0 1 8.422 2.809l.961-1.28Zm.214.165-.205-.159-.979 1.266.205.159.979-1.266Zm4.916 6.584a15.459 15.459 0 0 0-4.914-6.582l-.983 1.262a13.858 13.858 0 0 1 4.405 5.9l1.492-.58Zm-.026-.06-.006-.011-1.428.721.006.012 1.428-.722Zm.038.087-.014-.033-1.477.615.014.032 1.477-.614Zm.048.126a2.666 2.666 0 0 1-.033-.087l-1.507.536c.019.054.039.104.053.14l1.487-.59Zm0-.003-1.486.594 1.486-.594Zm.045.118a4.616 4.616 0 0 0-.044-.115l-1.488.589.03.075 1.502-.548Zm.293.752-.299-.768-1.49.581.298.767 1.49-.58Zm-.789 1.09h.043v-1.6h-.043v1.6Zm1.427 3.408c0-1.542-.233-3.034-.661-4.441l-1.53.466a13.65 13.65 0 0 1 .591 3.975h1.6Zm-3.618-6.49h-10.93v1.6h10.93v-1.6Zm0 0v1.6-1.6Zm-4.055-3.032a12.43 12.43 0 0 1 3.337 4.184l1.437-.704a14.03 14.03 0 0 0-3.767-4.723L41.62 11.51Zm-6.874.178h7.378v-1.6h-7.378v1.6Zm.55-.552c0 .316-.25.553-.55.553v-1.6c-.569 0-1.05.464-1.05 1.047h1.6Zm0 3.958v-3.958h-1.6v3.958h1.6Zm-.55-.552c.3 0 .55.236.55.552h-1.6c0 .583.481 1.048 1.05 1.048v-1.6Zm8.965-9.137c.154-.076.313-.198.429-.385.116-.187.154-.383.154-.554h-1.6c0-.068.017-.177.087-.29A.555.555 0 0 1 43 3.97l.71 1.434Zm-1.091-.096a1.035 1.035 0 0 0 1.09.096L43 3.97a.553.553 0 0 1 .291-.05.552.552 0 0 1 .276.1l-.948 1.288Zm-1.257-.92 1.258.921.946-1.29-1.258-.922-.946 1.29Zm1.942-1.78a34.12 34.12 0 0 1-1.618.348l.299 1.572a33.972 33.972 0 0 0 1.698-.366l-.379-1.555Zm.99 1.857v-1.08h-1.6v1.08h1.6ZM24.84 3.291l-.006-1.6.006 1.6Zm-3.335.006c1.132 0 2.248-.003 3.334-.006l-.005-1.6c-1.086.003-2.2.006-3.33.006v1.6Zm-.072-1.596.144 1.593-.144-1.593ZM8.035 2.977c4.227.27 9.03.32 13.47.32v-1.6c-4.436 0-9.195-.05-13.368-.317l-.102 1.597Zm16.712-.311c-6.789 0-12.54-.531-16.514-1.274l-.294 1.573c4.094.765 9.947 1.3 16.808 1.3v-1.6Zm15.612-.993c-3.925.63-9.365.993-15.612.993v1.6c6.296 0 11.828-.365 15.866-1.014l-.254-1.58Zm-4.423 1.61c1.728 0 3.198-.005 4.56-.02l-.019-1.6c-1.353.015-2.816.02-4.54.02v1.6Zm-.002 0h.002v-1.6h-.002v1.6Zm-6.439-.005 6.438.006.002-1.6-6.439-.006-.001 1.6Zm-3.684.01c1.284-.006 2.519-.01 3.685-.01v-1.6c-1.17 0-2.407.004-3.693.01l.008 1.6Zm-.971.003.97-.003-.005-1.6-.97.003.005 1.6Zm-.094.86c-3.022 0-6.176-.122-9.164-.358l-.126 1.595c3.031.24 6.227.362 9.29.362v-1.6Zm2.24-.016c-.734.01-1.48.015-2.24.015v1.6c.768 0 1.521-.006 2.26-.015l-.02-1.6Zm.81 2.3v-1.5h-1.6v1.5h1.6Zm-12.277.8h11.477v-1.6H15.519v1.6Zm-.8-2.644v1.843h1.6V4.591h-1.6ZM10.5 28.89c-1.359 0-2.45-1.091-2.45-2.416h-1.6c0 2.224 1.823 4.016 4.05 4.016v-1.6Zm2.45-2.416c0 1.325-1.092 2.416-2.45 2.416v1.6c2.226 0 4.05-1.792 4.05-4.016h-1.6Zm-2.45-2.416c1.358 0 2.45 1.091 2.45 2.416h1.6c0-2.224-1.823-4.016-4.05-4.016v1.6Zm-2.45 2.416c0-1.325 1.091-2.416 2.45-2.416v-1.6c-2.227 0-4.05 1.792-4.05 4.016h1.6Zm25.146 0c0 2.224 1.822 4.016 4.05 4.016v-1.6c-1.36 0-2.45-1.091-2.45-2.416h-1.6Zm4.05-4.016c-2.227 0-4.05 1.792-4.05 4.016h1.6c0-1.325 1.09-2.416 2.45-2.416v-1.6Zm4.049 4.016c0-2.224-1.823-4.016-4.05-4.016v1.6c1.359 0 2.45 1.091 2.45 2.416h1.6Zm-4.05 4.016c2.227 0 4.05-1.792 4.05-4.016h-1.6c0 1.325-1.091 2.416-2.45 2.416v1.6Zm5.475-4.886c-.424-2.625-2.717-4.63-5.475-4.63v1.6c1.968 0 3.596 1.43 3.895 3.285l1.58-.255Zm5.273-.672H41.93v1.6h6.063v-1.6Zm-.8.305v.495h1.6v-.495h-1.6Zm-3.699.8h4.5v-1.6h-4.5v1.6Zm-.8-2.285v1.485h1.6v-1.485h-1.6Zm4.3-.8h-3.5v1.6h3.5v-1.6Zm-.8-1.919v2.72h1.6v-2.72h-1.6Zm-.66-3.948c.425 1.241.66 2.566.66 3.948h1.6c0-1.564-.266-3.065-.747-4.467l-1.513.519Zm-10.788.54H46.29v-1.6H34.745v1.6Zm-2.55-2.531c0 1.404 1.15 2.531 2.55 2.531v-1.6a.943.943 0 0 1-.95-.931h-1.6Zm0-3.959v3.959h1.6v-3.959h-1.6Zm2.55-2.532c-1.4 0-2.55 1.128-2.55 2.532h1.6c0-.505.419-.932.95-.932v-1.6Zm5.11 0h-5.11v1.6h5.11v-1.6Zm-6.112.116c2.07 0 4.025.507 5.745 1.395l.734-1.421a14.09 14.09 0 0 0-6.48-1.574v1.6Zm-25.492 0h25.492v-1.6H8.25v1.6ZM4.3 12.621c0-2.141 1.765-3.901 3.95-3.901v-1.6c-3.054 0-5.55 2.46-5.55 5.501h1.6Zm0 2.72v-2.72H2.7v2.72h1.6Zm6.734-.8H3.5v1.6h7.534v-1.6Zm.8 2.284v-1.484h-1.6v1.484h1.6Zm-8.334.8h7.534v-1.6H3.5v1.6Zm.8 6.127v-6.927H2.7v6.927h1.6Zm.2-.8h-1v1.6h1v-1.6Zm.8 2.285v-1.485H3.7v1.485h1.6Zm-3.8.8h3v-1.6h-3v1.6Zm.8-.305v-.495H.7v.495h1.6Zm3.514-.8H1.5v1.6h4.314v-1.6Zm4.685-3.959c-2.758 0-5.05 2.006-5.475 4.63l1.58.257a3.94 3.94 0 0 1 3.895-3.287v-1.6Zm5.474 4.631c-.423-2.625-2.717-4.63-5.474-4.63v1.6c1.968 0 3.596 1.43 3.895 3.285l1.58-.255Zm16.587-.672H15.183v1.6H32.56v-1.6Zm4.684-3.959c-2.758 0-5.049 2.006-5.474 4.63l1.58.257a3.94 3.94 0 0 1 3.894-3.287v-1.6Z" mask="url(#ia)"/><mask id="ib"><path fill-rule="evenodd" clip-rule="evenodd" d="M22.497 11.135v3.958c0 .955-.785 1.732-1.75 1.732h-5a1.743 1.743 0 0 1-1.749-1.732v-3.958c0-.955.785-1.732 1.75-1.732h4.999c.965 0 1.75.777 1.75 1.732Zm-7 0v3.958c0 .136.116.248.25.248h5c.136 0 .25-.114.25-.248v-3.958a.253.253 0 0 0-.25-.248h-5a.253.253 0 0 0-.25.248Z"/></mask><path d="M23.497 15.093v-3.958h-2v3.958h2Zm-2.75 2.732c1.507 0 2.75-1.215 2.75-2.732h-2a.743.743 0 0 1-.75.732v2Zm-5 0h5v-2h-5v2Zm-2.749-2.732c0 1.517 1.243 2.732 2.75 2.732v-2a.743.743 0 0 1-.75-.732h-2Zm0-3.958v3.958h2v-3.958h-2Zm2.75-2.732c-1.507 0-2.75 1.215-2.75 2.732h2c0-.393.328-.732.75-.732v-2Zm4.999 0h-5v2h5v-2Zm2.75 2.732c0-1.517-1.243-2.732-2.75-2.732v2c.422 0 .75.339.75.732h2Zm-7 3.958v-3.958h-2v3.958h2Zm-.75-.752c.403 0 .75.32.75.752h-2c0 .703.579 1.248 1.25 1.248v-2Zm5 0h-5v2h5v-2Zm-.75.752c0-.429.343-.752.75-.752v2c.678 0 1.25-.552 1.25-1.248h-2Zm0-3.958v3.958h2v-3.958h-2Zm.75.752a.747.747 0 0 1-.75-.752h2c0-.696-.572-1.248-1.25-1.248v2Zm-5 0h5v-2h-5v2Zm.75-.752a.747.747 0 0 1-.75.752v-2c-.676 0-1.25.552-1.25 1.248h2Z" mask="url(#ib)"/><mask id="ic"><path fill-rule="evenodd" clip-rule="evenodd" d="M25.246 9.403h5c.964 0 1.75.777 1.75 1.732v3.958c0 .955-.786 1.732-1.75 1.732h-5c-.964 0-1.75-.777-1.75-1.732v-3.958c0-.955.786-1.732 1.75-1.732Zm5 5.938c.135 0 .25-.114.25-.248v-3.958a.253.253 0 0 0-.25-.248h-5a.253.253 0 0 0-.25.248v3.958c0 .133.116.248.25.248h5Z"/></mask><path d="M30.245 8.403h-4.999v2h5v-2Zm2.75 2.732c0-1.517-1.242-2.732-2.75-2.732v2c.423 0 .75.339.75.732h2Zm0 3.958v-3.958h-2v3.958h2Zm-2.75 2.732c1.508 0 2.75-1.215 2.75-2.732h-2a.743.743 0 0 1-.75.732v2Zm-4.999 0h5v-2h-5v2Zm-2.75-2.732c0 1.517 1.243 2.732 2.75 2.732v-2a.743.743 0 0 1-.75-.732h-2Zm0-3.958v3.958h2v-3.958h-2Zm2.75-2.732c-1.507 0-2.75 1.215-2.75 2.732h2c0-.393.328-.732.75-.732v-2Zm4.25 6.69c0-.429.343-.752.75-.752v2c.678 0 1.25-.552 1.25-1.248h-2Zm0-3.958v3.958h2v-3.958h-2Zm.75.752a.747.747 0 0 1-.75-.752h2c0-.696-.572-1.248-1.25-1.248v2Zm-5 0h5v-2h-5v2Zm.75-.752a.747.747 0 0 1-.75.752v-2c-.677 0-1.25.552-1.25 1.248h2Zm0 3.958v-3.958h-2v3.958h2Zm-.75-.752c.408 0 .75.323.75.752h-2c0 .696.573 1.248 1.25 1.248v-2Zm5 0h-5v2h5v-2Z" mask="url(#ic)"/><mask id="id"><path fill-rule="evenodd" clip-rule="evenodd" d="M35.245 26.473a1.99 1.99 0 0 1 2-1.979c1.103 0 2 .89 2 1.98a1.992 1.992 0 0 1-2 1.979c-1.104 0-2-.888-2-1.98Zm1.5 0c0 .273.224.495.5.495.275 0 .5-.222.5-.495a.498.498 0 0 0-.5-.494c-.276 0-.5.222-.5.494Z"/></mask><path d="M37.245 23.494c-1.646 0-3 1.325-3 2.98h2c0-.53.438-.98 1-.98v-2Zm3 2.98c0-1.652-1.354-2.98-3-2.98v2c.56 0 1 .45 1 .98h2Zm-3 2.979c1.645 0 3-1.326 3-2.98h-2c0 .53-.44.98-1 .98v2Zm-3-2.98c0 1.654 1.354 2.98 3 2.98v-2c-.562 0-1-.45-1-.98h-2Zm3-.505c.266 0 .5.216.5.505h-2c0 .835.681 1.495 1.5 1.495v-2Zm-.5.505a.5.5 0 0 1 .5-.505v2c.817 0 1.5-.66 1.5-1.495h-2Zm.5.506a.502.502 0 0 1-.5-.506h2c0-.834-.683-1.494-1.5-1.494v2Zm.5-.506c0 .29-.234.506-.5.506v-2c-.819 0-1.5.66-1.5 1.494h2Z" mask="url(#id)"/><mask id="ie"><path fill-rule="evenodd" clip-rule="evenodd" d="M8.5 26.473a1.99 1.99 0 0 1 2-1.979c1.103 0 2 .89 2 1.98a1.992 1.992 0 0 1-2 1.979c-1.104 0-2-.89-2-1.98Zm1.499 0c0 .273.224.495.5.495.275 0 .5-.222.5-.495a.498.498 0 0 0-.5-.494c-.276 0-.5.222-.5.494Z"/></mask><path d="M10.5 23.494c-1.647 0-3 1.325-3 2.98h2c0-.53.438-.98 1-.98v-2Zm3 2.98c0-1.652-1.354-2.98-3-2.98v2c.56 0 1 .45 1 .98h2Zm-3 2.979c1.645 0 3-1.326 3-2.98h-2c0 .53-.44.98-1 .98v2Zm-3-2.98c0 1.652 1.353 2.98 3 2.98v-2c-.561 0-1-.451-1-.98h-2Zm2.999-.505c.267 0 .5.216.5.505h-2c0 .835.682 1.495 1.5 1.495v-2Zm-.5.505c0-.29.233-.505.5-.505v2c.818 0 1.5-.66 1.5-1.495h-2Zm.5.506a.502.502 0 0 1-.5-.506h2c0-.834-.682-1.494-1.5-1.494v2Zm.5-.506c0 .29-.233.506-.5.506v-2c-.818 0-1.5.66-1.5 1.494h2Z" mask="url(#ie)"/><path d="M16.498 24.252h14.497v.484H16.498v-.484Z"/></svg><svg viewBox="0 0 25 21" id="right-arrow" xmlns="http://www.w3.org/2000/svg"><path d="m15.632 19.587 8.212-8.15a1.92 1.92 0 0 0 0-2.72L15.632.563a1.957 1.957 0 0 0-2.745 0 1.922 1.922 0 0 0 0 2.719l4.805 4.767H2.28a2.013 2.013 0 1 0 0 4.026h15.44l-4.833 4.793a1.92 1.92 0 0 0 0 2.718 1.952 1.952 0 0 0 2.745.002Z"/></svg><svg viewBox="0 0 31 31" id="search" xmlns="http://www.w3.org/2000/svg"><path d="m22.437 20.71-.373.456.416.416 7.496 7.495c.249.25.249.65 0 .899a.633.633 0 0 1-.898 0l-7.49-7.49-.416-.416-.456.373a12.231 12.231 0 0 1-7.781 2.777C6.15 25.22.65 19.72.65 12.935S6.15.65 12.935.65c6.778 0 12.279 5.5 12.279 12.279 0 2.957-1.04 5.661-2.777 7.781ZM12.929 1.922c-6.082 0-11.013 4.932-11.013 11.013 0 6.081 4.931 11.013 11.013 11.013 6.081 0 11.013-4.932 11.013-11.013 0-6.081-4.932-11.013-11.013-11.013Z"/></svg><svg viewBox="0 0 22 22" id="star" xmlns="http://www.w3.org/2000/svg"><path d="m10.954 0 3.196 7.59 7.85.864-5.934 5.476L17.801 22l-6.846-4.227L4.198 22l1.735-8.07L0 8.454l7.85-.864L10.954 0Z"/></svg><svg viewBox="0 0 40 25" id="surf" xmlns="http://www.w3.org/2000/svg"><path d="m26.358 4.754.262-.236c.175-.155.345-.313.51-.469.162-.166.353-.276.521-.417.173-.135.34-.274.509-.399.35-.224.676-.472 1.007-.662.33-.184.638-.387.944-.525l.434-.224.409-.181c.52-.241.95-.388 1.247-.496.297-.096.457-.146.457-.146l.015-.005a.18.18 0 0 0 .116-.116.181.181 0 0 0-.116-.226s-.18-.057-.509-.117C32 .51 31.792.47 31.551.454c-.243-.02-.526-.05-.84-.04-.158.002-.325-.002-.5.008l-.547.05c-.386.027-.79.115-1.23.204-.224.037-.442.107-.67.177l-.706.22c-.462.194-.968.386-1.46.649-.242.136-.492.278-.743.429l-.38.228-.363.264c-.24.184-.487.37-.738.56-.26.183-.465.42-.703.638l-.701.685c-.212.251-.423.507-.63.771-.205.266-.428.53-.617.812-.181.287-.352.585-.53.882-.168.304-.356.595-.506.918-.146.329-.282.665-.42 1.002a35.75 35.75 0 0 0-.404 1.016l-.268.954-.27.96-.15.53-.118.436c-.042.147-.075.295-.122.44l-.158.423-.158.427c-.054.142-.124.274-.186.414a12.419 12.419 0 0 1-1.974 3.037 14.841 14.841 0 0 1-2.693 2.38c-.976.677-2.008 1.22-3.022 1.678a23.313 23.313 0 0 1-2.967 1.082 30.126 30.126 0 0 1-4.696.962 18.65 18.65 0 0 1-1.824.155.175.175 0 0 0-.17.151.174.174 0 0 0 .152.195h.004s.68.086 1.87.11c.595.014 1.32.008 2.152-.044a26.64 26.64 0 0 0 2.791-.306c2.031-.342 4.422-.962 6.775-2.242 1.174-.637 2.337-1.436 3.375-2.434a15.046 15.046 0 0 0 2.694-3.444c.092-.161.191-.317.276-.482l.244-.495c.165-.331.325-.665.457-1.006l.21-.51.052-.128.026-.063.007-.017-.017.051.012-.028.098-.23.395-.917.394-.909c.148-.253.285-.505.42-.756.134-.251.27-.499.392-.752.137-.247.302-.487.447-.73.144-.244.289-.485.424-.729.15-.233.314-.449.463-.673.157-.221.296-.45.448-.668l.485-.607.238-.301c.076-.103.154-.203.242-.288l.506-.535.239-.264Z"/><path fill-rule="evenodd" clip-rule="evenodd" d="M38.83 23.451c.636.284 1.007.422 1.007.422a.119.119 0 0 1 .072.153.125.125 0 0 1-.138.077s-.398-.077-1.08-.251a26.819 26.819 0 0 1-2.792-.893l-.275-.107a27.668 27.668 0 0 1-.61-.242l-.432-.19a38.979 38.979 0 0 1-.503-.22l-.37-.181-.602-.298-.74-.416-.253-.141-.318-.203-.682-.434a26.509 26.509 0 0 1-.704-.521 66.11 66.11 0 0 0-.28-.212l-.503-.44-.445-.391a69.294 69.294 0 0 0-.267-.281 34.278 34.278 0 0 1-.617-.657l-.404-.516-.201-.26-.103-.13-.025-.031-.014-.017-.002-.005s.017.031-.03-.05l-.006-.008-.041-.063-.326-.5c-.033-.054-.067-.104-.1-.154a2.46 2.46 0 0 1-.224-.382l-.153-.306c-.161-.317-.324-.637-.41-.964a33.435 33.435 0 0 0-.044-.13c-.056-.171-.113-.341-.156-.514l-.046-.285-.062-.389a4.58 4.58 0 0 0-.016-.13 2.792 2.792 0 0 1-.022-.206l.003-.342.006-.194c.003-.161.007-.321.032-.48.028-.174.064-.343.1-.511l.031-.15c.026-.144.082-.284.138-.42.028-.07.055-.137.079-.205l.12-.299c.028-.064.065-.126.102-.187a10.38 10.38 0 0 0 .154-.256c.076-.126.15-.25.235-.363l.032-.038c.256-.3.5-.586.798-.798.216-.196.468-.329.705-.454.067-.036.133-.07.197-.106.113-.05.228-.089.34-.126A8.955 8.955 0 0 0 29.148 8c.132-.044.259-.087.393-.1a3.723 3.723 0 0 1 1.465-.006c.196.042.364.088.507.13a6.638 6.638 0 0 1 .623.304c.06.035.08.111.045.171a.122.122 0 0 1-.09.062l-.017.003-.29.043c-.076.014-.164.024-.264.036l-.066.007a8.704 8.704 0 0 0-.133.039c-.091.026-.189.055-.29.08a1.271 1.271 0 0 0-.328.12 3.441 3.441 0 0 1-.156.069 1.48 1.48 0 0 0-.338.176 3.415 3.415 0 0 1-.17.103c-.117.07-.226.163-.336.256-.053.045-.106.09-.16.133-.05.059-.101.114-.154.168-.1.106-.2.21-.278.344-.276.36-.466.813-.572 1.303a1.49 1.49 0 0 1-.03.136c-.02.078-.04.155-.038.24l-.007.09a4.494 4.494 0 0 1-.028.306c-.007.073-.003.15.002.227.003.063.007.126.004.188v.053c0 .052.001.105-.001.158.002.05.01.1.018.151a2.986 2.986 0 0 1 .033.3l.02.214c.037.151.07.306.1.462.03.21.088.399.147.591.032.107.066.214.094.327.017.102.077.233.138.364l.07.154.246.544.03.068.003.005.003.007.069.116.14.23.28.465.378.495.292.38.758.819c.272.254.543.507.813.756l.28.234.563.466.859.637c.29.197.577.39.854.576l.833.519c.173.103.344.2.512.296a29.384 29.384 0 0 0 1.72.908c.436.21.818.387 1.136.528Zm-9.51-7.466c0-.001 0-.002-.002-.002l.009.014.003.004a.252.252 0 0 1-.01-.017Z"/><path d="M31.488 2.852a7.76 7.76 0 0 0-1.275.366.09.09 0 0 0-.057.082.086.086 0 0 0 .087.088c.001 0 .517.003 1.276.091.38.037.815.113 1.273.193.458.103.941.196 1.405.342.116.04.233.072.346.115l.33.146c.22.095.426.2.634.271.211.063.416.118.617.155l.583.093c.185.028.364.038.527.046.158.017.304.027.429.027.25.005.417-.013.417-.013l.007-.002.023-.005a.11.11 0 0 0 .065-.14s-.055-.15-.19-.374a3.516 3.516 0 0 0-.267-.385 3.618 3.618 0 0 0-.416-.416 3.753 3.753 0 0 0-.26-.213c-.096-.06-.192-.128-.298-.186a2.602 2.602 0 0 0-.69-.31 3.201 3.201 0 0 0-.796-.129c-.275-.024-.55-.036-.825-.05-.273-.024-.545-.021-.811-.026-.266-.007-.529.02-.78.033-.252.03-.492.043-.72.085a16.01 16.01 0 0 0-.634.116Zm5.622 6.151c.166.074.295.157.425.217.238.133.404.213.404.213l.01.005c.013.007.028.01.045.01a.1.1 0 0 0 .096-.101l-.003-.128c-.005-.084-.01-.208-.044-.36-.036-.147-.08-.335-.172-.528a3.073 3.073 0 0 0-.358-.625 6.06 6.06 0 0 0-.257-.318c-.099-.098-.197-.207-.308-.304a3.58 3.58 0 0 0-.753-.525 4.275 4.275 0 0 0-.904-.326c-.314-.085-.632-.151-.944-.224a12.705 12.705 0 0 0-1.837-.293 15.37 15.37 0 0 0-1.6-.06c-.932.012-1.545.105-1.545.105a.09.09 0 0 0-.075.07.088.088 0 0 0 .07.103s.6.115 1.476.346c.437.113.94.26 1.47.435.264.085.531.188.804.284.27.1.54.21.803.328.263.12.517.256.751.406.238.147.459.299.682.422.223.121.437.227.651.32l.595.278c.19.09.364.175.517.25Zm-.928 2.086a2.324 2.324 0 0 0-.253-.386 1.62 1.62 0 0 0-.364-.34c-.14-.1-.31-.16-.477-.225-.17-.056-.34-.111-.505-.173a7.092 7.092 0 0 0-.981-.274 7.55 7.55 0 0 0-.866-.128c-.505-.052-.848-.03-.848-.03a.076.076 0 0 0-.061.042.072.072 0 0 0 .034.096s.301.141.734.367c.214.118.458.26.714.414l.384.243c.132.08.256.173.383.26.121.092.237.194.344.299.1.11.207.207.31.29.102.083.225.138.335.195.108.058.226.1.334.143.103.045.21.081.312.111.103.03.185.065.266.087.16.048.276.068.276.068l.005.001a.096.096 0 0 0 .111-.076s.02-.11.009-.29a1.541 1.541 0 0 0-.05-.32 2.534 2.534 0 0 0-.146-.374Z"/></svg><svg viewBox="0 0 19 25" id="tide" xmlns="http://www.w3.org/2000/svg"><path d="M5.248 15.744a2.702 2.702 0 0 1-2.7-2.7.575.575 0 0 1 1.15 0c0 .856.696 1.553 1.552 1.553.855 0 1.553-.697 1.553-1.552a.575.575 0 0 1 1.148 0 2.708 2.708 0 0 1-2.703 2.699Z"/><path d="M9.5 15.744a2.702 2.702 0 0 1-2.7-2.7.575.575 0 0 1 1.15 0c0 .856.696 1.553 1.552 1.553.855 0 1.553-.697 1.553-1.552a.575.575 0 0 1 1.148 0A2.708 2.708 0 0 1 9.5 15.744Z"/><path d="M13.752 15.744a2.702 2.702 0 0 1-2.7-2.7.575.575 0 0 1 1.15 0c0 .856.696 1.553 1.552 1.553.855 0 1.553-.697 1.553-1.552a.575.575 0 0 1 1.148 0 2.708 2.708 0 0 1-2.703 2.699Z"/><path fill-rule="evenodd" clip-rule="evenodd" d="M.422 15.069c0 5.005 4.072 9.077 9.078 9.077 5.006 0 9.078-4.071 9.08-9.077C18.58 8.237 10.237.795 9.881.48a.573.573 0 0 0-.74-.016C8.784.752.422 7.592.422 15.069ZM9.484 1.678Zm0 0c-1.62 1.42-7.916 7.324-7.916 13.39 0 4.373 3.557 7.93 7.93 7.93 4.373 0 7.93-3.557 7.93-7.93.001-5.543-6.338-11.876-7.944-13.39Z"/><path d="m9.5 24.146.112-.223-.053-.026H9.5v.25Zm0 0-.112.224.053.027h.06v-.25Zm9.08-9.077h.25-.25ZM9.881.48l-.166.187.166-.187Zm-.74-.016.156.195h.001L9.141.464Zm.343 1.212.165.189.502-.439h-.667v.25Zm0 0v-.25h-.629l.457.432.172-.182Zm7.943 13.391h-.25.25ZM9.5 23.897c-4.868 0-8.828-3.96-8.828-8.828h-.5c0 5.143 4.184 9.327 9.328 9.327v-.5Zm.113.026-.225.447.225-.447Zm8.717-8.854c-.002 4.867-3.962 8.828-8.83 8.828v.5c5.144 0 9.328-4.184 9.33-9.328h-.5ZM9.716.668c.172.152 2.334 2.08 4.45 4.815 2.125 2.747 4.164 6.258 4.164 9.586h.5c0-3.505-2.132-7.13-4.268-9.891C12.418 2.406 10.23.455 10.047.293l-.331.375ZM9.298.659c.123-.1.3-.095.417.009l.332-.374A.823.823 0 0 0 8.984.27l.314.388ZM.672 15.07c0-3.652 2.046-7.175 4.171-9.843C6.963 2.566 9.126.797 9.297.66L8.984.27c-.186.15-2.381 1.944-4.532 4.645C2.306 7.608.172 11.244.172 15.069h.5ZM9.32 1.489l.328.377-.328-.377Zm.164.438v-.5.5Zm.172-.431-.344.363.344-.363Zm-.337-.006c-.816.716-2.81 2.56-4.601 4.992-1.787 2.426-3.4 5.472-3.4 8.586h.5c0-2.953 1.536-5.892 3.302-8.29C6.882 4.389 8.846 2.57 9.65 1.867l-.33-.376Zm-8 13.578c0 4.511 3.668 8.18 8.179 8.18v-.5c-4.235 0-7.68-3.445-7.68-7.68h-.5Zm8.179 8.18c4.51 0 8.18-3.67 8.18-8.18h-.5c0 4.235-3.445 7.68-7.68 7.68v.5Zm8.18-8.18c0-2.854-1.625-5.879-3.417-8.353-1.798-2.483-3.797-4.457-4.605-5.22l-.343.365c.797.751 2.77 2.701 4.543 5.149 1.78 2.457 3.322 5.37 3.321 8.059h.5Z"/></svg><svg viewBox="0 0 17 14" id="weather-arrow" xmlns="http://www.w3.org/2000/svg"><path d="m10.28 13.1 5.493-5.451a1.284 1.284 0 0 0 0-1.819L10.279.376a1.31 1.31 0 0 0-1.836 0 1.286 1.286 0 0 0 0 1.818l3.214 3.189H1.347a1.346 1.346 0 1 0 0 2.693h10.33L8.442 11.28a1.285 1.285 0 0 0 0 1.818 1.306 1.306 0 0 0 1.836.002Z"/></svg><svg viewBox="0 0 26 24" id="wind" xmlns="http://www.w3.org/2000/svg"><path d="M17.334 8.71H0v2.166h17.334A5.423 5.423 0 0 0 22.75 5.46 5.423 5.423 0 0 0 17.334.044a5.423 5.423 0 0 0-5.417 5.416h2.167a3.254 3.254 0 0 1 3.25-3.25 3.254 3.254 0 0 1 3.25 3.25 3.254 3.254 0 0 1-3.25 3.25Zm3.25 4.334H0v2.166h20.584a3.254 3.254 0 0 1 3.25 3.25 3.254 3.254 0 0 1-3.25 3.25 3.254 3.254 0 0 1-3.25-3.25h-2.167a5.423 5.423 0 0 0 5.417 5.416A5.423 5.423 0 0 0 26 18.46a5.423 5.423 0 0 0-5.416-5.416Z"/></svg></svg>