<svg width="22" height="24" viewBox="0 0 22 24" fill="none" xmlns="http://www.w3.org/2000/svg">
<path d="M11.2666 23.8879C11.6647 23.8485 12.0416 23.688 12.3444 23.4276L20.4823 16.451C20.8926 16.1225 21.1514 15.641 21.1999 15.1187C21.2483 14.5963 21.0833 14.077 20.7427 13.6773C20.4006 13.2791 19.9132 13.0354 19.3894 13.0036C18.8656 12.9718 18.351 13.1535 17.9635 13.5077L11.0849 19.4065L4.2064 13.5077C3.81888 13.1535 3.30421 12.9718 2.78044 13.0036C2.25666 13.0354 1.76924 13.2791 1.42713 13.6773C1.08653 14.077 0.921531 14.5963 0.969971 15.1187C1.01841 15.641 1.27726 16.1225 1.68751 16.451L9.82548 23.4276C10.2236 23.7698 10.7443 23.9348 11.2666 23.8879Z" fill="white"/>
<path d="M11.2666 10.8879C11.6647 10.8485 12.0416 10.688 12.3444 10.4276L20.4823 3.45102C20.8926 3.12248 21.1514 2.64104 21.1999 2.11868C21.2483 1.59633 21.0833 1.07704 20.7427 0.677315C20.4006 0.279144 19.9132 0.0353896 19.3894 0.00356854C18.8656 -0.0282258 18.351 0.153457 17.9635 0.507745L11.0849 6.40646L4.2064 0.507745C3.81888 0.153465 3.30421 -0.0282138 2.78044 0.00356854C2.25666 0.0353629 1.76924 0.279121 1.42713 0.677315C1.08653 1.077 0.921531 1.59633 0.969971 2.11868C1.01841 2.64104 1.27726 3.12246 1.68751 3.45102L9.82548 10.4276C10.2236 10.7698 10.7443 10.9348 11.2666 10.8879Z" fill="white"/>
</svg>
