<svg width="21" height="24" viewBox="0 0 21 24" fill="none" xmlns="http://www.w3.org/2000/svg">
<path d="M10.7306 22.6695L10.7319 22.6684L18.8698 15.6918L18.8825 15.6809L18.8956 15.6705C19.0938 15.5117 19.2191 15.2787 19.2425 15.0263C19.2659 14.7741 19.1867 14.5224 19.0212 14.3274C18.8539 14.1336 18.6181 14.017 18.3672 14.0017L10.7306 22.6695ZM10.7306 22.6695C10.5859 22.7939 10.4043 22.8723 10.2107 22.8923M10.7306 22.6695L10.2107 22.8923M10.2107 22.8923C9.95674 22.9139 9.70589 22.8328 9.51563 22.6692L9.51467 22.6684L1.37669 15.6918L1.364 15.6809L1.35096 15.6705C1.15268 15.5117 1.02744 15.2787 1.00403 15.0263C0.980634 14.7741 1.05989 14.5224 1.22529 14.3274C1.39258 14.1336 1.62843 14.017 1.87934 14.0017L10.2107 22.8923ZM17.6648 14.2565L17.6528 14.2668L10.7742 20.1656L10.1233 20.7238L9.47229 20.1656L2.59376 14.2668L2.58171 14.2565L2.56999 14.2458C2.38258 14.0745 2.13334 13.9863 1.87936 14.0017L17.6648 14.2565ZM17.6648 14.2565L17.6765 14.2458M17.6648 14.2565L17.6765 14.2458M17.6765 14.2458C17.8639 14.0745 18.1132 13.9863 18.3671 14.0017L17.6765 14.2458Z" stroke="white" stroke-width="2"/>
<path d="M10.7306 9.66952L10.7319 9.66842L18.8698 2.69182L18.8825 2.68094L18.8956 2.67048C19.0938 2.5117 19.2191 2.27875 19.2425 2.02634C19.2659 1.77409 19.1867 1.52242 19.0212 1.32744C18.8539 1.13357 18.6181 1.01699 18.3672 1.00173L10.7306 9.66952ZM10.7306 9.66952C10.5859 9.79394 10.4043 9.87232 10.2107 9.89232M10.7306 9.66952L10.2107 9.89232M10.2107 9.89232C9.95674 9.91387 9.70589 9.83278 9.51563 9.66925L9.51467 9.66842L1.37669 2.69182L1.364 2.68094L1.35096 2.67049C1.15268 2.51169 1.02744 2.27875 1.00403 2.02634C0.980634 1.77406 1.05989 1.52236 1.22529 1.32745C1.39258 1.13355 1.62843 1.01697 1.87934 1.00173L10.2107 9.89232ZM17.6648 1.25651L17.6528 1.26685L10.7742 7.16557L10.1233 7.72381L9.47229 7.16557L2.59376 1.26685L2.58171 1.25651L2.56999 1.2458C2.38258 1.07446 2.13334 0.986326 1.87936 1.00173L17.6648 1.25651ZM17.6648 1.25651L17.6765 1.24579M17.6648 1.25651L17.6765 1.24579M17.6765 1.24579C17.8639 1.07445 18.1132 0.986327 18.3671 1.00173L17.6765 1.24579Z" stroke="white" stroke-width="2"/>
</svg>
