<svg width="164" height="280" viewBox="0 0 164 280" fill="none" xmlns="http://www.w3.org/2000/svg">
<path fill-rule="evenodd" clip-rule="evenodd" d="M-4.00241 -10H163.969V181H-4.00241V-10Z" fill="#4AF6CD"/>
<path d="M56.2095 145.36C56.2095 142.2 56.6695 139.42 57.5895 137.02C58.5095 134.58 59.8895 132.4 61.7295 130.48L67.6095 135.46C65.3295 138.34 64.1895 141.36 64.1895 144.52C64.1895 146.16 64.5095 147.42 65.1495 148.3C65.7495 149.14 66.6095 149.56 67.7295 149.56C68.5295 149.56 69.1895 149.34 69.7095 148.9C70.2295 148.46 70.7295 147.72 71.2095 146.68C71.6895 145.64 72.2895 144 73.0095 141.76C74.3695 137.48 76.0895 134.36 78.1695 132.4C80.2095 130.4 83.0495 129.4 86.6895 129.4C89.3295 129.4 91.6695 130.08 93.7095 131.44C95.7095 132.8 97.2695 134.78 98.3895 137.38C99.5095 139.94 100.07 142.96 100.07 146.44C100.07 153.08 98.0495 158.5 94.0095 162.7L87.9495 157.24C90.6695 153.92 92.0295 150.46 92.0295 146.86C92.0295 144.98 91.6295 143.52 90.8295 142.48C89.9895 141.44 88.8895 140.92 87.5295 140.92C86.5695 140.92 85.7895 141.12 85.1895 141.52C84.5495 141.92 83.9895 142.64 83.5095 143.68C82.9895 144.68 82.4295 146.16 81.8295 148.12C80.3495 152.84 78.5695 156.16 76.4895 158.08C74.4095 160 71.7895 160.96 68.6295 160.96C66.1495 160.96 63.9695 160.3 62.0895 158.98C60.2095 157.62 58.7695 155.76 57.7695 153.4C56.7295 151 56.2095 148.32 56.2095 145.36ZM85.0095 91.9553C87.8895 91.9553 90.4695 92.5953 92.7495 93.8753C95.0295 95.1153 96.8295 96.9953 98.1495 99.5153C99.4295 102.035 100.07 105.115 100.07 108.755C100.07 114.275 98.7295 118.455 96.0495 121.295C93.3295 124.135 89.6495 125.555 85.0095 125.555H57.2895V114.455H84.6495C87.1695 114.455 89.0295 114.015 90.2295 113.135C91.3895 112.215 91.9695 110.755 91.9695 108.755C91.9695 106.755 91.3695 105.315 90.1695 104.435C88.9695 103.555 87.1295 103.115 84.6495 103.115H57.2895V91.9553H85.0095ZM83.6295 71.9477V75.0077H98.9895V86.1077H57.2895V71.6477C57.2895 65.7677 58.3495 61.3877 60.4695 58.5077C62.5895 55.5877 65.8495 54.1277 70.2495 54.1277C72.8895 54.1277 75.0895 54.7477 76.8495 55.9877C78.6095 57.1877 80.1895 59.1277 81.5895 61.8077L98.9895 51.4277V63.7877L83.6295 71.9477ZM76.0695 75.0077V71.2877C76.0695 67.4477 74.1295 65.5277 70.2495 65.5277C68.4495 65.5277 67.1295 66.0677 66.2895 67.1477C65.4495 68.1877 65.0295 69.7677 65.0295 71.8877V75.0077H76.0695ZM98.9895 48.9006H57.2895V23.2806L65.1495 24.4206V37.8006H75.1695V26.0406H83.0295V37.8006H98.9895V48.9006Z" fill="white"/>
<path d="M56.2095 257.92C56.2095 252.36 57.9695 247.58 61.4895 243.58L67.1895 249.04C66.1095 250.56 65.3295 251.94 64.8495 253.18C64.3295 254.38 64.0695 255.76 64.0695 257.32C64.0695 260.32 65.2295 262.68 67.5495 264.4C69.8695 266.08 73.4095 266.92 78.1695 266.92C81.6495 266.92 84.4095 266.64 86.4495 266.08C88.4495 265.52 89.8895 264.68 90.7695 263.56C91.6495 262.4 92.0895 260.92 92.0895 259.12C92.0895 257.32 91.7095 255.68 90.9495 254.2H82.3695V258.94L74.7495 260.02V243.46H95.5095C96.9495 245.62 98.0695 248.06 98.8695 250.78C99.6695 253.5 100.07 256.18 100.07 258.82C100.07 271.86 92.7495 278.38 78.1095 278.38C73.5495 278.38 69.6295 277.5 66.3495 275.74C63.0295 273.94 60.5095 271.5 58.7895 268.42C57.0695 265.34 56.2095 261.84 56.2095 257.92ZM56.2095 220.335C56.2095 214.295 58.1295 209.595 61.9695 206.235C65.8095 202.875 71.1895 201.195 78.1095 201.195C82.6295 201.195 86.5495 201.955 89.8695 203.475C93.1495 204.955 95.6695 207.135 97.4295 210.015C99.1895 212.895 100.07 216.335 100.07 220.335C100.07 226.375 98.1495 231.075 94.3095 234.435C90.4695 237.755 85.0695 239.415 78.1095 239.415C73.5895 239.415 69.6895 238.675 66.4095 237.195C63.1295 235.675 60.6095 233.495 58.8495 230.655C57.0895 227.775 56.2095 224.335 56.2095 220.335ZM64.1895 220.335C64.1895 222.935 65.2695 224.855 67.4295 226.095C69.5895 227.295 73.1495 227.895 78.1095 227.895C83.0695 227.895 86.6495 227.275 88.8495 226.035C91.0095 224.795 92.0895 222.895 92.0895 220.335C92.0895 217.695 91.0095 215.775 88.8495 214.575C86.6895 213.375 83.1095 212.775 78.1095 212.775C73.1495 212.775 69.5895 213.375 67.4295 214.575C65.2695 215.775 64.1895 217.695 64.1895 220.335Z" fill="white"/>
<path d="M78.9833 191V171H79.9833V191H78.9833Z" fill="white"/>
</svg>
