<svg width="87" height="258" viewBox="0 0 87 258" fill="none" xmlns="http://www.w3.org/2000/svg">
<path d="M36.9833 169V149H37.9833V169H36.9833Z" fill="white"/>
<path d="M14.2095 123.36C14.2095 120.2 14.6695 117.42 15.5895 115.02C16.5095 112.58 17.8895 110.4 19.7295 108.48L25.6095 113.46C23.3295 116.34 22.1895 119.36 22.1895 122.52C22.1895 124.16 22.5095 125.42 23.1495 126.3C23.7495 127.14 24.6095 127.56 25.7295 127.56C26.5295 127.56 27.1895 127.34 27.7095 126.9C28.2295 126.46 28.7295 125.72 29.2095 124.68C29.6895 123.64 30.2895 122 31.0095 119.76C32.3695 115.48 34.0895 112.36 36.1695 110.4C38.2095 108.4 41.0495 107.4 44.6895 107.4C47.3295 107.4 49.6695 108.08 51.7095 109.44C53.7095 110.8 55.2695 112.78 56.3895 115.38C57.5095 117.94 58.0695 120.96 58.0695 124.44C58.0695 131.08 56.0495 136.5 52.0095 140.7L45.9495 135.24C48.6695 131.92 50.0295 128.46 50.0295 124.86C50.0295 122.98 49.6295 121.52 48.8295 120.48C47.9895 119.44 46.8895 118.92 45.5295 118.92C44.5695 118.92 43.7895 119.12 43.1895 119.52C42.5495 119.92 41.9895 120.64 41.5095 121.68C40.9895 122.68 40.4295 124.16 39.8295 126.12C38.3495 130.84 36.5695 134.16 34.4895 136.08C32.4095 138 29.7895 138.96 26.6295 138.96C24.1495 138.96 21.9695 138.3 20.0895 136.98C18.2095 135.62 16.7695 133.76 15.7695 131.4C14.7295 129 14.2095 126.32 14.2095 123.36ZM43.0095 69.9553C45.8895 69.9553 48.4695 70.5953 50.7495 71.8753C53.0295 73.1153 54.8295 74.9953 56.1495 77.5153C57.4295 80.0353 58.0695 83.1153 58.0695 86.7553C58.0695 92.2753 56.7295 96.4553 54.0495 99.2953C51.3295 102.135 47.6495 103.555 43.0095 103.555H15.2895L15.2895 92.4553H42.6495C45.1695 92.4553 47.0295 92.0153 48.2295 91.1353C49.3895 90.2153 49.9695 88.7553 49.9695 86.7553C49.9695 84.7553 49.3695 83.3153 48.1695 82.4353C46.9695 81.5553 45.1295 81.1153 42.6495 81.1153H15.2895V69.9553H43.0095ZM41.6295 49.9477V53.0077H56.9895V64.1077H15.2895V49.6477C15.2895 43.7677 16.3495 39.3877 18.4695 36.5077C20.5895 33.5877 23.8495 32.1277 28.2495 32.1277C30.8895 32.1277 33.0895 32.7477 34.8495 33.9877C36.6095 35.1877 38.1895 37.1277 39.5895 39.8077L56.9895 29.4277V41.7877L41.6295 49.9477ZM34.0695 53.0077V49.2877C34.0695 45.4477 32.1295 43.5277 28.2495 43.5277C26.4495 43.5277 25.1295 44.0677 24.2895 45.1477C23.4495 46.1877 23.0295 47.7677 23.0295 49.8877V53.0077H34.0695ZM56.9895 26.9006H15.2895L15.2895 1.28062L23.1495 2.42062V15.8006H33.1695V4.04062H41.0295V15.8006H56.9895V26.9006Z" fill="white"/>
<path d="M14.2095 235.92C14.2095 230.36 15.9695 225.58 19.4895 221.58L25.1895 227.04C24.1095 228.56 23.3295 229.94 22.8495 231.18C22.3295 232.38 22.0695 233.76 22.0695 235.32C22.0695 238.32 23.2295 240.68 25.5495 242.4C27.8695 244.08 31.4095 244.92 36.1695 244.92C39.6495 244.92 42.4095 244.64 44.4495 244.08C46.4495 243.52 47.8895 242.68 48.7695 241.56C49.6495 240.4 50.0895 238.92 50.0895 237.12C50.0895 235.32 49.7095 233.68 48.9495 232.2H40.3695V236.94L32.7495 238.02V221.46H53.5095C54.9495 223.62 56.0695 226.06 56.8695 228.78C57.6695 231.5 58.0695 234.18 58.0695 236.82C58.0695 249.86 50.7495 256.38 36.1095 256.38C31.5495 256.38 27.6295 255.5 24.3495 253.74C21.0295 251.94 18.5095 249.5 16.7895 246.42C15.0695 243.34 14.2095 239.84 14.2095 235.92ZM14.2095 198.335C14.2095 192.295 16.1295 187.595 19.9695 184.235C23.8095 180.875 29.1895 179.195 36.1095 179.195C40.6295 179.195 44.5495 179.955 47.8695 181.475C51.1495 182.955 53.6695 185.135 55.4295 188.015C57.1895 190.895 58.0695 194.335 58.0695 198.335C58.0695 204.375 56.1495 209.075 52.3095 212.435C48.4695 215.755 43.0695 217.415 36.1095 217.415C31.5895 217.415 27.6895 216.675 24.4095 215.195C21.1295 213.675 18.6095 211.495 16.8495 208.655C15.0895 205.775 14.2095 202.335 14.2095 198.335ZM22.1895 198.335C22.1895 200.935 23.2695 202.855 25.4295 204.095C27.5895 205.295 31.1495 205.895 36.1095 205.895C41.0695 205.895 44.6495 205.275 46.8495 204.035C49.0095 202.795 50.0895 200.895 50.0895 198.335C50.0895 195.695 49.0095 193.775 46.8495 192.575C44.6895 191.375 41.1095 190.775 36.1095 190.775C31.1495 190.775 27.5895 191.375 25.4295 192.575C23.2695 193.775 22.1895 195.695 22.1895 198.335Z" fill="white"/>
</svg>
