<svg width="11" height="13" viewBox="0 0 11 13" fill="none" xmlns="http://www.w3.org/2000/svg">
<path fill-rule="evenodd" clip-rule="evenodd" d="M5.39189 0C6.61692 0 7.80632 0.413726 8.74411 1.16506V1.16503C9.96914 2.14588 10.6897 3.54052 10.7768 5.09108C10.8603 6.62194 10.2883 8.1197 9.2081 9.20006L5.62743 12.7345C5.48873 12.872 5.24816 12.8708 5.10945 12.7333L1.57938 9.2026C0.496753 8.11979 -0.0764777 6.62081 0.00821713 5.09111C0.0941281 3.54062 0.815887 2.14597 2.03966 1.16506C2.97623 0.413726 4.16688 0 5.39189 0ZM2.98607 5.38963C2.98607 6.71674 4.06517 7.79587 5.39231 7.79587C6.71941 7.79587 7.79977 6.71677 7.79854 5.38963C7.79854 4.06253 6.71944 2.9834 5.39231 2.9834C4.0652 2.9834 2.98607 4.0625 2.98607 5.38963Z" fill="white"/>
<path d="M5.39211 4.2168C4.74512 4.2168 4.21967 4.74225 4.21967 5.38924C4.21967 6.03623 4.74512 6.56168 5.39211 6.56168C6.0391 6.56168 6.56455 6.03623 6.56455 5.38924C6.56455 4.74225 6.0391 4.2168 5.39211 4.2168Z" fill="white"/>
</svg>
