<svg width="16" height="44" viewBox="0 0 16 44" fill="none" xmlns="http://www.w3.org/2000/svg">
<mask id="path-1-inside-1_2783_171" fill="white">
<path fill-rule="evenodd" clip-rule="evenodd" d="M0 20.1387C0 7.05785 5.42073 0.000556585 7.63754 0C9.85465 0.000556565 15.2751 7.0574 15.2751 20.1387C15.2751 33.3556 10.5328 42.3157 10.3315 42.6907L10.1353 43.0552H5.13974L4.94359 42.6907C4.7423 42.3156 0 33.3556 0 20.1387ZM6.94346 1.84374V1.84367L6.94359 1.84363L6.94346 1.84374ZM6.94346 1.84374V23.6112H8.33211V1.84367C10.1096 3.43047 13.8867 9.20323 13.8867 20.1388C13.8867 23.7881 13.5031 27.1179 12.9563 30.0259C12.1526 28.8818 10.6754 27.3245 7.98337 25.7863C1.43783 22.045 1.51737 16.9076 1.5227 16.6907H1.52097C2.20314 7.97409 5.36386 3.25544 6.94346 1.84374ZM1.52452 23.7799C1.46551 22.9569 1.43079 22.1132 1.41169 21.2539C2.40462 23.0993 4.16643 25.205 7.29406 26.9931C11.7386 29.5341 12.4996 32.0474 12.5188 32.1107L12.5189 32.1113C12.1787 33.5975 11.8055 34.9464 11.4323 36.1339C10.8474 35.0975 9.8163 33.8231 7.99541 32.7381C2.51191 29.4724 1.64583 24.7345 1.52452 23.7799ZM8.33202 41.6668H9.29194L9.29177 41.6665C9.56776 41.097 10.1267 39.8783 10.762 38.1248C10.6266 37.5467 9.97743 35.5345 7.28344 33.9303C4.83431 32.4704 3.22348 30.7326 2.15944 29.1041C3.2964 35.7659 5.35858 40.3786 5.98345 41.6668H6.94337V36.8055H8.33202V41.6668Z"/>
</mask>
<path d="M7.63754 0L7.63779 -1L7.63728 -1L7.63754 0ZM10.3315 42.6907L11.2121 43.1645L11.2125 43.1637L10.3315 42.6907ZM10.1353 43.0552V44.0552H10.7329L11.016 43.529L10.1353 43.0552ZM5.13974 43.0552L4.2591 43.529L4.54221 44.0552H5.13974V43.0552ZM4.94359 42.6907L4.06245 43.1635L4.06296 43.1645L4.94359 42.6907ZM6.94346 1.84367L6.62128 0.896994L5.94346 1.12768V1.84367H6.94346ZM6.94359 1.84363L7.60977 2.58942L6.62141 0.89695L6.94359 1.84363ZM6.94346 23.6112H5.94346V24.6112H6.94346V23.6112ZM8.33211 23.6112V24.6112H9.33211V23.6112H8.33211ZM8.33211 1.84367L8.99807 1.09769L7.33211 -0.389565V1.84367H8.33211ZM12.9563 30.0259L12.138 30.6007L13.5009 32.5409L13.9391 30.2107L12.9563 30.0259ZM7.98337 25.7863L7.48713 26.6545L7.48725 26.6546L7.98337 25.7863ZM1.5227 16.6907L2.5224 16.7153L2.54759 15.6907H1.5227V16.6907ZM1.52097 16.6907L0.524014 16.6127L0.439646 17.6907H1.52097V16.6907ZM1.41169 21.2539L2.29231 20.78L0.411939 21.2761L1.41169 21.2539ZM1.52452 23.7799L0.527082 23.8514L0.529043 23.8787L0.532498 23.9059L1.52452 23.7799ZM7.29406 26.9931L6.79774 27.8612L6.79775 27.8612L7.29406 26.9931ZM12.5188 32.1107L13.476 31.8214L13.4759 31.8209L12.5188 32.1107ZM12.5189 32.1113L13.4937 32.3345L13.5529 32.0759L13.4762 31.822L12.5189 32.1113ZM11.4323 36.1339L10.5615 36.6254L11.695 38.6337L12.3863 36.4337L11.4323 36.1339ZM7.99541 32.7381L8.50731 31.879L8.50708 31.8789L7.99541 32.7381ZM9.29194 41.6668V42.6668H11.0086L10.1618 41.1735L9.29194 41.6668ZM8.33202 41.6668H7.33202V42.6668H8.33202V41.6668ZM9.29177 41.6665L8.39189 41.2303L8.16284 41.7029L8.4219 42.1598L9.29177 41.6665ZM10.762 38.1248L11.7022 38.4654L11.8034 38.1861L11.7357 37.8968L10.762 38.1248ZM7.28344 33.9303L6.77142 34.7893L6.77181 34.7896L7.28344 33.9303ZM2.15944 29.1041L2.99658 28.5571L1.17369 29.2724L2.15944 29.1041ZM5.98345 41.6668L5.08371 42.1032L5.35708 42.6668H5.98345V41.6668ZM6.94337 41.6668V42.6668H7.94337V41.6668H6.94337ZM6.94337 36.8055V35.8055H5.94337V36.8055H6.94337ZM8.33202 36.8055H9.33202V35.8055H8.33202V36.8055ZM7.63728 -1C7.1087 -0.999867 6.59938 -0.795992 6.15431 -0.526051C5.69772 -0.249123 5.23583 0.141348 4.78276 0.61992C3.87566 1.57809 2.93576 2.96162 2.086 4.73139C0.383009 8.27814 -1 13.4625 -1 20.1387H1C1 13.734 2.32736 8.84932 3.88893 5.59708C4.67145 3.96736 5.50239 2.76891 6.23515 1.9949C6.60201 1.60739 6.92731 1.34422 7.19148 1.184C7.46717 1.01679 7.61217 1.00001 7.63779 1L7.63728 -1ZM16.2751 20.1387C16.2751 13.4623 14.8921 8.27793 13.1892 4.73123C12.3394 2.96148 11.3996 1.57798 10.4924 0.619836C10.0393 0.141277 9.57743 -0.249179 9.12081 -0.526094C8.6757 -0.79603 8.16637 -0.999867 7.63779 -1L7.63729 1C7.66298 1.00001 7.80803 1.01682 8.08372 1.18401C8.3479 1.34422 8.67321 1.60737 9.04008 1.99486C9.77283 2.76882 10.6038 3.96722 11.3863 5.59691C12.9478 8.84909 14.2751 13.7337 14.2751 20.1387H16.2751ZM11.2125 43.1637C11.4548 42.7125 16.2751 33.5845 16.2751 20.1387H14.2751C14.2751 33.1266 9.61086 41.9188 9.45045 42.2176L11.2125 43.1637ZM11.016 43.529L11.2121 43.1645L9.45084 42.2169L9.25469 42.5815L11.016 43.529ZM5.13974 44.0552H10.1353V42.0552H5.13974V44.0552ZM4.06296 43.1645L4.2591 43.529L6.02038 42.5815L5.82423 42.2169L4.06296 43.1645ZM-1 20.1387C-1 33.5846 3.82037 42.7124 4.06245 43.1635L5.82474 42.2178C5.66422 41.9187 1 33.1265 1 20.1387H-1ZM5.94346 1.84367V1.84374H7.94346V1.84367H5.94346ZM6.62141 0.89695L6.62128 0.896994L7.26564 2.79035L7.26577 2.79031L6.62141 0.89695ZM7.60964 2.58954L7.60977 2.58942L6.27741 1.09784L6.27728 1.09795L7.60964 2.58954ZM7.94346 23.6112V1.84374H5.94346V23.6112H7.94346ZM8.33211 22.6112H6.94346V24.6112H8.33211V22.6112ZM7.33211 1.84367V23.6112H9.33211V1.84367H7.33211ZM14.8867 20.1388C14.8867 8.99726 11.0406 2.92109 8.99807 1.09769L7.66615 2.58966C9.17858 3.93985 12.8867 9.4092 12.8867 20.1388H14.8867ZM13.9391 30.2107C14.4958 27.2501 14.8867 23.8581 14.8867 20.1388H12.8867C12.8867 23.7181 12.5104 26.9857 11.9735 29.8411L13.9391 30.2107ZM7.48725 26.6546C10.0597 28.1244 11.424 29.5843 12.138 30.6007L13.7746 29.4511C12.8812 28.1794 11.2912 26.5246 8.47948 24.918L7.48725 26.6546ZM0.523003 16.6662C0.512412 17.0969 0.508127 22.6654 7.48713 26.6545L8.47961 24.9181C2.36753 21.4245 2.52233 16.7183 2.5224 16.7153L0.523003 16.6662ZM1.52097 17.6907H1.5227V15.6907H1.52097V17.6907ZM6.27709 1.09812C4.45864 2.72329 1.22079 7.7095 0.524014 16.6127L2.51792 16.7688C3.18549 8.23868 6.26909 3.78759 7.60983 2.58937L6.27709 1.09812ZM0.411939 21.2761C0.4313 22.1474 0.466608 23.0081 0.527082 23.8514L2.52196 23.7083C2.4644 22.9057 2.43027 22.079 2.41145 21.2317L0.411939 21.2761ZM7.79038 26.125C4.82535 24.4298 3.19663 22.4607 2.29231 20.78L0.531073 21.7277C1.61261 23.7378 3.50751 25.9802 6.79774 27.8612L7.79038 26.125ZM13.4759 31.8209C13.3858 31.5235 12.4662 28.7981 7.79038 26.125L6.79775 27.8612C8.91572 29.0721 10.116 30.2528 10.7791 31.0982C11.1115 31.5219 11.3121 31.8655 11.4266 32.0923C11.484 32.2059 11.52 32.2908 11.5403 32.3424C11.5504 32.3683 11.5567 32.3859 11.5597 32.3949C11.5613 32.3993 11.562 32.4017 11.5621 32.402C11.5622 32.4022 11.5621 32.402 11.5619 32.4014C11.5617 32.4007 11.5615 32.4 11.5617 32.4005L13.4759 31.8209ZM13.4762 31.822L13.476 31.8214L11.5615 32.4L11.5617 32.4006L13.4762 31.822ZM12.3863 36.4337C12.7672 35.2217 13.1474 33.8472 13.4937 32.3345L11.5442 31.8882C11.21 33.3477 10.8438 34.6711 10.4783 35.8341L12.3863 36.4337ZM7.48351 33.5971C9.14277 34.5859 10.055 35.728 10.5615 36.6254L12.3032 35.6424C11.6398 34.4669 10.4898 33.0604 8.50731 31.879L7.48351 33.5971ZM0.532498 23.9059C0.674631 25.0244 1.63371 30.1133 7.48373 33.5973L8.50708 31.8789C3.3901 28.8315 2.61703 24.4446 2.51654 23.6538L0.532498 23.9059ZM9.29194 40.6668H8.33202V42.6668H9.29194V40.6668ZM8.4219 42.1598L8.42207 42.1601L10.1618 41.1735L10.1616 41.1732L8.4219 42.1598ZM9.82181 37.7841C9.19981 39.5009 8.6549 40.6877 8.39189 41.2303L10.1916 42.1026C10.4806 41.5064 11.0536 40.2556 11.7022 38.4654L9.82181 37.7841ZM6.77181 34.7896C9.17945 36.2232 9.69923 37.9723 9.78835 38.3528L11.7357 37.8968C11.554 37.121 10.7754 34.8458 7.79507 33.0711L6.77181 34.7896ZM1.32229 29.6511C2.46365 31.3979 4.18261 33.2461 6.77142 34.7893L7.79547 33.0714C5.48601 31.6947 3.9833 30.0673 2.99658 28.5571L1.32229 29.6511ZM6.88318 41.2304C6.28702 40.0014 4.26209 35.4802 3.14518 28.9359L1.17369 29.2724C2.3307 36.0516 4.43013 40.7559 5.08371 42.1032L6.88318 41.2304ZM6.94337 40.6668H5.98345V42.6668H6.94337V40.6668ZM5.94337 36.8055V41.6668H7.94337V36.8055H5.94337ZM8.33202 35.8055H6.94337V37.8055H8.33202V35.8055ZM9.33202 41.6668V36.8055H7.33202V41.6668H9.33202Z" fill="white" mask="url(#path-1-inside-1_2783_171)"/>
</svg>
