<svg width="59" height="46" viewBox="0 0 59 46" fill="none" xmlns="http://www.w3.org/2000/svg">
<mask id="path-1-inside-1_2783_177" fill="white">
<path fill-rule="evenodd" clip-rule="evenodd" d="M58.2506 42.4858C58.2411 42.5143 58.2294 42.5427 58.2153 42.5689L58.2157 42.5685C58.2016 42.597 58.1875 42.6231 58.1593 42.642C58.1428 42.6682 58.1264 42.6895 58.1099 42.7132C58.0973 42.7292 58.0836 42.7462 58.0695 42.7629C58.0627 42.771 58.0557 42.779 58.0488 42.7868C58.03 42.8058 58.0112 42.8248 57.99 42.8438C57.9665 42.8675 57.9406 42.8889 57.9148 42.9079C57.8936 42.9221 57.8677 42.9387 57.8442 42.9529C57.8323 42.959 57.8207 42.9654 57.8091 42.972C57.7932 42.9808 57.7772 42.9898 57.7596 42.998C57.7398 43.008 57.7188 43.0157 57.6975 43.0235L57.6975 43.0235C57.6938 43.0248 57.6901 43.0262 57.6864 43.0275C57.681 43.0295 57.6756 43.0315 57.6702 43.0336C57.664 43.036 57.658 43.0386 57.6519 43.0413C57.6399 43.0466 57.6279 43.0518 57.6138 43.055C57.6114 43.0556 57.6091 43.0559 57.6069 43.056C57.6049 43.0562 57.6029 43.0562 57.6009 43.0562C57.5985 43.0562 57.5962 43.0562 57.5938 43.0564C57.5919 43.0566 57.59 43.0569 57.5879 43.0574C57.5151 43.0764 57.4398 43.0882 57.3622 43.0882C57.2564 43.0882 57.2188 43.1048 57.2188 43.1048C57.1755 43.1554 57.097 43.4084 57.0472 43.5688L57.0472 43.5689L57.0424 43.5842C56.859 44.1776 56.4758 45.4116 54.9263 45.4116C53.6009 45.4116 52.9425 44.5234 52.4608 43.8736L52.4574 43.869C52.0059 43.2543 51.8342 43.0882 51.4956 43.0882C51.1571 43.0882 50.9877 43.2543 50.5339 43.8666L50.5306 43.8711C50.0488 44.521 49.3904 45.4092 48.0627 45.4092C46.7373 45.4092 46.0789 44.521 45.5972 43.8711L45.5938 43.8666C45.1423 43.2543 44.9706 43.0882 44.6321 43.0882C44.2958 43.0882 44.1241 43.2543 43.6703 43.869C43.1907 44.5192 42.5299 45.4116 41.2014 45.4116C39.8737 45.4116 39.2153 44.5234 38.7336 43.8736L38.7302 43.869C38.2787 43.2567 38.1071 43.0906 37.7685 43.0906C37.4299 43.0906 37.2606 43.2567 36.8067 43.869C36.3271 44.5192 35.6687 45.4116 34.3378 45.4116C33.0124 45.4116 32.3541 44.5234 31.8723 43.8736L31.8689 43.869C31.4175 43.2567 31.2458 43.0906 30.9072 43.0906C30.571 43.0906 30.3993 43.2568 29.9455 43.8714C29.4658 44.5217 28.8051 45.414 27.4766 45.414C26.1512 45.414 25.4928 44.5259 25.0111 43.876L25.0077 43.8714C24.5562 43.2591 24.3846 43.093 24.046 43.093C23.7097 43.093 23.5381 43.2592 23.0843 43.8738C22.6046 44.5241 21.9438 45.4165 20.6154 45.4165C20.1944 45.4165 19.8112 45.2432 19.5408 44.93C18.8848 44.1753 19.0164 42.889 19.2868 40.8527L19.2914 40.8175C19.388 40.0808 19.5353 38.9572 19.4867 38.4107C17.7303 38.757 15.2379 42.31 13.9447 44.8945C13.7848 45.2173 13.458 45.4166 13.1053 45.4166C13.0864 45.4166 13.0676 45.4166 13.0488 45.4142C12.675 45.3929 12.3481 45.1484 12.2212 44.7925C12.0048 44.1892 10.1567 38.8188 12.0777 35.8475C12.7972 34.7368 13.9635 34.0984 15.4542 34.0011C16.7498 33.9156 17.3423 33.5644 17.4552 33.2867C17.5304 33.1016 17.4105 32.786 17.1472 32.4846C16.4465 31.68 14.8805 31.0345 13.0982 31.5234C10.6268 32.1978 7.85699 35.5416 6.92351 38.9781C6.59665 40.1861 6.24392 42.4217 7.5795 43.8052C7.9416 44.1826 7.9322 44.783 7.56069 45.1485C7.18682 45.514 6.59432 45.5068 6.22986 45.1295C4.75557 43.6036 4.3582 41.2399 5.10827 38.4774C6.0792 34.8985 9.15016 30.6338 12.6066 29.6916C15.1813 28.9892 17.4503 29.9574 18.5601 31.2319C19.329 32.1123 19.5594 33.1257 19.195 34.0133C18.8776 34.7847 17.9935 35.7387 15.5763 35.8977C14.6758 35.9571 14.048 36.2822 13.6553 36.8873C12.8629 38.1119 13.0463 40.2834 13.4061 42.0159C14.8169 39.7304 17.2929 36.4103 19.8558 36.491C20.2697 36.5052 20.6435 36.6856 20.9069 37.0012C21.1702 37.3145 21.2995 37.7203 21.3466 38.2234C23.0771 37.0677 25.6027 35.9237 30.5875 35.4159C25.184 13.321 35.3419 0.882848 35.8028 0.33463C35.8067 0.330668 35.8106 0.327532 35.8144 0.324533C35.8196 0.320348 35.8245 0.316428 35.8286 0.310897C35.8568 0.280044 35.885 0.253938 35.9156 0.227833C35.9344 0.208847 35.9532 0.192234 35.9744 0.177994C36.0033 0.158552 36.0322 0.142295 36.0624 0.12531L36.0826 0.113916C36.1014 0.102049 36.1202 0.0901831 36.1413 0.0806901C36.186 0.0617041 36.2307 0.0474644 36.2777 0.0355983C36.2887 0.0340167 36.2997 0.030327 36.3106 0.0266366L36.3106 0.0266343L36.3106 0.0266333C36.3161 0.0247873 36.3216 0.0229413 36.3271 0.0213591C36.3906 0.00711929 36.4564 0 36.5246 0L36.6633 0.00474619C36.9408 0.00474619 37.2018 0.125783 37.3805 0.339373C37.8413 0.884955 47.9497 13.2596 42.6427 35.2475C56.52 36.0685 58.2176 41.6575 58.2835 41.902C58.2847 41.9067 58.2852 41.9121 58.2858 41.9174C58.2864 41.9227 58.287 41.9281 58.2882 41.9328L58.3023 42.0254L58.3023 42.0254C58.307 42.0586 58.3117 42.0918 58.3117 42.1251C58.3117 42.1345 58.314 42.144 58.314 42.1535C58.314 42.162 58.3136 42.17 58.3128 42.1779C58.3121 42.186 58.3111 42.1941 58.31 42.2025L58.3093 42.2081L58.3091 42.2114C58.3068 42.2437 58.3044 42.278 58.2976 42.3102C58.2929 42.3386 58.2858 42.3671 58.2788 42.3956C58.2759 42.405 58.2733 42.4144 58.2706 42.4237C58.2646 42.445 58.2587 42.466 58.2506 42.4858ZM37.4646 38.1712H39.8963C45.2514 20.4981 40.2138 8.58416 37.4646 3.85425V38.1712ZM35.5844 4.10339V38.1712H33.2914C28.04 20.842 32.814 9.0039 35.5844 4.10339ZM55.2525 43.0447L55.2573 43.0292L55.2565 43.0293C55.3671 42.6733 55.5551 42.0895 56.0184 41.6789C54.977 40.3499 51.6922 37.6206 42.1575 37.1246C41.9506 37.877 41.7272 38.6388 41.4827 39.4124C41.3581 39.8064 40.996 40.0745 40.5869 40.0745H32.5973C32.1882 40.0745 31.8261 39.8064 31.7015 39.4124C31.4757 38.691 31.2688 37.9813 31.0737 37.2813C25.0283 37.8556 22.8651 39.3863 21.2121 40.6774C21.2048 40.733 21.1978 40.7883 21.1907 40.844C21.1797 40.931 21.1686 41.0191 21.1557 41.1117C21.064 41.8046 20.9229 42.8726 20.9511 43.4422C21.1228 43.3401 21.2968 43.1313 21.5789 42.7468L21.5823 42.7423C22.064 42.0924 22.7225 41.2042 24.0502 41.2042C25.3756 41.2042 26.034 42.0924 26.5157 42.7422L26.5191 42.7468C26.9706 43.3591 27.1422 43.5252 27.4808 43.5252C27.8194 43.5252 27.9887 43.3591 28.4425 42.7468L28.4459 42.7423C28.9276 42.0924 29.5861 41.2042 30.9138 41.2042C32.2392 41.2042 32.8976 42.0924 33.3793 42.7422L33.3827 42.7468C33.8365 43.3591 34.0082 43.5252 34.3444 43.5252C34.683 43.5252 34.8523 43.3591 35.3061 42.7468C35.7858 42.0966 36.4442 41.2042 37.775 41.2042C39.1004 41.2042 39.7588 42.0924 40.2405 42.7422L40.2439 42.7468C40.6978 43.3615 40.8694 43.5276 41.208 43.5276C41.5466 43.5276 41.7159 43.3615 42.1697 42.7492L42.1731 42.7447C42.6548 42.0949 43.3132 41.2066 44.641 41.2066C45.9664 41.2066 46.6248 42.0948 47.1065 42.7447L47.1099 42.7492C47.5613 43.3615 47.733 43.5276 48.0716 43.5276C48.4102 43.5276 48.5818 43.3615 49.0357 42.7468C49.5153 42.0966 50.1761 41.2042 51.5046 41.2042C52.8323 41.2042 53.4907 42.0924 53.9724 42.7422L53.9758 42.7468C54.4296 43.3591 54.6013 43.5252 54.9375 43.5252C55.0433 43.5252 55.081 43.5086 55.081 43.5086C55.1242 43.458 55.2027 43.205 55.2525 43.0447Z"/>
</mask>
<path d="M58.2153 42.5689L57.3355 42.0935L58.851 43.3408L58.2153 42.5689ZM58.2506 42.4858L57.3262 42.1043L57.3124 42.1378L57.301 42.1722L58.2506 42.4858ZM58.2157 42.5685L59.1118 43.0125L57.58 41.7966L58.2157 42.5685ZM58.1593 42.642L57.6011 41.8124L57.426 41.9302L57.3134 42.1087L58.1593 42.642ZM58.1099 42.7132L58.8937 43.3343L58.9135 43.3094L58.9316 43.2832L58.1099 42.7132ZM58.0695 42.7629L58.8337 43.4079L58.8338 43.4078L58.0695 42.7629ZM58.0488 42.7868L58.7592 43.4906L58.7776 43.472L58.795 43.4525L58.0488 42.7868ZM57.99 42.8438L57.3222 42.0995L57.3003 42.1191L57.2797 42.1399L57.99 42.8438ZM57.9148 42.9079L58.473 43.7375L58.49 43.7261L58.5065 43.714L57.9148 42.9079ZM57.8442 42.9529L58.2949 43.8457L58.3293 43.8283L58.3623 43.8083L57.8442 42.9529ZM57.8091 42.972L58.2978 43.8444L58.2979 43.8443L57.8091 42.972ZM57.7596 42.998L57.3373 42.0916L57.323 42.0982L57.309 42.1053L57.7596 42.998ZM57.6975 43.0235L58.0138 43.9721L58.0272 43.9677L58.0405 43.9628L57.6975 43.0235ZM57.6975 43.0235L57.3812 42.0748L57.3678 42.0793L57.3545 42.0841L57.6975 43.0235ZM57.6864 43.0275L58.0328 43.9656L58.033 43.9656L57.6864 43.0275ZM57.6702 43.0336L58.0241 43.969L58.0322 43.9658L57.6702 43.0336ZM57.6519 43.0413L58.0537 43.957L58.054 43.9569L57.6519 43.0413ZM57.6138 43.055L57.395 42.0792L57.382 42.0821L57.3691 42.0854L57.6138 43.055ZM57.6069 43.056L57.6715 44.054L57.673 44.0539L57.6069 43.056ZM57.5938 43.0564L57.6815 44.0525L57.6826 44.0524L57.5938 43.0564ZM57.5879 43.0574L57.3428 42.0878L57.3359 42.0897L57.5879 43.0574ZM57.2188 43.1048L56.8149 42.19L56.6068 42.2819L56.459 42.4547L57.2188 43.1048ZM57.0472 43.5688L57.9959 43.885L57.9992 43.8751L58.0023 43.8651L57.0472 43.5688ZM57.0472 43.5689L56.0985 43.2526L56.0952 43.2625L56.0921 43.2725L57.0472 43.5689ZM57.0424 43.5842L56.0873 43.2879L56.087 43.2889L57.0424 43.5842ZM52.4608 43.8736L53.2641 43.2781L53.264 43.2779L52.4608 43.8736ZM52.4574 43.869L51.6514 44.461L51.6542 44.4647L52.4574 43.869ZM50.5339 43.8666L51.3371 44.4623L51.3373 44.462L50.5339 43.8666ZM50.5306 43.8711L49.7274 43.2753L49.7272 43.2756L50.5306 43.8711ZM45.5972 43.8711L46.4005 43.2756L46.4004 43.2755L45.5972 43.8711ZM45.5938 43.8666L44.7889 44.46L44.7905 44.4622L45.5938 43.8666ZM43.6703 43.869L42.8658 43.275L42.8656 43.2753L43.6703 43.869ZM38.7336 43.8736L37.9301 44.469L37.9302 44.4691L38.7336 43.8736ZM38.7302 43.869L37.9253 44.4625L37.9267 44.4644L38.7302 43.869ZM36.8067 43.869L36.0034 43.2735L36.002 43.2753L36.8067 43.869ZM31.8723 43.8736L31.0689 44.469L31.069 44.4691L31.8723 43.8736ZM31.8689 43.869L31.0641 44.4625L31.0655 44.4644L31.8689 43.869ZM29.9455 43.8714L29.141 43.2775L29.1408 43.2778L29.9455 43.8714ZM25.0111 43.876L24.2077 44.4714L24.2077 44.4715L25.0111 43.876ZM25.0077 43.8714L24.2028 44.4649L24.2043 44.4668L25.0077 43.8714ZM23.0843 43.8738L22.2798 43.2799L22.2795 43.2802L23.0843 43.8738ZM19.5408 44.93L20.2978 44.2765L20.2955 44.2739L19.5408 44.93ZM19.2868 40.8527L20.2781 40.9844L20.2784 40.9827L19.2868 40.8527ZM19.2914 40.8175L18.2999 40.6875L18.2999 40.6876L19.2914 40.8175ZM19.4867 38.4107L20.4828 38.3221L20.3843 37.2145L19.2932 37.4296L19.4867 38.4107ZM13.9447 44.8945L13.0504 44.447L13.0486 44.4506L13.9447 44.8945ZM13.0488 45.4142L13.174 44.4221L13.14 44.4178L13.1058 44.4159L13.0488 45.4142ZM12.2212 44.7925L13.163 44.4565L13.1625 44.4549L12.2212 44.7925ZM12.0777 35.8475L11.2384 35.3038L11.238 35.3045L12.0777 35.8475ZM15.4542 34.0011L15.5194 34.9989L15.52 34.9989L15.4542 34.0011ZM17.4552 33.2867L18.3816 33.6633L18.3816 33.6632L17.4552 33.2867ZM17.1472 32.4846L16.3931 33.1413L16.3941 33.1425L17.1472 32.4846ZM13.0982 31.5234L13.3614 32.4881L13.3627 32.4878L13.0982 31.5234ZM6.92351 38.9781L5.95848 38.7159L5.95822 38.7169L6.92351 38.9781ZM7.5795 43.8052L8.30104 43.1129L8.29897 43.1107L7.5795 43.8052ZM7.56069 45.1485L8.25973 45.8636L8.26198 45.8614L7.56069 45.1485ZM6.22986 45.1295L6.94915 44.4348L6.94902 44.4346L6.22986 45.1295ZM5.10827 38.4774L6.07333 38.7395L6.07339 38.7392L5.10827 38.4774ZM12.6066 29.6916L12.8696 30.6564L12.8698 30.6564L12.6066 29.6916ZM18.5601 31.2319L17.806 31.8886L17.8069 31.8897L18.5601 31.2319ZM19.195 34.0133L20.1198 34.3938L20.12 34.3932L19.195 34.0133ZM15.5763 35.8977L15.5107 34.8999L15.5106 34.8999L15.5763 35.8977ZM13.6553 36.8873L12.8164 36.343L12.8157 36.3441L13.6553 36.8873ZM13.4061 42.0159L12.427 42.2192L12.9376 44.6785L14.257 42.5412L13.4061 42.0159ZM19.8558 36.491L19.8902 35.4916L19.8873 35.4915L19.8558 36.491ZM20.9069 37.0012L20.139 37.6419L20.1414 37.6447L20.9069 37.0012ZM21.3466 38.2234L20.3509 38.3165L20.507 39.9866L21.9019 39.055L21.3466 38.2234ZM30.5875 35.4159L30.6889 36.4107L31.8318 36.2943L31.5589 35.1783L30.5875 35.4159ZM35.8028 0.33463L35.0923 -0.369143L35.0636 -0.340121L35.0373 -0.30885L35.8028 0.33463ZM35.8144 0.324533L36.4383 1.10597L36.4384 1.10594L35.8144 0.324533ZM35.8286 0.310897L35.0907 -0.363959L35.0563 -0.326345L35.0259 -0.285427L35.8286 0.310897ZM35.9156 0.227833L36.565 0.988258L36.5967 0.96122L36.626 0.931645L35.9156 0.227833ZM35.9744 0.177994L35.4162 -0.651687L35.4161 -0.651664L35.9744 0.177994ZM36.0624 0.12531L36.5528 0.996817L36.5539 0.996185L36.0624 0.12531ZM36.0826 0.113916L36.5741 0.984791L36.5954 0.97275L36.6161 0.959678L36.0826 0.113916ZM36.1413 0.0806901L35.7502 -0.83965L35.7411 -0.835772L35.7321 -0.831714L36.1413 0.0806901ZM36.2777 0.0355983L36.135 -0.954167L36.0835 -0.946741L36.0331 -0.93401L36.2777 0.0355983ZM36.3106 0.0266366L36.6294 0.974452L36.6611 0.963816L36.6919 0.951096L36.3106 0.0266366ZM36.3106 0.0266343L36.1422 -0.959075L36.0324 -0.940306L35.9294 -0.897826L36.3106 0.0266343ZM36.3106 0.0266333L36.4791 1.01234L36.5558 0.999231L36.6296 0.974406L36.3106 0.0266333ZM36.3271 0.0213591L36.1082 -0.954393L36.0789 -0.947809L36.05 -0.939472L36.3271 0.0213591ZM36.5246 0L36.5588 -0.999415L36.5417 -1H36.5246V0ZM36.6633 0.00474619L36.6291 1.00416L36.6462 1.00475H36.6633V0.00474619ZM37.3805 0.339373L36.6135 0.98107L36.6165 0.984663L37.3805 0.339373ZM42.6427 35.2475L41.6706 35.0128L41.3901 36.1751L42.5837 36.2457L42.6427 35.2475ZM58.2835 41.902L59.2542 41.6616L59.2517 41.6517L59.2491 41.6419L58.2835 41.902ZM58.2882 41.9328L59.2768 41.7821L59.2699 41.7369L59.2589 41.6925L58.2882 41.9328ZM58.3023 42.0254L57.3137 42.1761L57.3172 42.1989L57.3217 42.2215L58.3023 42.0254ZM58.3023 42.0254L59.2924 41.8854L59.2885 41.8572L59.2829 41.8293L58.3023 42.0254ZM58.3128 42.1779L57.317 42.0866L57.317 42.087L58.3128 42.1779ZM58.31 42.2025L57.3178 42.078L57.3177 42.0788L58.31 42.2025ZM58.3093 42.2081L57.317 42.0843L57.3137 42.111L57.3118 42.1379L58.3093 42.2081ZM58.3091 42.2114L59.3066 42.2817L59.3066 42.2816L58.3091 42.2114ZM58.2976 42.3102L57.3194 42.1025L57.3147 42.1248L57.3109 42.1472L58.2976 42.3102ZM58.2788 42.3956L59.2353 42.6872L59.2431 42.6618L59.2494 42.636L58.2788 42.3956ZM58.2706 42.4237L59.2332 42.6949L59.2332 42.6949L58.2706 42.4237ZM39.8963 38.1712V39.1712H40.6382L40.8534 38.4612L39.8963 38.1712ZM37.4646 38.1712H36.4646V39.1712H37.4646V38.1712ZM37.4646 3.85425L38.3292 3.35174L36.4646 0.143757V3.85425H37.4646ZM35.5844 38.1712V39.1712H36.5844V38.1712H35.5844ZM35.5844 4.10339H36.5844V0.302453L34.7139 3.61127L35.5844 4.10339ZM33.2914 38.1712L32.3344 38.4612L32.5496 39.1712H33.2914V38.1712ZM55.2573 43.0292L56.2124 43.3255L56.6749 41.8345L55.1271 42.0377L55.2573 43.0292ZM55.2525 43.0447L56.2076 43.3411L56.2076 43.3409L55.2525 43.0447ZM55.2565 43.0293L54.3015 42.7328L53.8386 44.2241L55.3867 44.0208L55.2565 43.0293ZM56.0184 41.6789L56.6817 42.4273L57.386 41.803L56.8055 41.0621L56.0184 41.6789ZM42.1575 37.1246L42.2095 36.126L41.4066 36.0842L41.1934 36.8594L42.1575 37.1246ZM41.4827 39.4124L42.4361 39.7141L42.4362 39.7138L41.4827 39.4124ZM31.7015 39.4124L30.7471 39.711L30.748 39.714L31.7015 39.4124ZM31.0737 37.2813L32.0369 37.0127L31.8122 36.2066L30.9791 36.2857L31.0737 37.2813ZM21.2121 40.6774L20.5966 39.8892L20.2743 40.141L20.2207 40.5464L21.2121 40.6774ZM21.1907 40.844L20.1986 40.7185L20.1986 40.7185L21.1907 40.844ZM21.1557 41.1117L20.1652 40.9737L20.1643 40.9805L21.1557 41.1117ZM20.9511 43.4422L19.9523 43.4916L20.0345 45.1503L21.462 44.3018L20.9511 43.4422ZM21.5789 42.7468L20.7756 42.1513L20.7728 42.1552L21.5789 42.7468ZM21.5823 42.7423L22.3856 43.3378L22.3857 43.3378L21.5823 42.7423ZM26.5157 42.7422L27.3191 42.1468L27.3191 42.1467L26.5157 42.7422ZM26.5191 42.7468L27.3239 42.1533L27.3225 42.1514L26.5191 42.7468ZM28.4425 42.7468L29.2459 43.3423L29.2461 43.342L28.4425 42.7468ZM28.4459 42.7423L27.6425 42.1468L27.6423 42.1471L28.4459 42.7423ZM33.3793 42.7422L32.5759 43.3377L32.576 43.3378L33.3793 42.7422ZM33.3827 42.7468L34.1861 42.1513L34.186 42.1512L33.3827 42.7468ZM35.3061 42.7468L36.1095 43.3423L36.1109 43.3405L35.3061 42.7468ZM40.2405 42.7422L41.0441 42.147L41.0439 42.1467L40.2405 42.7422ZM40.2439 42.7468L41.0484 42.1529L41.0475 42.1515L40.2439 42.7468ZM42.1697 42.7492L41.3666 42.1535L41.3663 42.1538L42.1697 42.7492ZM42.1731 42.7447L42.9762 43.3405L42.9764 43.3402L42.1731 42.7447ZM47.1065 42.7447L47.9099 42.1492L47.9098 42.1492L47.1065 42.7447ZM47.1099 42.7492L47.9147 42.1558L47.9132 42.1538L47.1099 42.7492ZM49.0357 42.7468L49.8401 43.3408L49.8404 43.3405L49.0357 42.7468ZM53.9724 42.7422L53.1691 43.3377L53.1692 43.3379L53.9724 42.7422ZM53.9758 42.7468L54.7792 42.1513L54.779 42.1511L53.9758 42.7468ZM55.081 43.5086L55.4849 44.4234L55.6929 44.3315L55.8408 44.1587L55.081 43.5086ZM59.0951 43.0442C59.1422 42.9571 59.1759 42.8728 59.2001 42.7994L57.301 42.1722C57.3064 42.1558 57.3166 42.1284 57.3355 42.0935L59.0951 43.0442ZM57.58 41.7966L57.5796 41.7969L58.851 43.3408L58.8515 43.3404L57.58 41.7966ZM58.7176 43.4717C58.985 43.2918 59.096 43.0442 59.1118 43.0125L57.3197 42.1245C57.3072 42.1497 57.39 41.9544 57.6011 41.8124L58.7176 43.4717ZM58.9316 43.2832C58.9315 43.2834 58.9322 43.2823 58.9354 43.2779C58.937 43.2756 58.9443 43.2654 58.9495 43.2582C58.9621 43.2404 58.9826 43.2113 59.0052 43.1754L57.3134 42.1087C57.3196 42.0989 57.3236 42.0935 57.3197 42.0989C57.3188 42.1003 57.3176 42.1019 57.3158 42.1044C57.3144 42.1064 57.3115 42.1104 57.3092 42.1137C57.3041 42.1208 57.2966 42.1313 57.2882 42.1433L58.9316 43.2832ZM58.8338 43.4078C58.8573 43.38 58.8781 43.354 58.8937 43.3343L57.3262 42.0921C57.3165 42.1044 57.3099 42.1125 57.3053 42.118L58.8338 43.4078ZM58.795 43.4525C58.8092 43.4366 58.8222 43.4215 58.8337 43.4079L57.3053 42.1179C57.3031 42.1205 57.3023 42.1215 57.3026 42.1211L58.795 43.4525ZM58.6578 43.5881C58.7041 43.5465 58.7428 43.5072 58.7592 43.4906L57.3384 42.083C57.3335 42.088 57.3302 42.0913 57.327 42.0945C57.3241 42.0974 57.3222 42.0993 57.3208 42.1006C57.3183 42.1031 57.3191 42.1022 57.3222 42.0995L58.6578 43.5881ZM58.5065 43.714C58.5631 43.6725 58.6313 43.6174 58.7004 43.5476L57.2797 42.1399C57.3018 42.1176 57.3182 42.1053 57.323 42.1017L58.5065 43.714ZM58.3623 43.8083C58.4004 43.7852 58.4397 43.76 58.473 43.7375L57.3565 42.0782C57.3475 42.0842 57.3351 42.0922 57.3262 42.0976L58.3623 43.8083ZM58.2979 43.8443C58.301 43.8426 58.3028 43.8416 58.3043 43.8408C58.3057 43.84 58.306 43.8398 58.3058 43.8399C58.3055 43.8401 58.3014 43.8424 58.2949 43.8457L57.3936 42.0602C57.3591 42.0776 57.3289 42.0948 57.3202 42.0996L58.2979 43.8443ZM58.1819 43.9045C58.2384 43.8782 58.2859 43.8511 58.2978 43.8444L57.3204 42.0995C57.3161 42.1019 57.3143 42.1029 57.3128 42.1038C57.3116 42.1044 57.312 42.1042 57.3134 42.1034C57.3163 42.1019 57.3249 42.0973 57.3373 42.0916L58.1819 43.9045ZM58.0405 43.9628C58.0521 43.9586 58.1291 43.9317 58.2102 43.8908L57.309 42.1053C57.3335 42.093 57.352 42.0854 57.359 42.0826C57.3626 42.0811 57.3646 42.0804 57.3637 42.0808C57.3623 42.0813 57.3604 42.082 57.3545 42.0841L58.0405 43.9628ZM58.0137 43.9722L58.0138 43.9721L57.3813 42.0748L57.3812 42.0748L58.0137 43.9722ZM58.033 43.9656C58.0346 43.965 58.0364 43.9643 58.0405 43.9628L57.3545 42.0841C57.3512 42.0853 57.3456 42.0874 57.3399 42.0895L58.033 43.9656ZM58.0322 43.9658L58.0328 43.9656L57.34 42.0894C57.3322 42.0923 57.321 42.0965 57.3083 42.1014L58.0322 43.9658ZM58.054 43.9569C58.058 43.9552 58.0549 43.9565 58.0509 43.9582C58.0461 43.9602 58.0366 43.9642 58.0241 43.9689L57.3164 42.0983C57.2818 42.1114 57.2523 42.1246 57.2499 42.1257L58.054 43.9569ZM57.8326 44.0308C57.9544 44.0034 58.0503 43.9585 58.0537 43.957L57.2502 42.1255C57.2406 42.1297 57.2579 42.1219 57.2797 42.1137C57.3053 42.104 57.3449 42.0905 57.395 42.0792L57.8326 44.0308ZM57.673 44.0539C57.7214 44.0507 57.7853 44.0431 57.8585 44.0246L57.3691 42.0854C57.4375 42.0681 57.4968 42.0611 57.5409 42.0582L57.673 44.0539ZM57.6009 44.0562C57.601 44.0562 57.6036 44.0562 57.6065 44.0562C57.6097 44.0562 57.6146 44.0561 57.6204 44.056C57.6321 44.0558 57.6499 44.0554 57.6715 44.054L57.5424 42.0581C57.5619 42.0569 57.5776 42.0565 57.5873 42.0563C57.5959 42.0562 57.6032 42.0562 57.6009 42.0562V44.0562ZM57.6826 44.0524C57.6559 44.0548 57.6341 44.0556 57.6204 44.0559C57.6082 44.0562 57.5979 44.0562 57.6009 44.0562V42.0562C57.6008 42.0562 57.5973 42.0562 57.5933 42.0562C57.589 42.0562 57.5824 42.0563 57.5743 42.0565C57.5582 42.0568 57.5341 42.0577 57.5049 42.0604L57.6826 44.0524ZM57.833 44.0269C57.775 44.0415 57.7234 44.0489 57.6815 44.0525L57.506 42.0603C57.4605 42.0643 57.4049 42.0722 57.3428 42.0879L57.833 44.0269ZM57.3622 44.0882C57.5422 44.0882 57.7034 44.0607 57.84 44.0251L57.3359 42.0897C57.3267 42.0921 57.3375 42.0882 57.3622 42.0882V44.0882ZM57.2188 43.1048C57.6227 44.0196 57.6222 44.0198 57.6218 44.02C57.6216 44.0201 57.6212 44.0203 57.6209 44.0204C57.6202 44.0207 57.6196 44.021 57.619 44.0213C57.6178 44.0218 57.6165 44.0223 57.6153 44.0229C57.6129 44.0239 57.6104 44.025 57.608 44.026C57.6031 44.028 57.5983 44.03 57.5936 44.0319C57.5841 44.0358 57.5748 44.0393 57.5657 44.0427C57.5476 44.0494 57.5304 44.055 57.5142 44.0599C57.482 44.0696 57.454 44.0759 57.4313 44.0801C57.3864 44.0884 57.3611 44.0882 57.3622 44.0882V42.0882C57.2575 42.0882 57.1606 42.0964 57.0703 42.1129C57.025 42.1213 56.981 42.1318 56.9384 42.1446C56.9171 42.151 56.8961 42.158 56.8755 42.1656C56.8652 42.1693 56.855 42.1733 56.8449 42.1774C56.8398 42.1794 56.8348 42.1815 56.8298 42.1836C56.8273 42.1846 56.8248 42.1857 56.8223 42.1868C56.8211 42.1873 56.8198 42.1879 56.8186 42.1884C56.818 42.1887 56.8173 42.1889 56.8167 42.1892C56.8164 42.1894 56.8159 42.1896 56.8158 42.1896C56.8153 42.1898 56.8149 42.19 57.2188 43.1048ZM58.0023 43.8651C58.0149 43.8246 58.0279 43.7826 58.0415 43.7401C58.0552 43.6974 58.068 43.6583 58.0797 43.625C58.0854 43.6085 58.0903 43.5951 58.0942 43.5846C58.0962 43.5794 58.0977 43.5754 58.0989 43.5725C58.1001 43.5696 58.1006 43.5683 58.1005 43.5685C58.1005 43.5686 58.0994 43.5713 58.0972 43.5759C58.0951 43.5803 58.091 43.5888 58.085 43.6003C58.0792 43.6112 58.0691 43.6296 58.0546 43.6525C58.0411 43.6737 58.016 43.7113 57.9786 43.755L56.459 42.4547C56.3352 42.5994 56.2704 42.7616 56.2609 42.7837C56.2339 42.847 56.21 42.9125 56.1912 42.9663C56.1532 43.0752 56.116 43.1956 56.0922 43.2724L58.0023 43.8651ZM57.9959 43.8851L57.9959 43.885L56.0986 43.2525L56.0985 43.2526L57.9959 43.8851ZM57.9975 43.8805L58.0023 43.8652L56.0921 43.2725L56.0873 43.2879L57.9975 43.8805ZM54.9263 46.4116C56.0159 46.4116 56.7783 45.9566 57.2713 45.3528C57.722 44.8007 57.9095 44.1652 57.9978 43.8795L56.087 43.2889C55.9919 43.5965 55.8961 43.8747 55.722 44.088C55.5901 44.2496 55.3861 44.4116 54.9263 44.4116V46.4116ZM51.6574 44.4691C52.1234 45.0977 53.052 46.4116 54.9263 46.4116V44.4116C54.1497 44.4116 53.7616 43.9492 53.2641 43.2781L51.6574 44.4691ZM51.6542 44.4647L51.6576 44.4693L53.264 43.2779L53.2606 43.2733L51.6542 44.4647ZM51.4956 44.0882C51.496 44.0882 51.4519 44.0879 51.39 44.0659C51.3611 44.0556 51.3369 44.0435 51.3184 44.0326C51.3008 44.0221 51.2921 44.0147 51.293 44.0155C51.2987 44.0202 51.3294 44.0478 51.3955 44.1272C51.4605 44.2053 51.5414 44.3112 51.6514 44.4609L53.2633 43.277C53.0496 42.9861 52.8254 42.6896 52.5753 42.4807C52.2472 42.2065 51.8905 42.0882 51.4956 42.0882V44.0882ZM51.3373 44.462C51.4483 44.3123 51.5298 44.2063 51.5953 44.1279C51.662 44.0482 51.6929 44.0203 51.699 44.0153C51.7 44.0145 51.6914 44.0218 51.6737 44.0323C51.6553 44.0433 51.631 44.0554 51.6019 44.0657C51.5397 44.0879 51.4953 44.0882 51.4956 44.0882V42.0882C51.1002 42.0882 50.7444 42.2068 50.417 42.4802C50.1685 42.6877 49.9443 42.9827 49.7305 43.2711L51.3373 44.462ZM51.3337 44.4669L51.3371 44.4623L49.7308 43.2708L49.7274 43.2753L51.3337 44.4669ZM48.0627 46.4092C49.9389 46.4092 50.8675 45.0958 51.3339 44.4666L49.7272 43.2756C49.2301 43.9461 48.8419 44.4092 48.0627 44.4092V46.4092ZM44.7938 44.4666C45.2598 45.0952 46.1884 46.4092 48.0627 46.4092V44.4092C47.2861 44.4092 46.898 43.9468 46.4005 43.2756L44.7938 44.4666ZM44.7905 44.4622L44.7939 44.4668L46.4004 43.2755L46.397 43.2709L44.7905 44.4622ZM44.6321 44.0882C44.6324 44.0882 44.5885 44.0879 44.5269 44.066C44.4981 44.0557 44.474 44.0438 44.4556 44.0329C44.438 44.0225 44.4294 44.0152 44.4304 44.016C44.4361 44.0208 44.4669 44.0483 44.533 44.1275C44.5979 44.2053 44.6789 44.3108 44.7889 44.46L46.3986 43.2731C46.185 42.9834 45.9607 42.6879 45.7108 42.4796C45.3829 42.2063 45.0267 42.0882 44.6321 42.0882V44.0882ZM44.4748 44.4629C44.5854 44.3131 44.667 44.2069 44.7324 44.1285C44.799 44.0488 44.8302 44.0207 44.8365 44.0155C44.8376 44.0145 44.8292 44.0217 44.8117 44.0321C44.7935 44.043 44.7693 44.055 44.7403 44.0654C44.7112 44.0758 44.6846 44.0819 44.6632 44.0851C44.6427 44.0882 44.631 44.0882 44.6321 44.0882V42.0882C44.2364 42.0882 43.8808 42.2077 43.5541 42.4807C43.3051 42.6888 43.0806 42.9842 42.8658 43.275L44.4748 44.4629ZM41.2014 46.4116C43.0796 46.4116 44.0103 45.0927 44.4751 44.4626L42.8656 43.2753C42.371 43.9458 41.9802 44.4116 41.2014 44.4116V46.4116ZM37.9302 44.4691C38.3966 45.0983 39.3252 46.4116 41.2014 46.4116V44.4116C40.4222 44.4116 40.034 43.9486 39.5369 43.2781L37.9302 44.4691ZM37.9267 44.4644L37.9301 44.469L39.537 43.2782L39.5336 43.2736L37.9267 44.4644ZM37.7685 44.0906C37.7688 44.0906 37.7249 44.0903 37.6633 44.0684C37.6345 44.0582 37.6104 44.0462 37.592 44.0353C37.5745 44.0249 37.5659 44.0176 37.5668 44.0184C37.5725 44.0232 37.6033 44.0507 37.6694 44.1299C37.7343 44.2077 37.8153 44.3133 37.9253 44.4625L39.535 43.2755C39.3214 42.9859 39.0971 42.6903 38.8472 42.482C38.5193 42.2087 38.1631 42.0906 37.7685 42.0906V44.0906ZM37.6101 44.4644C37.7211 44.3147 37.8026 44.2088 37.8681 44.1304C37.9348 44.0506 37.9658 44.0228 37.9718 44.0177C37.9728 44.0169 37.9642 44.0242 37.9465 44.0347C37.9281 44.0457 37.9038 44.0578 37.8747 44.0681C37.8125 44.0903 37.7681 44.0906 37.7685 44.0906V42.0906C37.373 42.0906 37.0172 42.2092 36.6898 42.4826C36.4413 42.6901 36.2171 42.9851 36.0034 43.2735L37.6101 44.4644ZM34.3378 46.4116C36.2186 46.4116 37.1471 45.0921 37.6115 44.4626L36.002 43.2753C35.507 43.9464 35.1187 44.4116 34.3378 44.4116V46.4116ZM31.069 44.4691C31.5349 45.0977 32.4636 46.4116 34.3378 46.4116V44.4116C33.5612 44.4116 33.1732 43.9492 32.6757 43.2781L31.069 44.4691ZM31.0655 44.4644L31.0689 44.469L32.6758 43.2782L32.6724 43.2736L31.0655 44.4644ZM30.9072 44.0906C30.9075 44.0906 30.8636 44.0903 30.802 44.0684C30.7732 44.0582 30.7491 44.0462 30.7308 44.0353C30.7132 44.0249 30.7046 44.0176 30.7055 44.0184C30.7113 44.0232 30.7421 44.0507 30.8081 44.1299C30.8731 44.2077 30.9541 44.3133 31.0641 44.4625L32.6738 43.2755C32.4602 42.9859 32.2359 42.6903 31.9859 42.482C31.6581 42.2087 31.3019 42.0906 30.9072 42.0906V44.0906ZM30.75 44.4654C30.8606 44.3156 30.9421 44.2094 31.0076 44.131C31.0742 44.0512 31.1054 44.0231 31.1116 44.0179C31.1128 44.0169 31.1044 44.0241 31.0869 44.0345C31.0687 44.0454 31.0445 44.0575 31.0154 44.0678C30.9864 44.0782 30.9598 44.0843 30.9384 44.0876C30.9179 44.0907 30.9062 44.0906 30.9072 44.0906V42.0906C30.5116 42.0906 30.156 42.2101 29.8293 42.4831C29.5802 42.6912 29.3558 42.9866 29.141 43.2775L30.75 44.4654ZM27.4766 46.414C29.3548 46.414 30.2855 45.0951 30.7502 44.4651L29.1408 43.2778C28.6462 43.9482 28.2555 44.414 27.4766 44.414V46.414ZM24.2077 44.4715C24.6737 45.1001 25.6024 46.414 27.4766 46.414V44.414C26.7 44.414 26.3119 43.9516 25.8145 43.2805L24.2077 44.4715ZM24.2043 44.4668L24.2077 44.4714L25.8145 43.2806L25.8111 43.276L24.2043 44.4668ZM24.046 44.093C24.0463 44.093 24.0024 44.0927 23.9408 44.0708C23.912 44.0606 23.8879 44.0486 23.8695 44.0378C23.852 44.0273 23.8434 44.0201 23.8443 44.0208C23.8501 44.0256 23.8808 44.0532 23.9469 44.1323C24.0119 44.2102 24.0928 44.3157 24.2028 44.4649L25.8125 43.2779C25.599 42.9883 25.3747 42.6927 25.1247 42.4844C24.7968 42.2112 24.4406 42.093 24.046 42.093V44.093ZM23.8888 44.4678C23.9994 44.318 24.0809 44.2118 24.1464 44.1334C24.2129 44.0536 24.2441 44.0255 24.2504 44.0203C24.2516 44.0193 24.2431 44.0265 24.2257 44.0369C24.2074 44.0478 24.1832 44.0599 24.1542 44.0703C24.1251 44.0807 24.0985 44.0867 24.0771 44.09C24.0567 44.0931 24.045 44.093 24.046 44.093V42.093C23.6503 42.093 23.2948 42.2125 22.968 42.4855C22.719 42.6936 22.4945 42.989 22.2798 43.2799L23.8888 44.4678ZM20.6154 46.4165C22.4935 46.4165 23.4242 45.0976 23.889 44.4675L22.2795 43.2802C21.785 43.9507 21.3942 44.4165 20.6154 44.4165V46.4165ZM18.7838 45.5834C19.2483 46.1216 19.9101 46.4165 20.6154 46.4165V44.4165C20.4787 44.4165 20.3741 44.3649 20.2978 44.2766L18.7838 45.5834ZM18.2955 40.7211C18.1626 41.7219 18.0493 42.6324 18.0667 43.3948C18.0842 44.165 18.2358 44.953 18.7861 45.586L20.2955 44.2739C20.1897 44.1523 20.0791 43.9199 20.0661 43.3492C20.0529 42.7706 20.1406 42.0198 20.2781 40.9844L18.2955 40.7211ZM18.2999 40.6876L18.2953 40.7228L20.2784 40.9827L20.283 40.9475L18.2999 40.6876ZM18.4906 38.4993C18.5057 38.6693 18.4913 39.0022 18.4482 39.4462C18.4073 39.8681 18.3486 40.3166 18.2999 40.6875L20.283 40.9475C20.3309 40.5817 20.3941 40.1001 20.4388 39.6394C20.4814 39.2008 20.5162 38.6987 20.4828 38.3221L18.4906 38.4993ZM14.8389 45.342C15.4581 44.1046 16.3677 42.6312 17.3227 41.4382C17.8003 40.8415 18.2717 40.3373 18.7061 39.9711C19.1586 39.5897 19.4872 39.4299 19.6801 39.3918L19.2932 37.4296C18.608 37.5647 17.9664 37.9789 17.4171 38.4418C16.8499 38.92 16.2879 39.5304 15.7613 40.1883C14.7077 41.5046 13.7244 43.0999 13.0504 44.447L14.8389 45.342ZM13.1053 46.4166C13.8358 46.4166 14.5112 46.0038 14.8408 45.3383L13.0486 44.4506C13.0584 44.4307 13.0801 44.4166 13.1053 44.4166V46.4166ZM12.9237 46.4064C13.0151 46.4179 13.0967 46.4166 13.1053 46.4166V44.4166C13.0932 44.4166 13.0996 44.4165 13.1086 44.4168C13.1194 44.4171 13.143 44.4182 13.174 44.4221L12.9237 46.4064ZM11.2793 45.1284C11.5407 45.8613 12.2149 46.3683 12.9918 46.4126L13.1058 44.4159C13.135 44.4175 13.1556 44.4356 13.163 44.4565L11.2793 45.1284ZM11.238 35.3045C10.0708 37.1098 10.1021 39.5104 10.3575 41.3458C10.6201 43.2333 11.1616 44.8002 11.2798 45.13L13.1625 44.4549C13.0644 44.1814 12.5737 42.7615 12.3384 41.0702C12.0958 39.3267 12.1636 37.5565 12.9175 36.3904L11.238 35.3045ZM15.3891 33.0032C13.6291 33.1181 12.1534 33.8914 11.2384 35.3038L12.917 36.3912C13.4411 35.5822 14.2978 35.0787 15.5194 34.9989L15.3891 33.0032ZM16.5288 32.9102C16.5579 32.8385 16.5919 32.7901 16.6139 32.763C16.6361 32.7356 16.6517 32.7231 16.6525 32.7225C16.6537 32.7216 16.6447 32.7288 16.6217 32.7419C16.5989 32.7547 16.5651 32.7717 16.5182 32.791C16.3229 32.8713 15.9643 32.9653 15.3884 33.0032L15.52 34.9989C16.2397 34.9515 16.8252 34.8271 17.2783 34.6409C17.6802 34.4758 18.1711 34.1812 18.3816 33.6633L16.5288 32.9102ZM16.3941 33.1425C16.4282 33.1816 16.4533 33.2161 16.4706 33.2435C16.4791 33.257 16.485 33.2678 16.489 33.2757C16.493 33.2835 16.4945 33.2873 16.4943 33.2868C16.4941 33.2864 16.4916 33.2798 16.4885 33.2673C16.4855 33.2549 16.4813 33.2337 16.479 33.2046C16.4746 33.1497 16.4755 33.0412 16.5288 32.9102L18.3816 33.6632C18.5573 33.2309 18.4554 32.8155 18.3621 32.5717C18.2574 32.2985 18.0909 32.0448 17.9002 31.8266L16.3941 33.1425ZM13.3627 32.4878C14.7969 32.0944 15.9596 32.6436 16.3931 33.1413L17.9012 31.8278C16.9334 30.7165 14.964 29.9747 12.8336 30.559L13.3627 32.4878ZM7.88854 39.2402C8.3142 37.6732 9.16787 36.1041 10.2043 34.8529C11.2563 33.5827 12.4043 32.7493 13.3614 32.4881L12.8349 30.5587C11.3206 30.9719 9.84805 32.1476 8.66401 33.5771C7.46427 35.0255 6.4663 36.8465 5.95848 38.7159L7.88854 39.2402ZM8.29897 43.1107C7.85993 42.6559 7.65893 42.0227 7.62717 41.2829C7.59539 40.5427 7.73915 39.7923 7.8888 39.2393L5.95822 38.7169C5.78101 39.3718 5.58498 40.3433 5.62901 41.3687C5.67306 42.3946 5.96348 43.571 6.86002 44.4998L8.29897 43.1107ZM8.26198 45.8614C9.02359 45.1121 9.04231 43.8854 8.30103 43.1129L6.85796 44.4976C6.85451 44.494 6.85068 44.4883 6.84816 44.4818C6.8459 44.4759 6.84524 44.4709 6.8453 44.4668C6.84536 44.4628 6.84616 44.4577 6.84861 44.4519C6.85134 44.4454 6.85544 44.4395 6.85939 44.4356L8.26198 45.8614ZM5.51058 45.8242C6.26138 46.6016 7.49032 46.6157 8.25973 45.8636L6.86164 44.4334C6.86453 44.4306 6.87077 44.4259 6.87978 44.4223C6.88818 44.419 6.89687 44.4175 6.90532 44.4176C6.91378 44.4178 6.92261 44.4195 6.93115 44.4232C6.94034 44.4271 6.94649 44.432 6.94915 44.4348L5.51058 45.8242ZM4.14322 38.2154C3.33732 41.1834 3.70825 43.9588 5.51071 45.8243L6.94902 44.4346C5.8029 43.2484 5.37908 41.2963 6.07333 38.7395L4.14322 38.2154ZM12.3436 28.7268C10.3369 29.2738 8.54102 30.7467 7.14826 32.4664C5.74628 34.1975 4.66774 36.2819 4.14316 38.2156L6.07339 38.7392C6.51973 37.094 7.46214 35.2566 8.70248 33.7251C9.95205 32.1822 11.4199 31.0516 12.8696 30.6564L12.3436 28.7268ZM19.3143 30.5752C17.9546 29.0139 15.2914 27.9226 12.3434 28.7269L12.8698 30.6564C15.0711 30.0558 16.9459 30.9009 17.806 31.8886L19.3143 30.5752ZM20.12 34.3932C20.6624 33.0723 20.2665 31.6656 19.3133 30.5741L17.8069 31.8897C18.3915 32.5591 18.4565 33.1792 18.2699 33.6335L20.12 34.3932ZM15.642 36.8955C16.9696 36.8082 17.9675 36.4968 18.7063 36.0311C19.4561 35.5584 19.8873 34.9588 20.1198 34.3938L18.2702 33.6328C18.1853 33.8391 18.0157 34.1022 17.6398 34.3392C17.2529 34.5831 16.6002 34.8282 15.5107 34.8999L15.642 36.8955ZM14.4942 37.4316C14.6735 37.1554 14.9712 36.9397 15.6421 36.8955L15.5106 34.8999C14.3803 34.9744 13.4225 35.409 12.8164 36.343L14.4942 37.4316ZM14.3852 41.8126C14.2137 40.9869 14.0912 40.0866 14.0986 39.2702C14.1062 38.4296 14.251 37.8074 14.4949 37.4306L12.8157 36.3441C12.2672 37.1918 12.1075 38.2677 12.0987 39.2521C12.0896 40.2607 12.2387 41.3125 12.427 42.2192L14.3852 41.8126ZM19.8873 35.4915C18.1767 35.4376 16.6583 36.503 15.495 37.6558C14.2974 38.8426 13.2774 40.3207 12.5551 41.4906L14.257 42.5412C14.9456 41.4257 15.869 40.1009 16.9028 39.0764C17.971 38.0179 18.972 37.4636 19.8244 37.4905L19.8873 35.4915ZM21.6747 36.3606C21.2257 35.8224 20.5831 35.5154 19.8902 35.4916L19.8214 37.4904C19.9562 37.495 20.0613 37.5488 20.139 37.6418L21.6747 36.3606ZM22.3422 38.1304C22.2848 37.5158 22.1153 36.8846 21.6723 36.3577L20.1414 37.6447C20.2252 37.7443 20.3143 37.9248 20.3509 38.3165L22.3422 38.1304ZM30.4861 34.421C25.3692 34.9424 22.6807 36.1299 20.7912 37.3918L21.9019 39.055C23.4736 38.0054 25.8363 36.9051 30.6889 36.4107L30.4861 34.421ZM35.0373 -0.30885C34.4579 0.380392 24.1097 13.138 29.6161 35.6534L31.5589 35.1783C26.2582 13.5041 36.2259 1.3853 36.5682 0.978111L35.0373 -0.30885ZM35.1904 -0.4569C35.19 -0.456623 35.1427 -0.419977 35.0923 -0.369143L36.5132 1.0384C36.4906 1.06124 36.4708 1.0788 36.4571 1.09042C36.4451 1.10066 36.4349 1.10874 36.4383 1.10597L35.1904 -0.4569ZM35.0259 -0.285427C35.0709 -0.34605 35.115 -0.390401 35.1464 -0.419171C35.1732 -0.443721 35.1976 -0.462645 35.1903 -0.456872L36.4384 1.10594C36.4385 1.10581 36.4465 1.09953 36.4553 1.09222C36.4649 1.08426 36.4799 1.07166 36.4974 1.05561C36.5336 1.02245 36.5822 0.973376 36.6314 0.907222L35.0259 -0.285427ZM35.2662 -0.532592C35.2153 -0.489159 35.1549 -0.434161 35.0907 -0.363959L36.5666 0.985754C36.5632 0.989486 36.5604 0.992232 36.559 0.993483C36.558 0.994474 36.5593 0.993134 36.565 0.988258L35.2662 -0.532592ZM35.4161 -0.651664C35.3229 -0.58895 35.253 -0.524226 35.2052 -0.475979L36.626 0.931645C36.6158 0.94192 36.5835 0.973418 36.5327 1.00765L35.4161 -0.651664ZM35.572 -0.746196C35.5467 -0.731974 35.4834 -0.69691 35.4162 -0.651687L36.5326 1.00768C36.5262 1.01202 36.523 1.0138 36.526 1.01203C36.5276 1.01111 36.5302 1.00957 36.5348 1.00697C36.5396 1.00423 36.5448 1.00128 36.5528 0.996816L35.572 -0.746196ZM35.5911 -0.756959L35.5709 -0.745564L36.5539 0.996185L36.5741 0.984791L35.5911 -0.756959ZM35.7321 -0.831714C35.6363 -0.788781 35.5596 -0.738546 35.549 -0.731846L36.6161 0.959678C36.628 0.952196 36.6221 0.956015 36.6135 0.961018C36.6028 0.967242 36.5808 0.97956 36.5506 0.993094L35.7321 -0.831714ZM36.0331 -0.93401C35.9467 -0.912214 35.8515 -0.882699 35.7502 -0.83965L36.5325 1.00103C36.527 1.00337 36.5226 1.00492 36.5201 1.00575C36.5177 1.00652 36.5181 1.00629 36.5224 1.00521L36.0331 -0.93401ZM35.9918 -0.921178C35.9826 -0.918097 35.998 -0.923435 36.0171 -0.92895C36.0382 -0.935039 36.0801 -0.946251 36.135 -0.954167L36.4204 1.02536C36.4863 1.01587 36.5391 1.00202 36.5712 0.992766C36.6013 0.984089 36.6276 0.97506 36.6294 0.974452L35.9918 -0.921178ZM35.9294 -0.897826L35.9293 -0.897823L36.6919 0.951096L36.6919 0.951094L35.9294 -0.897826ZM36.1422 -0.959076L36.1422 -0.959075L36.4791 1.01234L36.4791 1.01234L36.1422 -0.959076ZM36.05 -0.939472C36.0198 -0.930786 35.9935 -0.921748 35.9917 -0.92114L36.6296 0.974406C36.6332 0.973191 36.6308 0.974009 36.6275 0.975071C36.6237 0.976309 36.6154 0.97898 36.6042 0.98219L36.05 -0.939472ZM36.5246 -1C36.3863 -1 36.2469 -0.985506 36.1082 -0.954393L36.546 0.997111C36.5342 0.999745 36.5265 1 36.5246 1V-1ZM36.6975 -0.994669L36.5588 -0.999415L36.4904 0.999415L36.6291 1.00416L36.6975 -0.994669ZM38.1474 -0.302316C37.7777 -0.744235 37.2353 -0.995254 36.6633 -0.995254V1.00475C36.6561 1.00475 36.6466 1.00304 36.6367 0.998431C36.6267 0.993782 36.6187 0.987298 36.6135 0.981063L38.1474 -0.302316ZM43.6148 35.4821C49.0229 13.0751 38.7254 0.381936 38.1444 -0.305916L36.6165 0.984663C36.9572 1.38797 46.8764 13.4441 41.6706 35.0128L43.6148 35.4821ZM59.2491 41.6419C59.1616 41.317 58.5953 39.652 56.2192 37.9741C53.8562 36.3055 49.7653 34.6671 42.7018 34.2492L42.5837 36.2457C49.3974 36.6488 53.0939 38.2155 55.0656 39.6078C57.024 40.9908 57.3396 42.2425 57.3179 42.1621L59.2491 41.6419ZM59.2798 41.8081C59.2798 41.8074 59.2792 41.8022 59.2785 41.7965C59.2778 41.7904 59.2766 41.7809 59.275 41.7694C59.272 41.748 59.2659 41.709 59.2542 41.6616L57.3128 42.1423C57.3022 42.0996 57.297 42.0657 57.2947 42.0495C57.2926 42.0341 57.2912 42.0212 57.2918 42.0267L59.2798 41.8081ZM59.2589 41.6925C59.2694 41.7352 59.2746 41.7691 59.2769 41.7853C59.2791 41.8007 59.2804 41.8136 59.2798 41.8081L57.2918 42.0267C57.2919 42.0274 57.2925 42.0325 57.2931 42.0383C57.2939 42.0444 57.295 42.0539 57.2966 42.0654C57.2997 42.0868 57.3057 42.1258 57.3175 42.1732L59.2589 41.6925ZM59.2909 41.8747L59.2768 41.7821L57.2996 42.0835L57.3137 42.1761L59.2909 41.8747ZM59.2829 41.8293L59.2829 41.8293L57.3217 42.2215L57.3217 42.2215L59.2829 41.8293ZM59.3117 42.1251C59.3117 42.0096 59.2954 41.9063 59.2924 41.8854L57.3122 42.1655C57.3134 42.1745 57.314 42.1785 57.3144 42.1818C57.3148 42.1846 57.3147 42.1837 57.3143 42.1807C57.3137 42.1752 57.3117 42.1546 57.3117 42.1251H59.3117ZM59.314 42.1535C59.314 42.1107 59.3114 42.0758 59.3094 42.054C59.3084 42.0428 59.3073 42.0336 59.3066 42.0276C59.306 42.022 59.3054 42.017 59.3053 42.0164C59.3051 42.0146 59.3054 42.0172 59.3058 42.0205C59.3062 42.0241 59.307 42.031 59.3078 42.0397C59.3094 42.0568 59.3117 42.087 59.3117 42.1251H57.3117C57.3117 42.1678 57.3143 42.2028 57.3163 42.2246C57.3174 42.2358 57.3184 42.245 57.3191 42.251C57.3198 42.2566 57.3204 42.2616 57.3204 42.2621C57.3207 42.264 57.3203 42.2614 57.32 42.2581C57.3195 42.2545 57.3188 42.2476 57.318 42.2388C57.3164 42.2217 57.314 42.1916 57.314 42.1535H59.314ZM59.3087 42.2693C59.3115 42.2386 59.314 42.1993 59.314 42.1535H57.314C57.314 42.1247 57.3157 42.1014 57.317 42.0866L59.3087 42.2693ZM59.3023 42.3271C59.3029 42.3216 59.3062 42.2967 59.3087 42.2689L57.317 42.087C57.3176 42.0801 57.3182 42.0752 57.3183 42.0739C57.3184 42.0731 57.3184 42.073 57.3178 42.078L59.3023 42.3271ZM59.3017 42.3319L59.3023 42.3263L57.3177 42.0788L57.317 42.0843L59.3017 42.3319ZM59.3066 42.2816L59.3069 42.2784L57.3118 42.1379L57.3116 42.1411L59.3066 42.2816ZM59.2758 42.5178C59.2995 42.4059 59.3053 42.301 59.3066 42.2817L57.3116 42.141C57.311 42.1497 57.3107 42.1537 57.3104 42.157C57.3102 42.1598 57.3102 42.1593 57.3105 42.1566C57.3108 42.1539 57.3115 42.1477 57.3128 42.139C57.314 42.1304 57.3161 42.1179 57.3194 42.1025L59.2758 42.5178ZM59.2494 42.636C59.2548 42.6144 59.272 42.5473 59.2842 42.4731L57.3109 42.1472C57.3129 42.1357 57.3144 42.1294 57.3139 42.1315C57.3137 42.1324 57.3132 42.1345 57.3122 42.1386C57.3111 42.1429 57.31 42.1477 57.3081 42.1552L59.2494 42.636ZM59.2332 42.6949C59.2346 42.6898 59.2352 42.6877 59.2357 42.686C59.2361 42.6846 59.2359 42.6853 59.2353 42.6872L57.3222 42.1041C57.3157 42.1253 57.3103 42.1448 57.3081 42.1526L59.2332 42.6949ZM59.1749 42.8673C59.2092 42.7841 59.2301 42.7058 59.2332 42.6949L57.3081 42.1526C57.3064 42.1585 57.3059 42.1604 57.3055 42.1616C57.3053 42.1626 57.3059 42.1605 57.3071 42.1566C57.3093 42.1495 57.3155 42.1301 57.3262 42.1043L59.1749 42.8673ZM39.8963 37.1712H37.4646V39.1712H39.8963V37.1712ZM36.6001 4.35676C39.2436 8.90492 44.1963 20.5318 38.9393 37.8812L40.8534 38.4612C46.3065 20.4644 41.184 8.2634 38.3292 3.35174L36.6001 4.35676ZM38.4646 38.1712V3.85425H36.4646V38.1712H38.4646ZM36.5844 38.1712V4.10339H34.5844V38.1712H36.5844ZM33.2914 39.1712H35.5844V37.1712H33.2914V39.1712ZM34.7139 3.61127C31.8409 8.69327 26.9867 20.8143 32.3344 38.4612L34.2485 37.8812C29.0933 20.8698 33.7872 9.31454 36.4549 4.59552L34.7139 3.61127ZM54.3022 42.733L54.2974 42.7484L56.2076 43.3409L56.2124 43.3255L54.3022 42.733ZM55.3867 44.0208L55.3875 44.0207L55.1271 42.0377L55.1264 42.0378L55.3867 44.0208ZM55.3551 40.9306C54.6597 41.5469 54.4083 42.3887 54.3015 42.7328L56.2116 43.3258C56.3258 42.9579 56.4506 42.6321 56.6817 42.4273L55.3551 40.9306ZM42.1056 38.1233C51.4742 38.6107 54.4321 41.2758 55.2312 42.2957L56.8055 41.0621C55.5219 39.424 51.9102 36.6306 42.2095 36.126L42.1056 38.1233ZM42.4362 39.7138C42.6849 38.9271 42.9118 38.1532 43.1217 37.3898L41.1934 36.8594C40.9895 37.6007 40.7696 38.3504 40.5292 39.1111L42.4362 39.7138ZM40.5869 41.0745C41.4396 41.0745 42.1822 40.5165 42.4361 39.7141L40.5293 39.1107C40.5339 39.0962 40.5523 39.0745 40.5869 39.0745V41.0745ZM32.5973 41.0745H40.5869V39.0745H32.5973V41.0745ZM30.748 39.714C31.0019 40.5166 31.7446 41.0745 32.5973 41.0745V39.0745C32.6318 39.0745 32.6503 39.0962 32.6549 39.1108L30.748 39.714ZM30.1104 37.5498C30.3077 38.2576 30.5176 38.9775 30.7471 39.711L32.6558 39.1138C32.4339 38.4044 32.2299 37.7051 32.0369 37.0127L30.1104 37.5498ZM21.8277 41.4655C22.626 40.8419 23.4961 40.2008 24.8749 39.6359C26.2649 39.0663 28.2163 38.5572 31.1682 38.2768L30.9791 36.2857C27.8857 36.5796 25.7327 37.123 24.1166 37.7852C22.4892 38.452 21.4512 39.2218 20.5966 39.8892L21.8277 41.4655ZM22.1828 40.9695C22.1899 40.9133 22.1966 40.8608 22.2035 40.8083L20.2207 40.5464C20.213 40.6052 20.2056 40.6632 20.1986 40.7185L22.1828 40.9695ZM22.1461 41.2496C22.16 41.1499 22.1719 41.0557 22.1828 40.9695L20.1986 40.7185C20.1875 40.8063 20.1771 40.8883 20.1652 40.9737L22.1461 41.2496ZM21.9499 43.3927C21.9273 42.9372 22.0492 41.9825 22.147 41.2428L20.1643 40.9805C20.0788 41.6267 19.9185 42.8079 19.9523 43.4916L21.9499 43.3927ZM20.7728 42.1552C20.634 42.3442 20.5429 42.4608 20.4754 42.5369C20.4071 42.614 20.3999 42.6065 20.4402 42.5825L21.462 44.3018C21.8419 44.076 22.1338 43.6809 22.3851 43.3385L20.7728 42.1552ZM20.779 42.1467L20.7756 42.1513L22.3823 43.3424L22.3856 43.3378L20.779 42.1467ZM24.0502 40.2042C22.174 40.2042 21.2453 41.5176 20.779 42.1468L22.3857 43.3378C22.8827 42.6672 23.271 42.2042 24.0502 42.2042V40.2042ZM27.3191 42.1467C26.8531 41.5181 25.9244 40.2042 24.0502 40.2042V42.2042C24.8268 42.2042 25.2149 42.6666 25.7123 43.3377L27.3191 42.1467ZM27.3225 42.1514L27.3191 42.1468L25.7123 43.3376L25.7157 43.3422L27.3225 42.1514ZM27.4808 42.5252C27.4805 42.5252 27.5244 42.5255 27.586 42.5474C27.6148 42.5576 27.6389 42.5696 27.6572 42.5805C27.6748 42.5909 27.6834 42.5982 27.6825 42.5974C27.6767 42.5926 27.646 42.5651 27.5799 42.4859C27.5149 42.4081 27.434 42.3025 27.3239 42.1533L25.7143 43.3403C25.9278 43.6299 26.1521 43.9255 26.4021 44.1338C26.7299 44.4071 27.0861 44.5252 27.4808 44.5252V42.5252ZM27.6391 42.1514C27.5282 42.3011 27.4467 42.407 27.3811 42.4855C27.3145 42.5652 27.2835 42.593 27.2775 42.5981C27.2765 42.5989 27.2851 42.5916 27.3027 42.5811C27.3212 42.5701 27.3455 42.558 27.3746 42.5477C27.4367 42.5255 27.4811 42.5252 27.4808 42.5252V44.5252C27.8762 44.5252 28.2321 44.4066 28.5594 44.1332C28.8079 43.9257 29.0322 43.6307 29.2459 43.3423L27.6391 42.1514ZM27.6423 42.1471L27.639 42.1516L29.2461 43.342L29.2494 43.3375L27.6423 42.1471ZM30.9138 40.2042C29.0376 40.2042 28.1089 41.5176 27.6425 42.1468L29.2492 43.3378C29.7463 42.6672 30.1345 42.2042 30.9138 42.2042V40.2042ZM34.1827 42.1467C33.7167 41.5181 32.788 40.2042 30.9138 40.2042V42.2042C31.6904 42.2042 32.0785 42.6666 32.5759 43.3377L34.1827 42.1467ZM34.186 42.1512L34.1826 42.1466L32.576 43.3378L32.5794 43.3424L34.186 42.1512ZM34.3444 42.5252C34.3434 42.5252 34.355 42.5251 34.3754 42.5282C34.3967 42.5315 34.4232 42.5375 34.4521 42.5478C34.5142 42.57 34.5479 42.5975 34.5479 42.5974C34.5415 42.5922 34.5103 42.5641 34.4437 42.4846C34.3783 42.4064 34.2967 42.3006 34.1861 42.1513L32.5793 43.3423C32.794 43.6319 33.0185 43.9264 33.2674 44.1338C33.5939 44.4059 33.949 44.5252 34.3444 44.5252V42.5252ZM34.5027 42.1514C34.3918 42.3011 34.3103 42.407 34.2447 42.4855C34.1781 42.5652 34.1471 42.593 34.1411 42.5981C34.1401 42.5989 34.1487 42.5916 34.1663 42.5811C34.1848 42.5701 34.2091 42.558 34.2382 42.5477C34.3003 42.5255 34.3447 42.5252 34.3444 42.5252V44.5252C34.7398 44.5252 35.0957 44.4066 35.423 44.1332C35.6715 43.9257 35.8958 43.6307 36.1095 43.3423L34.5027 42.1514ZM37.775 40.2042C35.8942 40.2042 34.9657 41.5237 34.5014 42.1532L36.1109 43.3405C36.6059 42.6694 36.9942 42.2042 37.775 42.2042V40.2042ZM41.0439 42.1467C40.578 41.5181 39.6493 40.2042 37.775 40.2042V42.2042C38.5516 42.2042 38.9397 42.6666 39.4372 43.3377L41.0439 42.1467ZM41.0475 42.1515L41.0441 42.147L39.437 43.3375L39.4404 43.3421L41.0475 42.1515ZM41.208 42.5276C41.2077 42.5276 41.2517 42.528 41.3134 42.5499C41.3423 42.5601 41.3664 42.5721 41.3846 42.583C41.4021 42.5934 41.4106 42.6006 41.4096 42.5997C41.4035 42.5946 41.3724 42.5668 41.3059 42.4871C41.2405 42.4088 41.1591 42.3027 41.0484 42.1529L39.4394 43.3408C39.6541 43.6315 39.8789 43.9274 40.1288 44.1358C40.4568 44.4093 40.813 44.5276 41.208 44.5276V42.5276ZM41.3663 42.1538C41.2554 42.3035 41.1739 42.4095 41.1083 42.4879C41.0417 42.5676 41.0107 42.5955 41.0047 42.6005C41.0037 42.6013 41.0123 42.594 41.0299 42.5835C41.0484 42.5725 41.0727 42.5605 41.1018 42.5501C41.1639 42.5279 41.2083 42.5276 41.208 42.5276V44.5276C41.6034 44.5276 41.9592 44.409 42.2866 44.1356C42.5351 43.9281 42.7594 43.6331 42.9731 43.3447L41.3663 42.1538ZM41.3699 42.149L41.3666 42.1535L42.9729 43.345L42.9762 43.3405L41.3699 42.149ZM44.641 40.2066C42.7647 40.2066 41.8361 41.52 41.3697 42.1492L42.9764 43.3402C43.4735 42.6697 43.8617 42.2066 44.641 42.2066V40.2066ZM47.9098 42.1492C47.4439 41.5206 46.5152 40.2066 44.641 40.2066V42.2066C45.4176 42.2066 45.8056 42.669 46.3031 43.3402L47.9098 42.1492ZM47.9132 42.1538L47.9099 42.1492L46.3031 43.3402L46.3065 43.3447L47.9132 42.1538ZM48.0716 42.5276C48.0713 42.5276 48.1152 42.5279 48.1768 42.5498C48.2056 42.5601 48.2297 42.572 48.248 42.5829C48.2656 42.5933 48.2742 42.6006 48.2733 42.5998C48.2675 42.595 48.2367 42.5675 48.1707 42.4884C48.1057 42.4105 48.0247 42.305 47.9147 42.1558L46.305 43.3427C46.5186 43.6324 46.7429 43.9279 46.9929 44.1363C47.3207 44.4095 47.6769 44.5276 48.0716 44.5276V42.5276ZM48.2312 42.1529C48.1205 42.3027 48.0391 42.4088 47.9737 42.4871C47.9072 42.5667 47.8761 42.5946 47.87 42.5997C47.8689 42.6006 47.8774 42.5934 47.8949 42.583C47.9132 42.5721 47.9373 42.5602 47.9661 42.5499C48.0278 42.528 48.0719 42.5276 48.0716 42.5276V44.5276C48.4667 44.5276 48.8229 44.4092 49.1508 44.1358C49.4007 43.9274 49.6255 43.6315 49.8401 43.3408L48.2312 42.1529ZM51.5046 40.2042C49.6264 40.2042 48.6957 41.5231 48.2309 42.1532L49.8404 43.3405C50.335 42.67 50.7257 42.2042 51.5046 42.2042V40.2042ZM54.7758 42.1467C54.3094 41.5175 53.3808 40.2042 51.5046 40.2042V42.2042C52.2838 42.2042 52.672 42.6672 53.1691 43.3377L54.7758 42.1467ZM54.779 42.1511L54.7756 42.1465L53.1692 43.3379L53.1726 43.3425L54.779 42.1511ZM54.9375 42.5252C54.9365 42.5252 54.9482 42.5251 54.9685 42.5282C54.9898 42.5315 55.0163 42.5375 55.0453 42.5478C55.1073 42.57 55.141 42.5975 55.141 42.5974C55.1347 42.5922 55.1034 42.5641 55.0369 42.4846C54.9714 42.4064 54.8898 42.3006 54.7792 42.1513L53.1724 43.3423C53.3871 43.6319 53.6117 43.9264 53.8606 44.1338C54.187 44.4059 54.5421 44.5252 54.9375 44.5252V42.5252ZM55.081 43.5086C54.677 42.5938 54.6775 42.5936 54.6779 42.5934C54.6781 42.5933 54.6785 42.5931 54.6789 42.593C54.6795 42.5927 54.6801 42.5925 54.6807 42.5922C54.6819 42.5917 54.6832 42.5911 54.6844 42.5906C54.6868 42.5895 54.6893 42.5885 54.6917 42.5875C54.6966 42.5854 54.7014 42.5834 54.7061 42.5815C54.7156 42.5777 54.7249 42.5741 54.734 42.5708C54.7521 42.5641 54.7694 42.5584 54.7855 42.5535C54.8178 42.5438 54.8457 42.5375 54.8684 42.5333C54.9134 42.5251 54.9387 42.5252 54.9375 42.5252V44.5252C55.0422 44.5252 55.1392 44.517 55.2294 44.5005C55.2747 44.4922 55.3187 44.4817 55.3614 44.4688C55.3827 44.4624 55.4036 44.4555 55.4243 44.4479C55.4346 44.4441 55.4448 44.4401 55.4549 44.4361C55.4599 44.434 55.465 44.4319 55.47 44.4298C55.4725 44.4288 55.475 44.4277 55.4775 44.4266C55.4787 44.4261 55.48 44.4256 55.4812 44.425C55.4818 44.4247 55.4824 44.4245 55.4831 44.4242C55.4834 44.4241 55.4838 44.4239 55.484 44.4238C55.4845 44.4236 55.4849 44.4234 55.081 43.5086ZM54.2974 42.7483C54.2849 42.7888 54.2718 42.8309 54.2582 42.8734C54.2446 42.9161 54.2317 42.9552 54.2201 42.9885C54.2143 43.005 54.2095 43.0184 54.2055 43.0289C54.2035 43.0341 54.202 43.038 54.2008 43.0409C54.1997 43.0439 54.1991 43.0451 54.1992 43.0449C54.1993 43.0448 54.2004 43.0422 54.2025 43.0376C54.2046 43.0331 54.2087 43.0246 54.2147 43.0132C54.2205 43.0023 54.2306 42.9839 54.2452 42.961C54.2586 42.9398 54.2837 42.9022 54.3211 42.8585L55.8408 44.1587C55.9646 44.0141 56.0294 43.8519 56.0388 43.8298C56.0658 43.7664 56.0897 43.7009 56.1085 43.6472C56.1465 43.5382 56.1837 43.4178 56.2076 43.3411L54.2974 42.7483Z" fill="white" mask="url(#path-1-inside-1_2783_177)"/>
<path d="M5.56526 30.0794L5.56634 30.0807L6.18471 30.8221H1.09455L1.47986 30.1457C1.47987 30.1457 1.47989 30.1457 1.4799 30.1457C1.47991 30.1456 1.47992 30.1456 1.47993 30.1456C2.11214 29.0367 2.86464 28.8555 3.34272 28.8555C3.8931 28.8555 4.41254 29.1063 4.83299 29.4093C5.2486 29.7088 5.52071 30.0256 5.56526 30.0794Z" stroke="white"/>
<mask id="path-4-inside-2_2783_177" fill="white">
<path fill-rule="evenodd" clip-rule="evenodd" d="M4.12681 33.1992L5.09338 33.3012L4.97113 34.2742C4.61599 36.9038 1.86918 39.6781 1.7516 39.7968L0.479306 41.0688L0.164174 39.2889C-0.209754 37.1957 0.0559871 35.5866 0.952004 34.5068C2.20545 32.9951 4.12681 33.1992 4.12681 33.1992ZM2.39794 35.7244C2.23097 35.9237 2.10632 36.1777 2.01931 36.4767L2.01932 36.4767C2.21921 36.1753 2.41205 35.8596 2.57667 35.5416C2.51553 35.5962 2.45438 35.6555 2.39794 35.7244Z"/>
</mask>
<path d="M5.09338 33.3012L6.08558 33.4259L6.21274 32.4138L5.19838 32.3067L5.09338 33.3012ZM4.12681 33.1992L4.02117 34.1936L4.02181 34.1936L4.12681 33.1992ZM4.97113 34.2742L5.96218 34.4081L5.96333 34.3989L4.97113 34.2742ZM1.7516 39.7968L2.45866 40.5039L2.46192 40.5006L1.7516 39.7968ZM0.479306 41.0688L-0.50538 41.2432L-0.170803 43.133L1.18636 41.776L0.479306 41.0688ZM0.164174 39.2889L1.14886 39.1146L1.14859 39.113L0.164174 39.2889ZM0.952004 34.5068L1.72156 35.1454L1.72181 35.1451L0.952004 34.5068ZM2.01931 36.4767L1.05914 36.1973L0.950939 36.5691L1.12139 36.9169L2.01931 36.4767ZM2.39794 35.7244L3.16461 36.3665L3.17117 36.3585L2.39794 35.7244ZM2.01932 36.4767L1.1214 36.9169L1.88892 38.4826L2.8527 37.0294L2.01932 36.4767ZM2.57667 35.5416L3.46474 36.0013L1.91076 34.7956L2.57667 35.5416ZM5.19838 32.3067L4.2318 32.2047L4.02181 34.1936L4.98839 34.2957L5.19838 32.3067ZM5.96333 34.3989L6.08558 33.4259L4.10118 33.1766L3.97893 34.1496L5.96333 34.3989ZM2.46192 40.5006C2.53728 40.4246 3.29449 39.659 4.08416 38.5609C4.85496 37.489 5.75073 35.9733 5.96214 34.4081L3.98013 34.1404C3.83639 35.2047 3.18119 36.3909 2.4604 37.3932C1.75848 38.3693 1.08351 39.0503 1.04128 39.0929L2.46192 40.5006ZM1.18636 41.776L2.45865 40.5039L1.04455 39.0896L-0.227745 40.3617L1.18636 41.776ZM-0.820513 39.4632L-0.50538 41.2432L1.46399 40.8945L1.14886 39.1146L-0.820513 39.4632ZM0.182447 33.8682C-0.981209 35.2706 -1.21906 37.2322 -0.820242 39.4648L1.14859 39.113C0.799549 37.1592 1.09318 35.9026 1.72156 35.1454L0.182447 33.8682ZM4.12681 33.1992C4.23244 32.2048 4.23202 32.2047 4.23159 32.2047C4.23144 32.2047 4.23101 32.2046 4.2307 32.2046C4.23009 32.2045 4.22945 32.2044 4.22878 32.2044C4.22744 32.2042 4.22598 32.2041 4.22439 32.2039C4.22122 32.2036 4.21756 32.2033 4.21343 32.2029C4.20516 32.2021 4.19498 32.2012 4.18298 32.2003C4.15899 32.1984 4.12762 32.1963 4.08955 32.1945C4.01351 32.1909 3.91004 32.1883 3.78455 32.1911C3.53488 32.1968 3.19059 32.2237 2.79781 32.3087C2.0137 32.4785 0.992445 32.8913 0.1822 33.8685L1.72181 35.1451C2.16501 34.6106 2.73116 34.3695 3.22109 34.2634C3.46532 34.2105 3.67972 34.194 3.82947 34.1906C3.9037 34.189 3.96012 34.1906 3.99406 34.1922C4.01097 34.193 4.0221 34.1938 4.02686 34.1942C4.02924 34.1944 4.03001 34.1945 4.02909 34.1944C4.02863 34.1943 4.02774 34.1942 4.02643 34.1941C4.02577 34.194 4.02501 34.194 4.02413 34.1939C4.02369 34.1938 4.02323 34.1938 4.02273 34.1937C4.02249 34.1937 4.0221 34.1937 4.02197 34.1937C4.02158 34.1936 4.02117 34.1936 4.12681 33.1992ZM2.97949 36.7561C3.0385 36.5533 3.1082 36.4338 3.16457 36.3665L1.63131 35.0823C1.35373 35.4137 1.17415 35.802 1.05914 36.1973L2.97949 36.7561ZM2.91724 36.0366L2.91723 36.0365L1.12139 36.9169L1.1214 36.9169L2.91724 36.0366ZM1.68861 35.0819C1.54541 35.3586 1.37283 35.6422 1.18594 35.924L2.8527 37.0294C3.0656 36.7084 3.2787 36.3607 3.46474 36.0013L1.68861 35.0819ZM3.17117 36.3585C3.18237 36.3448 3.20201 36.3239 3.24259 36.2877L1.91076 34.7956C1.82904 34.8685 1.72639 34.9663 1.62471 35.0902L3.17117 36.3585Z" fill="white" mask="url(#path-4-inside-2_2783_177)"/>
<mask id="path-6-inside-3_2783_177" fill="white">
<path fill-rule="evenodd" clip-rule="evenodd" d="M11.3682 27.916C11.3682 28.908 10.5663 29.7149 9.5833 29.7149C8.60029 29.7149 7.80072 28.908 7.80072 27.916C7.80072 26.924 8.60029 26.1171 9.5833 26.1171C10.5687 26.1171 11.3682 26.924 11.3682 27.916ZM9.68179 27.916C9.68179 27.8614 9.63711 27.8163 9.58302 27.8163C9.52893 27.8163 9.4866 27.8614 9.4866 27.916C9.4866 28.0251 9.68179 28.0251 9.68179 27.916Z"/>
</mask>
<path d="M9.5833 30.7149C11.1255 30.7149 12.3682 29.4534 12.3682 27.916H10.3682C10.3682 28.3626 10.0072 28.7149 9.5833 28.7149V30.7149ZM6.80072 27.916C6.80072 29.4516 8.03944 30.7149 9.5833 30.7149V28.7149C9.16115 28.7149 8.80072 28.3643 8.80072 27.916H6.80072ZM9.5833 25.1171C8.03943 25.1171 6.80072 26.3803 6.80072 27.916H8.80072C8.80072 27.4676 9.16115 27.1171 9.5833 27.1171V25.1171ZM12.3682 27.916C12.3682 26.3794 11.1287 25.1171 9.5833 25.1171V27.1171C10.0087 27.1171 10.3682 27.4685 10.3682 27.916H12.3682ZM9.58302 28.8163C9.07625 28.8163 8.68179 28.405 8.68179 27.916H10.6818C10.6818 27.3177 10.198 26.8163 9.58302 26.8163V28.8163ZM10.4866 27.916C10.4866 28.3733 10.1208 28.8163 9.58302 28.8163V26.8163C8.9371 26.8163 8.4866 27.3495 8.4866 27.916H10.4866ZM8.68179 27.916C8.68179 27.6045 8.83772 27.3366 9.05348 27.1757C9.24064 27.0362 9.43796 26.9978 9.58419 26.9978C9.73043 26.9978 9.92774 27.0362 10.1149 27.1757C10.3307 27.3366 10.4866 27.6045 10.4866 27.916H8.4866C8.4866 28.282 8.66693 28.5908 8.91929 28.779C9.14304 28.9459 9.38916 28.9978 9.58419 28.9978C9.77923 28.9978 10.0253 28.9459 10.2491 28.779C10.5015 28.5908 10.6818 28.282 10.6818 27.916H8.68179Z" fill="white" mask="url(#path-6-inside-3_2783_177)"/>
</svg>
