<svg width="39" height="39" viewBox="0 0 39 39" fill="none" xmlns="http://www.w3.org/2000/svg">
<mask id="path-1-inside-1_2783_153" fill="white">
<path d="M38.0305 31.704H29.7451C29.48 31.704 29.2637 31.922 29.2637 32.1893C29.2637 32.4566 29.48 32.6746 29.7451 32.6746H38.0305C38.2956 32.6746 38.5119 32.4566 38.5119 32.1893C38.5119 31.922 38.2956 31.704 38.0305 31.704Z"/>
</mask>
<path d="M38.0305 30.704H29.7451V32.704H38.0305V30.704ZM29.7451 30.704C28.9201 30.704 28.2637 31.3774 28.2637 32.1893H30.2637C30.2637 32.4666 30.0399 32.704 29.7451 32.704V30.704ZM28.2637 32.1893C28.2637 33.0012 28.9201 33.6746 29.7451 33.6746V31.6746C30.0399 31.6746 30.2637 31.912 30.2637 32.1893H28.2637ZM29.7451 33.6746H38.0305V31.6746H29.7451V33.6746ZM38.0305 33.6746C38.8555 33.6746 39.5119 33.0012 39.5119 32.1893H37.5119C37.5119 31.912 37.7357 31.6746 38.0305 31.6746V33.6746ZM39.5119 32.1893C39.5119 31.3774 38.8555 30.704 38.0305 30.704V32.704C37.7357 32.704 37.5119 32.4666 37.5119 32.1893H39.5119Z" fill="white" mask="url(#path-1-inside-1_2783_153)"/>
<mask id="path-3-inside-2_2783_153" fill="white">
<path d="M38.0305 37.8558H28.7409C28.4758 37.8558 28.2595 38.0738 28.2595 38.3412C28.2595 38.6085 28.4758 38.8265 28.7409 38.8265H38.0305C38.2956 38.8265 38.5119 38.6085 38.5119 38.3412C38.5119 38.0738 38.2956 37.8558 38.0305 37.8558Z"/>
</mask>
<path d="M38.0305 36.8558H28.7409V38.8558H38.0305V36.8558ZM28.7409 36.8558C27.9159 36.8558 27.2595 37.5292 27.2595 38.3412H29.2595C29.2595 38.6185 29.0357 38.8558 28.7409 38.8558V36.8558ZM27.2595 38.3412C27.2595 39.1531 27.9159 39.8265 28.7409 39.8265V37.8265C29.0357 37.8265 29.2595 38.0638 29.2595 38.3412H27.2595ZM28.7409 39.8265H38.0305V37.8265H28.7409V39.8265ZM38.0305 39.8265C38.8555 39.8265 39.5119 39.1531 39.5119 38.3412H37.5119C37.5119 38.0638 37.7357 37.8265 38.0305 37.8265V39.8265ZM39.5119 38.3412C39.5119 37.5292 38.8555 36.8558 38.0305 36.8558V38.8558C37.7357 38.8558 37.5119 38.6185 37.5119 38.3412H39.5119Z" fill="white" mask="url(#path-3-inside-2_2783_153)"/>
<mask id="path-5-inside-3_2783_153" fill="white">
<path d="M0.481399 35.2074H7.97293C8.23807 35.2074 8.45432 34.9894 8.45432 34.7221C8.45432 34.4548 8.23807 34.2368 7.97293 34.2368H0.481399C0.216254 34.2368 0 34.4548 0 34.7221C0 34.9913 0.216254 35.2074 0.481399 35.2074Z"/>
</mask>
<path d="M0.481399 36.2074H7.97293V34.2074H0.481399V36.2074ZM7.97293 36.2074C8.79798 36.2074 9.45432 35.5341 9.45432 34.7221H7.45432C7.45432 34.4448 7.67816 34.2074 7.97293 34.2074V36.2074ZM9.45432 34.7221C9.45432 33.9102 8.79798 33.2368 7.97293 33.2368V35.2368C7.67816 35.2368 7.45432 34.9995 7.45432 34.7221H9.45432ZM7.97293 33.2368H0.481399V35.2368H7.97293V33.2368ZM0.481399 33.2368C-0.343656 33.2368 -1 33.9102 -1 34.7221H1C1 34.9995 0.776164 35.2368 0.481399 35.2368V33.2368ZM-1 34.7221C-1 35.5385 -0.341118 36.2074 0.481399 36.2074V34.2074C0.773626 34.2074 1 34.4441 1 34.7221H-1Z" fill="white" mask="url(#path-5-inside-3_2783_153)"/>
<mask id="path-7-inside-4_2783_153" fill="white">
<path fill-rule="evenodd" clip-rule="evenodd" d="M3.74433 0.0504494C3.93048 -0.0424401 4.15237 -0.00452726 4.29905 0.143344L4.29929 0.143572C4.44409 0.291418 4.48169 0.517013 4.38767 0.704694C4.08868 1.30755 3.93824 1.95021 3.93824 2.61563C3.93824 4.9929 5.86759 6.92848 8.23699 6.92848C8.90079 6.92848 9.54201 6.77493 10.1438 6.4754C10.3299 6.38251 10.5518 6.42042 10.6985 6.56829C10.8452 6.71614 10.8809 6.94174 10.7887 7.12752C9.89175 8.94178 8.0865 10.0679 6.07816 10.0679C3.17643 10.0679 0.816467 7.69607 0.816467 4.78228C0.816467 2.76327 1.93909 0.950953 3.74433 0.0504494ZM9.12607 7.82292C8.8327 7.87411 8.53746 7.89875 8.23659 7.89875L8.23671 7.89892C5.33503 7.89892 2.97507 5.52907 2.97695 2.61528C2.97695 2.31196 3.00139 2.0143 3.05217 1.72046C2.24734 2.51478 1.77911 3.60674 1.77911 4.78212C1.77911 7.16129 3.70846 9.09688 6.07785 9.09688C7.24938 9.09688 8.33441 8.62864 9.12607 7.82292Z"/>
</mask>
<path d="M4.29905 0.143344L3.58908 0.847579L3.60004 0.858627L3.61134 0.869329L4.29905 0.143344ZM3.74433 0.0504494L4.19071 0.945296L4.19085 0.945226L3.74433 0.0504494ZM4.29929 0.143572L5.01373 -0.556124L5.00061 -0.569519L4.987 -0.582414L4.29929 0.143572ZM4.38767 0.704694L3.49358 0.256787L3.4918 0.260381L4.38767 0.704694ZM10.1438 6.4754L10.5894 7.37062L10.5903 7.37018L10.1438 6.4754ZM10.6985 6.56829L9.98851 7.27253L9.98857 7.27259L10.6985 6.56829ZM10.7887 7.12752L9.89287 6.6832L9.89232 6.68432L10.7887 7.12752ZM8.23659 7.89875V6.89875H6.29911L7.42146 8.47804L8.23659 7.89875ZM9.12607 7.82292L9.83937 8.52378L12.0218 6.30258L8.95419 6.8378L9.12607 7.82292ZM8.23671 7.89892V8.89892H10.1742L9.05183 7.31963L8.23671 7.89892ZM2.97695 2.61528L3.97695 2.61593V2.61528H2.97695ZM3.05217 1.72046L4.03756 1.89073L4.56831 -1.18091L2.34972 1.00872L3.05217 1.72046ZM5.00902 -0.560892C4.56252 -1.01102 3.87543 -1.13257 3.29782 -0.844327L4.19085 0.945226C3.98552 1.04769 3.74223 1.00197 3.58908 0.847579L5.00902 -0.560892ZM4.987 -0.582414L4.98676 -0.582642L3.61134 0.869329L3.61158 0.869558L4.987 -0.582414ZM5.28175 1.1526C5.56955 0.578112 5.45317 -0.107424 5.01373 -0.556124L3.58485 0.843267C3.435 0.690261 3.39384 0.455914 3.49359 0.256791L5.28175 1.1526ZM4.93824 2.61563C4.93824 2.10508 5.05272 1.61441 5.28354 1.14901L3.4918 0.260381C3.12464 1.0007 2.93824 1.79534 2.93824 2.61563H4.93824ZM8.23699 5.92848C6.42295 5.92848 4.93824 4.44369 4.93824 2.61563H2.93824C2.93824 5.54211 5.31223 7.92848 8.23699 7.92848V5.92848ZM9.69814 5.58017C9.23138 5.81252 8.74233 5.92848 8.23699 5.92848V7.92848C9.05925 7.92848 9.85265 7.73735 10.5894 7.37062L9.69814 5.58017ZM11.4084 5.86406C10.9619 5.41392 10.2749 5.29239 9.69726 5.58062L10.5903 7.37018C10.385 7.47263 10.1417 7.42692 9.98851 7.27253L11.4084 5.86406ZM11.6846 7.57185C11.9659 7.00478 11.8579 6.31708 11.4084 5.864L9.98857 7.27259C9.83243 7.1152 9.79591 6.8787 9.89287 6.6832L11.6846 7.57185ZM6.07816 11.0679C8.47022 11.0679 10.6211 9.72297 11.6852 7.57072L9.89232 6.68432C9.16243 8.16059 7.70279 9.06786 6.07816 9.06786V11.0679ZM-0.183533 4.78228C-0.183533 8.24394 2.61974 11.0679 6.07816 11.0679V9.06786C3.73312 9.06786 1.81647 7.1482 1.81647 4.78228H-0.183533ZM3.29796 -0.844398C1.15374 0.225197 -0.183533 2.38386 -0.183533 4.78228H1.81647C1.81647 3.14268 2.72444 1.67671 4.19071 0.945296L3.29796 -0.844398ZM8.23659 8.89875C8.5927 8.89875 8.94553 8.86953 9.29795 8.80804L8.95419 6.8378C8.71988 6.87868 8.48223 6.89875 8.23659 6.89875V8.89875ZM9.05183 7.31963L9.05171 7.31946L7.42146 8.47804L7.42159 8.47821L9.05183 7.31963ZM1.97695 2.61464C1.97471 6.0774 4.77894 8.89892 8.23671 8.89892V6.89892C5.89112 6.89892 3.97542 4.98075 3.97695 2.61593L1.97695 2.61464ZM2.06677 1.55019C2.00579 1.90309 1.97695 2.25783 1.97695 2.61528H3.97695C3.97695 2.36609 3.99699 2.12551 4.03756 1.89073L2.06677 1.55019ZM2.77911 4.78212C2.77911 3.87565 3.13916 3.03961 3.75461 2.4322L2.34972 1.00872C1.35552 1.98994 0.779106 3.33782 0.779106 4.78212H2.77911ZM6.07785 8.09688C4.2641 8.09688 2.77911 6.61237 2.77911 4.78212H0.779106C0.779106 7.71021 3.15281 10.0969 6.07785 10.0969V8.09688ZM8.41277 7.12207C7.80729 7.7383 6.97851 8.09688 6.07785 8.09688V10.0969C7.52026 10.0969 8.86153 9.51899 9.83937 8.52378L8.41277 7.12207Z" fill="white" mask="url(#path-7-inside-4_2783_153)"/>
<mask id="path-9-inside-5_2783_153" fill="white">
<path fill-rule="evenodd" clip-rule="evenodd" d="M38.0325 23.9258H38.0306C37.7654 23.9258 37.5511 24.1419 37.5492 24.4092L37.5379 27.0007L19.6737 0.439368C19.495 0.172066 19.0569 0.172066 18.8764 0.439368L1.02516 26.9818L1.03644 24.231C1.03832 23.9637 0.822068 23.7438 0.556924 23.7438H0.555043C0.289898 23.7438 0.0755268 23.9599 0.0736445 24.2272L0.0567205 28.5685C0.0548397 28.7827 0.193996 28.9704 0.395202 29.0349C0.442214 29.0501 0.489224 29.0557 0.538119 29.0557C0.694198 29.0557 0.844635 28.978 0.936775 28.8434L3.74617 24.667V28.5723C3.74617 28.8396 3.96242 29.0576 4.22757 29.0576H14.9498C15.497 30.8472 17.1574 32.1515 19.1168 32.1515C19.1234 32.1515 19.1295 32.151 19.1356 32.1506C19.1418 32.1501 19.1479 32.1496 19.1545 32.1496C19.1561 32.1496 19.1579 32.1498 19.1598 32.15C19.1611 32.1502 19.1625 32.1504 19.1639 32.1506C19.1671 32.151 19.1704 32.1515 19.1733 32.1515C19.1827 32.1515 19.1921 32.1501 19.2015 32.1487C19.2085 32.1476 19.2156 32.1465 19.2227 32.1461L19.2297 32.1458C21.1383 32.0965 22.7461 30.8112 23.2821 29.0576H34.3244C34.5896 29.0576 34.8058 28.8396 34.8058 28.5723V24.667L37.6152 28.8434C37.7337 29.0197 37.9518 29.0974 38.153 29.0349C38.3542 28.9723 38.4934 28.7846 38.4934 28.5723L38.5122 24.413C38.5141 24.1438 38.2997 23.9277 38.0327 23.9258L38.0325 23.9258ZM19.2298 31.1755C19.2034 31.1774 19.179 31.1793 19.1545 31.1793C18.3195 31.1679 17.6424 30.4854 17.6424 29.6475C17.6424 29.0958 18.4474 27.8257 19.1734 26.8683C19.8994 27.8257 20.7043 29.0958 20.7043 29.6475C20.7043 30.4721 20.0479 31.1451 19.2298 31.1755L19.2298 31.1755ZM21.6647 29.6456C21.6647 29.7897 21.6459 29.9262 21.6234 30.0627L21.6233 30.0627C22.1743 29.4561 22.5128 28.6542 22.509 27.7726C22.509 26.3186 20.3201 23.2247 19.1129 21.6853C17.9075 23.2247 15.7168 26.3205 15.7168 27.7726C15.7168 28.7281 16.1135 29.5926 16.7473 30.2125C16.7059 30.0285 16.6777 29.8409 16.6777 29.6456C16.6777 28.4171 18.4472 26.2086 18.8007 25.7782C18.9831 25.5564 19.3593 25.5564 19.5417 25.7782C19.8971 26.2086 21.6647 28.4172 21.6647 29.6456ZM19.4872 20.6048C19.3047 20.383 18.9286 20.383 18.7462 20.6048C18.3382 21.0995 14.7577 25.5128 14.7577 27.7729C14.7577 27.849 14.7626 27.9241 14.7674 27.999C14.7687 28.0185 14.7699 28.0381 14.7711 28.0576C14.7717 28.0676 14.7723 28.0776 14.7728 28.0876H9.92511V24.8875C10.5532 24.3756 12.6349 22.6012 14.7429 19.9678C16.4542 17.8313 18.408 14.8114 19.2937 11.3685C20.1793 14.8132 22.1331 17.831 23.8444 19.9678C25.9524 22.6011 28.034 24.3755 28.6622 24.8875V28.0876H23.4588C23.4663 27.9833 23.4738 27.879 23.4738 27.7729C23.4757 25.5131 19.8953 21.0998 19.4873 20.6048H19.4872ZM29.6227 28.0873H33.8424L33.8449 23.2361L19.2768 1.5769L4.70875 23.2361V28.0873H8.96046V24.6522C8.96046 24.5006 9.03004 24.3584 9.14851 24.2674L9.14885 24.2671C9.26495 24.1754 18.8102 16.6329 18.8102 7.70598C18.8102 7.43867 19.0264 7.22066 19.2916 7.22066C19.5567 7.22066 19.773 7.43867 19.773 7.70598C19.773 16.6298 29.3114 24.1699 29.4342 24.267L29.4346 24.2674C29.5531 24.3603 29.6227 24.5025 29.6227 24.6522V28.0873Z"/>
</mask>
<path d="M38.0325 23.9258V24.9258H38.0552L38.0779 24.9248L38.0325 23.9258ZM37.5492 24.4092L36.5492 24.4022L36.5492 24.4049L37.5492 24.4092ZM37.5379 27.0007L36.7081 27.5588L38.5237 30.2583L38.5379 27.0051L37.5379 27.0007ZM19.6737 0.439368L18.8423 0.99502L18.8439 0.997452L19.6737 0.439368ZM18.8764 0.439368L18.0477 -0.120305L18.0466 -0.11871L18.8764 0.439368ZM1.02516 26.9818L0.0251654 26.9777L0.0116173 30.2807L1.85495 27.5399L1.02516 26.9818ZM1.03644 24.231L0.0364605 24.224L0.0364485 24.2269L1.03644 24.231ZM0.0736445 24.2272L-0.926336 24.2202L-0.926348 24.2233L0.0736445 24.2272ZM0.0567205 28.5685L1.05669 28.5773L1.05671 28.5724L0.0567205 28.5685ZM0.395202 29.0349L0.702208 28.0832L0.700291 28.0826L0.395202 29.0349ZM0.936775 28.8434L1.76198 29.4083L1.76651 29.4016L0.936775 28.8434ZM3.74617 24.667H4.74617V21.3888L2.91643 24.1089L3.74617 24.667ZM14.9498 29.0576L15.9061 28.7652L15.6897 28.0576H14.9498V29.0576ZM19.1356 32.1506L19.2128 33.1476L19.2131 33.1476L19.1356 32.1506ZM19.1598 32.15L19.0392 33.1427L19.0396 33.1428L19.1598 32.15ZM19.1639 32.1506L19.0209 33.1403L19.0211 33.1403L19.1639 32.1506ZM19.2015 32.1487L19.3509 33.1375L19.3511 33.1374L19.2015 32.1487ZM19.2227 32.1461L19.1883 31.1467L19.1727 31.1472L19.157 31.1482L19.2227 32.1461ZM19.2297 32.1458L19.2039 31.1461L19.1953 31.1464L19.2297 32.1458ZM23.2821 29.0576V28.0576H22.5421L22.3258 28.7653L23.2821 29.0576ZM34.8058 24.667L35.6356 24.1089L33.8058 21.3888V24.667H34.8058ZM37.6152 28.8434L38.4452 28.2857L38.4449 28.2853L37.6152 28.8434ZM38.153 29.0349L38.4499 29.9898L38.4499 29.9898L38.153 29.0349ZM38.4934 28.5723L37.4934 28.5678V28.5723H38.4934ZM38.5122 24.413L37.5122 24.406L37.5122 24.4085L38.5122 24.413ZM38.0327 23.9258L38.0398 22.9258L38.0135 22.9256L37.9873 22.9268L38.0327 23.9258ZM19.1545 31.1793L19.1409 32.1793H19.1545V31.1793ZM19.2298 31.1755L19.4546 30.2011L19.3081 30.1672L19.158 30.178L19.2298 31.1755ZM19.1734 26.8683L19.9702 26.2641L19.1734 25.2133L18.3766 26.2641L19.1734 26.8683ZM19.2298 31.1755L19.0049 32.1499L19.1342 32.1797L19.2669 32.1748L19.2298 31.1755ZM21.6234 30.0627L22.5916 30.3126L22.6027 30.2696L22.61 30.2258L21.6234 30.0627ZM21.6233 30.0627L20.6551 29.8129L22.3636 30.735L21.6233 30.0627ZM22.509 27.7726L21.509 27.7726L21.509 27.7769L22.509 27.7726ZM19.1129 21.6853L19.8998 21.0682L19.1123 20.0641L18.3256 21.0688L19.1129 21.6853ZM16.7473 30.2125L16.048 30.9273L18.4648 33.2915L17.7229 29.993L16.7473 30.2125ZM18.8007 25.7782L18.0284 25.143L18.0281 25.1434L18.8007 25.7782ZM19.5417 25.7782L18.7693 26.4134L18.7706 26.415L19.5417 25.7782ZM18.7462 20.6048L19.5177 21.241L19.5186 21.2399L18.7462 20.6048ZM19.4872 20.6048L18.7148 21.2399L19.0148 21.6048H19.4872V20.6048ZM14.7674 27.999L15.7653 27.9348L15.7653 27.9348L14.7674 27.999ZM14.7711 28.0576L13.7729 28.1174L13.7729 28.1174L14.7711 28.0576ZM14.7728 28.0876V29.0876H15.8283L15.7713 28.0336L14.7728 28.0876ZM9.92511 28.0876H8.92511V29.0876H9.92511V28.0876ZM9.92511 24.8875L9.29336 24.1123L8.92511 24.4124V24.8875H9.92511ZM14.7429 19.9678L13.9624 19.3427L13.9623 19.3429L14.7429 19.9678ZM19.2937 11.3685L20.2622 11.1195L18.3252 11.1194L19.2937 11.3685ZM23.8444 19.9678L24.625 19.3429L24.6249 19.3428L23.8444 19.9678ZM28.6622 24.8875H29.6622V24.4125L29.294 24.1124L28.6622 24.8875ZM28.6622 28.0876V29.0876H29.6622V28.0876H28.6622ZM23.4588 28.0876L22.4614 28.0156L22.384 29.0876H23.4588V28.0876ZM23.4738 27.7729L22.4738 27.772V27.7729H23.4738ZM19.4873 20.6048L20.2589 19.9687L19.9589 19.6048H19.4873V20.6048ZM33.8424 28.0873V29.0873H34.8419L34.8424 28.0879L33.8424 28.0873ZM29.6227 28.0873H28.6227V29.0873H29.6227V28.0873ZM33.8449 23.2361L34.8449 23.2366L34.8451 22.9313L34.6747 22.678L33.8449 23.2361ZM19.2768 1.5769L20.1066 1.0188L19.2768 -0.214866L18.4471 1.0188L19.2768 1.5769ZM4.70875 23.2361L3.87898 22.678L3.70875 22.9311V23.2361H4.70875ZM4.70875 28.0873H3.70875V29.0873H4.70875V28.0873ZM8.96046 28.0873V29.0873H9.96046V28.0873H8.96046ZM9.14851 24.2674L9.75772 25.0605L9.76787 25.0525L9.14851 24.2674ZM9.14885 24.2671L9.76821 25.0522L9.76884 25.0517L9.14885 24.2671ZM29.4342 24.267L30.0554 23.4834L30.0543 23.4825L29.4342 24.267ZM29.4346 24.2674L28.8134 25.0511L28.8176 25.0543L29.4346 24.2674ZM38.0306 24.9258H38.0325V22.9258H38.0306V24.9258ZM38.5492 24.4163C38.5473 24.6868 38.3266 24.9258 38.0306 24.9258V22.9258C37.2043 22.9258 36.5549 23.5971 36.5492 24.4022L38.5492 24.4163ZM38.5379 27.0051L38.5492 24.4136L36.5492 24.4049L36.5379 26.9964L38.5379 27.0051ZM18.8439 0.997452L36.7081 27.5588L38.3677 26.4426L20.5035 -0.118715L18.8439 0.997452ZM19.7051 0.999041C19.5778 1.18756 19.3927 1.23889 19.2757 1.23889C19.1589 1.23889 18.9708 1.18735 18.8423 0.995017L20.5051 -0.11628C20.1979 -0.575918 19.7015 -0.761108 19.2757 -0.761108C18.8499 -0.761108 18.3555 -0.576122 18.0477 -0.120304L19.7051 0.999041ZM1.85495 27.5399L19.7062 0.997446L18.0466 -0.11871L0.195369 26.4237L1.85495 27.5399ZM0.0364485 24.2269L0.0251654 26.9777L2.02515 26.9859L2.03643 24.2351L0.0364485 24.2269ZM0.556924 24.7438C0.258403 24.7438 0.0345018 24.503 0.0364648 24.224L2.03642 24.2381C2.04214 23.4244 1.38573 22.7438 0.556924 22.7438V24.7438ZM0.555043 24.7438H0.556924V22.7438H0.555043V24.7438ZM1.07362 24.2343C1.07171 24.5048 0.851087 24.7438 0.555043 24.7438V22.7438C-0.27129 22.7438 -0.920661 23.4151 -0.926331 24.2202L1.07362 24.2343ZM1.05671 28.5724L1.07364 24.2311L-0.926348 24.2233L-0.943272 28.5646L1.05671 28.5724ZM0.700291 28.0826C0.908637 28.1493 1.05872 28.3457 1.05668 28.5773L-0.943241 28.5597C-0.949036 29.2198 -0.520645 29.7915 0.0901119 29.9872L0.700291 28.0826ZM0.538119 28.0557C0.568996 28.0557 0.629163 28.0596 0.702208 28.0832L0.0881955 29.9866C0.255264 30.0405 0.409451 30.0557 0.538119 30.0557V28.0557ZM0.111601 28.2785C0.205256 28.1417 0.363102 28.0557 0.538119 28.0557V30.0557C1.02529 30.0557 1.48401 29.8143 1.76195 29.4083L0.111601 28.2785ZM2.91643 24.1089L0.107037 28.2853L1.76651 29.4016L4.57591 25.2252L2.91643 24.1089ZM4.74617 28.5723V24.667H2.74617V28.5723H4.74617ZM4.22757 28.0576C4.52234 28.0576 4.74617 28.295 4.74617 28.5723H2.74617C2.74617 29.3842 3.40251 30.0576 4.22757 30.0576V28.0576ZM14.9498 28.0576H4.22757V30.0576H14.9498V28.0576ZM19.1168 31.1515C17.6127 31.1515 16.3293 30.1495 15.9061 28.7652L13.9935 29.35C14.6646 31.5449 16.7021 33.1515 19.1168 33.1515V31.1515ZM19.0585 31.1536C19.0539 31.1539 19.0609 31.1533 19.0696 31.1528C19.0797 31.1523 19.0962 31.1515 19.1168 31.1515V33.1515C19.1678 33.1515 19.2111 33.1477 19.2128 33.1476L19.0585 31.1536ZM19.1545 31.1496C19.1033 31.1496 19.0599 31.1534 19.0582 31.1536L19.2131 33.1476C19.2177 33.1472 19.2107 33.1478 19.202 33.1483C19.1918 33.1489 19.1752 33.1496 19.1545 33.1496V31.1496ZM19.2803 31.1573C19.2631 31.1552 19.2153 31.1496 19.1545 31.1496V33.1496C19.1236 33.1496 19.0981 33.1482 19.0803 33.1468C19.0624 33.1454 19.048 33.1438 19.0392 33.1427L19.2803 31.1573ZM19.3068 31.1608C19.3066 31.1608 19.3031 31.1603 19.2992 31.1598C19.295 31.1592 19.2882 31.1583 19.28 31.1573L19.0396 33.1428C19.0326 33.1419 19.0272 33.1412 19.0244 33.1408C19.0218 33.1404 19.0197 33.1401 19.0209 33.1403L19.3068 31.1608ZM19.1733 31.1515C19.2241 31.1515 19.2635 31.1556 19.2802 31.1575C19.2971 31.1594 19.3114 31.1615 19.3066 31.1608L19.0211 33.1403C19.0212 33.1403 19.0259 33.141 19.0311 33.1417C19.0367 33.1425 19.0459 33.1437 19.0572 33.145C19.0771 33.1472 19.1196 33.1515 19.1733 33.1515V31.1515ZM19.052 31.1599C19.0442 31.1611 19.0579 31.1589 19.0747 31.157C19.0936 31.1549 19.1286 31.1515 19.1733 31.1515V33.1515C19.2273 33.1515 19.2717 33.1475 19.3 33.1443C19.3262 33.1413 19.3493 33.1377 19.3509 33.1375L19.052 31.1599ZM19.157 31.1482C19.1258 31.1503 19.1 31.1533 19.0832 31.1555C19.0676 31.1575 19.0537 31.1597 19.0519 31.1599L19.3511 33.1374C19.3563 33.1366 19.3495 33.1377 19.3409 33.1388C19.3312 33.1401 19.3125 33.1423 19.2883 33.1439L19.157 31.1482ZM19.1953 31.1464L19.1883 31.1467L19.257 33.1455L19.264 33.1452L19.1953 31.1464ZM22.3258 28.7653C21.9118 30.12 20.6696 31.1083 19.2039 31.1462L19.2555 33.1455C21.607 33.0848 23.5805 31.5025 24.2384 29.3499L22.3258 28.7653ZM34.3244 28.0576H23.2821V30.0576H34.3244V28.0576ZM33.8058 28.5723C33.8058 28.295 34.0297 28.0576 34.3244 28.0576V30.0576C35.1495 30.0576 35.8058 29.3842 35.8058 28.5723H33.8058ZM33.8058 24.667V28.5723H35.8058V24.667H33.8058ZM38.4449 28.2853L35.6356 24.1089L33.9761 25.2252L36.7855 29.4016L38.4449 28.2853ZM37.8561 28.08C38.0822 28.0097 38.3202 28.0995 38.4452 28.2857L36.7852 29.4011C37.1472 29.9399 37.8214 30.1852 38.4499 29.9898L37.8561 28.08ZM37.4934 28.5723C37.4934 28.3455 37.6403 28.1471 37.8561 28.08L38.4499 29.9898C39.0681 29.7976 39.4934 29.2238 39.4934 28.5723H37.4934ZM37.5122 24.4085L37.4934 28.5678L39.4934 28.5768L39.5122 24.4175L37.5122 24.4085ZM38.0256 24.9258C37.7409 24.9238 37.5102 24.6896 37.5122 24.406L39.5122 24.42C39.5179 23.598 38.8585 22.9316 38.0398 22.9258L38.0256 24.9258ZM38.0779 24.9248L38.0781 24.9248L37.9873 22.9268L37.9871 22.9268L38.0779 24.9248ZM19.1545 32.1793C19.2228 32.1793 19.2877 32.1739 19.3015 32.1729L19.158 30.178C19.1562 30.1782 19.1544 30.1783 19.1528 30.1784C19.1511 30.1785 19.1496 30.1786 19.1481 30.1788C19.1452 30.179 19.1429 30.1791 19.1409 30.1793C19.1367 30.1796 19.135 30.1797 19.1345 30.1797C19.1333 30.1798 19.1414 30.1793 19.1545 30.1793V32.1793ZM16.6424 29.6475C16.6424 31.0345 17.761 32.1604 19.1409 32.1792L19.1682 30.1793C18.8779 30.1754 18.6424 29.9363 18.6424 29.6475H16.6424ZM18.3766 26.2641C17.9961 26.7658 17.5879 27.3582 17.2694 27.9104C17.1107 28.1856 16.9641 28.4681 16.8544 28.7356C16.7549 28.978 16.6424 29.3088 16.6424 29.6475H18.6424C18.6424 29.7104 18.6305 29.6755 18.7047 29.4947C18.7686 29.3389 18.8686 29.1406 19.0019 28.9097C19.2673 28.4495 19.6247 27.9281 19.9702 27.4725L18.3766 26.2641ZM21.7043 29.6475C21.7043 29.3087 21.5919 28.978 21.4924 28.7356C21.3827 28.4681 21.2361 28.1856 21.0773 27.9103C20.7588 27.3582 20.3507 26.7658 19.9702 26.2641L18.3766 27.4725C18.722 27.9281 19.0794 28.4495 19.3449 28.9097C19.4781 29.1406 19.5781 29.3389 19.642 29.4947C19.7162 29.6754 19.7043 29.7104 19.7043 29.6475H21.7043ZM19.2669 32.1748C20.6181 32.1247 21.7043 31.0144 21.7043 29.6475H19.7043C19.7043 29.9299 19.4778 30.1656 19.1928 30.1762L19.2669 32.1748ZM19.0049 32.1499L19.0049 32.1499L19.4547 30.2011L19.4546 30.2011L19.0049 32.1499ZM22.61 30.2258C22.6348 30.0757 22.6647 29.8739 22.6647 29.6456H20.6647C20.6647 29.7054 20.6571 29.7766 20.6368 29.8996L22.61 30.2258ZM22.5916 30.3126L22.5916 30.3126L20.6551 29.8128L20.6551 29.8129L22.5916 30.3126ZM21.509 27.7769C21.5117 28.3936 21.2761 28.9577 20.8831 29.3904L22.3636 30.735C23.0725 29.9545 23.5139 28.9147 23.509 27.7684L21.509 27.7769ZM18.326 22.3024C18.9148 23.0532 19.7385 24.1778 20.4093 25.2807C20.7452 25.8328 21.0312 26.3606 21.2302 26.8212C21.4399 27.3065 21.509 27.619 21.509 27.7726H23.509C23.509 27.1992 23.3045 26.5797 23.0661 26.0279C22.817 25.4513 22.4803 24.8368 22.118 24.2413C21.3926 23.0488 20.5182 21.8568 19.8998 21.0682L18.326 22.3024ZM16.7168 27.7726C16.7168 27.6197 16.7858 27.3077 16.9958 26.8222C17.1949 26.3617 17.4811 25.8338 17.8171 25.2814C18.4883 24.1782 19.3121 23.0529 19.9002 22.3018L18.3256 21.0688C17.7083 21.8571 16.834 23.0493 16.1085 24.2419C15.7462 24.8375 15.4093 25.452 15.1601 26.0284C14.9216 26.5799 14.7168 27.1994 14.7168 27.7726H16.7168ZM17.4465 29.4976C16.9952 29.0561 16.7168 28.4454 16.7168 27.7726H14.7168C14.7168 29.0107 15.2319 30.129 16.048 30.9273L17.4465 29.4976ZM15.6777 29.6456C15.6777 29.9372 15.7199 30.2018 15.7716 30.4319L17.7229 29.993C17.6919 29.8553 17.6777 29.7446 17.6777 29.6456H15.6777ZM18.0281 25.1434C17.8417 25.3703 17.2823 26.065 16.7646 26.8732C16.5061 27.2767 16.2451 27.7283 16.0456 28.1782C15.8548 28.6084 15.6777 29.1295 15.6777 29.6456H17.6777C17.6777 29.5475 17.7218 29.3318 17.8738 28.989C18.0172 28.6658 18.2206 28.308 18.4487 27.9521C18.9041 27.2412 19.4063 26.6165 19.5734 26.413L18.0281 25.1434ZM20.314 25.143C19.7316 24.4348 18.6108 24.4348 18.0284 25.143L19.5731 26.4134C19.4462 26.5677 19.2832 26.6119 19.1712 26.6119C19.0592 26.6119 18.8962 26.5677 18.7693 26.4134L20.314 25.143ZM22.6647 29.6456C22.6647 29.1297 22.4879 28.6087 22.2972 28.1785C22.0979 27.7286 21.837 27.277 21.5786 26.8734C21.0611 26.0652 20.5018 25.3704 20.3127 25.1415L18.7706 26.415C18.937 26.6164 19.4391 27.241 19.8943 27.9519C20.1222 28.3078 20.3255 28.6655 20.4687 28.9887C20.6206 29.3315 20.6647 29.5473 20.6647 29.6456H22.6647ZM19.5186 21.2399C19.3917 21.3943 19.2287 21.4384 19.1167 21.4384C19.0046 21.4384 18.8417 21.3943 18.7148 21.2399L20.2595 19.9696C19.6771 19.2614 18.5563 19.2613 17.9739 19.9696L19.5186 21.2399ZM15.7577 27.7729C15.7577 27.4308 15.9054 26.8929 16.2311 26.1888C16.5451 25.5103 16.9771 24.7761 17.4361 24.0739C18.3529 22.671 19.3235 21.4765 19.5177 21.241L17.9748 19.9685C17.7609 20.2278 16.7373 21.4873 15.7619 22.9797C15.2747 23.7252 14.7861 24.549 14.416 25.3491C14.0577 26.1236 13.7577 26.9849 13.7577 27.7729H15.7577ZM15.7653 27.9348C15.7602 27.8549 15.7577 27.8116 15.7577 27.7729H13.7577C13.7577 27.8864 13.765 27.9934 13.7695 28.0632L15.7653 27.9348ZM15.7693 27.9979C15.768 27.9758 15.7666 27.954 15.7653 27.9348L13.7695 28.0631C13.7707 28.0831 13.7719 28.1004 13.7729 28.1174L15.7693 27.9979ZM15.7713 28.0336C15.7707 28.0213 15.77 28.0093 15.7693 27.9978L13.7729 28.1174C13.7734 28.1259 13.7738 28.1339 13.7743 28.1416L15.7713 28.0336ZM9.92511 29.0876H14.7728V27.0876H9.92511V29.0876ZM8.92511 24.8875V28.0876H10.9251V24.8875H8.92511ZM13.9623 19.3429C11.9132 21.9025 9.88873 23.6271 9.29336 24.1123L10.5568 25.6627C11.2176 25.1241 13.3565 23.2999 15.5236 20.5928L13.9623 19.3429ZM18.3252 11.1194C17.489 14.3699 15.6293 17.2616 13.9624 19.3427L15.5235 20.593C17.2791 18.4011 19.327 15.2528 20.2621 11.6177L18.3252 11.1194ZM24.6249 19.3428C22.9579 17.2611 21.0983 14.3716 20.2622 11.1195L18.3252 11.6175C19.2603 15.2547 21.3084 18.4009 23.0638 20.5929L24.6249 19.3428ZM29.294 24.1124C28.6985 23.627 26.674 21.9024 24.625 19.3429L23.0637 20.5928C25.2307 23.2998 27.3696 25.124 28.0304 25.6626L29.294 24.1124ZM29.6622 28.0876V24.8875H27.6622V28.0876H29.6622ZM23.4588 29.0876H28.6622V27.0876H23.4588V29.0876ZM22.4738 27.7729C22.4738 27.8371 22.4693 27.9058 22.4614 28.0156L24.4562 28.1595C24.4633 28.0609 24.4738 27.9209 24.4738 27.7729H22.4738ZM18.7156 21.2408C18.91 21.4766 19.8805 22.6712 20.7971 24.074C21.2559 24.7762 21.6877 25.5103 22.0014 26.1888C22.3269 26.8928 22.4741 27.4304 22.4738 27.772L24.4738 27.7737C24.4745 26.9855 24.1749 26.124 23.8168 25.3495C23.4469 24.5494 22.9585 23.7255 22.4714 22.9801C21.4962 21.4875 20.4726 20.2279 20.2589 19.9687L18.7156 21.2408ZM19.4872 21.6048H19.4873V19.6048H19.4872V21.6048ZM33.8424 27.0873H29.6227V29.0873H33.8424V27.0873ZM32.8449 23.2356L32.8424 28.0868L34.8424 28.0879L34.8449 23.2366L32.8449 23.2356ZM18.4471 2.13501L33.0152 23.7942L34.6747 22.678L20.1066 1.0188L18.4471 2.13501ZM5.53852 23.7942L20.1066 2.13501L18.4471 1.0188L3.87898 22.678L5.53852 23.7942ZM5.70875 28.0873V23.2361H3.70875V28.0873H5.70875ZM8.96046 27.0873H4.70875V29.0873H8.96046V27.0873ZM7.96046 24.6522V28.0873H9.96046V24.6522H7.96046ZM8.53935 23.4743C8.17067 23.7575 7.96046 24.1947 7.96046 24.6522H9.96046C9.96046 24.8065 9.8894 24.9592 9.75766 25.0604L8.53935 23.4743ZM8.52949 23.482L8.52914 23.4823L9.76787 25.0525L9.76821 25.0522L8.52949 23.482ZM17.8102 7.70598C17.8102 11.8305 15.5921 15.726 13.241 18.6766C10.9079 21.6045 8.55884 23.4588 8.52886 23.4825L9.76884 25.0517C9.85495 24.9837 12.3366 23.0209 14.8051 19.9229C17.2556 16.8476 19.8102 12.5085 19.8102 7.70598H17.8102ZM19.2916 6.22066C18.4665 6.22066 17.8102 6.89404 17.8102 7.70598H19.8102C19.8102 7.98331 19.5863 8.22066 19.2916 8.22066V6.22066ZM20.773 7.70598C20.773 6.89404 20.1166 6.22066 19.2916 6.22066V8.22066C18.9968 8.22066 18.773 7.98331 18.773 7.70598H20.773ZM30.0543 23.4825C30.0209 23.4561 27.6719 21.6011 25.3397 18.6734C22.9894 15.7232 20.773 11.829 20.773 7.70598H18.773C18.773 12.5068 21.3257 16.8446 23.7754 19.9196C26.243 23.0172 28.7246 24.9808 28.814 25.0515L30.0543 23.4825ZM30.0558 23.4837L30.0554 23.4834L28.813 25.0507L28.8135 25.051L30.0558 23.4837ZM30.6227 24.6522C30.6227 24.1927 30.4099 23.7613 30.0517 23.4805L28.8176 25.0543C28.6964 24.9593 28.6227 24.8123 28.6227 24.6522H30.6227ZM30.6227 28.0873V24.6522H28.6227V28.0873H30.6227Z" fill="white" mask="url(#path-9-inside-5_2783_153)"/>
<mask id="path-11-inside-6_2783_153" fill="white">
<path fill-rule="evenodd" clip-rule="evenodd" d="M26.5915 33.9487C26.6347 34.0701 26.6253 34.2065 26.5689 34.3222L26.5692 34.3222C26.5109 34.4397 26.4113 34.5288 26.2872 34.5705L24.5064 35.1639L26.2176 35.6511C26.3417 35.6872 26.447 35.7706 26.5091 35.8843C26.5711 35.9981 26.5843 36.1308 26.5486 36.2559L25.9337 38.345C25.8716 38.5555 25.6817 38.692 25.4729 38.692C25.4297 38.692 25.3846 38.6844 25.3413 38.673L19.2146 36.927L13.5918 38.8019C13.5429 38.819 13.4922 38.8265 13.4414 38.8265C13.2421 38.8265 13.0559 38.7014 12.9901 38.5005L12.2811 36.4398C12.2379 36.3184 12.2473 36.1819 12.3037 36.0663C12.3601 35.9488 12.4616 35.8616 12.5839 35.8199L14.0694 35.3251L12.2849 34.817C12.1608 34.781 12.0555 34.6976 11.9934 34.5838C11.9313 34.4701 11.9182 34.3374 11.9539 34.2122L12.5688 32.1231C12.644 31.8672 12.9073 31.7212 13.1612 31.7932L19.3611 33.5601L25.277 31.5866C25.5271 31.5032 25.796 31.6378 25.8825 31.888L26.5915 33.9487ZM13.3571 32.8568L13.0148 34.0151L15.7005 34.781L17.7318 34.1042L13.3571 32.8568ZM25.4865 36.4511L25.1442 37.6094L20.8447 36.3828L22.876 35.7061L25.4865 36.4511ZM13.3476 36.5876L13.7406 37.7308L25.5218 33.8027L25.1288 32.6595L13.3476 36.5876Z"/>
</mask>
<path d="M26.5689 34.3222L25.6701 33.8837L24.9808 35.2968L26.5528 35.3221L26.5689 34.3222ZM26.5915 33.9487L25.6458 34.2741L25.6495 34.2845L26.5915 33.9487ZM26.5692 34.3222L27.4651 34.7665L28.1688 33.3478L26.5853 33.3223L26.5692 34.3222ZM26.2872 34.5705L26.6033 35.5193L26.6057 35.5184L26.2872 34.5705ZM24.5064 35.1639L24.1902 34.2152L21.118 35.239L24.2325 36.1257L24.5064 35.1639ZM26.2176 35.6511L26.4963 34.6908L26.4914 34.6894L26.2176 35.6511ZM26.5091 35.8843L25.6312 36.3633L25.6312 36.3633L26.5091 35.8843ZM26.5486 36.2559L27.5079 36.5383L27.5101 36.5305L26.5486 36.2559ZM25.9337 38.345L26.8928 38.6279L26.893 38.6274L25.9337 38.345ZM25.3413 38.673L25.0672 39.6347L25.0771 39.6375L25.087 39.6401L25.3413 38.673ZM19.2146 36.927L19.4886 35.9653L19.1914 35.8806L18.8982 35.9783L19.2146 36.927ZM13.5918 38.8019L13.2755 37.8532L13.2623 37.8577L13.5918 38.8019ZM12.9901 38.5005L13.9404 38.1892L13.9381 38.1822L13.9357 38.1751L12.9901 38.5005ZM12.2811 36.4398L13.2268 36.1144L13.2231 36.104L12.2811 36.4398ZM12.3037 36.0663L13.2025 36.5048L13.2052 36.499L12.3037 36.0663ZM12.5839 35.8199L12.2679 34.8711L12.2609 34.8734L12.5839 35.8199ZM14.0694 35.3251L14.3854 36.2738L17.4586 35.2503L14.3432 34.3633L14.0694 35.3251ZM12.2849 34.817L12.0061 35.7774L12.011 35.7788L12.2849 34.817ZM11.9934 34.5838L12.8713 34.1049L12.8713 34.1049L11.9934 34.5838ZM11.9539 34.2122L10.9946 33.9299L10.9923 33.9377L11.9539 34.2122ZM12.5688 32.1231L13.5281 32.4055L13.5282 32.4052L12.5688 32.1231ZM13.1612 31.7932L13.4352 30.8315L13.4342 30.8312L13.1612 31.7932ZM19.3611 33.5601L19.087 34.5218L19.3843 34.6065L19.6775 34.5087L19.3611 33.5601ZM25.277 31.5866L24.9606 30.638L24.9606 30.638L25.277 31.5866ZM25.8825 31.888L26.8281 31.5627L26.8276 31.5613L25.8825 31.888ZM13.0148 34.0151L12.0558 33.7317L11.7697 34.6999L12.7406 34.9767L13.0148 34.0151ZM13.3571 32.8568L13.6313 31.8951L12.6788 31.6235L12.3981 32.5734L13.3571 32.8568ZM15.7005 34.781L15.4263 35.7426L15.7235 35.8274L16.0166 35.7297L15.7005 34.781ZM17.7318 34.1042L18.0479 35.0529L21.1183 34.0299L18.006 33.1425L17.7318 34.1042ZM25.1442 37.6094L24.8699 38.571L25.8225 38.8428L26.1032 37.8928L25.1442 37.6094ZM25.4865 36.4511L26.4455 36.7345L26.7316 35.7665L25.761 35.4895L25.4865 36.4511ZM20.8447 36.3828L20.5286 35.4341L17.459 36.4568L20.5704 37.3445L20.8447 36.3828ZM22.876 35.7061L23.1504 34.7444L22.8532 34.6596L22.5599 34.7573L22.876 35.7061ZM13.7406 37.7308L12.7949 38.0559L13.117 38.9928L14.0569 38.6794L13.7406 37.7308ZM13.3476 36.5876L13.0313 35.6389L12.0737 35.9582L12.4019 36.9127L13.3476 36.5876ZM25.5218 33.8027L25.8381 34.7514L26.7957 34.4321L26.4675 33.4776L25.5218 33.8027ZM25.1288 32.6595L26.0745 32.3344L25.7524 31.3975L24.8125 31.7109L25.1288 32.6595ZM27.4677 34.7606C27.6376 34.4123 27.6703 33.997 27.5334 33.6129L25.6495 34.2845C25.5991 34.1432 25.613 34.0008 25.6701 33.8837L27.4677 34.7606ZM26.5853 33.3223L26.585 33.3223L26.5528 35.3221L26.5531 35.3221L26.5853 33.3223ZM26.6057 35.5184C26.9904 35.3892 27.2931 35.1133 27.4651 34.7665L25.6734 33.8779C25.7288 33.7662 25.8321 33.6685 25.9686 33.6226L26.6057 35.5184ZM24.8225 36.1127L26.6033 35.5193L25.971 33.6218L24.1902 34.2152L24.8225 36.1127ZM26.4914 34.6894L24.7802 34.2022L24.2325 36.1257L25.9438 36.6129L26.4914 34.6894ZM27.3869 35.4054C27.1949 35.0534 26.8715 34.7997 26.4963 34.6908L25.9389 36.6115C25.8119 36.5747 25.6991 36.4877 25.6312 36.3633L27.3869 35.4054ZM27.5101 36.5305C27.6153 36.1622 27.5792 35.7579 27.3869 35.4054L25.6312 36.3633C25.563 36.2383 25.5533 36.0994 25.587 35.9813L27.5101 36.5305ZM26.893 38.6274L27.5079 36.5382L25.5892 35.9735L24.9744 38.0627L26.893 38.6274ZM25.4729 39.692C26.12 39.692 26.704 39.2684 26.8928 38.6279L24.9745 38.0622C25.0393 37.8426 25.2434 37.692 25.4729 37.692V39.692ZM25.087 39.6401C25.1845 39.6658 25.3185 39.692 25.4729 39.692V37.692C25.5089 37.692 25.5371 37.695 25.5556 37.6978C25.5744 37.7007 25.588 37.7039 25.5957 37.7059L25.087 39.6401ZM18.9405 37.8887L25.0672 39.6347L25.6154 37.7113L19.4886 35.9653L18.9405 37.8887ZM13.9081 39.7505L19.5309 37.8756L18.8982 35.9783L13.2755 37.8532L13.9081 39.7505ZM13.4414 39.8265C13.5918 39.8265 13.7552 39.804 13.9213 39.7461L13.2623 37.8577C13.3306 37.8339 13.3925 37.8265 13.4414 37.8265V39.8265ZM12.0397 38.8117C12.2458 39.441 12.8283 39.8265 13.4414 39.8265V37.8265C13.6558 37.8265 13.8659 37.9619 13.9404 38.1892L12.0397 38.8117ZM11.3355 36.7651L12.0445 38.8258L13.9357 38.1751L13.2267 36.1144L11.3355 36.7651ZM11.4049 35.6278C11.235 35.9762 11.2023 36.3915 11.3392 36.7755L13.2231 36.104C13.2734 36.2453 13.2596 36.3877 13.2024 36.5048L11.4049 35.6278ZM12.2609 34.8734C11.8955 34.9981 11.5795 35.2641 11.4021 35.6336L13.2052 36.499C13.1407 36.6334 13.0278 36.725 12.9068 36.7663L12.2609 34.8734ZM13.7534 34.3763L12.2679 34.8711L12.8999 36.7686L14.3854 36.2738L13.7534 34.3763ZM12.011 35.7788L13.7956 36.2869L14.3432 34.3633L12.5587 33.8552L12.011 35.7788ZM11.1155 35.0627C11.3076 35.4147 11.631 35.6685 12.0061 35.7774L12.5636 33.8566C12.6905 33.8935 12.8033 33.9804 12.8713 34.1049L11.1155 35.0627ZM10.9923 33.9377C10.8872 34.306 10.9232 34.7103 11.1155 35.0627L12.8713 34.1049C12.9394 34.2299 12.9492 34.3688 12.9155 34.4868L10.9923 33.9377ZM11.6095 31.8408L10.9946 33.9299L12.9132 34.4946L13.5281 32.4055L11.6095 31.8408ZM13.4342 30.8312C12.6465 30.6077 11.8376 31.0649 11.6094 31.8411L13.5282 32.4052C13.4505 32.6695 13.1681 32.8347 12.8882 32.7553L13.4342 30.8312ZM19.6352 32.5984L13.4352 30.8315L12.8871 32.755L19.087 34.5218L19.6352 32.5984ZM24.9606 30.638L19.0446 32.6115L19.6775 34.5087L25.5935 32.5352L24.9606 30.638ZM26.8276 31.5613C26.5649 30.8012 25.7387 30.3785 24.9606 30.638L25.5934 32.5352C25.3155 32.6279 25.0271 32.4744 24.9374 32.2147L26.8276 31.5613ZM27.5371 33.6234L26.8281 31.5627L24.9369 32.2133L25.6459 34.274L27.5371 33.6234ZM13.9738 34.2985L14.3161 33.1402L12.3981 32.5734L12.0558 33.7317L13.9738 34.2985ZM15.9748 33.8193L13.2891 33.0534L12.7406 34.9767L15.4263 35.7426L15.9748 33.8193ZM17.4157 33.1555L15.3844 33.8322L16.0166 35.7297L18.0479 35.0529L17.4157 33.1555ZM13.0829 33.8184L17.4576 35.0658L18.006 33.1425L13.6313 31.8951L13.0829 33.8184ZM26.1032 37.8928L26.4455 36.7345L24.5275 36.1677L24.1852 37.326L26.1032 37.8928ZM20.5704 37.3445L24.8699 38.571L25.4186 36.6477L21.1191 35.4212L20.5704 37.3445ZM22.5599 34.7573L20.5286 35.4341L21.1608 37.3316L23.1921 36.6548L22.5599 34.7573ZM25.761 35.4895L23.1504 34.7444L22.6016 36.6677L25.2121 37.4127L25.761 35.4895ZM14.6862 37.4056L14.2932 36.2625L12.4019 36.9127L12.7949 38.0559L14.6862 37.4056ZM25.2055 32.854L13.4243 36.7821L14.0569 38.6794L25.8381 34.7514L25.2055 32.854ZM24.1832 32.9847L24.5762 34.1278L26.4675 33.4776L26.0745 32.3344L24.1832 32.9847ZM13.6638 37.5363L25.4451 33.6082L24.8125 31.7109L13.0313 35.6389L13.6638 37.5363Z" fill="white" mask="url(#path-11-inside-6_2783_153)"/>
</svg>
