<svg width="50" height="32" viewBox="0 0 50 32" fill="none" xmlns="http://www.w3.org/2000/svg">
<mask id="path-1-inside-1_2783_130" fill="white">
<path fill-rule="evenodd" clip-rule="evenodd" d="M48.4923 21.0307V23.7772L48.4919 23.7773C49.0621 23.8933 49.4917 24.3939 49.4917 24.9892V25.9768C49.4917 26.576 49.0621 27.0746 48.4919 27.1906V27.2157H41.9285C41.5653 29.4558 39.6066 31.1741 37.2437 31.1741C34.8809 31.1741 32.9222 29.4558 32.561 27.2157H15.1829C14.8197 29.4558 12.8611 31.1741 10.4982 31.1741C8.1353 31.1741 6.17472 29.4539 5.81345 27.2157H1.99966L1.25173 27.2177C0.560454 27.2177 0 26.661 0 25.9788V24.9911C0 24.3069 0.562403 23.7522 1.25173 23.7522H1.99966V12.6214C1.99966 9.20998 4.80392 6.4345 8.25058 6.4345L14.0191 6.43063V4.45725C7.93464 3.88325 2.77907 2.81054 1.21879 1.26624C0.98641 1.03819 0.93173 0.686411 1.08405 0.398428C1.23637 0.112374 1.55665 -0.0461128 1.88081 0.0118719C6.85646 0.893205 14.5936 1.0111 21.5024 1.0111C22.9709 1.0111 24.4141 1.00724 25.8006 1.00144C26.1534 1.00038 26.5026 0.999175 26.8477 0.997984L26.8478 0.997983C27.7613 0.994831 28.6463 0.991776 29.4952 0.991776L35.9316 0.993709H35.9336C40.2903 0.993709 42.9734 0.964714 46.4533 0.796564C46.7969 0.783007 47.1152 1.00335 47.2109 1.33386C47.3066 1.66438 47.1602 2.01809 46.8575 2.18624C46.3556 2.46456 45.7307 2.72354 44.9906 2.96321V4.465C44.9906 5.13376 44.6313 5.71164 44.0279 6.01315C43.772 6.14071 43.5026 6.2045 43.235 6.2045C42.8719 6.2045 42.5106 6.08853 42.1981 5.85853L39.7786 4.08233C36.6972 4.52688 32.8815 4.80907 28.4956 4.90957V6.43645L33.7427 6.43451C37.0861 6.43451 40.1695 7.54201 42.6456 9.40326L42.8507 9.56175C44.9226 11.1755 46.5473 13.3267 47.51 15.8026L47.5159 15.8142L47.5296 15.847C47.5432 15.8855 47.558 15.9229 47.5727 15.96L47.5728 15.9602C47.5854 15.992 47.5979 16.0237 47.6096 16.0557L47.9084 16.8231H47.8654C48.2716 18.1567 48.4923 19.5696 48.4923 21.0307ZM34.7448 15.3406H45.6744H45.6746C44.8349 13.6262 43.6242 12.1051 42.1225 10.8875H34.7448C34.61 10.8875 34.4948 11.0015 34.4948 11.1348V15.0932C34.4948 15.2265 34.61 15.3406 34.7448 15.3406ZM43.4934 4.46496C43.4934 4.56739 43.4485 4.64084 43.3548 4.68723C43.261 4.73361 43.177 4.72588 43.093 4.66403L41.8352 3.74209C42.4251 3.62999 42.9778 3.51015 43.4934 3.38452L43.4934 4.46496ZM24.8371 2.49064L24.8369 2.49064C23.7507 2.49399 22.6359 2.49742 21.5049 2.49742L21.5054 2.49737C17.0666 2.49737 12.2861 2.44712 8.08566 2.17847C12.12 2.93228 17.922 3.46572 24.7468 3.46572C31.0187 3.46572 36.5044 3.10239 40.4861 2.46263C39.1289 2.47809 37.6623 2.48389 35.9361 2.48389H35.9341L29.4957 2.47809C28.328 2.47809 27.0918 2.48195 25.8069 2.48775L24.8371 2.49064ZM15.5194 4.59058C18.5287 4.82831 21.7039 4.95007 24.7464 4.95007C25.5099 4.95007 26.2597 4.94427 26.996 4.93461V6.43442H15.5194V4.59058ZM7.24938 26.4738C7.24938 28.2481 8.70618 29.69 10.4988 29.69C12.2915 29.69 13.7483 28.2481 13.7483 26.4738C13.7483 24.6996 12.2915 23.2577 10.4988 23.2577C8.70618 23.2577 7.24938 24.6996 7.24938 26.4738ZM37.2442 29.69C35.4515 29.69 33.9948 28.2481 33.9948 26.4738C33.9948 24.6996 35.4515 23.2577 37.2442 23.2577C39.0368 23.2577 40.4936 24.6996 40.4936 26.4738C40.4936 28.2481 39.0368 29.69 37.2442 29.69ZM37.2442 21.7732C39.6071 21.7732 41.5677 23.4915 41.9289 25.7316H47.9923V25.2368H43.4931V23.7524H46.9925V21.033C46.9925 19.5602 46.7425 18.1474 46.2895 16.8253H34.7445C33.7798 16.8253 32.9948 16.0483 32.9948 15.0935V11.1352C32.9948 10.1804 33.7798 9.40344 34.7445 9.40344H39.8551C38.0251 8.45829 35.9454 7.91907 33.7427 7.91907H8.25104C5.63039 7.91907 3.4999 10.0297 3.4999 12.6215V15.3409H11.0336V16.8253H3.4999V23.7524H4.49973V25.2368H1.50025V25.7316H5.81395C6.17719 23.4915 8.13581 21.7732 10.4987 21.7732C12.8616 21.7732 14.8222 23.4915 15.1834 25.7316H32.5595C32.9227 23.4915 34.8813 21.7732 37.2442 21.7732Z"/>
</mask>
<path d="M48.4923 23.7772L48.7152 24.5455L49.2923 24.3781V23.7772H48.4923ZM48.4919 23.7773L48.2689 23.009L48.3324 24.5613L48.4919 23.7773ZM48.4919 27.1906L48.3324 26.4067L47.6919 26.5369V27.1906H48.4919ZM48.4919 27.2157V28.0157H49.2919V27.2157H48.4919ZM41.9285 27.2157V26.4157H41.2478L41.1388 27.0877L41.9285 27.2157ZM32.561 27.2157L33.3507 27.0884L33.2423 26.4157H32.561V27.2157ZM15.1829 27.2157V26.4157H14.5022L14.3933 27.0877L15.1829 27.2157ZM5.81345 27.2157L6.60323 27.0883L6.49467 26.4157H5.81345V27.2157ZM1.99966 27.2157L1.99966 26.4157L1.99759 26.4157L1.99966 27.2157ZM1.25173 27.2177L1.25173 28.0177L1.2538 28.0177L1.25173 27.2177ZM1.99966 23.7522V24.5522H2.79966V23.7522H1.99966ZM8.25058 6.4345L8.25058 7.2345L8.25112 7.2345L8.25058 6.4345ZM14.0191 6.43063L14.0196 7.23063L14.8191 7.2301V6.43063H14.0191ZM14.0191 4.45725H14.8191V3.72917L14.0942 3.66079L14.0191 4.45725ZM1.21879 1.26624L1.78156 0.697647L1.77913 0.695262L1.21879 1.26624ZM1.08405 0.398428L0.377919 0.0224137L0.376873 0.0243921L1.08405 0.398428ZM1.88081 0.0118719L1.73995 0.799374L1.74128 0.79961L1.88081 0.0118719ZM25.8006 1.00144L25.7981 0.201443L25.7972 0.201447L25.8006 1.00144ZM26.8477 0.997984L26.8459 0.197985L26.8449 0.197988L26.8477 0.997984ZM26.8478 0.997983L26.8495 1.79798L26.8505 1.79798L26.8478 0.997983ZM29.4952 0.991776L29.4955 0.191776H29.4952V0.991776ZM35.9316 0.993709L35.9314 1.79371H35.9316V0.993709ZM46.4533 0.796564L46.4217 -0.00284573L46.4146 -0.00250375L46.4533 0.796564ZM47.2109 1.33386L47.9794 1.11139L47.9794 1.11138L47.2109 1.33386ZM46.8575 2.18624L47.2455 2.88585L47.246 2.88557L46.8575 2.18624ZM44.9906 2.96321L44.7441 2.20212L44.1906 2.38137V2.96321H44.9906ZM44.0279 6.01315L44.3849 6.72908L44.3855 6.72878L44.0279 6.01315ZM42.1981 5.85853L42.6724 5.21426L42.6715 5.21365L42.1981 5.85853ZM39.7786 4.08233L40.2521 3.43745L39.9883 3.2438L39.6644 3.29052L39.7786 4.08233ZM28.4956 4.90957L28.4772 4.10978L27.6956 4.12769V4.90957H28.4956ZM28.4956 6.43645H27.6956V7.23674L28.4959 7.23645L28.4956 6.43645ZM33.7427 6.43451L33.7427 5.63451L33.7424 5.63451L33.7427 6.43451ZM42.6456 9.40326L43.1349 8.77025L43.1263 8.76378L42.6456 9.40326ZM42.8507 9.56175L43.3423 8.9306L43.3399 8.92879L42.8507 9.56175ZM47.51 15.8026L46.7644 16.0925L46.7785 16.1287L46.796 16.1633L47.51 15.8026ZM47.5159 15.8142L48.2545 15.5068L48.2432 15.4797L48.2299 15.4534L47.5159 15.8142ZM47.5296 15.847L48.2835 15.5794L48.2764 15.5594L48.2682 15.5397L47.5296 15.847ZM47.5727 15.96L46.8289 16.2545L46.8299 16.2571L47.5727 15.96ZM47.5728 15.9602L48.3167 15.6658L48.3156 15.6631L47.5728 15.9602ZM47.6096 16.0557L46.8581 16.33L46.861 16.338L46.8642 16.346L47.6096 16.0557ZM47.9084 16.8231V17.6231H49.0784L48.6539 16.5328L47.9084 16.8231ZM47.8654 16.8231V16.0231H46.7855L47.1002 17.0562L47.8654 16.8231ZM45.6746 15.3406V16.1406H46.9573L46.3931 14.9887L45.6746 15.3406ZM42.1225 10.8875L42.6264 10.2661L42.4061 10.0875H42.1225V10.8875ZM43.3548 4.68723L43 3.9702L43 3.9702L43.3548 4.68723ZM43.4934 4.46496L42.6934 4.46495V4.46496H43.4934ZM43.093 4.66403L43.5674 4.01986L43.566 4.0188L43.093 4.66403ZM41.8352 3.74209L41.6859 2.95615L39.8784 3.29966L41.3623 4.38732L41.8352 3.74209ZM43.4934 3.38452L44.2934 3.38453L44.2934 2.36618L43.304 2.60726L43.4934 3.38452ZM24.8369 2.49064L24.8394 3.29064L24.8398 3.29064L24.8369 2.49064ZM24.8371 2.49064L24.8347 1.69065L24.8343 1.69065L24.8371 2.49064ZM21.5049 2.49742L21.4325 1.7007L21.5049 3.29742V2.49742ZM21.5054 2.49737L21.5777 3.29409L21.5054 1.69737V2.49737ZM8.08566 2.17847L8.13673 1.3801L7.93872 2.96486L8.08566 2.17847ZM40.4861 2.46263L40.613 3.25249L40.477 1.66268L40.4861 2.46263ZM35.9341 2.48389L35.9334 3.28389H35.9341V2.48389ZM29.4957 2.47809L29.4964 1.67809H29.4957V2.47809ZM25.8069 2.48775L25.8093 3.28775L25.8105 3.28774L25.8069 2.48775ZM15.5194 4.59058L15.5824 3.79306L14.7194 3.72488V4.59058H15.5194ZM26.996 4.93461H27.796V4.12404L26.9855 4.13468L26.996 4.93461ZM26.996 6.43442V7.23442H27.796V6.43442H26.996ZM15.5194 6.43442H14.7194V7.23442H15.5194V6.43442ZM41.9289 25.7316L41.1392 25.8589L41.2476 26.5316H41.9289V25.7316ZM47.9923 25.7316V26.5316H48.7923V25.7316H47.9923ZM47.9923 25.2368H48.7923V24.4368H47.9923V25.2368ZM43.4931 25.2368H42.6931V26.0368H43.4931V25.2368ZM43.4931 23.7524V22.9524H42.6931V23.7524H43.4931ZM46.9925 23.7524V24.5524H47.7925V23.7524H46.9925ZM46.2895 16.8253L47.0463 16.566L46.861 16.0253H46.2895V16.8253ZM39.8551 9.40344V10.2034L40.2222 8.69265L39.8551 9.40344ZM3.4999 15.3409H2.6999V16.1409H3.4999V15.3409ZM11.0336 15.3409H11.8336V14.5409H11.0336V15.3409ZM11.0336 16.8253V17.6253H11.8336V16.8253H11.0336ZM3.4999 16.8253V16.0253H2.6999V16.8253H3.4999ZM3.4999 23.7524H2.6999V24.5524H3.4999V23.7524ZM4.49973 23.7524H5.29973V22.9524H4.49973V23.7524ZM4.49973 25.2368V26.0368H5.29973V25.2368H4.49973ZM1.50025 25.2368V24.4368H0.700246V25.2368H1.50025ZM1.50025 25.7316H0.700246V26.5316H1.50025V25.7316ZM5.81395 25.7316V26.5316H6.49468L6.60364 25.8596L5.81395 25.7316ZM15.1834 25.7316L14.3936 25.8589L14.5021 26.5316H15.1834V25.7316ZM32.5595 25.7316V26.5316H33.2402L33.3491 25.8596L32.5595 25.7316ZM49.2923 23.7772V21.0307H47.6923V23.7772H49.2923ZM48.7148 24.5457L48.7152 24.5455L48.2693 23.0089L48.2689 23.009L48.7148 24.5457ZM50.2917 24.9892C50.2917 23.9992 49.58 23.1823 48.6513 22.9934L48.3324 24.5613C48.5442 24.6044 48.6917 24.7886 48.6917 24.9892H50.2917ZM50.2917 25.9768V24.9892H48.6917V25.9768H50.2917ZM48.6513 27.9746C49.58 27.7857 50.2917 26.9707 50.2917 25.9768H48.6917C48.6917 26.1813 48.5441 26.3636 48.3324 26.4067L48.6513 27.9746ZM49.2919 27.2157V27.1906H47.6919V27.2157H49.2919ZM41.9285 28.0157H48.4919V26.4157H41.9285V28.0157ZM37.2437 31.9741C40.0019 31.9741 42.2926 29.9683 42.7182 27.3438L41.1388 27.0877C40.8379 28.9433 39.2113 30.3741 37.2437 30.3741V31.9741ZM31.7712 27.3431C32.1945 29.9684 34.4857 31.9741 37.2437 31.9741V30.3741C35.276 30.3741 33.6499 28.9433 33.3507 27.0884L31.7712 27.3431ZM15.1829 28.0157H32.561V26.4157H15.1829V28.0157ZM10.4982 31.9741C13.2564 31.9741 15.547 29.9683 15.9726 27.3438L14.3933 27.0877C14.0924 28.9433 12.4658 30.3741 10.4982 30.3741V31.9741ZM5.02367 27.3432C5.44712 29.9666 7.74026 31.9741 10.4982 31.9741V30.3741C8.53034 30.3741 6.90232 28.9412 6.60323 27.0883L5.02367 27.3432ZM1.99966 28.0157H5.81345V26.4157H1.99966V28.0157ZM1.2538 28.0177L2.00172 28.0157L1.99759 26.4157L1.24967 26.4177L1.2538 28.0177ZM-0.8 25.9788C-0.8 27.1098 0.125599 28.0177 1.25173 28.0177V26.4177C0.995308 26.4177 0.8 26.2123 0.8 25.9788H-0.8ZM-0.8 24.9911V25.9788H0.8V24.9911H-0.8ZM1.25173 22.9522C0.129179 22.9522 -0.8 23.8565 -0.8 24.9911H0.8C0.8 24.7573 0.995627 24.5522 1.25173 24.5522V22.9522ZM1.99966 22.9522H1.25173V24.5522H1.99966V22.9522ZM1.19966 12.6214V23.7522H2.79966V12.6214H1.19966ZM8.25058 5.6345C4.36989 5.6345 1.19966 8.7604 1.19966 12.6214H2.79966C2.79966 9.65956 5.23796 7.2345 8.25058 7.2345V5.6345ZM14.0186 5.63063L8.25005 5.6345L8.25112 7.2345L14.0196 7.23063L14.0186 5.63063ZM13.2191 4.45725V6.43063H14.8191V4.45725H13.2191ZM0.656026 1.83483C1.15518 2.32888 1.88209 2.73353 2.71829 3.07595C3.56728 3.42361 4.59106 3.73172 5.73755 4.00396C8.03128 4.54862 10.8813 4.96478 13.944 5.25372L14.0942 3.66079C11.0725 3.37572 8.30244 2.96852 6.1072 2.44725C5.00921 2.18653 4.07126 1.90103 3.32462 1.59528C2.56519 1.2843 2.06254 0.975758 1.78156 0.697652L0.656026 1.83483ZM0.376873 0.0243921C0.059142 0.625115 0.173445 1.36126 0.65845 1.83722L1.77913 0.695262C1.79938 0.71513 1.80432 0.747708 1.79122 0.772464L0.376873 0.0243921ZM2.02168 -0.775629C1.35359 -0.895132 0.692342 -0.568043 0.377922 0.0224152L1.79018 0.774441C1.7804 0.792791 1.7597 0.802906 1.73995 0.799373L2.02168 -0.775629ZM21.5024 0.211104C14.5769 0.211104 6.91371 0.0908935 2.02034 -0.775866L1.74128 0.79961C6.7992 1.69552 14.6104 1.8111 21.5024 1.8111V0.211104ZM25.7972 0.201447C24.4116 0.207242 22.9696 0.211104 21.5024 0.211104V1.8111C22.9723 1.8111 24.4166 1.80723 25.8039 1.80143L25.7972 0.201447ZM26.8449 0.197988C26.4998 0.19918 26.1508 0.200384 25.7981 0.201443L25.803 1.80144C26.156 1.80038 26.5054 1.79917 26.8504 1.79798L26.8449 0.197988ZM26.846 0.197985L26.8459 0.197986L26.8495 1.79798L26.8495 1.79798L26.846 0.197985ZM29.4952 0.191776C28.6446 0.191776 27.7582 0.194836 26.845 0.197988L26.8505 1.79798C27.7643 1.79482 28.6479 1.79178 29.4952 1.79178V0.191776ZM35.9319 0.193709L29.4955 0.191776L29.495 1.79178L35.9314 1.79371L35.9319 0.193709ZM35.9336 0.193709H35.9316V1.79371H35.9336V0.193709ZM46.4146 -0.00250375C42.954 0.164716 40.286 0.193709 35.9336 0.193709V1.79371C40.2946 1.79371 42.9928 1.76471 46.4919 1.59563L46.4146 -0.00250375ZM47.9794 1.11138C47.7772 0.412955 47.1176 -0.0302656 46.4217 -0.00281438L46.4848 1.59594C46.476 1.59629 46.4694 1.59374 46.4645 1.5903C46.4589 1.58636 46.4481 1.57563 46.4425 1.55634L47.9794 1.11138ZM47.246 2.88557C47.8723 2.5376 48.1795 1.80277 47.9794 1.11139L46.4425 1.55633C46.4337 1.52599 46.448 1.49857 46.469 1.4869L47.246 2.88557ZM45.237 3.7243C46.0089 3.47437 46.685 3.1967 47.2455 2.88585L46.4695 1.48662C46.0263 1.73242 45.4526 1.97271 44.7441 2.20212L45.237 3.7243ZM45.7906 4.465V2.96321H44.1906V4.465H45.7906ZM44.3855 6.72878C45.257 6.29327 45.7906 5.44014 45.7906 4.465H44.1906C44.1906 4.82737 44.0055 5.13001 43.6703 5.29752L44.3855 6.72878ZM43.235 7.0045C43.6313 7.0045 44.0225 6.90975 44.3849 6.72908L43.6708 5.29723C43.5216 5.37168 43.3739 5.4045 43.235 5.4045V7.0045ZM41.7239 6.5028C42.1721 6.83275 42.6992 7.0045 43.235 7.0045V5.4045C43.0445 5.4045 42.849 5.3443 42.6724 5.21426L41.7239 6.5028ZM39.3052 4.72721L41.7247 6.50341L42.6715 5.21365L40.2521 3.43745L39.3052 4.72721ZM28.5139 5.70936C32.9207 5.60838 36.7701 5.32463 39.8929 4.87413L39.6644 3.29052C36.6242 3.72912 32.8424 4.00975 28.4772 4.10978L28.5139 5.70936ZM29.2956 6.43645V4.90957H27.6956V6.43645H29.2956ZM33.7424 5.63451L28.4953 5.63645L28.4959 7.23645L33.743 7.23451L33.7424 5.63451ZM43.1263 8.76378C40.5166 6.8021 37.2656 5.63451 33.7427 5.63451V7.23451C36.9066 7.23451 39.8224 8.28192 42.165 10.0427L43.1263 8.76378ZM43.3399 8.92879L43.1349 8.77031L42.1564 10.0362L42.3614 10.1947L43.3399 8.92879ZM48.2557 15.5126C47.2395 12.8993 45.5256 10.6311 43.3423 8.9306L42.3591 10.1929C44.3195 11.7198 45.8551 13.754 46.7644 16.0925L48.2557 15.5126ZM48.2299 15.4534L48.2241 15.4418L46.796 16.1633L46.8019 16.1749L48.2299 15.4534ZM48.2682 15.5397L48.2545 15.5068L46.7773 16.1215L46.791 16.1543L48.2682 15.5397ZM48.3165 15.6655C48.301 15.6263 48.2916 15.6022 48.2835 15.5794L46.7756 16.1146C46.7949 16.1688 46.815 16.2194 46.8289 16.2545L48.3165 15.6655ZM48.3156 15.6631L48.3155 15.6629L46.8299 16.2571L46.83 16.2573L48.3156 15.6631ZM48.3612 15.7815C48.3451 15.7376 48.3286 15.696 48.3166 15.6658L46.829 16.2547C46.8422 16.2881 46.8507 16.3098 46.8581 16.33L48.3612 15.7815ZM48.6539 16.5328L48.3551 15.7655L46.8642 16.346L47.1629 17.1133L48.6539 16.5328ZM47.8654 17.6231H47.9084V16.0231H47.8654V17.6231ZM49.2923 21.0307C49.2923 19.4886 49.0593 17.9972 48.6307 16.59L47.1002 17.0562C47.4839 18.3161 47.6923 19.6505 47.6923 21.0307H49.2923ZM45.6744 14.5406H34.7448V16.1406H45.6744V14.5406ZM45.6746 14.5406H45.6744V16.1406H45.6746V14.5406ZM41.6187 11.5088C43.0306 12.6537 44.1679 14.083 44.9562 15.6925L46.3931 14.9887C45.502 13.1694 44.2178 11.5565 42.6264 10.2661L41.6187 11.5088ZM34.7448 11.6875H42.1225V10.0875H34.7448V11.6875ZM35.2948 11.1348C35.2948 11.4511 35.0441 11.6875 34.7448 11.6875V10.0875C34.176 10.0875 33.6948 10.5519 33.6948 11.1348H35.2948ZM35.2948 15.0932V11.1348H33.6948V15.0932H35.2948ZM34.7448 14.5406C35.0441 14.5406 35.2948 14.777 35.2948 15.0932H33.6948C33.6948 15.6761 34.176 16.1406 34.7448 16.1406V14.5406ZM43.7095 5.40426C43.8637 5.32798 44.0231 5.20565 44.1389 5.01908C44.2547 4.83249 44.2934 4.63579 44.2934 4.46496H42.6934C42.6934 4.39656 42.7096 4.2878 42.7796 4.17514C42.8495 4.0625 42.9396 4.00009 43 3.9702L43.7095 5.40426ZM42.6186 5.3082C42.7521 5.4065 42.9304 5.49349 43.149 5.51304C43.3678 5.53261 43.5595 5.47852 43.7095 5.40425L43 3.9702C43.0563 3.94232 43.1591 3.90755 43.2915 3.9194C43.4236 3.93122 43.5179 3.98342 43.5674 4.01986L42.6186 5.3082ZM41.3623 4.38732L42.6201 5.30927L43.566 4.0188L42.3082 3.09686L41.3623 4.38732ZM43.304 2.60726C42.8025 2.72948 42.2631 2.84645 41.6859 2.95615L41.9846 4.52802C42.5871 4.41352 43.1532 4.29083 43.6828 4.16178L43.304 2.60726ZM44.2934 4.46496L44.2934 3.38453L42.6934 3.38452L42.6934 4.46495L44.2934 4.46496ZM24.8398 3.29064L24.84 3.29064L24.8343 1.69065L24.8341 1.69065L24.8398 3.29064ZM21.5049 3.29742C22.6373 3.29742 23.7533 3.29398 24.8394 3.29064L24.8345 1.69065C23.7481 1.69399 22.6345 1.69742 21.5049 1.69742V3.29742ZM21.433 1.70066L21.4325 1.7007L21.5773 3.29413L21.5777 3.29409L21.433 1.70066ZM8.0346 2.97684C12.2622 3.24723 17.0643 3.29737 21.5054 3.29737V1.69737C17.0689 1.69737 12.31 1.64702 8.13673 1.3801L8.0346 2.97684ZM24.7468 2.66572C17.9582 2.66572 12.2071 2.13472 8.2326 1.39208L7.93872 2.96486C12.0328 3.72985 17.8857 4.26572 24.7468 4.26572V2.66572ZM40.3592 1.67276C36.4341 2.30342 30.9942 2.66572 24.7468 2.66572V4.26572C31.0432 4.26572 36.5746 3.90136 40.613 3.25249L40.3592 1.67276ZM35.9361 3.28389C37.664 3.28389 39.1338 3.27808 40.4952 3.26257L40.477 1.66268C39.1239 1.67809 37.6607 1.68389 35.9361 1.68389V3.28389ZM35.9341 3.28389H35.9361V1.68389H35.9341V3.28389ZM29.495 3.27809L35.9334 3.28389L35.9348 1.68389L29.4964 1.67809L29.495 3.27809ZM25.8105 3.28774C27.0948 3.28195 28.3297 3.27809 29.4957 3.27809V1.67809C28.3263 1.67809 27.0889 1.68196 25.8033 1.68776L25.8105 3.28774ZM24.8395 3.29064L25.8093 3.28775L25.8045 1.68776L24.8347 1.69065L24.8395 3.29064ZM24.7464 4.15007C21.7242 4.15007 18.5701 4.02908 15.5824 3.79306L15.4564 5.38809C18.4873 5.62753 21.6835 5.75007 24.7464 5.75007V4.15007ZM26.9855 4.13468C26.2522 4.1443 25.5058 4.15007 24.7464 4.15007V5.75007C25.5139 5.75007 26.2673 5.74424 27.0065 5.73454L26.9855 4.13468ZM27.796 6.43442V4.93461H26.196V6.43442H27.796ZM15.5194 7.23442H26.996V5.63442H15.5194V7.23442ZM14.7194 4.59058V6.43442H16.3194V4.59058H14.7194ZM10.4988 28.89C9.14022 28.89 8.04938 27.7985 8.04938 26.4738H6.44938C6.44938 28.6977 8.27214 30.49 10.4988 30.49V28.89ZM12.9483 26.4738C12.9483 27.7985 11.8574 28.89 10.4988 28.89V30.49C12.7255 30.49 14.5483 28.6977 14.5483 26.4738H12.9483ZM10.4988 24.0577C11.8574 24.0577 12.9483 25.1491 12.9483 26.4738H14.5483C14.5483 24.25 12.7255 22.4577 10.4988 22.4577V24.0577ZM8.04938 26.4738C8.04938 25.1491 9.14022 24.0577 10.4988 24.0577V22.4577C8.27214 22.4577 6.44938 24.25 6.44938 26.4738H8.04938ZM33.1948 26.4738C33.1948 28.6977 35.0175 30.49 37.2442 30.49V28.89C35.8856 28.89 34.7948 27.7985 34.7948 26.4738H33.1948ZM37.2442 22.4577C35.0175 22.4577 33.1948 24.25 33.1948 26.4738H34.7948C34.7948 25.1491 35.8856 24.0577 37.2442 24.0577V22.4577ZM41.2936 26.4738C41.2936 24.25 39.4709 22.4577 37.2442 22.4577V24.0577C38.6028 24.0577 39.6936 25.1491 39.6936 26.4738H41.2936ZM37.2442 30.49C39.4709 30.49 41.2936 28.6977 41.2936 26.4738H39.6936C39.6936 27.7985 38.6028 28.89 37.2442 28.89V30.49ZM42.7187 25.6042C42.2953 22.9785 40.0018 20.9732 37.2442 20.9732V22.5732C39.2123 22.5732 40.8401 24.0045 41.1392 25.8589L42.7187 25.6042ZM47.9923 24.9316H41.9289V26.5316H47.9923V24.9316ZM47.1923 25.2368V25.7316H48.7923V25.2368H47.1923ZM43.4931 26.0368H47.9923V24.4368H43.4931V26.0368ZM42.6931 23.7524V25.2368H44.2931V23.7524H42.6931ZM46.9925 22.9524H43.4931V24.5524H46.9925V22.9524ZM46.1925 21.033V23.7524H47.7925V21.033H46.1925ZM45.5327 17.0847C45.9582 18.3262 46.1925 19.6515 46.1925 21.033H47.7925C47.7925 19.4689 47.5269 17.9685 47.0463 16.566L45.5327 17.0847ZM34.7445 17.6253H46.2895V16.0253H34.7445V17.6253ZM32.1948 15.0935C32.1948 16.4979 33.3458 17.6253 34.7445 17.6253V16.0253C34.2138 16.0253 33.7948 15.5988 33.7948 15.0935H32.1948ZM32.1948 11.1352V15.0935H33.7948V11.1352H32.1948ZM34.7445 8.60344C33.3458 8.60344 32.1948 9.73084 32.1948 11.1352H33.7948C33.7948 10.63 34.2138 10.2034 34.7445 10.2034V8.60344ZM39.8551 8.60344H34.7445V10.2034H39.8551V8.60344ZM33.7427 8.71907C35.8135 8.71907 37.7678 9.22578 39.488 10.1142L40.2222 8.69265C38.2825 7.69081 36.0772 7.11907 33.7427 7.11907V8.71907ZM8.25104 8.71907H33.7427V7.11907H8.25104V8.71907ZM4.2999 12.6215C4.2999 10.479 6.06464 8.71907 8.25104 8.71907V7.11907C5.19613 7.11907 2.6999 9.58029 2.6999 12.6215H4.2999ZM4.2999 15.3409V12.6215H2.6999V15.3409H4.2999ZM11.0336 14.5409H3.4999V16.1409H11.0336V14.5409ZM11.8336 16.8253V15.3409H10.2336V16.8253H11.8336ZM3.4999 17.6253H11.0336V16.0253H3.4999V17.6253ZM4.2999 23.7524V16.8253H2.6999V23.7524H4.2999ZM4.49973 22.9524H3.4999V24.5524H4.49973V22.9524ZM5.29973 25.2368V23.7524H3.69973V25.2368H5.29973ZM1.50025 26.0368H4.49973V24.4368H1.50025V26.0368ZM2.30025 25.7316V25.2368H0.700246V25.7316H2.30025ZM5.81395 24.9316H1.50025V26.5316H5.81395V24.9316ZM10.4987 20.9732C7.74051 20.9732 5.44985 22.979 5.02427 25.6035L6.60364 25.8596C6.90453 24.004 8.5311 22.5732 10.4987 22.5732V20.9732ZM15.9732 25.6042C15.5498 22.9785 13.2563 20.9732 10.4987 20.9732V22.5732C12.4668 22.5732 14.0946 24.0045 14.3936 25.8589L15.9732 25.6042ZM32.5595 24.9316H15.1834V26.5316H32.5595V24.9316ZM37.2442 20.9732C34.486 20.9732 32.1954 22.979 31.7698 25.6035L33.3491 25.8596C33.65 24.004 35.2766 22.5732 37.2442 22.5732V20.9732Z" fill="white" mask="url(#path-1-inside-1_2783_130)"/>
<mask id="path-3-inside-2_2783_130" fill="white">
<path fill-rule="evenodd" clip-rule="evenodd" d="M22.4967 11.1348V15.0932C22.4967 16.048 21.7117 16.825 20.747 16.825H15.7479C14.7832 16.825 13.9982 16.048 13.9982 15.0932V11.1348C13.9982 10.18 14.7832 9.40308 15.7479 9.40308H20.747C21.7117 9.40308 22.4967 10.18 22.4967 11.1348ZM15.4979 11.1348V15.0932C15.4979 15.2285 15.6131 15.3406 15.7479 15.3406H20.7479C20.8827 15.3406 20.9979 15.2265 20.9979 15.0932V11.1348C20.9979 11.0015 20.8827 10.8875 20.7479 10.8875H15.7479C15.6131 10.8875 15.4979 11.0015 15.4979 11.1348Z"/>
</mask>
<path d="M23.4967 15.0932V11.1348H21.4967V15.0932H23.4967ZM20.747 17.825C22.2542 17.825 23.4967 16.6099 23.4967 15.0932H21.4967C21.4967 15.486 21.1691 15.825 20.747 15.825V17.825ZM15.7479 17.825H20.747V15.825H15.7479V17.825ZM12.9982 15.0932C12.9982 16.6099 14.2406 17.825 15.7479 17.825V15.825C15.3257 15.825 14.9982 15.486 14.9982 15.0932H12.9982ZM12.9982 11.1348V15.0932H14.9982V11.1348H12.9982ZM15.7479 8.40308C14.2406 8.40308 12.9982 9.61808 12.9982 11.1348H14.9982C14.9982 10.742 15.3257 10.4031 15.7479 10.4031V8.40308ZM20.747 8.40308H15.7479V10.4031H20.747V8.40308ZM23.4967 11.1348C23.4967 9.61808 22.2542 8.40308 20.747 8.40308V10.4031C21.1691 10.4031 21.4967 10.742 21.4967 11.1348H23.4967ZM16.4979 15.0932V11.1348H14.4979V15.0932H16.4979ZM15.7479 14.3406C16.1504 14.3406 16.4979 14.6613 16.4979 15.0932H14.4979C14.4979 15.7956 15.0758 16.3406 15.7479 16.3406V14.3406ZM20.7479 14.3406H15.7479V16.3406H20.7479V14.3406ZM19.9979 15.0932C19.9979 14.6644 20.3403 14.3406 20.7479 14.3406V16.3406C21.4251 16.3406 21.9979 15.7887 21.9979 15.0932H19.9979ZM19.9979 11.1348V15.0932H21.9979V11.1348H19.9979ZM20.7479 11.8875C20.3403 11.8875 19.9979 11.5636 19.9979 11.1348H21.9979C21.9979 10.4394 21.4251 9.88745 20.7479 9.88745V11.8875ZM15.7479 11.8875H20.7479V9.88745H15.7479V11.8875ZM16.4979 11.1348C16.4979 11.5636 16.1555 11.8875 15.7479 11.8875V9.88745C15.0707 9.88745 14.4979 10.4394 14.4979 11.1348H16.4979Z" fill="white" mask="url(#path-3-inside-2_2783_130)"/>
<mask id="path-5-inside-3_2783_130" fill="white">
<path fill-rule="evenodd" clip-rule="evenodd" d="M25.2463 9.40308H30.2454C31.2101 9.40308 31.9951 10.18 31.9951 11.1348V15.0932C31.9951 16.048 31.2101 16.825 30.2454 16.825H25.2463C24.2816 16.825 23.4966 16.048 23.4966 15.0932V11.1348C23.4966 10.18 24.2816 9.40308 25.2463 9.40308ZM30.2463 15.3406C30.3811 15.3406 30.4963 15.2265 30.4963 15.0932V11.1348C30.4963 11.0015 30.3811 10.8875 30.2463 10.8875H25.2463C25.1116 10.8875 24.9963 11.0015 24.9963 11.1348V15.0932C24.9963 15.2265 25.1116 15.3406 25.2463 15.3406H30.2463Z"/>
</mask>
<path d="M30.2454 8.40308H25.2463V10.4031H30.2454V8.40308ZM32.9951 11.1348C32.9951 9.61808 31.7527 8.40308 30.2454 8.40308V10.4031C30.6676 10.4031 30.9951 10.742 30.9951 11.1348H32.9951ZM32.9951 15.0932V11.1348H30.9951V15.0932H32.9951ZM30.2454 17.825C31.7527 17.825 32.9951 16.6099 32.9951 15.0932H30.9951C30.9951 15.486 30.6676 15.825 30.2454 15.825V17.825ZM25.2463 17.825H30.2454V15.825H25.2463V17.825ZM22.4966 15.0932C22.4966 16.6099 23.739 17.825 25.2463 17.825V15.825C24.8241 15.825 24.4966 15.486 24.4966 15.0932H22.4966ZM22.4966 11.1348V15.0932H24.4966V11.1348H22.4966ZM25.2463 8.40308C23.739 8.40308 22.4966 9.61808 22.4966 11.1348H24.4966C24.4966 10.742 24.8241 10.4031 25.2463 10.4031V8.40308ZM29.4963 15.0932C29.4963 14.6644 29.8387 14.3406 30.2463 14.3406V16.3406C30.9235 16.3406 31.4963 15.7887 31.4963 15.0932H29.4963ZM29.4963 11.1348V15.0932H31.4963V11.1348H29.4963ZM30.2463 11.8875C29.8387 11.8875 29.4963 11.5636 29.4963 11.1348H31.4963C31.4963 10.4394 30.9235 9.88745 30.2463 9.88745V11.8875ZM25.2463 11.8875H30.2463V9.88745H25.2463V11.8875ZM25.9963 11.1348C25.9963 11.5636 25.654 11.8875 25.2463 11.8875V9.88745C24.5692 9.88745 23.9963 10.4394 23.9963 11.1348H25.9963ZM25.9963 15.0932V11.1348H23.9963V15.0932H25.9963ZM25.2463 14.3406C25.654 14.3406 25.9963 14.6644 25.9963 15.0932H23.9963C23.9963 15.7887 24.5692 16.3406 25.2463 16.3406V14.3406ZM30.2463 14.3406H25.2463V16.3406H30.2463V14.3406Z" fill="white" mask="url(#path-5-inside-3_2783_130)"/>
<mask id="path-7-inside-4_2783_130" fill="white">
<path fill-rule="evenodd" clip-rule="evenodd" d="M35.2445 26.4733C35.2445 25.3813 36.141 24.4941 37.2445 24.4941C38.348 24.4941 39.2445 25.3832 39.2445 26.4733C39.2445 27.5653 38.348 28.4525 37.2445 28.4525C36.141 28.4525 35.2445 27.5653 35.2445 26.4733ZM36.7442 26.4733C36.7442 26.7458 36.9689 26.9681 37.2442 26.9681C37.5196 26.9681 37.7442 26.7458 37.7442 26.4733C37.7442 26.2008 37.5196 25.9785 37.2442 25.9785C36.9689 25.9785 36.7442 26.2008 36.7442 26.4733Z"/>
</mask>
<path d="M37.2445 23.4941C35.5986 23.4941 34.2445 24.8192 34.2445 26.4733H36.2445C36.2445 25.9434 36.6834 25.4941 37.2445 25.4941V23.4941ZM40.2445 26.4733C40.2445 24.8217 38.891 23.4941 37.2445 23.4941V25.4941C37.805 25.4941 38.2445 25.9447 38.2445 26.4733H40.2445ZM37.2445 29.4525C38.8904 29.4525 40.2445 28.1274 40.2445 26.4733H38.2445C38.2445 27.0032 37.8056 27.4525 37.2445 27.4525V29.4525ZM34.2445 26.4733C34.2445 28.1274 35.5986 29.4525 37.2445 29.4525V27.4525C36.6834 27.4525 36.2445 27.0032 36.2445 26.4733H34.2445ZM37.2442 25.9681C37.5112 25.9681 37.7442 26.1837 37.7442 26.4733H35.7442C35.7442 27.308 36.4265 27.9681 37.2442 27.9681V25.9681ZM36.7442 26.4733C36.7442 26.1837 36.9773 25.9681 37.2442 25.9681V27.9681C38.062 27.9681 38.7442 27.308 38.7442 26.4733H36.7442ZM37.2442 26.9785C36.9773 26.9785 36.7442 26.7629 36.7442 26.4733H38.7442C38.7442 25.6387 38.062 24.9785 37.2442 24.9785V26.9785ZM37.7442 26.4733C37.7442 26.7629 37.5112 26.9785 37.2442 26.9785V24.9785C36.4265 24.9785 35.7442 25.6387 35.7442 26.4733H37.7442Z" fill="white" mask="url(#path-7-inside-4_2783_130)"/>
<mask id="path-9-inside-5_2783_130" fill="white">
<path fill-rule="evenodd" clip-rule="evenodd" d="M8.49915 26.4733C8.49915 25.3813 9.39565 24.4941 10.4991 24.4941C11.6026 24.4941 12.4991 25.3832 12.4991 26.4733C12.4991 27.5653 11.6026 28.4525 10.4991 28.4525C9.39565 28.4525 8.49915 27.5634 8.49915 26.4733ZM9.99888 26.4733C9.99888 26.7458 10.2235 26.9681 10.4989 26.9681C10.7743 26.9681 10.9989 26.7458 10.9989 26.4733C10.9989 26.2008 10.7743 25.9785 10.4989 25.9785C10.2235 25.9785 9.99888 26.2008 9.99888 26.4733Z"/>
</mask>
<path d="M10.4991 23.4941C8.85326 23.4941 7.49915 24.8192 7.49915 26.4733H9.49915C9.49915 25.9434 9.93803 25.4941 10.4991 25.4941V23.4941ZM13.4991 26.4733C13.4991 24.8217 12.1457 23.4941 10.4991 23.4941V25.4941C11.0596 25.4941 11.4991 25.9447 11.4991 26.4733H13.4991ZM10.4991 29.4525C12.145 29.4525 13.4991 28.1274 13.4991 26.4733H11.4991C11.4991 27.0032 11.0603 27.4525 10.4991 27.4525V29.4525ZM7.49915 26.4733C7.49915 28.1249 8.85262 29.4525 10.4991 29.4525V27.4525C9.93867 27.4525 9.49915 27.0019 9.49915 26.4733H7.49915ZM10.4989 25.9681C10.7659 25.9681 10.9989 26.1837 10.9989 26.4733H8.99888C8.99888 27.308 9.6811 27.9681 10.4989 27.9681V25.9681ZM9.99888 26.4733C9.99888 26.1837 10.2319 25.9681 10.4989 25.9681V27.9681C11.3167 27.9681 11.9989 27.308 11.9989 26.4733H9.99888ZM10.4989 26.9785C10.2319 26.9785 9.99888 26.7629 9.99888 26.4733H11.9989C11.9989 25.6387 11.3167 24.9785 10.4989 24.9785V26.9785ZM10.9989 26.4733C10.9989 26.7629 10.7659 26.9785 10.4989 26.9785V24.9785C9.6811 24.9785 8.99888 25.6387 8.99888 26.4733H10.9989Z" fill="white" mask="url(#path-9-inside-5_2783_130)"/>
<path d="M16.4979 24.252H30.9952V24.7363H16.4979V24.252Z" stroke="white"/>
</svg>
