<svg width="31" height="31" viewBox="0 0 31 31" fill="none" xmlns="http://www.w3.org/2000/svg">
<path d="M22.4369 20.7102L22.0636 21.1656L22.48 21.5819L29.9756 29.0775C30.2248 29.3267 30.2248 29.7264 29.9756 29.9756C29.7264 30.2248 29.3267 30.2248 29.0775 29.9756L21.5882 22.4863L21.1719 22.0699L20.7165 22.4432C18.5964 24.181 15.8861 25.2199 12.935 25.2199C6.15048 25.2199 0.65 19.7194 0.65 12.935C0.65 6.15048 6.15048 0.65 12.935 0.65C19.7132 0.65 25.2136 6.15048 25.2136 12.9287C25.2136 15.8859 24.1749 18.59 22.4369 20.7102ZM12.9287 1.9219C6.84737 1.9219 1.91561 6.85366 1.91561 12.935C1.91561 19.0163 6.84737 23.948 12.9287 23.948C19.01 23.948 23.9417 19.0163 23.9417 12.935C23.9417 6.85366 19.01 1.9219 12.9287 1.9219Z" stroke="white" stroke-width="1.3"/>
</svg>
