<svg width="154" height="22" fill="none" xmlns="http://www.w3.org/2000/svg"><path d="M10.954 0l3.196 7.59 7.85.864-5.934 5.476L17.801 22l-6.846-4.227L4.198 22l1.735-8.07L0 8.454l7.85-.864L10.954 0zm33.001 0l3.195 7.59 7.85.864-5.934 5.476L50.801 22l-6.846-4.227L37.199 22l1.735-8.07L33 8.454l7.85-.864L43.955 0zm32.999 0l3.196 7.59 7.85.864-5.934 5.476L83.801 22l-6.847-4.227L70.2 22l1.735-8.07L66 8.454l7.85-.864L76.955 0zm33.001 0l3.195 7.59 7.85.864-5.934 5.476 1.735 8.07-6.847-4.227L103.199 22l1.735-8.07L99 8.454l7.85-.864L109.955 0zm33 0l3.195 7.59 7.85.864-5.934 5.476 1.735 8.07-6.847-4.227L136.199 22l1.735-8.07L132 8.454l7.85-.864L142.955 0z" fill="#4AF6CD"/></svg>