<?xml version="1.0" standalone="no"?>
<!DOCTYPE svg PUBLIC "-//W3C//DTD SVG 20010904//EN"
 "http://www.w3.org/TR/2001/REC-SVG-20010904/DTD/svg10.dtd">
<svg version="1.0" xmlns="http://www.w3.org/2000/svg"
 width="1492.000000pt" height="1492.000000pt" viewBox="0 0 1492.000000 1492.000000"
 preserveAspectRatio="xMidYMid meet">
<metadata>
Created by potrace 1.14, written by Peter Selinger 2001-2017
</metadata>
<g transform="translate(0.000000,1492.000000) scale(0.100000,-0.100000)"
fill="#000000" stroke="none">
<path d="M7389 14894 c-72 -13 -219 -70 -219 -85 0 -5 -6 -9 -14 -9 -26 0
-153 -92 -272 -196 -86 -76 -228 -223 -281 -291 -12 -15 -30 -37 -40 -48 -93
-99 -379 -521 -462 -680 -14 -27 -29 -52 -32 -55 -5 -4 -49 -86 -136 -250 -7
-14 -13 -30 -13 -37 0 -6 -3 -13 -7 -15 -5 -1 -16 -19 -25 -38 -9 -19 -35 -72
-57 -117 -21 -45 -37 -84 -33 -87 3 -3 1 -6 -4 -6 -6 0 -16 -16 -23 -36 -7
-20 -25 -62 -39 -93 -14 -31 -26 -58 -27 -61 -4 -14 -28 -68 -41 -94 -8 -16
-14 -34 -14 -40 0 -6 -6 -22 -13 -36 -8 -14 -18 -39 -25 -55 -6 -17 -20 -55
-32 -85 -57 -146 -166 -461 -175 -505 -3 -11 -9 -29 -15 -40 -5 -11 -18 -51
-29 -90 -11 -38 -29 -101 -41 -140 -12 -38 -23 -77 -25 -85 -2 -8 -11 -42 -20
-75 -22 -83 -20 -74 -60 -230 -20 -77 -38 -151 -41 -164 -3 -12 -12 -53 -20
-90 -21 -90 -20 -84 -43 -195 -31 -146 -56 -272 -66 -336 -3 -19 -12 -71 -21
-115 -8 -44 -17 -93 -19 -110 -3 -16 -12 -77 -21 -135 -9 -58 -17 -116 -19
-130 -2 -14 -6 -45 -10 -70 -12 -90 -15 -111 -21 -162 -3 -29 -8 -64 -11 -78
-2 -14 -5 -32 -5 -40 0 -8 -4 -51 -9 -95 -26 -243 -28 -267 -34 -350 -3 -38
-7 -92 -10 -120 -30 -364 -40 -668 -39 -1215 0 -558 14 -986 40 -1277 3 -34 7
-88 9 -120 2 -32 7 -98 11 -148 4 -49 8 -109 8 -132 1 -24 3 -43 6 -43 3 0 5
-15 6 -32 0 -18 4 -64 8 -103 4 -38 9 -88 11 -110 6 -60 16 -147 20 -175 2
-14 6 -52 10 -85 6 -60 8 -75 21 -170 3 -27 8 -63 9 -80 4 -39 13 -104 19
-135 3 -14 8 -47 11 -75 3 -27 7 -61 10 -75 5 -30 14 -93 21 -140 2 -19 11
-73 19 -120 8 -47 17 -103 20 -125 3 -22 10 -60 15 -85 5 -25 12 -61 14 -80 3
-19 8 -45 10 -56 2 -12 7 -38 10 -58 3 -20 17 -91 31 -159 13 -67 26 -133 29
-147 8 -44 37 -185 40 -195 3 -10 14 -63 20 -95 2 -8 6 -26 9 -40 3 -14 23
-97 42 -185 20 -88 61 -259 92 -379 30 -120 56 -226 58 -235 2 -9 8 -29 15
-46 6 -16 11 -32 11 -35 0 -11 13 -61 64 -240 79 -275 105 -363 112 -380 3 -8
7 -22 9 -30 2 -8 31 -98 65 -200 33 -102 62 -192 64 -200 2 -8 9 -28 16 -45 6
-16 13 -34 15 -40 1 -5 22 -66 47 -135 25 -69 50 -141 57 -160 7 -19 28 -75
47 -125 20 -49 36 -94 37 -100 2 -5 9 -26 18 -45 16 -37 72 -182 73 -190 1 -3
7 -18 14 -35 8 -16 17 -39 21 -50 4 -11 15 -36 23 -55 8 -19 42 -98 75 -175
106 -248 330 -711 356 -738 15 -15 1721 -16 1735 -1 5 5 26 41 46 79 20 39 41
77 46 85 20 32 159 328 159 339 0 6 4 11 10 11 5 0 9 3 8 8 -2 9 22 65 132
314 26 60 42 100 46 113 1 6 21 55 44 110 23 55 58 143 77 195 20 52 40 106
46 120 6 14 11 30 13 35 1 6 14 42 29 80 28 73 133 369 140 395 8 27 36 114
55 165 17 45 86 267 111 355 6 19 12 40 13 45 2 6 4 12 4 15 1 3 10 30 20 60
11 30 20 57 20 60 0 3 3 12 6 20 3 8 10 35 17 60 7 25 14 50 15 55 2 6 6 23 9
39 3 16 11 38 16 48 6 11 8 22 5 25 -3 4 -2 11 3 17 9 11 33 107 30 116 -1 3
3 14 9 26 6 11 13 32 16 45 3 13 7 34 10 46 4 13 8 31 10 40 2 10 14 54 25 98
12 44 24 89 26 100 7 28 10 44 45 190 18 72 34 141 36 154 3 12 12 53 20 90 9
36 18 77 20 91 3 14 7 33 10 42 5 17 10 42 19 91 3 15 12 60 21 100 8 39 18
83 20 97 2 14 7 39 11 55 3 17 7 37 9 45 1 8 7 42 14 75 6 33 13 74 16 90 2
17 7 41 11 55 6 27 7 28 18 105 4 28 9 59 11 70 3 11 7 36 10 55 3 19 7 41 9
48 3 7 7 34 10 60 6 47 10 69 18 107 3 11 8 43 11 70 4 28 9 64 11 80 2 17 6
46 10 65 3 20 7 54 10 75 2 22 4 40 5 40 2 0 4 14 15 105 4 36 9 72 10 80 4
20 13 95 20 155 3 28 7 66 10 85 2 19 7 58 10 85 3 28 8 68 11 90 2 22 6 64 9
94 2 30 7 75 10 99 3 25 8 72 10 106 3 33 7 86 10 116 3 30 7 84 10 120 2 36
7 97 10 135 61 801 65 1747 11 2500 -11 155 -18 232 -22 255 -2 14 -6 59 -9
100 -3 41 -8 86 -10 100 -4 24 -8 61 -20 175 -6 60 -15 130 -20 165 -2 14 -7
45 -10 70 -11 84 -46 325 -52 355 -3 17 -7 39 -8 50 -2 11 -10 61 -19 110 -9
50 -18 104 -21 120 -3 17 -10 50 -15 75 -5 25 -11 59 -14 75 -2 17 -9 50 -15
75 -5 25 -13 60 -16 79 -3 19 -7 37 -9 40 -2 3 -7 24 -10 46 -4 22 -14 67 -22
100 -9 33 -18 71 -20 85 -3 14 -10 43 -16 65 -5 22 -12 47 -14 55 -2 8 -8 33
-14 55 -6 22 -12 49 -14 60 -2 11 -16 63 -30 115 -15 52 -34 120 -42 150 -8
30 -29 100 -46 155 -18 55 -33 105 -34 110 -2 6 -5 19 -8 30 -8 29 -86 266
-95 290 -14 33 -37 95 -72 190 -17 50 -38 104 -45 120 -7 17 -27 66 -44 110
-18 44 -38 94 -45 110 -8 17 -30 68 -50 115 -58 135 -215 459 -272 560 -11 19
-37 67 -58 105 -22 39 -54 93 -72 122 -18 29 -33 57 -33 63 0 5 -4 10 -10 10
-5 0 -10 5 -10 11 0 10 -107 178 -121 189 -3 3 -14 20 -23 38 -9 17 -21 32
-26 32 -6 0 -10 5 -10 11 0 6 -9 23 -21 37 -11 15 -40 54 -65 87 -73 98 -90
119 -177 220 -121 140 -344 346 -414 383 -12 7 -27 18 -35 24 -20 20 -167 95
-219 112 -77 26 -158 33 -230 20z m-146 -8155 c150 -6 457 -2 460 6 2 6 3
1696 3 3758 -1 2061 2 3747 5 3747 9 0 177 -177 229 -240 25 -30 47 -57 50
-60 11 -10 177 -235 191 -259 8 -14 22 -34 32 -45 9 -11 17 -25 17 -32 0 -7 4
-14 9 -16 17 -6 197 -309 282 -476 21 -41 42 -79 48 -85 5 -7 12 -24 16 -40 4
-15 11 -27 15 -27 5 0 12 -9 15 -21 4 -11 29 -69 57 -127 27 -59 56 -120 63
-137 31 -74 44 -104 67 -155 14 -30 35 -82 47 -115 13 -33 29 -73 36 -90 21
-49 97 -258 96 -263 -1 -1 6 -19 15 -40 8 -20 17 -44 19 -52 2 -8 18 -55 35
-105 17 -49 34 -101 36 -114 3 -14 8 -29 12 -35 3 -6 8 -20 9 -31 2 -11 10
-38 18 -60 8 -22 17 -51 19 -65 3 -14 5 -26 7 -27 1 -2 2 -6 4 -10 1 -5 4 -15
8 -23 5 -14 17 -58 23 -87 1 -6 7 -27 13 -45 6 -18 13 -44 15 -58 3 -14 10
-41 15 -60 15 -53 79 -321 85 -352 2 -15 7 -31 10 -36 3 -5 8 -31 12 -58 3
-27 8 -53 11 -57 3 -5 6 -18 8 -30 4 -34 15 -90 21 -108 2 -9 7 -33 9 -54 3
-20 7 -40 9 -44 2 -3 7 -31 11 -61 4 -30 9 -58 11 -61 2 -4 6 -26 9 -50 3 -24
7 -55 10 -69 3 -14 8 -41 11 -60 3 -19 9 -60 14 -90 5 -30 12 -73 15 -95 3
-23 7 -52 10 -65 3 -14 7 -47 10 -75 3 -27 7 -61 9 -75 3 -14 8 -52 11 -85 4
-33 8 -71 10 -85 2 -14 6 -52 9 -85 3 -33 8 -82 12 -110 3 -27 7 -70 9 -95 2
-25 6 -70 9 -100 19 -201 28 -346 43 -675 10 -205 9 -1075 0 -1310 -9 -219
-15 -346 -22 -445 -3 -41 -7 -106 -10 -145 -6 -99 -15 -213 -20 -260 -2 -22
-7 -69 -10 -105 -3 -36 -8 -90 -10 -120 -3 -30 -7 -75 -10 -100 -3 -25 -8 -69
-10 -97 -12 -109 -15 -137 -19 -172 -3 -20 -8 -61 -11 -91 -4 -30 -8 -66 -10
-80 -2 -14 -7 -50 -10 -80 -4 -30 -9 -62 -10 -71 -2 -8 -6 -40 -9 -70 -3 -30
-8 -63 -10 -74 -2 -11 -7 -42 -10 -68 -4 -27 -9 -57 -11 -66 -2 -10 -6 -42
-10 -72 -3 -30 -9 -63 -12 -74 -3 -11 -7 -31 -9 -45 -6 -50 -13 -105 -18 -125
-2 -11 -7 -40 -11 -65 -4 -25 -9 -54 -11 -65 -2 -11 -8 -45 -14 -75 -5 -30
-11 -64 -13 -75 -3 -11 -8 -37 -11 -59 l-7 -39 -26 39 c-15 22 -29 41 -32 44
-3 3 -19 23 -36 45 -16 22 -32 42 -35 45 -3 3 -13 14 -21 26 -31 46 -141 166
-279 304 -145 146 -195 191 -395 359 -11 9 -47 37 -80 61 -33 25 -66 50 -75
57 -33 27 -89 69 -106 81 -11 7 -64 44 -118 82 -55 39 -103 70 -107 70 -4 0
-14 6 -21 13 -11 11 -145 97 -206 132 -311 180 -681 414 -690 437 -2 4 -8 8
-12 8 -12 0 -194 139 -198 151 -2 5 -10 9 -17 9 -7 0 -15 3 -17 8 -1 4 -46 43
-98 87 -210 176 -435 403 -580 584 -19 24 -40 48 -45 55 -28 30 -155 207 -155
216 0 6 -4 10 -8 10 -5 0 -15 12 -23 28 -8 15 -17 29 -20 32 -18 15 -241 406
-245 430 0 3 -13 32 -28 65 -62 135 -140 348 -177 485 -7 25 -14 50 -15 55
-20 73 -50 223 -59 295 -2 14 -7 52 -11 85 -10 73 -10 255 -1 350 4 39 10 99
13 135 3 36 7 77 10 92 2 15 6 55 9 90 3 35 7 72 9 84 2 11 7 47 10 80 4 32 8
73 11 89 6 40 15 102 21 144 2 19 6 46 9 60 2 14 7 44 10 66 3 22 11 66 16 98
6 32 12 74 15 95 2 20 9 60 14 88 6 28 13 64 16 80 5 31 22 123 30 164 3 14
14 63 24 110 10 47 21 99 24 115 3 17 8 39 10 50 7 26 86 356 91 375 2 8 27
94 55 190 27 96 52 183 55 192 33 137 242 714 319 880 14 31 26 59 26 62 0 21
228 485 310 631 95 169 94 167 103 179 4 6 40 63 80 126 39 63 79 124 89 134
10 11 20 28 24 38 3 10 10 18 15 18 5 0 9 5 9 10 0 10 92 135 162 220 55 66
133 153 198 218 l65 65 3 -3757 2 -3756 23 -1z m-1890 739 c15 -29 36 -66 47
-83 11 -16 23 -37 27 -45 3 -8 24 -41 45 -72 21 -31 38 -59 38 -62 0 -3 7 -14
15 -23 8 -10 41 -56 74 -103 33 -47 66 -92 73 -99 7 -8 28 -36 48 -62 79 -105
239 -285 364 -410 164 -165 360 -337 526 -464 36 -27 67 -53 68 -57 2 -4 8 -8
14 -8 5 0 29 -16 52 -35 24 -19 48 -35 54 -35 6 0 12 -4 14 -8 4 -12 105 -82
117 -82 5 0 11 -4 13 -8 6 -16 419 -272 439 -272 5 0 9 -5 9 -11 0 -5 4 -8 9
-5 5 3 14 -1 21 -9 7 -8 19 -15 26 -15 8 0 14 -4 14 -10 0 -5 4 -10 9 -10 28
0 489 -309 600 -402 8 -7 36 -28 62 -48 202 -153 492 -434 651 -631 123 -153
215 -291 283 -424 80 -158 88 -180 74 -207 -7 -13 -12 -25 -11 -28 3 -9 -10
-73 -35 -175 -14 -55 -27 -111 -29 -124 -5 -23 -51 -201 -74 -281 -29 -103
-102 -367 -105 -380 -5 -19 -57 -194 -86 -287 -12 -40 -25 -73 -28 -73 -4 0
-15 17 -26 38 -19 36 -114 182 -125 192 -3 3 -17 21 -30 40 -13 19 -27 37 -30
40 -3 3 -18 23 -35 45 -16 22 -39 49 -50 61 -11 12 -29 33 -40 47 -82 105
-402 400 -503 464 -15 10 -29 20 -32 23 -3 3 -34 26 -70 51 -36 24 -67 46 -70
49 -3 3 -17 11 -32 19 -16 8 -28 18 -28 23 0 4 -4 8 -9 8 -12 0 -275 162 -279
172 -2 4 -8 8 -13 8 -31 0 -405 279 -595 445 -85 74 -176 160 -263 250 -130
133 -165 171 -241 261 -85 101 -109 131 -173 218 -37 50 -74 99 -82 109 -8 9
-15 20 -15 23 0 2 -27 45 -60 93 -33 49 -60 94 -60 100 0 6 -4 11 -10 11 -5 0
-10 5 -10 12 0 6 -6 19 -14 27 -26 31 -184 334 -240 461 -15 36 -34 79 -42 97
-8 17 -14 34 -14 38 0 4 -7 21 -15 38 -62 134 -177 540 -200 707 -3 19 -7 44
-9 55 -2 11 -7 74 -10 140 -4 66 -9 147 -11 180 -4 56 -14 305 -18 478 -1 42
0 77 3 77 3 0 18 -24 33 -52z m298 -2762 c112 -156 187 -253 272 -356 268
-321 633 -655 1002 -917 72 -51 135 -96 141 -100 15 -11 32 -22 192 -120 79
-49 150 -94 157 -100 8 -7 17 -13 20 -13 6 0 154 -98 165 -110 3 -3 32 -25 65
-49 33 -25 62 -47 65 -50 3 -4 30 -26 60 -51 94 -77 271 -261 357 -370 110
-140 117 -149 139 -190 10 -19 22 -37 25 -40 4 -3 31 -51 61 -106 73 -135 146
-317 164 -407 2 -11 -3 -34 -10 -51 -7 -17 -21 -53 -31 -81 -9 -27 -24 -65
-32 -84 -8 -18 -16 -39 -18 -45 -1 -6 -6 -20 -10 -31 -102 -257 -137 -345
-190 -470 -62 -148 -86 -202 -170 -381 l-43 -92 -161 0 c-113 0 -161 4 -162
12 -1 6 -2 384 -3 840 l-1 829 -230 1 c-126 1 -236 0 -242 -2 -10 -3 -13 -180
-13 -842 l0 -837 -163 -1 -163 0 -37 76 c-48 101 -99 214 -103 227 -1 6 -16
42 -34 80 -17 39 -35 79 -39 90 -5 11 -16 36 -24 55 -26 59 -198 494 -202 510
-7 27 -106 295 -115 312 -6 10 -10 27 -10 37 0 11 -4 22 -9 25 -4 3 -11 18
-14 33 -3 16 -10 39 -15 53 -5 14 -11 30 -12 35 -1 6 -13 39 -25 75 -27 77
-132 407 -170 535 -15 50 -32 106 -38 125 -6 19 -12 40 -13 45 -1 6 -7 30 -15
55 -7 25 -14 50 -15 55 -2 6 -15 53 -29 105 -36 130 -125 471 -129 495 -3 17
-44 189 -63 265 -3 14 -7 30 -9 35 -1 6 -4 21 -7 35 -3 14 -17 78 -31 142 -14
64 -27 127 -30 140 -2 13 -7 34 -10 48 -3 14 -8 36 -10 50 -2 14 -11 59 -20
100 -8 41 -17 86 -20 100 -3 14 -10 50 -16 80 -13 68 -20 107 -25 140 -2 14
-9 49 -14 79 -12 58 -14 97 -4 72 3 -8 32 -51 64 -95z"/>
</g>
</svg>
